M48
; DRILL file {KiCad 8.0.2} date 2024-06-03T23:57:49-0400
; FORMAT={-:-/ absolute / inch / decimal}
; #@! TF.CreationDate,2024-06-03T23:57:49-04:00
; #@! TF.GenerationSoftware,Kicad,Pcbnew,8.0.2
; #@! TF.FileFunction,Plated,1,4,PTH
FMAT,2
INCH
; #@! TA.AperFunction,Plated,PTH,ViaDrill
T1C0.0079
; #@! TA.AperFunction,Plated,PTH,ComponentDrill
T2C0.0079
; #@! TA.AperFunction,Plated,PTH,ViaDrill
T3C0.0118
; #@! TA.AperFunction,Plated,PTH,ComponentDrill
T4C0.0118
; #@! TA.AperFunction,Plated,PTH,ViaDrill
T5C0.0236
; #@! TA.AperFunction,Plated,PTH,ComponentDrill
T6C0.0276
; #@! TA.AperFunction,Plated,PTH,ComponentDrill
T7C0.0374
; #@! TA.AperFunction,Plated,PTH,ComponentDrill
T8C0.0394
; #@! TA.AperFunction,Plated,PTH,ComponentDrill
T9C0.0472
%
G90
G05
T1
X3.0017Y-4.1864
X3.002Y-1.9193
X3.0038Y-4.0435
X3.0039Y-1.6364
X3.0058Y-3.555
X3.0062Y-4.7132
X3.0072Y-1.7744
X3.0089Y-3.698
X3.014Y-2.1595
X3.0146Y-4.3739
X3.0211Y-5.4961
X3.0217Y-4.5374
X3.0348Y-2.8119
X3.0352Y-3.8979
X3.0386Y-3.4403
X3.0394Y-5.3581
X3.0403Y-5.2036
X3.0404Y-2.9647
X3.0408Y-5.6591
X3.0412Y-2.5034
X3.0413Y-2.6604
X3.0413Y-3.1398
X3.0413Y-4.872
X3.0413Y-5.0377
X3.048Y-5.9892
X3.048Y-6.18
X3.055Y-5.8192
X3.061Y-2.3464
X3.061Y-3.2972
X3.0629Y-0.8622
X3.0803Y-1.4915
X3.0983Y-4.1545
X3.0992Y-3.3632
X3.0999Y-5.4099
X3.1003Y-3.5172
X3.1003Y-3.8302
X3.1003Y-4.3169
X3.1003Y-4.4616
X3.1003Y-4.6191
X3.1004Y-3.6713
X3.1004Y-4.7736
X3.1004Y-4.9284
X3.1004Y-5.0886
X3.1004Y-5.2461
X3.1018Y-5.5656
X3.1144Y-3.0483
X3.1193Y-3.9838
X3.1201Y-3.1988
X3.1217Y-1.6342
X3.1398Y-1.5453
X3.1398Y-1.7815
X3.1398Y-2.7264
X3.1399Y-2.25
X3.14Y-0.9921
X3.142Y-2.0965
X3.1431Y-1.2382
X3.1431Y-1.4007
X3.1445Y-1.9239
X3.1445Y-2.3963
X3.1463Y-2.5549
X3.1476Y-1.0602
X3.1535Y-2.8898
X3.1594Y-1.1319
X3.1611Y-1.2944
X3.2677Y-1.5945
X3.311Y-1.315
X3.315Y-4.1496
X3.3169Y-3.0679
X3.3228Y-2.248
X3.3228Y-3.189
X3.3268Y-6.0118
X3.3307Y-2.5591
X3.3307Y-3.9882
X3.3307Y-5.7126
X3.3346Y-2.4016
X3.3346Y-4.7795
X3.3346Y-5.0906
X3.3386Y-1.6772
X3.3425Y-1.9764
X3.3425Y-2.1339
X3.3425Y-3.6693
X3.3425Y-3.815
X3.3425Y-5.2402
X3.3465Y-2.9291
X3.3465Y-3.3701
X3.3465Y-3.5236
X3.3465Y-4.2953
X3.3465Y-5.878
X3.3504Y-4.6024
X3.3543Y-2.7047
X3.3543Y-4.4488
X3.3583Y-1.1339
X3.3622Y-1.0433
X3.3622Y-5.4094
X3.3622Y-5.5591
X3.3635Y-1.7652
X3.3661Y-1.8465
X3.3661Y-4.9409
X3.3683Y-4.1339
X3.3855Y-2.2874
X3.3859Y-1.8068
X3.3891Y-2.4996
X3.3891Y-1.6555
X3.3892Y-2.0926
X3.3916Y-2.4252
X3.3916Y-2.6579
X3.3918Y-2.7441
X3.3921Y-1.937
X3.3928Y-5.0007
X3.3932Y-2.5789
X3.3932Y-2.8898
X3.3936Y-5.7752
X3.3945Y-2.1791
X3.3957Y-2.0177
X3.3957Y-2.3465
X3.3957Y-3.061
X3.3957Y-4.8327
X3.3957Y-5.1476
X3.3957Y-5.3051
X3.3957Y-5.4626
X3.3957Y-5.6201
X3.3957Y-5.935
X3.3957Y-6.0925
X3.3957Y-6.25
X3.396Y-1.8899
X3.3976Y-1.4802
X3.4035Y-1.5335
X3.4035Y-1.6004
X3.4039Y-1.3926
X3.4075Y-1.3209
X3.4148Y-2.9724
X3.4154Y-2.8248
X3.4186Y-1.1758
X3.4252Y-1.1063
X3.445Y-4.5906
X3.4461Y-4.2583
X3.4496Y-5.3794
X3.4516Y-3.9455
X3.4538Y-3.7992
X3.4542Y-5.0556
X3.4544Y-4.419
X3.4547Y-3.6319
X3.4547Y-5.2067
X3.456Y-1.2552
X3.4596Y-4.9032
X3.4746Y-3.7126
X3.4752Y-3.8703
X3.4752Y-4.3427
X3.4752Y-4.5002
X3.4761Y-4.6607
X3.4764Y-4.7362
X3.4765Y-4.0314
X3.4768Y-4.1891
X3.498Y-3.4429
X3.5827Y-1.9961
X3.6181Y-1.9134
X3.6693Y-2.6496
X3.685Y-4.5512
X3.685Y-4.7244
X3.685Y-5.0394
X3.686Y-5.7023
X3.6929Y-4.2441
X3.6949Y-5.8051
X3.6969Y-1.9016
X3.6969Y-2.2087
X3.6969Y-2.9843
X3.7008Y-1.7717
X3.7047Y-1.689
X3.7053Y-2.1368
X3.7087Y-2.063
X3.7087Y-3.2008
X3.7165Y-4.1969
X3.7215Y-5.5079
X3.7244Y-5.0709
X3.7274Y-4.8583
X3.7323Y-5.1063
X3.7441Y-1.4567
X3.7441Y-5.063
X3.7451Y-4.6575
X3.7514Y-2.3288
X3.752Y-3.8307
X3.752Y-4.6063
X3.7559Y-2.4843
X3.7598Y-1.7835
X3.7598Y-1.9409
X3.7638Y-3.2165
X3.7638Y-3.6535
X3.7638Y-5.0472
X3.7677Y-1.5325
X3.7677Y-1.8898
X3.7677Y-3.0551
X3.7677Y-4.5787
X3.7717Y-3.1142
X3.7756Y-4.5315
X3.7795Y-4.7441
X3.7795Y-5.2559
X3.7809Y-2.4317
X3.782Y-4.0892
X3.7874Y-3.7598
X3.7874Y-5.2795
X3.7913Y-2.7559
X3.7913Y-3.6535
X3.7953Y-1.1811
X3.7953Y-6.1614
X3.8071Y-2.0433
X3.8071Y-3.3386
X3.8071Y-3.6929
X3.8071Y-4.1929
X3.811Y-1.7441
X3.811Y-3.2402
X3.811Y-4.0276
X3.815Y-2.6693
X3.815Y-3.8583
X3.815Y-4.8386
X3.815Y-4.8898
X3.8228Y-1.9961
X3.8262Y-2.158
X3.8268Y-2.8189
X3.8346Y-5.4921
X3.8346Y-5.7756
X3.8386Y-5.2598
X3.8725Y-0.8996
X3.878Y-1.3858
X3.878Y-1.7047
X3.878Y-3.0
X3.878Y-5.189
X3.878Y-6.2185
X3.8976Y-5.4449
X3.9055Y-5.0866
X3.9134Y-3.5315
X3.9213Y-6.124
X3.9252Y-4.248
X3.9291Y-3.9567
X3.9331Y-5.1969
X3.9449Y-2.8268
X3.9685Y-5.4843
X3.9764Y-5.5157
X3.9816Y-5.4439
X3.9843Y-3.5709
X3.9843Y-6.1063
X3.9921Y-0.8346
X3.9921Y-1.0984
X4.0079Y-3.2087
X4.0118Y-6.2283
X4.0157Y-2.9606
X4.0157Y-4.8071
X4.0187Y-2.3031
X4.0197Y-3.3819
X4.0364Y-3.8278
X4.0443Y-2.486
X4.0443Y-2.5391
X4.0445Y-3.7899
X4.0522Y-2.9703
X4.0669Y-3.4016
X4.0816Y-2.049
X4.0945Y-6.1299
X4.1181Y-1.2283
X4.128Y-6.2244
X4.1535Y-5.4508
X4.1575Y-1.4921
X4.1654Y-6.4764
X4.1772Y-5.4783
X4.1791Y-0.9277
X4.1811Y-6.2205
X4.1831Y-0.5891
X4.189Y-5.0512
X4.2205Y-3.1417
X4.248Y-1.8031
X4.248Y-5.3425
X4.252Y-3.9843
X4.2677Y-1.4488
X4.2677Y-5.3189
X4.2835Y-1.2008
X4.2874Y-5.2559
X4.2992Y-6.1181
X4.3189Y-5.3504
X4.3248Y-1.0969
X4.3287Y-0.8686
X4.3543Y-4.2638
X4.3622Y-5.9921
X4.3937Y-4.4921
X4.3937Y-4.6299
X4.4173Y-2.6796
X4.4188Y-3.4291
X4.4232Y-1.8735
X4.4234Y-4.1726
X4.437Y-1.1142
X4.4567Y-5.7835
X4.4764Y-4.4016
X4.4843Y-2.0851
X4.4857Y-2.8346
X4.4857Y-3.5827
X4.4941Y-1.3381
X4.4961Y-0.5891
X4.5025Y-2.3903
X4.5039Y-3.1398
X4.5039Y-3.8878
X4.5121Y-0.9318
X4.5276Y-4.7992
X4.5315Y-1.6772
X4.5669Y-4.8927
X4.6201Y-1.5743
X4.622Y-0.8371
X4.622Y-2.3253
X4.622Y-2.5891
X4.6235Y-3.0748
X4.6235Y-3.3386
X4.6235Y-3.8228
X4.6235Y-4.0866
X4.6319Y-1.842
X4.6417Y-1.0969
X4.6535Y-4.3622
X4.6689Y-0.4581
X4.7209Y-0.5591
X4.7323Y-4.685
X4.7338Y-3.4291
X4.7421Y-1.9402
X4.7474Y-4.1622
X4.75Y-1.185
X4.7517Y-0.637
X4.7727Y-0.5952
X4.7929Y-0.6313
X4.7953Y-1.3396
X4.7982Y-2.4074
X4.8007Y-2.8346
X4.8007Y-3.5827
X4.8041Y-2.087
X4.811Y-4.5
X4.8174Y-1.6437
X4.8189Y-3.1398
X4.8189Y-3.8878
X4.8209Y-0.8958
X4.8268Y-4.4173
X4.8268Y-4.4449
X4.8346Y-4.3189
X4.8489Y-4.8686
X4.8543Y-4.563
X4.9016Y-5.1772
X4.9092Y-0.5616
X4.9125Y-0.618
X4.9354Y-0.8347
X4.9385Y-2.3268
X4.9385Y-2.5906
X4.9385Y-3.0748
X4.9385Y-3.3386
X4.9385Y-3.8228
X4.9385Y-4.0866
X4.939Y-1.5787
X4.939Y-1.8428
X4.9536Y-0.623
X4.9558Y-1.0958
X5.0084Y-0.6933
X5.0118Y-3.7244
X5.0487Y-2.6811
X5.0487Y-4.1772
X5.0807Y-1.9843
X5.0896Y-2.8536
X5.1102Y-3.4764
X5.1142Y-1.2441
X5.1156Y-1.3386
X5.1161Y-0.9056
X5.1171Y-2.0871
X5.1191Y-3.1522
X5.127Y-3.5877
X5.1339Y-1.6437
X5.1339Y-2.3917
X5.1339Y-3.8878
X5.1457Y-0.5
X5.1535Y-0.7795
X5.2279Y-0.6024
X5.2323Y-3.5787
X5.2362Y-2.748
X5.2493Y-4.0833
X5.2534Y-0.8307
X5.2534Y-1.0945
X5.2534Y-1.5787
X5.2534Y-1.8425
X5.2534Y-2.3268
X5.2534Y-2.5906
X5.2534Y-3.0748
X5.2534Y-3.3386
X5.2534Y-3.8228
X5.2677Y-4.3031
X5.2913Y-4.3031
X5.3465Y-3.9528
X5.3465Y-4.3268
X5.3622Y-1.185
X5.3622Y-3.4331
X5.3622Y-5.1732
X5.3637Y-1.9331
X5.377Y-2.6943
X5.378Y-4.2638
X5.3819Y-4.0
X5.4291Y-2.0906
X5.4291Y-2.8386
X5.4306Y-1.3386
X5.4473Y-0.8957
X5.4473Y-2.3957
X5.4473Y-3.1437
X5.4488Y-1.6437
X5.4843Y-3.563
X5.4961Y-3.6732
X5.5354Y-3.6181
X5.5394Y-3.6693
X5.562Y-1.5854
X5.562Y-1.8472
X5.5669Y-0.8307
X5.5669Y-1.0945
X5.5669Y-2.3307
X5.5669Y-2.5945
X5.5669Y-3.0787
X5.5669Y-3.3425
X5.5906Y-3.748
X5.6693Y-4.4843
X5.6772Y-1.9316
X5.6786Y-1.185
X5.6786Y-2.6811
X5.7165Y-3.7283
X5.7205Y-4.7165
X5.7283Y-3.0315
X5.7402Y-3.8268
X5.7441Y-3.0709
X5.7456Y-2.0866
X5.7462Y-1.3366
X5.752Y-3.874
X5.7598Y-3.9291
X5.7623Y-1.6422
X5.7638Y-0.8957
X5.7638Y-2.3917
X5.7717Y-3.9843
X5.7717Y-4.0197
X5.7913Y-4.0354
X5.8031Y-4.9409
X5.878Y-1.5787
X5.8809Y-3.1471
X5.8819Y-1.8386
X5.8825Y-2.3278
X5.8834Y-0.8307
X5.8834Y-1.0945
X5.8834Y-2.5906
X5.9213Y-3.2087
X5.9409Y-3.0394
X5.9685Y-2.9921
X5.9764Y-3.0551
X5.9764Y-3.1063
X5.9936Y-1.185
X6.0052Y-2.6756
X6.0079Y-4.752
X6.0148Y-1.9362
X6.0605Y-1.3386
X6.0605Y-2.0866
X6.0646Y-2.8918
X6.0787Y-0.8957
X6.0787Y-1.6437
X6.0787Y-2.3917
X6.0827Y-3.1614
X6.122Y-4.9843
X6.1417Y-4.8268
X6.1948Y-2.3329
X6.1983Y-0.8307
X6.1983Y-1.0945
X6.1983Y-1.5787
X6.1983Y-1.8425
X6.1983Y-2.5906
X6.2126Y-3.0945
X6.2171Y-2.9518
X6.2219Y-2.9144
X6.2241Y-2.7156
X6.2283Y-2.9931
X6.2323Y-3.0551
X6.2362Y-2.6496
X6.2362Y-3.0984
X6.2717Y-2.8071
X6.2854Y-3.0217
X6.2992Y-3.2402
X6.3031Y-3.1417
X6.3086Y-2.6811
X6.3091Y-1.185
X6.311Y-2.8465
X6.3307Y-1.9331
X6.3583Y-3.937
X6.3755Y-1.3386
X6.3755Y-2.0866
X6.3937Y-0.8957
X6.3937Y-1.6437
X6.3937Y-2.3917
X6.4449Y-3.9724
X6.5133Y-0.8307
X6.5133Y-1.0945
X6.5133Y-1.5787
X6.5133Y-1.8425
X6.5133Y-2.3268
X6.5133Y-2.5906
X6.5709Y-4.0236
X6.5945Y-4.1378
X6.622Y-3.4331
X6.6235Y-1.185
X6.6368Y-1.9411
X6.6457Y-3.7047
X6.6535Y-2.6654
X6.689Y-2.8386
X6.6905Y-1.3386
X6.6905Y-2.0866
X6.6919Y-3.1544
X6.7087Y-0.8957
X6.7087Y-1.6437
X6.7087Y-2.3917
X6.7638Y-3.8189
X6.7638Y-3.9173
X6.7638Y-3.9724
X6.7638Y-4.0197
X6.7638Y-4.0669
X6.7677Y-3.875
X6.8056Y-3.9616
X6.8268Y-3.0787
X6.8268Y-3.3425
X6.8282Y-0.8307
X6.8282Y-1.0945
X6.8282Y-1.5787
X6.8282Y-1.8425
X6.8282Y-2.3268
X6.8282Y-2.5906
X6.9016Y-4.1811
X6.9173Y-3.6614
X6.9252Y-6.0669
X6.937Y-3.4291
X6.937Y-4.0236
X6.9385Y-1.185
X6.9385Y-1.9331
X6.9572Y-2.6955
X7.0039Y-2.0866
X7.0039Y-2.8346
X7.0054Y-1.3386
X7.0221Y-2.3917
X7.0221Y-3.1398
X7.0236Y-0.8957
X7.0236Y-1.6437
X7.0551Y-3.6969
X7.063Y-3.8141
X7.0709Y-3.9213
X7.0709Y-3.9646
X7.0709Y-4.0709
X7.072Y-3.875
X7.0748Y-4.0197
X7.0799Y-3.747
X7.0866Y-4.0472
X7.0984Y-3.9803
X7.1417Y-2.3268
X7.1417Y-2.5906
X7.1417Y-3.0748
X7.1417Y-3.3386
X7.1432Y-0.8307
X7.1432Y-1.0945
X7.1432Y-1.5787
X7.1432Y-1.8425
X7.1614Y-4.1732
X7.1654Y-4.4055
X7.1929Y-4.0236
X7.2205Y-6.3189
X7.2244Y-4.0945
X7.2441Y-4.4055
X7.252Y-2.6811
X7.252Y-3.4291
X7.2534Y-1.185
X7.2534Y-1.9331
X7.3061Y-2.093
X7.3061Y-2.4293
X7.3071Y-4.1142
X7.311Y-4.1929
X7.3189Y-2.8346
X7.3204Y-1.3386
X7.3371Y-3.1398
X7.3386Y-0.8957
X7.3386Y-1.6437
X7.3661Y-3.7008
X7.3858Y-3.9724
X7.3858Y-4.0236
X7.3898Y-3.9213
X7.3937Y-4.0748
X7.3937Y-4.185
X7.4016Y-3.874
X7.4173Y-3.9724
X7.4567Y-2.3268
X7.4567Y-2.5906
X7.4567Y-3.3386
X7.4582Y-0.8307
X7.4582Y-1.0945
X7.4582Y-1.5787
X7.4582Y-1.8425
X7.4616Y-3.0761
X7.5134Y-4.372
X7.5512Y-4.1929
X7.5684Y-1.185
X7.5684Y-1.9331
X7.5684Y-2.6811
X7.5684Y-3.4291
X7.5748Y-4.5197
X7.6353Y-1.3386
X7.6353Y-2.0866
X7.6353Y-2.8346
X7.6368Y-3.1552
X7.6378Y-3.7008
X7.6378Y-4.9606
X7.6457Y-4.122
X7.6496Y-4.3307
X7.6535Y-0.8957
X7.6535Y-1.6437
X7.6535Y-2.3917
X7.663Y-4.5216
X7.6732Y-4.7835
X7.6732Y-4.811
X7.6772Y-5.0197
X7.6884Y-3.8996
X7.6929Y-5.2008
X7.6969Y-3.8504
X7.7008Y-5.0236
X7.7047Y-3.7441
X7.7047Y-3.9606
X7.7047Y-4.0472
X7.7047Y-4.0748
X7.7087Y-3.9843
X7.7165Y-3.7953
X7.7205Y-4.0945
X7.7283Y-4.4252
X7.7402Y-5.2008
X7.7461Y-4.5531
X7.7646Y-0.8307
X7.7646Y-1.0956
X7.7646Y-1.5805
X7.7646Y-1.8455
X7.7646Y-2.3268
X7.7646Y-2.5921
X7.7731Y-3.0748
X7.7731Y-3.3386
X7.7756Y-6.0118
X7.7874Y-5.8465
X7.7915Y-5.9644
X7.8031Y-4.1417
X7.8031Y-5.9449
X7.8071Y-5.9213
X7.811Y-6.1339
X7.8228Y-4.0236
X7.8268Y-6.3189
X7.8298Y-4.7198
X7.8346Y-5.9488
X7.8386Y-5.9843
X7.8425Y-6.4094
X7.8465Y-6.6063
X7.8504Y-5.9646
X7.8543Y-3.6033
X7.878Y-3.6142
X7.8819Y-1.189
X7.8819Y-2.685
X7.8819Y-3.4331
X7.8927Y-1.937
X7.8976Y-3.9016
X7.9016Y-3.9291
X7.9055Y-6.3858
X7.9055Y-6.563
X7.9055Y-6.622
X7.9094Y-3.9724
X7.9099Y-6.1893
X7.914Y-6.2313
X7.9228Y-6.3654
X7.9252Y-3.8701
X7.9283Y-6.326
X7.9291Y-3.8228
X7.9291Y-6.626
X7.9299Y-6.277
X7.9301Y-6.298
X7.9337Y-6.2204
X7.937Y-6.3465
X7.9449Y-5.6614
X7.9449Y-6.6693
X7.946Y-2.096
X7.9467Y-2.8421
X7.9488Y-1.3425
X7.9488Y-4.8661
X7.9567Y-4.8307
X7.9567Y-4.8937
X7.967Y-0.8996
X7.967Y-1.6476
X7.967Y-2.3957
X7.9764Y-5.1496
X7.9769Y-3.1566
X7.9843Y-5.878
X7.9921Y-4.2717
X7.9961Y-3.6969
X8.0079Y-6.311
X8.0079Y-6.3386
X8.0079Y-6.3858
X8.0104Y-3.777
X8.0157Y-3.9252
X8.0354Y-4.1535
X8.0394Y-6.4705
X8.0433Y-6.1969
X8.0512Y-4.8661
X8.0551Y-6.3858
X8.0571Y-6.4843
X8.0578Y-4.934
X8.0748Y-6.2165
X8.0787Y-5.0039
X8.0866Y-0.8346
X8.0866Y-1.0984
X8.0866Y-1.5827
X8.0866Y-1.8465
X8.0866Y-2.3307
X8.0866Y-2.5945
X8.0866Y-3.0787
X8.0866Y-3.3425
X8.0906Y-4.7441
X8.0906Y-5.7992
X8.1457Y-4.248
X8.1496Y-5.8789
X8.1614Y-4.9252
X8.1654Y-4.2756
X8.1766Y-6.0992
X8.1897Y-1.9393
X8.1929Y-4.815
X8.1929Y-6.3809
X8.1946Y-1.1893
X8.1969Y-4.1811
X8.1983Y-2.6811
X8.2033Y-6.1003
X8.2087Y-5.1496
X8.2126Y-6.3622
X8.2165Y-3.4213
X8.2243Y-6.1022
X8.2362Y-6.0118
X8.252Y-5.9921
X8.2638Y-2.8386
X8.2638Y-3.5866
X8.2638Y-6.5354
X8.2694Y-2.0873
X8.2736Y-4.9685
X8.2746Y-0.8996
X8.2792Y-1.3386
X8.2795Y-5.311
X8.282Y-3.1437
X8.282Y-3.8917
X8.2835Y-1.6437
X8.2835Y-2.3917
X8.2835Y-6.1654
X8.2891Y-6.3765
X8.2913Y-5.2244
X8.298Y-6.3985
X8.2992Y-6.2756
X8.3071Y-6.2992
X8.312Y-6.3705
X8.3206Y-6.3485
X8.3225Y-6.2795
X8.3346Y-5.9369
X8.3373Y-6.3356
X8.3543Y-6.0931
X8.3583Y-5.4311
X8.374Y-5.3189
X8.374Y-6.0276
X8.3754Y-1.5792
X8.3839Y-1.8498
X8.3839Y-2.3268
X8.3907Y-2.5957
X8.3976Y-5.4646
X8.3976Y-5.9409
X8.4016Y-0.8346
X8.4016Y-1.0984
X8.4016Y-3.0787
X8.4016Y-3.3425
X8.4016Y-3.8268
X8.4016Y-4.0906
X8.4134Y-5.9921
X8.4213Y-6.1299
X8.4291Y-6.4252
X8.4291Y-6.5709
X8.4528Y-3.5157
X8.4606Y-5.5315
X8.4803Y-6.4213
X8.4882Y-5.5709
X8.498Y-1.9676
X8.502Y-1.2054
X8.5118Y-4.1811
X8.5162Y-2.6811
X8.563Y-5.4685
X8.5765Y-3.5899
X8.5767Y-2.0902
X8.5802Y-2.8346
X8.5846Y-1.3406
X8.5925Y-1.6444
X8.5965Y-2.3918
X8.5969Y-3.8917
X8.5984Y-3.1398
X8.6004Y-0.9515
X8.6339Y-5.689
X8.7008Y-6.6811
X8.7017Y-1.108
X8.7165Y-0.8292
X8.7165Y-1.5773
X8.7165Y-3.8268
X8.7165Y-4.0906
X8.718Y-3.0748
X8.718Y-3.3386
X8.7184Y-1.8397
X8.7202Y-2.5901
X8.7382Y-2.3384
X8.752Y-5.2717
X8.7648Y-5.1329
X8.815Y-4.9409
X8.8159Y-1.9338
X8.8268Y-2.685
X8.8268Y-4.1811
X8.8376Y-3.4311
X8.8386Y-5.5197
X8.8484Y-5.3563
X8.8701Y-4.8937
X8.8701Y-5.5774
X8.8884Y-3.5877
X8.8937Y-2.0906
X8.8937Y-5.1496
X8.8952Y-2.8346
X8.8976Y-4.9094
X8.9006Y-1.3371
X8.9045Y-3.1432
X8.9119Y-1.6422
X8.9119Y-2.3957
X8.9119Y-3.8917
X8.9213Y-4.8386
X8.937Y-5.7638
X9.0315Y-1.5773
X9.0315Y-1.841
X9.0315Y-2.3307
X9.0315Y-2.5945
X9.0315Y-3.8268
X9.0315Y-4.0906
X9.033Y-3.0748
X9.033Y-3.3386
X9.0512Y-5.2441
X9.1535Y-5.7677
T2
X4.6526Y-4.5118
X4.6526Y-4.5531
X4.6526Y-4.5945
X4.6939Y-4.5118
X4.6939Y-4.5531
X4.6939Y-4.5945
X4.7352Y-4.5118
X4.7352Y-4.5531
X4.7352Y-4.5945
T3
X3.0955Y-6.0384
X3.1359Y-5.8682
X3.1407Y-5.7106
X3.189Y-5.2441
X3.189Y-5.5551
X3.1929Y-5.7126
X3.1969Y-5.4016
X3.2028Y-3.0433
X3.2348Y-1.0369
X3.2618Y-4.9154
X3.2618Y-5.8878
X3.2657Y-6.0295
X3.2677Y-1.1496
X3.2681Y-1.7949
X3.2687Y-3.3626
X3.2717Y-4.6142
X3.2717Y-5.2913
X3.272Y-2.272
X3.2736Y-5.0965
X3.2764Y-4.47
X3.2776Y-1.3
X3.2776Y-3.5217
X3.2784Y-2.7411
X3.2785Y-0.8625
X3.2785Y-1.9511
X3.2785Y-2.5819
X3.2785Y-2.9057
X3.2785Y-4.7933
X3.2788Y-2.4117
X3.2789Y-3.2062
X3.2795Y-1.4449
X3.2795Y-3.8228
X3.2798Y-2.1326
X3.2807Y-3.6726
X3.2811Y-1.6278
X3.2815Y-3.9941
X3.2815Y-4.1555
X3.2841Y-4.3032
X3.3918Y-6.0255
X3.3947Y-6.1685
X3.4422Y-5.7028
X3.4513Y-5.8465
X3.495Y-5.5138
X3.5256Y-1.1831
X3.5512Y-4.4134
X3.5591Y-4.1024
X3.5591Y-4.8898
X3.561Y-1.3209
X3.561Y-4.5846
X3.565Y-1.4626
X3.565Y-1.6004
X3.565Y-1.7343
X3.5689Y-4.2736
X3.5728Y-4.7461
X3.5768Y-3.9665
X3.5876Y-5.0836
X3.6122Y-3.4311
X3.6122Y-5.8484
X3.6161Y-5.5374
X3.6161Y-5.998
X3.6161Y-6.1555
X3.6193Y-3.6487
X3.6201Y-5.372
X3.624Y-2.3484
X3.624Y-2.5098
X3.624Y-5.687
X3.628Y-2.8287
X3.628Y-2.9744
X3.628Y-3.7972
X3.628Y-5.2224
X3.63Y-2.6742
X3.6329Y-2.1909
X3.6335Y-2.0274
X3.6358Y-1.876
X3.8189Y-2.0945
X3.8189Y-4.2717
X3.8204Y-4.7051
X3.8228Y-3.4055
X3.8268Y-5.1339
X3.8485Y-2.5354
X3.8661Y-1.6654
X3.9213Y-1.7598
X3.9334Y-1.1647
X3.9646Y-1.4882
X4.0118Y-1.4921
X4.0443Y-2.7648
X4.0493Y-3.6947
X4.0512Y-2.3465
X4.0512Y-4.0866
X4.0591Y-4.8386
X4.063Y-1.4882
X4.063Y-3.1575
X4.0691Y-4.8798
X4.0729Y-3.6496
X4.0765Y-2.2904
X4.1535Y-2.7283
X4.156Y-2.8955
X4.1575Y-4.0197
X4.1575Y-4.4685
X4.1654Y-4.6024
X4.1693Y-2.689
X4.1693Y-3.5361
X4.185Y-4.8268
X4.189Y-2.1693
X4.189Y-4.4055
X4.189Y-4.9173
X4.2008Y-4.2953
X4.2008Y-4.7323
X4.2011Y-4.8645
X4.2244Y-5.1063
X4.2362Y-2.4213
X4.3583Y-4.9094
X4.3661Y-4.9803
X4.374Y-4.8196
X4.4134Y-4.8806
X4.437Y-4.6535
X4.4685Y-4.7244
X4.561Y-1.968
X4.5633Y-2.6553
X4.5648Y-3.4048
X4.5648Y-4.1528
X4.8637Y-1.9219
X4.8719Y-1.172
X4.878Y-3.4048
X4.8798Y-2.6568
X4.8798Y-4.1528
X5.1947Y-1.9088
X5.1947Y-2.6568
X5.1947Y-4.1528
X5.1959Y-1.1608
X5.1959Y-3.4049
X5.5082Y-2.6607
X5.5082Y-3.4055
X5.5097Y-1.9088
X5.5118Y-3.8307
X5.5128Y-1.1577
X5.5157Y-3.7756
X5.5197Y-3.874
X5.5197Y-3.9173
X5.8232Y-1.9073
X5.8247Y-1.1607
X5.8247Y-2.6568
X5.8701Y-3.0157
X5.878Y-2.8465
X5.8819Y-2.9173
X5.8819Y-2.9685
X5.9416Y-2.7933
X6.1162Y-2.9686
X6.1396Y-1.1607
X6.1396Y-1.9088
X6.1396Y-2.6568
X6.2008Y-3.0118
X6.2087Y-2.8819
X6.2165Y-2.8465
X6.4546Y-1.1607
X6.4546Y-1.9088
X6.4546Y-2.6568
X6.5607Y-3.7708
X6.563Y-3.811
X6.563Y-3.8622
X6.5669Y-3.9114
X6.7681Y-3.4088
X6.7695Y-1.1607
X6.7695Y-1.9088
X6.7695Y-2.6568
X6.8858Y-3.7677
X6.8898Y-3.8543
X6.8898Y-3.8976
X6.8976Y-3.8031
X7.083Y-2.6568
X7.083Y-3.4048
X7.0845Y-1.1607
X7.0845Y-1.9088
X7.1969Y-3.8071
X7.2008Y-3.7717
X7.2008Y-3.8543
X7.2008Y-3.8976
X7.398Y-2.6568
X7.398Y-3.4048
X7.3995Y-1.1607
X7.3995Y-1.9088
X7.5039Y-3.8071
X7.5039Y-3.874
X7.5039Y-3.9154
X7.5079Y-3.7677
X7.7144Y-1.1607
X7.7165Y-1.9088
X7.7165Y-2.6568
X7.7165Y-3.4048
X7.8159Y-3.7726
X7.8189Y-3.8228
X7.8189Y-3.874
X7.8189Y-3.9154
X8.0279Y-1.1647
X8.0279Y-1.9127
X8.0279Y-2.6607
X8.0279Y-3.4088
X8.0453Y-6.6043
X8.0707Y-6.5726
X8.1143Y-6.6014
X8.1496Y-6.6043
X8.2185Y-6.563
X8.2185Y-6.6329
X8.3418Y-1.1706
X8.3429Y-3.4088
X8.3429Y-4.1568
X8.3443Y-1.9088
X8.3443Y-2.6568
X8.4183Y-6.5059
X8.6578Y-1.9073
X8.6578Y-4.1568
X8.6591Y-2.6724
X8.6593Y-3.4048
X8.6646Y-1.1709
X8.9728Y-1.9073
X8.9728Y-2.6607
X8.9728Y-4.1568
X8.9743Y-3.4048
T4
X9.0079Y-5.5315
X9.0079Y-5.5748
X9.0079Y-5.626
X9.0079Y-5.6732
X9.0551Y-5.5315
X9.0551Y-5.5748
X9.0551Y-5.626
X9.0551Y-5.6732
T5
X4.722Y-5.4134
X4.7717Y-4.7687
X5.2047Y-4.8622
X5.2126Y-4.622
X5.3465Y-5.1299
X5.4528Y-4.1417
X5.6339Y-4.7913
X5.7126Y-4.2677
X5.9094Y-4.8622
X5.9882Y-4.4173
X6.189Y-4.3622
X6.2677Y-4.6299
X6.6654Y-4.2638
X7.0236Y-4.3031
X7.1181Y-4.3031
X7.248Y-5.4685
X7.3189Y-4.2913
X7.3346Y-4.6102
X7.3937Y-5.4685
X7.6929Y-4.5866
X7.9173Y-5.2126
X8.0039Y-5.3268
X8.0039Y-5.5197
X8.1142Y-5.5157
X8.2087Y-5.2323
X8.4882Y-5.8819
T6
X3.813Y-5.378
X3.813Y-5.5669
X3.9823Y-5.378
X3.9823Y-5.5669
T7
X3.3957Y-6.6742
X3.4055Y-6.4173
X3.4941Y-6.6742
X3.5039Y-6.4173
X3.5925Y-6.6742
X3.6024Y-6.4173
X3.6909Y-6.6742
X3.7008Y-6.4173
X5.0728Y-5.372
X5.1713Y-5.372
X5.2697Y-5.372
T8
X2.8051Y-0.4626
X2.8051Y-0.561
X2.8051Y-0.6594
X2.8051Y-0.7579
X2.8051Y-0.8563
X2.8051Y-0.9547
X2.8051Y-1.0531
X2.8051Y-1.1516
X2.8051Y-1.25
X2.8051Y-1.3484
X2.8051Y-1.4469
X2.8051Y-1.5453
X2.8051Y-1.6437
X2.8051Y-1.7421
X2.8051Y-1.8406
X2.8051Y-1.939
X2.8051Y-2.0374
X2.8051Y-2.1358
X2.8051Y-2.2343
X2.8051Y-2.3327
X2.8051Y-2.4311
X2.8051Y-2.5295
X2.8051Y-2.628
X2.8051Y-2.7264
X2.8051Y-2.8248
X2.8051Y-2.9232
X2.8051Y-3.0217
X2.8051Y-3.1201
X2.8051Y-3.2185
X2.8051Y-3.3169
X2.8051Y-3.4154
X2.8051Y-3.5138
X2.8051Y-3.6122
X2.8051Y-3.7106
X2.8051Y-3.8091
X2.8051Y-3.9075
X2.8051Y-4.0059
X2.8051Y-4.1043
X2.8051Y-4.2028
X2.8051Y-4.3012
X2.8051Y-4.3996
X2.8051Y-4.498
X2.8051Y-4.5965
X2.8051Y-4.6949
X2.8051Y-4.7933
X2.8051Y-4.8917
X2.8051Y-4.9902
X2.8051Y-5.0886
X2.8051Y-5.187
X2.8051Y-5.2854
X2.8051Y-5.3839
X2.8051Y-5.4823
X2.8051Y-5.5807
X2.8051Y-5.6791
X2.8051Y-5.7776
X2.8051Y-5.876
X2.8051Y-5.9744
X2.8051Y-6.0728
X2.8051Y-6.1713
X2.8051Y-6.2697
X2.8051Y-6.3681
X2.8051Y-6.4665
X2.8051Y-6.565
X2.8051Y-6.6634
X2.9528Y-0.315
X3.0512Y-0.315
X3.1496Y-0.315
X3.248Y-0.315
X3.3465Y-0.315
X3.4449Y-0.315
X3.4892Y-3.2126
X3.4892Y-3.311
X3.5433Y-0.315
X3.6417Y-0.315
X3.7402Y-0.315
X3.8386Y-0.315
X3.937Y-0.315
X4.0354Y-0.315
X4.1339Y-0.315
X4.2323Y-0.315
X4.252Y-1.9094
X4.252Y-2.0157
X4.3307Y-0.315
X4.4291Y-0.315
X4.5276Y-0.315
X4.626Y-0.315
X4.7244Y-0.315
X4.8228Y-0.315
X4.9213Y-0.315
X5.0197Y-0.315
X5.1181Y-0.315
X5.2165Y-0.315
X5.315Y-0.315
X5.4134Y-0.315
X5.5118Y-0.315
X5.6102Y-0.315
X5.7087Y-0.315
X5.8071Y-0.315
X5.9055Y-0.315
X6.0039Y-0.315
X6.1024Y-0.315
X6.2008Y-0.315
X6.2992Y-0.315
X6.3976Y-0.315
X6.4961Y-0.315
X6.5945Y-0.315
X6.6929Y-0.315
X6.7913Y-0.315
X6.8898Y-0.315
X6.9882Y-0.315
X7.0866Y-0.315
X7.185Y-0.315
X7.2835Y-0.315
X7.3819Y-0.315
X7.4803Y-0.315
X7.5787Y-0.315
X7.6772Y-0.315
X7.7756Y-0.315
X7.874Y-0.315
X7.9724Y-0.315
X8.0709Y-0.315
X8.1693Y-0.315
X8.2677Y-0.315
X8.3661Y-0.315
X8.4646Y-0.315
X8.563Y-0.315
X8.6614Y-0.315
X8.7598Y-0.315
X8.8583Y-0.315
X8.9567Y-0.315
X9.0551Y-0.315
X9.1535Y-0.315
T9
X6.811Y-4.2717
X6.811Y-4.8622
M30
