%TF.GenerationSoftware,KiCad,Pcbnew,8.0.2*%
%TF.CreationDate,2024-06-03T23:57:49-04:00*%
%TF.ProjectId,IGGDriver,49474744-7269-4766-9572-2e6b69636164,rev?*%
%TF.SameCoordinates,Original*%
%TF.FileFunction,Paste,Top*%
%TF.FilePolarity,Positive*%
%FSLAX46Y46*%
G04 Gerber Fmt 4.6, Leading zero omitted, Abs format (unit mm)*
G04 Created by KiCad (PCBNEW 8.0.2) date 2024-06-03 23:57:49*
%MOMM*%
%LPD*%
G01*
G04 APERTURE LIST*
G04 Aperture macros list*
%AMRoundRect*
0 Rectangle with rounded corners*
0 $1 Rounding radius*
0 $2 $3 $4 $5 $6 $7 $8 $9 X,Y pos of 4 corners*
0 Add a 4 corners polygon primitive as box body*
4,1,4,$2,$3,$4,$5,$6,$7,$8,$9,$2,$3,0*
0 Add four circle primitives for the rounded corners*
1,1,$1+$1,$2,$3*
1,1,$1+$1,$4,$5*
1,1,$1+$1,$6,$7*
1,1,$1+$1,$8,$9*
0 Add four rect primitives between the rounded corners*
20,1,$1+$1,$2,$3,$4,$5,0*
20,1,$1+$1,$4,$5,$6,$7,0*
20,1,$1+$1,$6,$7,$8,$9,0*
20,1,$1+$1,$8,$9,$2,$3,0*%
G04 Aperture macros list end*
%ADD10RoundRect,0.250000X0.625000X-0.312500X0.625000X0.312500X-0.625000X0.312500X-0.625000X-0.312500X0*%
%ADD11RoundRect,0.150000X0.587500X0.150000X-0.587500X0.150000X-0.587500X-0.150000X0.587500X-0.150000X0*%
%ADD12RoundRect,0.250000X-0.650000X0.325000X-0.650000X-0.325000X0.650000X-0.325000X0.650000X0.325000X0*%
%ADD13RoundRect,0.250000X-0.312500X-0.625000X0.312500X-0.625000X0.312500X0.625000X-0.312500X0.625000X0*%
%ADD14RoundRect,0.200000X-0.275000X0.200000X-0.275000X-0.200000X0.275000X-0.200000X0.275000X0.200000X0*%
%ADD15RoundRect,0.112500X-0.112500X0.187500X-0.112500X-0.187500X0.112500X-0.187500X0.112500X0.187500X0*%
%ADD16RoundRect,0.150000X0.150000X-0.587500X0.150000X0.587500X-0.150000X0.587500X-0.150000X-0.587500X0*%
%ADD17RoundRect,0.225000X0.250000X-0.225000X0.250000X0.225000X-0.250000X0.225000X-0.250000X-0.225000X0*%
%ADD18RoundRect,0.200000X0.200000X0.275000X-0.200000X0.275000X-0.200000X-0.275000X0.200000X-0.275000X0*%
%ADD19RoundRect,0.250000X-0.625000X0.312500X-0.625000X-0.312500X0.625000X-0.312500X0.625000X0.312500X0*%
%ADD20RoundRect,0.225000X0.225000X0.250000X-0.225000X0.250000X-0.225000X-0.250000X0.225000X-0.250000X0*%
%ADD21RoundRect,0.150000X-0.150000X0.825000X-0.150000X-0.825000X0.150000X-0.825000X0.150000X0.825000X0*%
%ADD22RoundRect,0.250000X-0.325000X-0.650000X0.325000X-0.650000X0.325000X0.650000X-0.325000X0.650000X0*%
%ADD23RoundRect,0.200000X-0.200000X-0.275000X0.200000X-0.275000X0.200000X0.275000X-0.200000X0.275000X0*%
%ADD24RoundRect,0.250000X-0.450000X0.262500X-0.450000X-0.262500X0.450000X-0.262500X0.450000X0.262500X0*%
%ADD25RoundRect,0.200000X0.275000X-0.200000X0.275000X0.200000X-0.275000X0.200000X-0.275000X-0.200000X0*%
%ADD26RoundRect,0.162500X-0.750000X-0.162500X0.750000X-0.162500X0.750000X0.162500X-0.750000X0.162500X0*%
%ADD27RoundRect,0.218750X-0.218750X-0.256250X0.218750X-0.256250X0.218750X0.256250X-0.218750X0.256250X0*%
%ADD28RoundRect,0.225000X-0.225000X-0.250000X0.225000X-0.250000X0.225000X0.250000X-0.225000X0.250000X0*%
%ADD29RoundRect,0.150000X0.825000X0.150000X-0.825000X0.150000X-0.825000X-0.150000X0.825000X-0.150000X0*%
%ADD30RoundRect,0.225000X-0.250000X0.225000X-0.250000X-0.225000X0.250000X-0.225000X0.250000X0.225000X0*%
%ADD31RoundRect,0.250000X0.650000X-0.325000X0.650000X0.325000X-0.650000X0.325000X-0.650000X-0.325000X0*%
%ADD32C,7.000000*%
%ADD33RoundRect,0.375000X-0.375000X0.625000X-0.375000X-0.625000X0.375000X-0.625000X0.375000X0.625000X0*%
%ADD34RoundRect,0.500000X-1.400000X0.500000X-1.400000X-0.500000X1.400000X-0.500000X1.400000X0.500000X0*%
%ADD35RoundRect,0.250001X-0.799999X1.999999X-0.799999X-1.999999X0.799999X-1.999999X0.799999X1.999999X0*%
%ADD36RoundRect,0.150000X-0.512500X-0.150000X0.512500X-0.150000X0.512500X0.150000X-0.512500X0.150000X0*%
%ADD37RoundRect,0.218750X0.256250X-0.218750X0.256250X0.218750X-0.256250X0.218750X-0.256250X-0.218750X0*%
%ADD38R,7.340000X6.350000*%
%ADD39RoundRect,0.218750X0.218750X0.256250X-0.218750X0.256250X-0.218750X-0.256250X0.218750X-0.256250X0*%
%ADD40R,2.600000X3.600000*%
%ADD41RoundRect,0.250000X-0.315000X0.315000X-0.315000X-0.315000X0.315000X-0.315000X0.315000X0.315000X0*%
%ADD42RoundRect,0.062500X-0.062500X0.350000X-0.062500X-0.350000X0.062500X-0.350000X0.062500X0.350000X0*%
%ADD43RoundRect,0.062500X-0.350000X0.062500X-0.350000X-0.062500X0.350000X-0.062500X0.350000X0.062500X0*%
%ADD44RoundRect,0.250000X-1.000000X1.500000X-1.000000X-1.500000X1.000000X-1.500000X1.000000X1.500000X0*%
%ADD45R,1.000000X1.800000*%
%ADD46RoundRect,0.250000X-0.850000X0.375000X-0.850000X-0.375000X0.850000X-0.375000X0.850000X0.375000X0*%
%ADD47R,1.700000X1.000000*%
%ADD48RoundRect,0.250000X1.000000X-1.500000X1.000000X1.500000X-1.000000X1.500000X-1.000000X-1.500000X0*%
%ADD49R,1.550000X0.600000*%
%ADD50R,2.600000X3.100000*%
%ADD51RoundRect,0.150000X0.150000X-0.825000X0.150000X0.825000X-0.150000X0.825000X-0.150000X-0.825000X0*%
%ADD52RoundRect,0.249999X0.395001X0.395001X-0.395001X0.395001X-0.395001X-0.395001X0.395001X-0.395001X0*%
%ADD53RoundRect,0.050000X0.387500X0.050000X-0.387500X0.050000X-0.387500X-0.050000X0.387500X-0.050000X0*%
%ADD54RoundRect,0.050000X0.050000X0.387500X-0.050000X0.387500X-0.050000X-0.387500X0.050000X-0.387500X0*%
%ADD55R,0.675000X0.250000*%
%ADD56R,0.250000X0.675000*%
%ADD57R,0.700000X1.750000*%
%ADD58R,1.450000X1.000000*%
%ADD59R,1.000000X1.550000*%
%ADD60R,0.800000X1.500000*%
%ADD61R,1.300000X1.500000*%
%ADD62R,1.500000X1.500000*%
%ADD63R,0.800000X1.400000*%
%ADD64RoundRect,0.250000X0.450000X-0.350000X0.450000X0.350000X-0.450000X0.350000X-0.450000X-0.350000X0*%
%ADD65RoundRect,0.250000X-0.850000X-0.350000X0.850000X-0.350000X0.850000X0.350000X-0.850000X0.350000X0*%
%ADD66RoundRect,0.250000X-1.275000X-1.125000X1.275000X-1.125000X1.275000X1.125000X-1.275000X1.125000X0*%
%ADD67R,1.400000X1.200000*%
%ADD68RoundRect,0.218750X-0.256250X0.218750X-0.256250X-0.218750X0.256250X-0.218750X0.256250X0.218750X0*%
%ADD69RoundRect,0.250000X-0.450000X0.350000X-0.450000X-0.350000X0.450000X-0.350000X0.450000X0.350000X0*%
%ADD70RoundRect,0.375000X0.375000X-0.875000X0.375000X0.875000X-0.375000X0.875000X-0.375000X-0.875000X0*%
%ADD71RoundRect,0.250000X1.000000X0.650000X-1.000000X0.650000X-1.000000X-0.650000X1.000000X-0.650000X0*%
%ADD72RoundRect,0.250000X0.900000X-1.000000X0.900000X1.000000X-0.900000X1.000000X-0.900000X-1.000000X0*%
%ADD73R,0.850000X0.300000*%
%ADD74C,1.100000*%
%ADD75RoundRect,1.500000X1.500000X1.500000X-1.500000X1.500000X-1.500000X-1.500000X1.500000X-1.500000X0*%
%ADD76RoundRect,0.250000X-1.000000X-0.900000X1.000000X-0.900000X1.000000X0.900000X-1.000000X0.900000X0*%
%ADD77RoundRect,0.150000X0.725000X0.150000X-0.725000X0.150000X-0.725000X-0.150000X0.725000X-0.150000X0*%
%ADD78R,3.100000X5.000000*%
%ADD79RoundRect,0.250000X0.262500X0.450000X-0.262500X0.450000X-0.262500X-0.450000X0.262500X-0.450000X0*%
%ADD80RoundRect,0.150000X0.650000X0.150000X-0.650000X0.150000X-0.650000X-0.150000X0.650000X-0.150000X0*%
%ADD81RoundRect,0.150000X-0.587500X-0.150000X0.587500X-0.150000X0.587500X0.150000X-0.587500X0.150000X0*%
G04 APERTURE END LIST*
D10*
%TO.C,R95*%
X129187500Y-61962500D03*
X129187500Y-59037500D03*
%TD*%
%TO.C,R67*%
X129187500Y-23962500D03*
X129187500Y-21037500D03*
%TD*%
D11*
%TO.C,Q123*%
X229337500Y-61800000D03*
X229337500Y-59900000D03*
X227462500Y-60850000D03*
%TD*%
D12*
%TO.C,C43*%
X141400000Y-17275000D03*
X141400000Y-20225000D03*
%TD*%
D10*
%TO.C,R151*%
X177150000Y-80962500D03*
X177150000Y-78037500D03*
%TD*%
D11*
%TO.C,Q47*%
X141375000Y-42700000D03*
X141375000Y-40800000D03*
X139500000Y-41750000D03*
%TD*%
D13*
%TO.C,R237*%
X208475000Y-44962500D03*
X211400000Y-44962500D03*
%TD*%
D10*
%TO.C,R59*%
X121187500Y-99962500D03*
X121187500Y-97037500D03*
%TD*%
D14*
%TO.C,R52*%
X120187500Y-85925000D03*
X120187500Y-87575000D03*
%TD*%
D15*
%TO.C,D28*%
X120937500Y-74450000D03*
X120937500Y-76550000D03*
%TD*%
D10*
%TO.C,R227*%
X209187500Y-61962500D03*
X209187500Y-59037500D03*
%TD*%
D16*
%TO.C,Q78*%
X185700000Y-68187500D03*
X187600000Y-68187500D03*
X186650000Y-66312500D03*
%TD*%
D14*
%TO.C,R20*%
X104462500Y-28987500D03*
X104462500Y-30637500D03*
%TD*%
D15*
%TO.C,D59*%
X157437500Y-25200000D03*
X157437500Y-27300000D03*
%TD*%
%TO.C,D29*%
X125437500Y-101200000D03*
X125437500Y-103300000D03*
%TD*%
D17*
%TO.C,C1011*%
X106900000Y-57175000D03*
X106900000Y-55625000D03*
%TD*%
D11*
%TO.C,Q25*%
X133375000Y-23700000D03*
X133375000Y-21800000D03*
X131500000Y-22750000D03*
%TD*%
D18*
%TO.C,R303*%
X211325000Y-145500000D03*
X209675000Y-145500000D03*
%TD*%
D10*
%TO.C,R51*%
X121150000Y-42962500D03*
X121150000Y-40037500D03*
%TD*%
%TO.C,R195*%
X193187500Y-42962500D03*
X193187500Y-40037500D03*
%TD*%
D13*
%TO.C,R205*%
X192475000Y-25962500D03*
X195400000Y-25962500D03*
%TD*%
D19*
%TO.C,R158*%
X171037500Y-15037500D03*
X171037500Y-17962500D03*
%TD*%
D20*
%TO.C,C9*%
X196775000Y-105000000D03*
X195225000Y-105000000D03*
%TD*%
D21*
%TO.C,U1004*%
X105810000Y-36525000D03*
X104540000Y-36525000D03*
X103270000Y-36525000D03*
X102000000Y-36525000D03*
X100730000Y-36525000D03*
X99460000Y-36525000D03*
X98190000Y-36525000D03*
X98190000Y-41475000D03*
X99460000Y-41475000D03*
X100730000Y-41475000D03*
X102000000Y-41475000D03*
X103270000Y-41475000D03*
X104540000Y-41475000D03*
X105810000Y-41475000D03*
%TD*%
D10*
%TO.C,R243*%
X217187500Y-80962500D03*
X217187500Y-78037500D03*
%TD*%
D16*
%TO.C,Q50*%
X153737500Y-68187500D03*
X155637500Y-68187500D03*
X154687500Y-66312500D03*
%TD*%
D12*
%TO.C,C59*%
X173400000Y-74375000D03*
X173400000Y-77325000D03*
%TD*%
%TO.C,C76*%
X205400000Y-55375000D03*
X205400000Y-58325000D03*
%TD*%
D13*
%TO.C,R21*%
X104750000Y-26025000D03*
X107675000Y-26025000D03*
%TD*%
D22*
%TO.C,C104*%
X137524999Y-122000000D03*
X140475001Y-122000000D03*
%TD*%
D12*
%TO.C,C42*%
X133437500Y-17275000D03*
X133437500Y-20225000D03*
%TD*%
D11*
%TO.C,Q1009*%
X91187500Y-154425000D03*
X91187500Y-152525000D03*
X89312500Y-153475000D03*
%TD*%
%TO.C,Q79*%
X181375000Y-23700000D03*
X181375000Y-21800000D03*
X179500000Y-22750000D03*
%TD*%
D20*
%TO.C,C13*%
X189275000Y-105000000D03*
X187725000Y-105000000D03*
%TD*%
D19*
%TO.C,R22*%
X107000000Y-15000000D03*
X107000000Y-17925000D03*
%TD*%
D23*
%TO.C,R283*%
X223175000Y-134000000D03*
X224825000Y-134000000D03*
%TD*%
D14*
%TO.C,R84*%
X144187500Y-28925000D03*
X144187500Y-30575000D03*
%TD*%
D11*
%TO.C,Q1062*%
X91187500Y-57700000D03*
X91187500Y-55800000D03*
X89312500Y-56750000D03*
%TD*%
%TO.C,Q1053*%
X82250000Y-75650000D03*
X82250000Y-73750000D03*
X80375000Y-74700000D03*
%TD*%
D24*
%TO.C,R1097*%
X78250000Y-41837500D03*
X78250000Y-43662500D03*
%TD*%
D12*
%TO.C,C93*%
X229437500Y-74275000D03*
X229437500Y-77225000D03*
%TD*%
D25*
%TO.C,R1009*%
X84250000Y-55400000D03*
X84250000Y-53750000D03*
%TD*%
D12*
%TO.C,C30*%
X101400000Y-17375000D03*
X101400000Y-20325000D03*
%TD*%
D19*
%TO.C,R66*%
X131037500Y-15037500D03*
X131037500Y-17962500D03*
%TD*%
D14*
%TO.C,R76*%
X128187500Y-47925000D03*
X128187500Y-49575000D03*
%TD*%
D11*
%TO.C,Q81*%
X189375000Y-42700000D03*
X189375000Y-40800000D03*
X187500000Y-41750000D03*
%TD*%
D12*
%TO.C,C69*%
X181437500Y-17275000D03*
X181437500Y-20225000D03*
%TD*%
D14*
%TO.C,R156*%
X168187500Y-28925000D03*
X168187500Y-30575000D03*
%TD*%
D12*
%TO.C,C48*%
X141400000Y-74375000D03*
X141400000Y-77325000D03*
%TD*%
D15*
%TO.C,D13*%
X117750000Y-25412500D03*
X117750000Y-27512500D03*
%TD*%
D12*
%TO.C,C61*%
X165437500Y-17275000D03*
X165437500Y-20225000D03*
%TD*%
D15*
%TO.C,D93*%
X197437500Y-63200000D03*
X197437500Y-65300000D03*
%TD*%
D24*
%TO.C,R1098*%
X78250000Y-25837500D03*
X78250000Y-27662500D03*
%TD*%
D10*
%TO.C,R79*%
X129187500Y-42962500D03*
X129187500Y-40037500D03*
%TD*%
D25*
%TO.C,R1004*%
X84250000Y-143575000D03*
X84250000Y-141925000D03*
%TD*%
D15*
%TO.C,D15*%
X117550000Y-44187500D03*
X117550000Y-46287500D03*
%TD*%
D14*
%TO.C,R236*%
X208187500Y-47925000D03*
X208187500Y-49575000D03*
%TD*%
D24*
%TO.C,R1126*%
X87250000Y-92737500D03*
X87250000Y-94562500D03*
%TD*%
D23*
%TO.C,R300*%
X198175000Y-160900000D03*
X199825000Y-160900000D03*
%TD*%
D13*
%TO.C,R145*%
X168475000Y-44962500D03*
X171400000Y-44962500D03*
%TD*%
D19*
%TO.C,R46*%
X115037500Y-72037500D03*
X115037500Y-74962500D03*
%TD*%
D24*
%TO.C,R1028*%
X87250000Y-136737500D03*
X87250000Y-138562500D03*
%TD*%
D15*
%TO.C,D125*%
X221400000Y-25162500D03*
X221400000Y-27262500D03*
%TD*%
D26*
%TO.C,U1002*%
X98162500Y-121555000D03*
X98162500Y-122825000D03*
X98162500Y-124095000D03*
X98162500Y-125365000D03*
X98162500Y-126635000D03*
X98162500Y-127905000D03*
X98162500Y-129175000D03*
X98162500Y-130445000D03*
X104337500Y-130445000D03*
X104337500Y-129175000D03*
X104337500Y-127905000D03*
X104337500Y-126635000D03*
X104337500Y-125365000D03*
X104337500Y-124095000D03*
X104337500Y-122825000D03*
X104337500Y-121555000D03*
%TD*%
D13*
%TO.C,R77*%
X128475000Y-44962500D03*
X131400000Y-44962500D03*
%TD*%
D20*
%TO.C,C1001*%
X112187500Y-109112500D03*
X110637500Y-109112500D03*
%TD*%
D11*
%TO.C,Q1024*%
X91187500Y-39200000D03*
X91187500Y-37300000D03*
X89312500Y-38250000D03*
%TD*%
D15*
%TO.C,D48*%
X128937500Y-55450000D03*
X128937500Y-57550000D03*
%TD*%
D11*
%TO.C,Q41*%
X141337500Y-61800000D03*
X141337500Y-59900000D03*
X139462500Y-60850000D03*
%TD*%
D16*
%TO.C,Q124*%
X225700000Y-68287500D03*
X227600000Y-68287500D03*
X226650000Y-66412500D03*
%TD*%
D10*
%TO.C,R135*%
X169150000Y-81062500D03*
X169150000Y-78137500D03*
%TD*%
D25*
%TO.C,R1087*%
X93250000Y-77400000D03*
X93250000Y-75750000D03*
%TD*%
D15*
%TO.C,D69*%
X173437500Y-63200000D03*
X173437500Y-65300000D03*
%TD*%
%TO.C,D71*%
X165437500Y-25200000D03*
X165437500Y-27300000D03*
%TD*%
%TO.C,D131*%
X229400000Y-63300000D03*
X229400000Y-65400000D03*
%TD*%
D25*
%TO.C,R1118*%
X93250000Y-94400000D03*
X93250000Y-92750000D03*
%TD*%
%TO.C,R1084*%
X93250000Y-130575000D03*
X93250000Y-128925000D03*
%TD*%
D23*
%TO.C,R295*%
X165887500Y-91000000D03*
X167537500Y-91000000D03*
%TD*%
D25*
%TO.C,R1054*%
X93250000Y-102400000D03*
X93250000Y-100750000D03*
%TD*%
D15*
%TO.C,D107*%
X213400000Y-101300000D03*
X213400000Y-103400000D03*
%TD*%
D25*
%TO.C,R1116*%
X93250000Y-126400000D03*
X93250000Y-124750000D03*
%TD*%
D24*
%TO.C,R1123*%
X87250000Y-140737500D03*
X87250000Y-142562500D03*
%TD*%
D16*
%TO.C,Q34*%
X129737500Y-87187500D03*
X131637500Y-87187500D03*
X130687500Y-85312500D03*
%TD*%
D25*
%TO.C,R1035*%
X84250000Y-155575000D03*
X84250000Y-153925000D03*
%TD*%
D11*
%TO.C,Q109*%
X221337500Y-99800000D03*
X221337500Y-97900000D03*
X219462500Y-98850000D03*
%TD*%
D15*
%TO.C,D45*%
X141400000Y-82300000D03*
X141400000Y-84400000D03*
%TD*%
D24*
%TO.C,R1018*%
X87250000Y-40837500D03*
X87250000Y-42662500D03*
%TD*%
D10*
%TO.C,R251*%
X217150000Y-23925000D03*
X217150000Y-21000000D03*
%TD*%
D15*
%TO.C,D67*%
X173400000Y-82300000D03*
X173400000Y-84400000D03*
%TD*%
D19*
%TO.C,R254*%
X219037500Y-53037500D03*
X219037500Y-55962500D03*
%TD*%
D14*
%TO.C,R200*%
X200150000Y-67025000D03*
X200150000Y-68675000D03*
%TD*%
D13*
%TO.C,R137*%
X168475000Y-63962500D03*
X171400000Y-63962500D03*
%TD*%
D24*
%TO.C,R1108*%
X78250000Y-129650000D03*
X78250000Y-131475000D03*
%TD*%
D19*
%TO.C,R86*%
X147037500Y-15037500D03*
X147037500Y-17962500D03*
%TD*%
D26*
%TO.C,U1005*%
X98162500Y-110555000D03*
X98162500Y-111825000D03*
X98162500Y-113095000D03*
X98162500Y-114365000D03*
X98162500Y-115635000D03*
X98162500Y-116905000D03*
X98162500Y-118175000D03*
X98162500Y-119445000D03*
X104337500Y-119445000D03*
X104337500Y-118175000D03*
X104337500Y-116905000D03*
X104337500Y-115635000D03*
X104337500Y-114365000D03*
X104337500Y-113095000D03*
X104337500Y-111825000D03*
X104337500Y-110555000D03*
%TD*%
D12*
%TO.C,C40*%
X125437500Y-93275000D03*
X125437500Y-96225000D03*
%TD*%
D11*
%TO.C,Q89*%
X197375000Y-42700000D03*
X197375000Y-40800000D03*
X195500000Y-41750000D03*
%TD*%
D25*
%TO.C,R1003*%
X93250000Y-158300000D03*
X93250000Y-156650000D03*
%TD*%
%TO.C,R1008*%
X84250000Y-71487500D03*
X84250000Y-69837500D03*
%TD*%
D11*
%TO.C,Q31*%
X133375000Y-42700000D03*
X133375000Y-40800000D03*
X131500000Y-41750000D03*
%TD*%
D25*
%TO.C,R1115*%
X93250000Y-142575000D03*
X93250000Y-140925000D03*
%TD*%
D10*
%TO.C,R191*%
X185187500Y-23962500D03*
X185187500Y-21037500D03*
%TD*%
%TO.C,R75*%
X129187500Y-99962500D03*
X129187500Y-97037500D03*
%TD*%
D12*
%TO.C,C68*%
X189400000Y-55275000D03*
X189400000Y-58225000D03*
%TD*%
D19*
%TO.C,R18*%
X99000000Y-15137500D03*
X99000000Y-18062500D03*
%TD*%
D14*
%TO.C,R104*%
X144150000Y-47887500D03*
X144150000Y-49537500D03*
%TD*%
%TO.C,R212*%
X208150000Y-105025000D03*
X208150000Y-106675000D03*
%TD*%
D13*
%TO.C,R33*%
X112437500Y-63925000D03*
X115362500Y-63925000D03*
%TD*%
D11*
%TO.C,Q1034*%
X82187500Y-135600000D03*
X82187500Y-133700000D03*
X80312500Y-134650000D03*
%TD*%
D27*
%TO.C,D6*%
X206712500Y-145500000D03*
X208287500Y-145500000D03*
%TD*%
D12*
%TO.C,C80*%
X213400000Y-74375000D03*
X213400000Y-77325000D03*
%TD*%
D28*
%TO.C,C99*%
X117825000Y-119800000D03*
X119375000Y-119800000D03*
%TD*%
D13*
%TO.C,R165*%
X184437500Y-82962500D03*
X187362500Y-82962500D03*
%TD*%
D28*
%TO.C,C14*%
X181125000Y-105100000D03*
X182675000Y-105100000D03*
%TD*%
D14*
%TO.C,R164*%
X184150000Y-85925000D03*
X184150000Y-87575000D03*
%TD*%
D15*
%TO.C,D10*%
X96900000Y-17550000D03*
X96900000Y-19650000D03*
%TD*%
D12*
%TO.C,C82*%
X213437500Y-55275000D03*
X213437500Y-58225000D03*
%TD*%
D14*
%TO.C,R192*%
X192187500Y-47925000D03*
X192187500Y-49575000D03*
%TD*%
D15*
%TO.C,D27*%
X125437500Y-82200000D03*
X125437500Y-84300000D03*
%TD*%
D29*
%TO.C,U10*%
X194475000Y-103445000D03*
X194475000Y-102175000D03*
X194475000Y-100905000D03*
X194475000Y-99635000D03*
X194475000Y-98365000D03*
X194475000Y-97095000D03*
X194475000Y-95825000D03*
X194475000Y-94555000D03*
X189525000Y-94555000D03*
X189525000Y-95825000D03*
X189525000Y-97095000D03*
X189525000Y-98365000D03*
X189525000Y-99635000D03*
X189525000Y-100905000D03*
X189525000Y-102175000D03*
X189525000Y-103445000D03*
%TD*%
D14*
%TO.C,R220*%
X200150000Y-29025000D03*
X200150000Y-30675000D03*
%TD*%
D24*
%TO.C,R1066*%
X78250000Y-29837500D03*
X78250000Y-31662500D03*
%TD*%
D23*
%TO.C,R298*%
X165887500Y-92500000D03*
X167537500Y-92500000D03*
%TD*%
D25*
%TO.C,R1037*%
X84250000Y-123575000D03*
X84250000Y-121925000D03*
%TD*%
D12*
%TO.C,C37*%
X117437500Y-74275000D03*
X117437500Y-77225000D03*
%TD*%
D25*
%TO.C,R1010*%
X93187500Y-43575000D03*
X93187500Y-41925000D03*
%TD*%
D11*
%TO.C,Q1038*%
X82250000Y-63750000D03*
X82250000Y-61850000D03*
X80375000Y-62800000D03*
%TD*%
D16*
%TO.C,Q4*%
X106012500Y-30250000D03*
X107912500Y-30250000D03*
X106962500Y-28375000D03*
%TD*%
D23*
%TO.C,R296*%
X107175000Y-116500000D03*
X108825000Y-116500000D03*
%TD*%
D30*
%TO.C,C18*%
X201500000Y-165625000D03*
X201500000Y-167175000D03*
%TD*%
D11*
%TO.C,Q1045*%
X91250000Y-77650000D03*
X91250000Y-75750000D03*
X89375000Y-76700000D03*
%TD*%
D10*
%TO.C,R223*%
X201150000Y-24062500D03*
X201150000Y-21137500D03*
%TD*%
D31*
%TO.C,C94*%
X113500000Y-150475000D03*
X113500000Y-147525000D03*
%TD*%
D13*
%TO.C,R169*%
X184437500Y-63962500D03*
X187362500Y-63962500D03*
%TD*%
D12*
%TO.C,C92*%
X229400000Y-36237500D03*
X229400000Y-39187500D03*
%TD*%
D11*
%TO.C,Q11*%
X117375000Y-99700000D03*
X117375000Y-97800000D03*
X115500000Y-98750000D03*
%TD*%
D27*
%TO.C,D139*%
X206712500Y-144000000D03*
X208287500Y-144000000D03*
%TD*%
D24*
%TO.C,R1048*%
X78250000Y-65837500D03*
X78250000Y-67662500D03*
%TD*%
D16*
%TO.C,Q18*%
X121700000Y-49187500D03*
X123600000Y-49187500D03*
X122650000Y-47312500D03*
%TD*%
%TO.C,Q102*%
X209700000Y-87287500D03*
X211600000Y-87287500D03*
X210650000Y-85412500D03*
%TD*%
D32*
%TO.C,H5*%
X90000000Y-21000000D03*
%TD*%
D11*
%TO.C,Q1032*%
X82187500Y-31700000D03*
X82187500Y-29800000D03*
X80312500Y-30750000D03*
%TD*%
D10*
%TO.C,R63*%
X121187500Y-61962500D03*
X121187500Y-59037500D03*
%TD*%
D19*
%TO.C,R142*%
X163037500Y-15037500D03*
X163037500Y-17962500D03*
%TD*%
D24*
%TO.C,R1112*%
X78250000Y-57837500D03*
X78250000Y-59662500D03*
%TD*%
D11*
%TO.C,Q1013*%
X82250000Y-91650000D03*
X82250000Y-89750000D03*
X80375000Y-90700000D03*
%TD*%
D24*
%TO.C,R1078*%
X78250000Y-101737500D03*
X78250000Y-103562500D03*
%TD*%
D15*
%TO.C,D30*%
X120937500Y-93450000D03*
X120937500Y-95550000D03*
%TD*%
D33*
%TO.C,U1*%
X210800000Y-133850000D03*
X208500000Y-133850001D03*
D34*
X208500000Y-140149999D03*
D33*
X206200000Y-133850000D03*
%TD*%
D35*
%TO.C,C105*%
X131000000Y-117400001D03*
X131000000Y-124599999D03*
%TD*%
D10*
%TO.C,R247*%
X217150000Y-42925000D03*
X217150000Y-40000000D03*
%TD*%
D16*
%TO.C,Q90*%
X193737500Y-49187500D03*
X195637500Y-49187500D03*
X194687500Y-47312500D03*
%TD*%
D11*
%TO.C,Q1019*%
X82250000Y-123550000D03*
X82250000Y-121650000D03*
X80375000Y-122600000D03*
%TD*%
%TO.C,Q1005*%
X82250000Y-95650000D03*
X82250000Y-93750000D03*
X80375000Y-94700000D03*
%TD*%
D16*
%TO.C,Q118*%
X217700000Y-30150000D03*
X219600000Y-30150000D03*
X218650000Y-28275000D03*
%TD*%
D11*
%TO.C,Q1035*%
X82250000Y-119650000D03*
X82250000Y-117750000D03*
X80375000Y-118700000D03*
%TD*%
D30*
%TO.C,C1002*%
X107000000Y-110475000D03*
X107000000Y-112025000D03*
%TD*%
D15*
%TO.C,D49*%
X141400000Y-63300000D03*
X141400000Y-65400000D03*
%TD*%
D11*
%TO.C,Q1012*%
X91187500Y-106600000D03*
X91187500Y-104700000D03*
X89312500Y-105650000D03*
%TD*%
%TO.C,Q33*%
X133375000Y-80700000D03*
X133375000Y-78800000D03*
X131500000Y-79750000D03*
%TD*%
D15*
%TO.C,D89*%
X189437500Y-44200000D03*
X189437500Y-46300000D03*
%TD*%
D36*
%TO.C,U1001*%
X109725000Y-111100000D03*
X109725000Y-112050000D03*
X109725000Y-113000000D03*
X112000000Y-113000000D03*
X112000000Y-111100000D03*
%TD*%
D11*
%TO.C,Q1010*%
X91187500Y-138600000D03*
X91187500Y-136700000D03*
X89312500Y-137650000D03*
%TD*%
D24*
%TO.C,R1076*%
X78250000Y-133825000D03*
X78250000Y-135650000D03*
%TD*%
%TO.C,R1059*%
X87312500Y-148687500D03*
X87312500Y-150512500D03*
%TD*%
D17*
%TO.C,C20*%
X201500000Y-151775000D03*
X201500000Y-150225000D03*
%TD*%
D12*
%TO.C,C49*%
X133437500Y-55275000D03*
X133437500Y-58225000D03*
%TD*%
D25*
%TO.C,R1083*%
X93250000Y-146575000D03*
X93250000Y-144925000D03*
%TD*%
D13*
%TO.C,R249*%
X216437500Y-25925000D03*
X219362500Y-25925000D03*
%TD*%
D25*
%TO.C,R1086*%
X93250000Y-98400000D03*
X93250000Y-96750000D03*
%TD*%
%TO.C,R6*%
X117175000Y-111350000D03*
X117175000Y-109700000D03*
%TD*%
D10*
%TO.C,R263*%
X225150000Y-62062500D03*
X225150000Y-59137500D03*
%TD*%
%TO.C,R99*%
X137150000Y-62062500D03*
X137150000Y-59137500D03*
%TD*%
%TO.C,R87*%
X145187500Y-23962500D03*
X145187500Y-21037500D03*
%TD*%
D37*
%TO.C,D7*%
X118675000Y-111312501D03*
X118675000Y-109737499D03*
%TD*%
D25*
%TO.C,R1068*%
X84250000Y-135575000D03*
X84250000Y-133925000D03*
%TD*%
D15*
%TO.C,D42*%
X128937500Y-74450000D03*
X128937500Y-76550000D03*
%TD*%
D24*
%TO.C,R1077*%
X78250000Y-117650000D03*
X78250000Y-119475000D03*
%TD*%
D16*
%TO.C,Q44*%
X145737500Y-68187500D03*
X147637500Y-68187500D03*
X146687500Y-66312500D03*
%TD*%
D12*
%TO.C,C65*%
X173437500Y-17275000D03*
X173437500Y-20225000D03*
%TD*%
D15*
%TO.C,D83*%
X189400000Y-82200000D03*
X189400000Y-84300000D03*
%TD*%
D28*
%TO.C,C12*%
X165125000Y-105100000D03*
X166675000Y-105100000D03*
%TD*%
%TO.C,C5*%
X200025000Y-142300000D03*
X201575000Y-142300000D03*
%TD*%
D20*
%TO.C,C25*%
X200775000Y-163400000D03*
X199225000Y-163400000D03*
%TD*%
D38*
%TO.C,BT1*%
X193030000Y-137900000D03*
X114370000Y-137900000D03*
%TD*%
D25*
%TO.C,R1071*%
X84250000Y-79575000D03*
X84250000Y-77925000D03*
%TD*%
D29*
%TO.C,U7*%
X170475000Y-103445000D03*
X170475000Y-102175000D03*
X170475000Y-100905000D03*
X170475000Y-99635000D03*
X170475000Y-98365000D03*
X170475000Y-97095000D03*
X170475000Y-95825000D03*
X170475000Y-94555000D03*
X165525000Y-94555000D03*
X165525000Y-95825000D03*
X165525000Y-97095000D03*
X165525000Y-98365000D03*
X165525000Y-99635000D03*
X165525000Y-100905000D03*
X165525000Y-102175000D03*
X165525000Y-103445000D03*
%TD*%
D12*
%TO.C,C78*%
X205400000Y-36375000D03*
X205400000Y-39325000D03*
%TD*%
D15*
%TO.C,D85*%
X189400000Y-63200000D03*
X189400000Y-65300000D03*
%TD*%
D19*
%TO.C,R130*%
X163037500Y-34037500D03*
X163037500Y-36962500D03*
%TD*%
D39*
%TO.C,D1*%
X170500001Y-91000000D03*
X168924999Y-91000000D03*
%TD*%
D40*
%TO.C,BT3*%
X187650000Y-116000000D03*
X158350000Y-116000000D03*
%TD*%
D19*
%TO.C,R210*%
X203000000Y-34137500D03*
X203000000Y-37062500D03*
%TD*%
D18*
%TO.C,R287*%
X224827500Y-135500000D03*
X223177500Y-135500000D03*
%TD*%
D15*
%TO.C,D35*%
X141400000Y-25200000D03*
X141400000Y-27300000D03*
%TD*%
D11*
%TO.C,Q71*%
X173375000Y-23700000D03*
X173375000Y-21800000D03*
X171500000Y-22750000D03*
%TD*%
D16*
%TO.C,Q46*%
X145700000Y-49150000D03*
X147600000Y-49150000D03*
X146650000Y-47275000D03*
%TD*%
D18*
%TO.C,R299*%
X211325000Y-147000000D03*
X209675000Y-147000000D03*
%TD*%
D23*
%TO.C,R289*%
X223175000Y-124500000D03*
X224825000Y-124500000D03*
%TD*%
D16*
%TO.C,Q52*%
X153737500Y-30187500D03*
X155637500Y-30187500D03*
X154687500Y-28312500D03*
%TD*%
D15*
%TO.C,D44*%
X144937500Y-17450000D03*
X144937500Y-19550000D03*
%TD*%
%TO.C,D60*%
X152937500Y-17450000D03*
X152937500Y-19550000D03*
%TD*%
D11*
%TO.C,Q51*%
X157375000Y-23700000D03*
X157375000Y-21800000D03*
X155500000Y-22750000D03*
%TD*%
D15*
%TO.C,D16*%
X112862500Y-36550000D03*
X112862500Y-38650000D03*
%TD*%
D19*
%TO.C,R30*%
X115000000Y-34000000D03*
X115000000Y-36925000D03*
%TD*%
D10*
%TO.C,R207*%
X193187500Y-23962500D03*
X193187500Y-21037500D03*
%TD*%
D21*
%TO.C,U19*%
X199205000Y-125925000D03*
X197935000Y-125925000D03*
X196665000Y-125925000D03*
X195395000Y-125925000D03*
X195395000Y-130875000D03*
X196665000Y-130875000D03*
X197935000Y-130875000D03*
X199205000Y-130875000D03*
%TD*%
D26*
%TO.C,U1009*%
X98162500Y-66555000D03*
X98162500Y-67825000D03*
X98162500Y-69095000D03*
X98162500Y-70365000D03*
X98162500Y-71635000D03*
X98162500Y-72905000D03*
X98162500Y-74175000D03*
X98162500Y-75445000D03*
X104337500Y-75445000D03*
X104337500Y-74175000D03*
X104337500Y-72905000D03*
X104337500Y-71635000D03*
X104337500Y-70365000D03*
X104337500Y-69095000D03*
X104337500Y-67825000D03*
X104337500Y-66555000D03*
%TD*%
D16*
%TO.C,Q54*%
X161737500Y-68187500D03*
X163637500Y-68187500D03*
X162687500Y-66312500D03*
%TD*%
D11*
%TO.C,Q17*%
X125337500Y-42700000D03*
X125337500Y-40800000D03*
X123462500Y-41750000D03*
%TD*%
D41*
%TO.C,U16*%
X119875000Y-115000000D03*
X118575000Y-115000000D03*
X119875000Y-116300000D03*
X118575000Y-116300000D03*
D42*
X120475000Y-113712500D03*
X119975000Y-113712501D03*
X119475000Y-113712500D03*
X118975000Y-113712500D03*
X118475000Y-113712501D03*
X117975000Y-113712500D03*
D43*
X117287500Y-114400000D03*
X117287501Y-114900000D03*
X117287500Y-115400000D03*
X117287500Y-115900000D03*
X117287501Y-116400000D03*
X117287500Y-116900000D03*
D42*
X117975000Y-117587500D03*
X118475000Y-117587499D03*
X118975000Y-117587500D03*
X119475000Y-117587500D03*
X119975000Y-117587499D03*
X120475000Y-117587500D03*
D43*
X121162500Y-116900000D03*
X121162499Y-116400000D03*
X121162500Y-115900000D03*
X121162500Y-115400000D03*
X121162499Y-114900000D03*
X121162500Y-114400000D03*
%TD*%
D24*
%TO.C,R1081*%
X78250000Y-45837500D03*
X78250000Y-47662500D03*
%TD*%
D14*
%TO.C,R140*%
X160187500Y-28925000D03*
X160187500Y-30575000D03*
%TD*%
D15*
%TO.C,D37*%
X133437500Y-101200000D03*
X133437500Y-103300000D03*
%TD*%
D12*
%TO.C,C75*%
X205400000Y-74375000D03*
X205400000Y-77325000D03*
%TD*%
D25*
%TO.C,R28*%
X112300000Y-49562500D03*
X112300000Y-47912500D03*
%TD*%
D24*
%TO.C,R1114*%
X86350000Y-30087500D03*
X86350000Y-31912500D03*
%TD*%
D17*
%TO.C,C19*%
X206100000Y-150975000D03*
X206100000Y-149425000D03*
%TD*%
D15*
%TO.C,D18*%
X112900000Y-55412500D03*
X112900000Y-57512500D03*
%TD*%
D11*
%TO.C,Q1029*%
X82250000Y-83700000D03*
X82250000Y-81800000D03*
X80375000Y-82750000D03*
%TD*%
D17*
%TO.C,C6*%
X111000000Y-154275000D03*
X111000000Y-152725000D03*
%TD*%
D32*
%TO.C,H2*%
X109000000Y-167000000D03*
%TD*%
D19*
%TO.C,R218*%
X211000000Y-72137500D03*
X211000000Y-75062500D03*
%TD*%
D11*
%TO.C,Q1043*%
X91187500Y-114600000D03*
X91187500Y-112700000D03*
X89312500Y-113650000D03*
%TD*%
D24*
%TO.C,R1096*%
X87250000Y-59837500D03*
X87250000Y-61662500D03*
%TD*%
D13*
%TO.C,R57*%
X120475000Y-101962500D03*
X123400000Y-101962500D03*
%TD*%
%TO.C,R129*%
X160475000Y-44962500D03*
X163400000Y-44962500D03*
%TD*%
D14*
%TO.C,R92*%
X128187500Y-66925000D03*
X128187500Y-68575000D03*
%TD*%
D12*
%TO.C,C79*%
X213400000Y-93375000D03*
X213400000Y-96325000D03*
%TD*%
D15*
%TO.C,D82*%
X176937500Y-36450000D03*
X176937500Y-38550000D03*
%TD*%
D11*
%TO.C,Q15*%
X117375000Y-80700000D03*
X117375000Y-78800000D03*
X115500000Y-79750000D03*
%TD*%
D25*
%TO.C,R1070*%
X84250000Y-103675000D03*
X84250000Y-102025000D03*
%TD*%
D12*
%TO.C,C46*%
X133437500Y-74275000D03*
X133437500Y-77225000D03*
%TD*%
D44*
%TO.C,C108*%
X219000000Y-162750000D03*
X219000000Y-169250000D03*
%TD*%
D45*
%TO.C,Y2*%
X196750001Y-123000000D03*
X199249999Y-123000000D03*
%TD*%
D15*
%TO.C,D128*%
X216937500Y-55450000D03*
X216937500Y-57550000D03*
%TD*%
D11*
%TO.C,Q1052*%
X82250000Y-99650000D03*
X82250000Y-97750000D03*
X80375000Y-98700000D03*
%TD*%
%TO.C,Q59*%
X173337500Y-80800000D03*
X173337500Y-78900000D03*
X171462500Y-79850000D03*
%TD*%
D16*
%TO.C,Q122*%
X225700000Y-106287500D03*
X227600000Y-106287500D03*
X226650000Y-104412500D03*
%TD*%
%TO.C,Q6*%
X114050000Y-30150000D03*
X115950000Y-30150000D03*
X115000000Y-28275000D03*
%TD*%
D15*
%TO.C,D39*%
X133437500Y-44200000D03*
X133437500Y-46300000D03*
%TD*%
D26*
%TO.C,U1012*%
X98162500Y-44305000D03*
X98162500Y-45575000D03*
X98162500Y-46845000D03*
X98162500Y-48115000D03*
X98162500Y-49385000D03*
X98162500Y-50655000D03*
X98162500Y-51925000D03*
X98162500Y-53195000D03*
X104337500Y-53195000D03*
X104337500Y-51925000D03*
X104337500Y-50655000D03*
X104337500Y-49385000D03*
X104337500Y-48115000D03*
X104337500Y-46845000D03*
X104337500Y-45575000D03*
X104337500Y-44305000D03*
%TD*%
D18*
%TO.C,R1*%
X215150000Y-138000000D03*
X213500000Y-138000000D03*
%TD*%
D19*
%TO.C,R74*%
X131037500Y-91037500D03*
X131037500Y-93962500D03*
%TD*%
D15*
%TO.C,D101*%
X205400000Y-63300000D03*
X205400000Y-65400000D03*
%TD*%
D13*
%TO.C,R213*%
X208437500Y-102062500D03*
X211362500Y-102062500D03*
%TD*%
D17*
%TO.C,C28*%
X203000000Y-151775000D03*
X203000000Y-150225000D03*
%TD*%
D19*
%TO.C,R206*%
X195037500Y-15037500D03*
X195037500Y-17962500D03*
%TD*%
D28*
%TO.C,C7*%
X177925000Y-105100000D03*
X179475000Y-105100000D03*
%TD*%
D19*
%TO.C,R246*%
X219000000Y-34000000D03*
X219000000Y-36925000D03*
%TD*%
D14*
%TO.C,R268*%
X224187500Y-85925000D03*
X224187500Y-87575000D03*
%TD*%
D46*
%TO.C,L2*%
X119500000Y-122925000D03*
X119500000Y-125075000D03*
%TD*%
D14*
%TO.C,R56*%
X120187500Y-104925000D03*
X120187500Y-106575000D03*
%TD*%
D19*
%TO.C,R58*%
X123037500Y-91037500D03*
X123037500Y-93962500D03*
%TD*%
D15*
%TO.C,D72*%
X160937500Y-17450000D03*
X160937500Y-19550000D03*
%TD*%
D13*
%TO.C,R197*%
X200437500Y-83062500D03*
X203362500Y-83062500D03*
%TD*%
D12*
%TO.C,C62*%
X173437500Y-36275000D03*
X173437500Y-39225000D03*
%TD*%
D15*
%TO.C,D80*%
X168937500Y-17450000D03*
X168937500Y-19550000D03*
%TD*%
D47*
%TO.C,SW1*%
X194750000Y-107100000D03*
X201050000Y-107100000D03*
X194750000Y-110900000D03*
X201050000Y-110900000D03*
%TD*%
D48*
%TO.C,C103*%
X139500000Y-113250000D03*
X139500000Y-106750000D03*
%TD*%
D14*
%TO.C,R124*%
X152187500Y-47925000D03*
X152187500Y-49575000D03*
%TD*%
D15*
%TO.C,D54*%
X144900000Y-36412500D03*
X144900000Y-38512500D03*
%TD*%
D13*
%TO.C,R65*%
X128475000Y-25962500D03*
X131400000Y-25962500D03*
%TD*%
D14*
%TO.C,R68*%
X136150000Y-28925000D03*
X136150000Y-30575000D03*
%TD*%
D11*
%TO.C,Q83*%
X197375000Y-80700000D03*
X197375000Y-78800000D03*
X195500000Y-79750000D03*
%TD*%
D14*
%TO.C,R60*%
X120187500Y-66925000D03*
X120187500Y-68575000D03*
%TD*%
D19*
%TO.C,R94*%
X131037500Y-53037500D03*
X131037500Y-55962500D03*
%TD*%
D23*
%TO.C,R273*%
X113850000Y-112525000D03*
X115500000Y-112525000D03*
%TD*%
D11*
%TO.C,Q1022*%
X82250000Y-67650000D03*
X82250000Y-65750000D03*
X80375000Y-66700000D03*
%TD*%
D15*
%TO.C,D12*%
X104800000Y-17412500D03*
X104800000Y-19512500D03*
%TD*%
D19*
%TO.C,R50*%
X123000000Y-34037500D03*
X123000000Y-36962500D03*
%TD*%
D12*
%TO.C,C90*%
X229400000Y-93375000D03*
X229400000Y-96325000D03*
%TD*%
D14*
%TO.C,R48*%
X120150000Y-47925000D03*
X120150000Y-49575000D03*
%TD*%
D16*
%TO.C,Q32*%
X129737500Y-49187500D03*
X131637500Y-49187500D03*
X130687500Y-47312500D03*
%TD*%
D19*
%TO.C,R82*%
X131037500Y-72037500D03*
X131037500Y-74962500D03*
%TD*%
D15*
%TO.C,D114*%
X208937500Y-55450000D03*
X208937500Y-57550000D03*
%TD*%
%TO.C,D121*%
X221437500Y-82200000D03*
X221437500Y-84300000D03*
%TD*%
D24*
%TO.C,R1015*%
X78375000Y-93700000D03*
X78375000Y-95525000D03*
%TD*%
D15*
%TO.C,D38*%
X128937500Y-93450000D03*
X128937500Y-95550000D03*
%TD*%
D11*
%TO.C,Q1031*%
X91250000Y-49700000D03*
X91250000Y-47800000D03*
X89375000Y-48750000D03*
%TD*%
%TO.C,Q37*%
X141337500Y-80800000D03*
X141337500Y-78900000D03*
X139462500Y-79850000D03*
%TD*%
D49*
%TO.C,U18*%
X232100000Y-144205000D03*
X232100000Y-142935000D03*
X232100000Y-141665000D03*
X232100000Y-140395000D03*
X226700000Y-140395000D03*
X226700000Y-141665000D03*
X226700000Y-142935000D03*
X226700000Y-144205000D03*
D50*
X229400000Y-142300000D03*
%TD*%
D25*
%TO.C,R1099*%
X84250000Y-147400000D03*
X84250000Y-145750000D03*
%TD*%
D11*
%TO.C,Q39*%
X133375000Y-61700000D03*
X133375000Y-59800000D03*
X131500000Y-60750000D03*
%TD*%
D15*
%TO.C,D61*%
X165437500Y-63200000D03*
X165437500Y-65300000D03*
%TD*%
D10*
%TO.C,R19*%
X97150000Y-24062500D03*
X97150000Y-21137500D03*
%TD*%
D14*
%TO.C,R204*%
X192187500Y-28925000D03*
X192187500Y-30575000D03*
%TD*%
D25*
%TO.C,R1119*%
X93250000Y-73675000D03*
X93250000Y-72025000D03*
%TD*%
D51*
%TO.C,U15*%
X191190000Y-118475000D03*
X192460000Y-118475000D03*
X193730000Y-118475000D03*
X195000000Y-118475000D03*
X196270000Y-118475000D03*
X197540000Y-118475000D03*
X198810000Y-118475000D03*
X198810000Y-113525000D03*
X197540000Y-113525000D03*
X196270000Y-113525000D03*
X195000000Y-113525000D03*
X193730000Y-113525000D03*
X192460000Y-113525000D03*
X191190000Y-113525000D03*
%TD*%
D10*
%TO.C,R255*%
X217187500Y-61962500D03*
X217187500Y-59037500D03*
%TD*%
D25*
%TO.C,R1020*%
X93250000Y-138575000D03*
X93250000Y-136925000D03*
%TD*%
D13*
%TO.C,R125*%
X152475000Y-44962500D03*
X155400000Y-44962500D03*
%TD*%
D19*
%TO.C,R182*%
X195037500Y-72037500D03*
X195037500Y-74962500D03*
%TD*%
D13*
%TO.C,R161*%
X176475000Y-44962500D03*
X179400000Y-44962500D03*
%TD*%
D39*
%TO.C,D3*%
X111787501Y-115000000D03*
X110212499Y-115000000D03*
%TD*%
D12*
%TO.C,C52*%
X149400000Y-36237500D03*
X149400000Y-39187500D03*
%TD*%
D11*
%TO.C,Q97*%
X205337500Y-42800000D03*
X205337500Y-40900000D03*
X203462500Y-41850000D03*
%TD*%
%TO.C,Q1026*%
X91250000Y-134550000D03*
X91250000Y-132650000D03*
X89375000Y-133600000D03*
%TD*%
D12*
%TO.C,C53*%
X141437500Y-36275000D03*
X141437500Y-39225000D03*
%TD*%
D18*
%TO.C,R294*%
X213825000Y-153000000D03*
X212175000Y-153000000D03*
%TD*%
D11*
%TO.C,Q1060*%
X91250000Y-94650000D03*
X91250000Y-92750000D03*
X89375000Y-93700000D03*
%TD*%
D19*
%TO.C,R34*%
X115000000Y-53000000D03*
X115000000Y-55925000D03*
%TD*%
D13*
%TO.C,R265*%
X224437500Y-44925000D03*
X227362500Y-44925000D03*
%TD*%
D15*
%TO.C,D34*%
X128937500Y-17450000D03*
X128937500Y-19550000D03*
%TD*%
%TO.C,D94*%
X192937500Y-55450000D03*
X192937500Y-57550000D03*
%TD*%
D20*
%TO.C,C22*%
X199775000Y-157900000D03*
X198225000Y-157900000D03*
%TD*%
D23*
%TO.C,R278*%
X123675000Y-118000000D03*
X125325000Y-118000000D03*
%TD*%
D11*
%TO.C,Q119*%
X221375000Y-61700000D03*
X221375000Y-59800000D03*
X219500000Y-60750000D03*
%TD*%
D10*
%TO.C,R267*%
X225150000Y-42925000D03*
X225150000Y-40000000D03*
%TD*%
D16*
%TO.C,Q16*%
X113737500Y-87187500D03*
X115637500Y-87187500D03*
X114687500Y-85312500D03*
%TD*%
D12*
%TO.C,C89*%
X221437500Y-55275000D03*
X221437500Y-58225000D03*
%TD*%
D15*
%TO.C,D88*%
X176937500Y-17450000D03*
X176937500Y-19550000D03*
%TD*%
D11*
%TO.C,Q55*%
X157375000Y-42700000D03*
X157375000Y-40800000D03*
X155500000Y-41750000D03*
%TD*%
D14*
%TO.C,R272*%
X121675000Y-109700000D03*
X121675000Y-111350000D03*
%TD*%
D52*
%TO.C,U14*%
X206800000Y-160800000D03*
X206800000Y-159200000D03*
X205200000Y-160800000D03*
X205200000Y-159200000D03*
D53*
X209437500Y-162600000D03*
X209437500Y-162200000D03*
X209437500Y-161800000D03*
X209437500Y-161400000D03*
X209437500Y-161000000D03*
X209437500Y-160600000D03*
X209437500Y-160200000D03*
X209437500Y-159800000D03*
X209437500Y-159400000D03*
X209437500Y-159000000D03*
X209437500Y-158600000D03*
X209437500Y-158200000D03*
X209437500Y-157800000D03*
X209437500Y-157400000D03*
D54*
X208600000Y-156562500D03*
X208200000Y-156562500D03*
X207800000Y-156562500D03*
X207400000Y-156562500D03*
X207000000Y-156562500D03*
X206600000Y-156562500D03*
X206200000Y-156562500D03*
X205800000Y-156562500D03*
X205400000Y-156562500D03*
X205000000Y-156562500D03*
X204600000Y-156562500D03*
X204200000Y-156562500D03*
X203800000Y-156562500D03*
X203400000Y-156562500D03*
D53*
X202562500Y-157400000D03*
X202562500Y-157800000D03*
X202562500Y-158200000D03*
X202562500Y-158600000D03*
X202562500Y-159000000D03*
X202562500Y-159400000D03*
X202562500Y-159800000D03*
X202562500Y-160200000D03*
X202562500Y-160600000D03*
X202562500Y-161000000D03*
X202562500Y-161400000D03*
X202562500Y-161800000D03*
X202562500Y-162200000D03*
X202562500Y-162600000D03*
D54*
X203400000Y-163437500D03*
X203800000Y-163437500D03*
X204200000Y-163437500D03*
X204600000Y-163437500D03*
X205000000Y-163437500D03*
X205400000Y-163437500D03*
X205800000Y-163437500D03*
X206200000Y-163437500D03*
X206600000Y-163437500D03*
X207000000Y-163437500D03*
X207400000Y-163437500D03*
X207800000Y-163437500D03*
X208200000Y-163437500D03*
X208600000Y-163437500D03*
%TD*%
D19*
%TO.C,R162*%
X179037500Y-34037500D03*
X179037500Y-36962500D03*
%TD*%
D15*
%TO.C,D130*%
X224900000Y-93550000D03*
X224900000Y-95650000D03*
%TD*%
D16*
%TO.C,Q106*%
X209737500Y-68187500D03*
X211637500Y-68187500D03*
X210687500Y-66312500D03*
%TD*%
D15*
%TO.C,D111*%
X205400000Y-25300000D03*
X205400000Y-27400000D03*
%TD*%
D23*
%TO.C,R275*%
X113850000Y-115525000D03*
X115500000Y-115525000D03*
%TD*%
D15*
%TO.C,D70*%
X168937500Y-55450000D03*
X168937500Y-57550000D03*
%TD*%
D14*
%TO.C,R232*%
X216150000Y-105025000D03*
X216150000Y-106675000D03*
%TD*%
D11*
%TO.C,Q1020*%
X82187500Y-107600000D03*
X82187500Y-105700000D03*
X80312500Y-106650000D03*
%TD*%
D15*
%TO.C,D108*%
X208900000Y-93550000D03*
X208900000Y-95650000D03*
%TD*%
%TO.C,D120*%
X208937500Y-36450000D03*
X208937500Y-38550000D03*
%TD*%
D18*
%TO.C,R290*%
X229825000Y-125000000D03*
X228175000Y-125000000D03*
%TD*%
D11*
%TO.C,Q1054*%
X82250000Y-59650000D03*
X82250000Y-57750000D03*
X80375000Y-58700000D03*
%TD*%
D15*
%TO.C,D26*%
X120900000Y-36450000D03*
X120900000Y-38550000D03*
%TD*%
D11*
%TO.C,Q1037*%
X82250000Y-79750000D03*
X82250000Y-77850000D03*
X80375000Y-78800000D03*
%TD*%
%TO.C,Q1044*%
X91250000Y-98550000D03*
X91250000Y-96650000D03*
X89375000Y-97600000D03*
%TD*%
D10*
%TO.C,R271*%
X225187500Y-80962500D03*
X225187500Y-78037500D03*
%TD*%
D15*
%TO.C,D112*%
X200900000Y-17550000D03*
X200900000Y-19650000D03*
%TD*%
D11*
%TO.C,Q77*%
X189337500Y-61700000D03*
X189337500Y-59800000D03*
X187462500Y-60750000D03*
%TD*%
%TO.C,Q1023*%
X82250000Y-51650000D03*
X82250000Y-49750000D03*
X80375000Y-50700000D03*
%TD*%
D10*
%TO.C,R127*%
X153187500Y-42962500D03*
X153187500Y-40037500D03*
%TD*%
D15*
%TO.C,D51*%
X149437500Y-63200000D03*
X149437500Y-65300000D03*
%TD*%
D26*
%TO.C,U1006*%
X98162500Y-99555000D03*
X98162500Y-100825000D03*
X98162500Y-102095000D03*
X98162500Y-103365000D03*
X98162500Y-104635000D03*
X98162500Y-105905000D03*
X98162500Y-107175000D03*
X98162500Y-108445000D03*
X104337500Y-108445000D03*
X104337500Y-107175000D03*
X104337500Y-105905000D03*
X104337500Y-104635000D03*
X104337500Y-103365000D03*
X104337500Y-102095000D03*
X104337500Y-100825000D03*
X104337500Y-99555000D03*
%TD*%
D11*
%TO.C,Q1051*%
X82250000Y-115550000D03*
X82250000Y-113650000D03*
X80375000Y-114600000D03*
%TD*%
D12*
%TO.C,C64*%
X181400000Y-55275000D03*
X181400000Y-58225000D03*
%TD*%
D16*
%TO.C,Q66*%
X169737500Y-49187500D03*
X171637500Y-49187500D03*
X170687500Y-47312500D03*
%TD*%
D11*
%TO.C,Q1003*%
X82250000Y-127650000D03*
X82250000Y-125750000D03*
X80375000Y-126700000D03*
%TD*%
%TO.C,Q9*%
X117337500Y-61662500D03*
X117337500Y-59762500D03*
X115462500Y-60712500D03*
%TD*%
D15*
%TO.C,D79*%
X173437500Y-25200000D03*
X173437500Y-27300000D03*
%TD*%
D11*
%TO.C,Q69*%
X181337500Y-61700000D03*
X181337500Y-59800000D03*
X179462500Y-60750000D03*
%TD*%
D24*
%TO.C,R1060*%
X87250000Y-132737500D03*
X87250000Y-134562500D03*
%TD*%
D15*
%TO.C,D19*%
X117437500Y-101200000D03*
X117437500Y-103300000D03*
%TD*%
D13*
%TO.C,R17*%
X96437500Y-26062500D03*
X99362500Y-26062500D03*
%TD*%
D15*
%TO.C,D113*%
X213437500Y-63200000D03*
X213437500Y-65300000D03*
%TD*%
D11*
%TO.C,Q1011*%
X91250000Y-122550000D03*
X91250000Y-120650000D03*
X89375000Y-121600000D03*
%TD*%
D16*
%TO.C,Q116*%
X217700000Y-49150000D03*
X219600000Y-49150000D03*
X218650000Y-47275000D03*
%TD*%
D25*
%TO.C,R1042*%
X93187500Y-40575000D03*
X93187500Y-38925000D03*
%TD*%
D11*
%TO.C,Q93*%
X205337500Y-61800000D03*
X205337500Y-59900000D03*
X203462500Y-60850000D03*
%TD*%
D16*
%TO.C,Q88*%
X185737500Y-30187500D03*
X187637500Y-30187500D03*
X186687500Y-28312500D03*
%TD*%
D15*
%TO.C,D20*%
X112937500Y-93450000D03*
X112937500Y-95550000D03*
%TD*%
D32*
%TO.C,H4*%
X195500000Y-167000000D03*
%TD*%
D11*
%TO.C,Q1064*%
X82250000Y-23750000D03*
X82250000Y-21850000D03*
X80375000Y-22800000D03*
%TD*%
D14*
%TO.C,R120*%
X160187500Y-66925000D03*
X160187500Y-68575000D03*
%TD*%
D16*
%TO.C,Q56*%
X153737500Y-49187500D03*
X155637500Y-49187500D03*
X154687500Y-47312500D03*
%TD*%
D25*
%TO.C,R1041*%
X84250000Y-51400000D03*
X84250000Y-49750000D03*
%TD*%
D10*
%TO.C,R175*%
X177187500Y-23962500D03*
X177187500Y-21037500D03*
%TD*%
D11*
%TO.C,Q1046*%
X91187500Y-61700000D03*
X91187500Y-59800000D03*
X89312500Y-60750000D03*
%TD*%
D20*
%TO.C,C24*%
X199775000Y-159400000D03*
X198225000Y-159400000D03*
%TD*%
D25*
%TO.C,R1023*%
X84250000Y-91400000D03*
X84250000Y-89750000D03*
%TD*%
D23*
%TO.C,R274*%
X113850000Y-114025000D03*
X115500000Y-114025000D03*
%TD*%
D18*
%TO.C,R4*%
X205825000Y-106500000D03*
X204175000Y-106500000D03*
%TD*%
D15*
%TO.C,D96*%
X184937500Y-17450000D03*
X184937500Y-19550000D03*
%TD*%
D14*
%TO.C,R168*%
X184150000Y-66925000D03*
X184150000Y-68575000D03*
%TD*%
D25*
%TO.C,R1058*%
X84250000Y-31500000D03*
X84250000Y-29850000D03*
%TD*%
D11*
%TO.C,Q1061*%
X91250000Y-73750000D03*
X91250000Y-71850000D03*
X89375000Y-72800000D03*
%TD*%
D18*
%TO.C,R14*%
X99325000Y-133000000D03*
X97675000Y-133000000D03*
%TD*%
D15*
%TO.C,D74*%
X168937500Y-36450000D03*
X168937500Y-38550000D03*
%TD*%
%TO.C,D116*%
X208900000Y-17550000D03*
X208900000Y-19650000D03*
%TD*%
D24*
%TO.C,R1129*%
X78250000Y-37837500D03*
X78250000Y-39662500D03*
%TD*%
D30*
%TO.C,C100*%
X147000000Y-123725000D03*
X147000000Y-125275000D03*
%TD*%
D25*
%TO.C,R281*%
X201000000Y-122825000D03*
X201000000Y-121175000D03*
%TD*%
%TO.C,R1088*%
X93250000Y-61500000D03*
X93250000Y-59850000D03*
%TD*%
D24*
%TO.C,R1011*%
X87250000Y-156562500D03*
X87250000Y-158387500D03*
%TD*%
D11*
%TO.C,Q1008*%
X91187500Y-42700000D03*
X91187500Y-40800000D03*
X89312500Y-41750000D03*
%TD*%
%TO.C,Q1033*%
X82187500Y-151600000D03*
X82187500Y-149700000D03*
X80312500Y-150650000D03*
%TD*%
D24*
%TO.C,R1130*%
X78250000Y-21837500D03*
X78250000Y-23662500D03*
%TD*%
D19*
%TO.C,R266*%
X227000000Y-34000000D03*
X227000000Y-36925000D03*
%TD*%
D12*
%TO.C,C36*%
X125437500Y-17275000D03*
X125437500Y-20225000D03*
%TD*%
D25*
%TO.C,R1056*%
X93250000Y-65675000D03*
X93250000Y-64025000D03*
%TD*%
D12*
%TO.C,C66*%
X181437500Y-36275000D03*
X181437500Y-39225000D03*
%TD*%
D28*
%TO.C,C27*%
X212225000Y-157900000D03*
X213775000Y-157900000D03*
%TD*%
D12*
%TO.C,C72*%
X197437500Y-55275000D03*
X197437500Y-58225000D03*
%TD*%
D10*
%TO.C,R159*%
X169187500Y-23962500D03*
X169187500Y-21037500D03*
%TD*%
%TO.C,R23*%
X105050000Y-24025000D03*
X105050000Y-21100000D03*
%TD*%
D11*
%TO.C,Q1055*%
X91187500Y-46200000D03*
X91187500Y-44300000D03*
X89312500Y-45250000D03*
%TD*%
D12*
%TO.C,C56*%
X165437500Y-55275000D03*
X165437500Y-58225000D03*
%TD*%
D24*
%TO.C,R1046*%
X78250000Y-105737500D03*
X78250000Y-107562500D03*
%TD*%
D16*
%TO.C,Q20*%
X121737500Y-87187500D03*
X123637500Y-87187500D03*
X122687500Y-85312500D03*
%TD*%
D19*
%TO.C,R258*%
X227000000Y-91137500D03*
X227000000Y-94062500D03*
%TD*%
%TO.C,R62*%
X123037500Y-53037500D03*
X123037500Y-55962500D03*
%TD*%
D15*
%TO.C,D75*%
X181400000Y-82200000D03*
X181400000Y-84300000D03*
%TD*%
D12*
%TO.C,C87*%
X221400000Y-36237500D03*
X221400000Y-39187500D03*
%TD*%
D25*
%TO.C,R1102*%
X84250000Y-99400000D03*
X84250000Y-97750000D03*
%TD*%
D16*
%TO.C,Q128*%
X225737500Y-87187500D03*
X227637500Y-87187500D03*
X226687500Y-85312500D03*
%TD*%
D55*
%TO.C,U20*%
X202737500Y-121250000D03*
X202737500Y-121750000D03*
X202737500Y-122250000D03*
X202737500Y-122750000D03*
D56*
X203500000Y-123012500D03*
X204000000Y-123012500D03*
X204500000Y-123012500D03*
D55*
X205262500Y-122750000D03*
X205262500Y-122250000D03*
X205262500Y-121750000D03*
X205262500Y-121250000D03*
D56*
X204500000Y-120987500D03*
X204000000Y-120987500D03*
X203500000Y-120987500D03*
%TD*%
D12*
%TO.C,C50*%
X141400000Y-55375000D03*
X141400000Y-58325000D03*
%TD*%
D15*
%TO.C,D23*%
X117437500Y-82200000D03*
X117437500Y-84300000D03*
%TD*%
D30*
%TO.C,C1005*%
X107000000Y-99475000D03*
X107000000Y-101025000D03*
%TD*%
D57*
%TO.C,J8*%
X106175000Y-156800000D03*
X105075000Y-156800000D03*
X103975000Y-156800000D03*
X102875000Y-156800000D03*
X101775000Y-156800000D03*
X100675000Y-156800000D03*
X99575000Y-156800000D03*
X98475000Y-156800000D03*
D58*
X97350000Y-147575000D03*
D59*
X108575000Y-146000000D03*
D60*
X97025000Y-149075000D03*
D61*
X97275000Y-156675000D03*
D62*
X108625000Y-156675000D03*
D63*
X108975000Y-148425000D03*
%TD*%
D16*
%TO.C,Q112*%
X209737500Y-49187500D03*
X211637500Y-49187500D03*
X210687500Y-47312500D03*
%TD*%
D11*
%TO.C,Q3*%
X109650000Y-23762500D03*
X109650000Y-21862500D03*
X107775000Y-22812500D03*
%TD*%
D24*
%TO.C,R1017*%
X78250000Y-53750000D03*
X78250000Y-55575000D03*
%TD*%
D25*
%TO.C,R1089*%
X84250000Y-43500000D03*
X84250000Y-41850000D03*
%TD*%
D19*
%TO.C,R226*%
X211037500Y-53037500D03*
X211037500Y-55962500D03*
%TD*%
D15*
%TO.C,D56*%
X136937500Y-36450000D03*
X136937500Y-38550000D03*
%TD*%
D19*
%TO.C,R186*%
X195037500Y-53037500D03*
X195037500Y-55962500D03*
%TD*%
D64*
%TO.C,R286*%
X142500000Y-125500000D03*
X142500000Y-123500000D03*
%TD*%
D65*
%TO.C,Q129*%
X145460000Y-113720000D03*
X145460000Y-116000000D03*
D66*
X150085000Y-114475000D03*
X150085000Y-117525000D03*
X153435000Y-114475000D03*
X153435000Y-117525000D03*
D65*
X145460000Y-118280000D03*
%TD*%
D16*
%TO.C,Q42*%
X137700000Y-68287500D03*
X139600000Y-68287500D03*
X138650000Y-66412500D03*
%TD*%
%TO.C,Q26*%
X129737500Y-30187500D03*
X131637500Y-30187500D03*
X130687500Y-28312500D03*
%TD*%
D15*
%TO.C,D55*%
X141437500Y-44200000D03*
X141437500Y-46300000D03*
%TD*%
D25*
%TO.C,R1103*%
X84250000Y-75400000D03*
X84250000Y-73750000D03*
%TD*%
D11*
%TO.C,Q105*%
X213375000Y-61700000D03*
X213375000Y-59800000D03*
X211500000Y-60750000D03*
%TD*%
D24*
%TO.C,R1109*%
X78250000Y-113737500D03*
X78250000Y-115562500D03*
%TD*%
D12*
%TO.C,C31*%
X109400000Y-17237500D03*
X109400000Y-20187500D03*
%TD*%
%TO.C,C63*%
X181400000Y-74275000D03*
X181400000Y-77225000D03*
%TD*%
D29*
%TO.C,U1003*%
X112475000Y-127810000D03*
X112475000Y-126540000D03*
X112475000Y-125270000D03*
X112475000Y-124000000D03*
X112475000Y-122730000D03*
X112475000Y-121460000D03*
X112475000Y-120190000D03*
X107525000Y-120190000D03*
X107525000Y-121460000D03*
X107525000Y-122730000D03*
X107525000Y-124000000D03*
X107525000Y-125270000D03*
X107525000Y-126540000D03*
X107525000Y-127810000D03*
%TD*%
D11*
%TO.C,Q1006*%
X82250000Y-71837500D03*
X82250000Y-69937500D03*
X80375000Y-70887500D03*
%TD*%
D15*
%TO.C,D106*%
X200900000Y-36550000D03*
X200900000Y-38650000D03*
%TD*%
D28*
%TO.C,C4*%
X147525000Y-81700000D03*
X149075000Y-81700000D03*
%TD*%
D15*
%TO.C,D92*%
X192937500Y-74450000D03*
X192937500Y-76550000D03*
%TD*%
D11*
%TO.C,Q65*%
X173375000Y-42700000D03*
X173375000Y-40800000D03*
X171500000Y-41750000D03*
%TD*%
D16*
%TO.C,Q48*%
X137737500Y-49187500D03*
X139637500Y-49187500D03*
X138687500Y-47312500D03*
%TD*%
D14*
%TO.C,R44*%
X112187500Y-85925000D03*
X112187500Y-87575000D03*
%TD*%
D13*
%TO.C,R221*%
X200437500Y-26062500D03*
X203362500Y-26062500D03*
%TD*%
D18*
%TO.C,R291*%
X229825000Y-122000000D03*
X228175000Y-122000000D03*
%TD*%
D12*
%TO.C,C38*%
X125400000Y-36275000D03*
X125400000Y-39225000D03*
%TD*%
D13*
%TO.C,R233*%
X216437500Y-102062500D03*
X219362500Y-102062500D03*
%TD*%
D16*
%TO.C,Q28*%
X137700000Y-30187500D03*
X139600000Y-30187500D03*
X138650000Y-28312500D03*
%TD*%
D27*
%TO.C,D140*%
X206712500Y-142500000D03*
X208287500Y-142500000D03*
%TD*%
D67*
%TO.C,Y1*%
X210100000Y-149325000D03*
X207900000Y-149325000D03*
X207900000Y-151025000D03*
X210100000Y-151025000D03*
%TD*%
D15*
%TO.C,D66*%
X160937500Y-36450000D03*
X160937500Y-38550000D03*
%TD*%
%TO.C,D136*%
X224937500Y-74450000D03*
X224937500Y-76550000D03*
%TD*%
D14*
%TO.C,R256*%
X224150000Y-105025000D03*
X224150000Y-106675000D03*
%TD*%
D11*
%TO.C,Q73*%
X181375000Y-42700000D03*
X181375000Y-40800000D03*
X179500000Y-41750000D03*
%TD*%
D10*
%TO.C,R187*%
X193187500Y-61962500D03*
X193187500Y-59037500D03*
%TD*%
D17*
%TO.C,C1009*%
X108240000Y-39500000D03*
X108240000Y-37950000D03*
%TD*%
D24*
%TO.C,R1063*%
X78375000Y-81837500D03*
X78375000Y-83662500D03*
%TD*%
D13*
%TO.C,R121*%
X160475000Y-63962500D03*
X163400000Y-63962500D03*
%TD*%
D24*
%TO.C,R1082*%
X87187500Y-33837500D03*
X87187500Y-35662500D03*
%TD*%
%TO.C,R1044*%
X78250000Y-137737500D03*
X78250000Y-139562500D03*
%TD*%
D11*
%TO.C,Q125*%
X229337500Y-42662500D03*
X229337500Y-40762500D03*
X227462500Y-41712500D03*
%TD*%
%TO.C,Q117*%
X221337500Y-23662500D03*
X221337500Y-21762500D03*
X219462500Y-22712500D03*
%TD*%
D25*
%TO.C,R24*%
X112500000Y-30537500D03*
X112500000Y-28887500D03*
%TD*%
D24*
%TO.C,R1111*%
X78250000Y-73650000D03*
X78250000Y-75475000D03*
%TD*%
D26*
%TO.C,U1011*%
X98162500Y-55555000D03*
X98162500Y-56825000D03*
X98162500Y-58095000D03*
X98162500Y-59365000D03*
X98162500Y-60635000D03*
X98162500Y-61905000D03*
X98162500Y-63175000D03*
X98162500Y-64445000D03*
X104337500Y-64445000D03*
X104337500Y-63175000D03*
X104337500Y-61905000D03*
X104337500Y-60635000D03*
X104337500Y-59365000D03*
X104337500Y-58095000D03*
X104337500Y-56825000D03*
X104337500Y-55555000D03*
%TD*%
D14*
%TO.C,R248*%
X216150000Y-28887500D03*
X216150000Y-30537500D03*
%TD*%
D16*
%TO.C,Q60*%
X169700000Y-87287500D03*
X171600000Y-87287500D03*
X170650000Y-85412500D03*
%TD*%
D12*
%TO.C,C81*%
X205400000Y-17375000D03*
X205400000Y-20325000D03*
%TD*%
D15*
%TO.C,D127*%
X221437500Y-63200000D03*
X221437500Y-65300000D03*
%TD*%
D68*
%TO.C,D1007*%
X90450000Y-88537500D03*
X90450000Y-90112500D03*
%TD*%
D25*
%TO.C,R1005*%
X84250000Y-127400000D03*
X84250000Y-125750000D03*
%TD*%
D13*
%TO.C,R37*%
X112475000Y-101962500D03*
X115400000Y-101962500D03*
%TD*%
D12*
%TO.C,C33*%
X117350000Y-36237500D03*
X117350000Y-39187500D03*
%TD*%
D13*
%TO.C,R73*%
X128475000Y-101962500D03*
X131400000Y-101962500D03*
%TD*%
%TO.C,R113*%
X152475000Y-63962500D03*
X155400000Y-63962500D03*
%TD*%
D12*
%TO.C,C88*%
X221400000Y-17237500D03*
X221400000Y-20187500D03*
%TD*%
D14*
%TO.C,R1122*%
X86250000Y-26425000D03*
X86250000Y-28075000D03*
%TD*%
%TO.C,R188*%
X184187500Y-28925000D03*
X184187500Y-30575000D03*
%TD*%
D11*
%TO.C,Q1059*%
X91250000Y-110650000D03*
X91250000Y-108750000D03*
X89375000Y-109700000D03*
%TD*%
D19*
%TO.C,R26*%
X115000000Y-15000000D03*
X115000000Y-17925000D03*
%TD*%
D25*
%TO.C,R1053*%
X93250000Y-118400000D03*
X93250000Y-116750000D03*
%TD*%
D16*
%TO.C,Q114*%
X217737500Y-87187500D03*
X219637500Y-87187500D03*
X218687500Y-85312500D03*
%TD*%
D15*
%TO.C,D126*%
X216900000Y-17412500D03*
X216900000Y-19512500D03*
%TD*%
D12*
%TO.C,C41*%
X125437500Y-55275000D03*
X125437500Y-58225000D03*
%TD*%
D15*
%TO.C,D52*%
X144937500Y-55450000D03*
X144937500Y-57550000D03*
%TD*%
D24*
%TO.C,R1016*%
X78250000Y-69837500D03*
X78250000Y-71662500D03*
%TD*%
%TO.C,R1128*%
X87250000Y-55837500D03*
X87250000Y-57662500D03*
%TD*%
D16*
%TO.C,Q58*%
X161737500Y-49187500D03*
X163637500Y-49187500D03*
X162687500Y-47312500D03*
%TD*%
D12*
%TO.C,C73*%
X189437500Y-17275000D03*
X189437500Y-20225000D03*
%TD*%
D25*
%TO.C,R1051*%
X93250000Y-150400000D03*
X93250000Y-148750000D03*
%TD*%
D13*
%TO.C,R41*%
X120475000Y-25962500D03*
X123400000Y-25962500D03*
%TD*%
D19*
%TO.C,R134*%
X171000000Y-72137500D03*
X171000000Y-75062500D03*
%TD*%
D11*
%TO.C,Q45*%
X149337500Y-42662500D03*
X149337500Y-40762500D03*
X147462500Y-41712500D03*
%TD*%
D16*
%TO.C,Q40*%
X129737500Y-68187500D03*
X131637500Y-68187500D03*
X130687500Y-66312500D03*
%TD*%
D15*
%TO.C,D100*%
X200900000Y-74550000D03*
X200900000Y-76650000D03*
%TD*%
D19*
%TO.C,R262*%
X227000000Y-53137500D03*
X227000000Y-56062500D03*
%TD*%
D12*
%TO.C,C57*%
X157437500Y-36275000D03*
X157437500Y-39225000D03*
%TD*%
%TO.C,C67*%
X189400000Y-74275000D03*
X189400000Y-77225000D03*
%TD*%
D69*
%TO.C,R5*%
X144500000Y-123500000D03*
X144500000Y-125500000D03*
%TD*%
D25*
%TO.C,R13*%
X103000000Y-138325000D03*
X103000000Y-136675000D03*
%TD*%
D19*
%TO.C,R90*%
X139000000Y-72137500D03*
X139000000Y-75062500D03*
%TD*%
D11*
%TO.C,Q1057*%
X91187500Y-142600000D03*
X91187500Y-140700000D03*
X89312500Y-141650000D03*
%TD*%
D25*
%TO.C,R1072*%
X84250000Y-63400000D03*
X84250000Y-61750000D03*
%TD*%
D19*
%TO.C,R150*%
X179000000Y-72037500D03*
X179000000Y-74962500D03*
%TD*%
D16*
%TO.C,Q8*%
X113850000Y-49175000D03*
X115750000Y-49175000D03*
X114800000Y-47300000D03*
%TD*%
D18*
%TO.C,R305*%
X211325000Y-142500000D03*
X209675000Y-142500000D03*
%TD*%
D15*
%TO.C,D115*%
X213400000Y-25300000D03*
X213400000Y-27400000D03*
%TD*%
D14*
%TO.C,R136*%
X168187500Y-66925000D03*
X168187500Y-68575000D03*
%TD*%
D11*
%TO.C,Q1039*%
X82250000Y-47750000D03*
X82250000Y-45850000D03*
X80375000Y-46800000D03*
%TD*%
D15*
%TO.C,D76*%
X176900000Y-74450000D03*
X176900000Y-76550000D03*
%TD*%
%TO.C,D17*%
X117400000Y-63162500D03*
X117400000Y-65262500D03*
%TD*%
D11*
%TO.C,Q103*%
X205337500Y-23800000D03*
X205337500Y-21900000D03*
X203462500Y-22850000D03*
%TD*%
%TO.C,Q67*%
X181337500Y-80700000D03*
X181337500Y-78800000D03*
X179462500Y-79750000D03*
%TD*%
D10*
%TO.C,R83*%
X129187500Y-80962500D03*
X129187500Y-78037500D03*
%TD*%
D15*
%TO.C,D78*%
X176900000Y-55450000D03*
X176900000Y-57550000D03*
%TD*%
D12*
%TO.C,C84*%
X221400000Y-93375000D03*
X221400000Y-96325000D03*
%TD*%
D11*
%TO.C,Q1050*%
X82187500Y-131600000D03*
X82187500Y-129700000D03*
X80312500Y-130650000D03*
%TD*%
%TO.C,Q1058*%
X91250000Y-126650000D03*
X91250000Y-124750000D03*
X89375000Y-125700000D03*
%TD*%
D25*
%TO.C,R1121*%
X84250000Y-39500000D03*
X84250000Y-37850000D03*
%TD*%
D15*
%TO.C,D86*%
X184900000Y-55450000D03*
X184900000Y-57550000D03*
%TD*%
D25*
%TO.C,R1040*%
X84250000Y-67225000D03*
X84250000Y-65575000D03*
%TD*%
D19*
%TO.C,R42*%
X123037500Y-15037500D03*
X123037500Y-17962500D03*
%TD*%
D14*
%TO.C,R282*%
X115000000Y-122350000D03*
X115000000Y-124000000D03*
%TD*%
D24*
%TO.C,R1013*%
X78250000Y-125650000D03*
X78250000Y-127475000D03*
%TD*%
D11*
%TO.C,Q63*%
X165375000Y-23700000D03*
X165375000Y-21800000D03*
X163500000Y-22750000D03*
%TD*%
D14*
%TO.C,R144*%
X168187500Y-47925000D03*
X168187500Y-49575000D03*
%TD*%
D15*
%TO.C,D24*%
X112937500Y-74450000D03*
X112937500Y-76550000D03*
%TD*%
D47*
%TO.C,SW2*%
X186150000Y-107100000D03*
X192450000Y-107100000D03*
X186150000Y-110900000D03*
X192450000Y-110900000D03*
%TD*%
D16*
%TO.C,Q14*%
X121737500Y-30187500D03*
X123637500Y-30187500D03*
X122687500Y-28312500D03*
%TD*%
D29*
%TO.C,U11*%
X202475000Y-103445000D03*
X202475000Y-102175000D03*
X202475000Y-100905000D03*
X202475000Y-99635000D03*
X202475000Y-98365000D03*
X202475000Y-97095000D03*
X202475000Y-95825000D03*
X202475000Y-94555000D03*
X197525000Y-94555000D03*
X197525000Y-95825000D03*
X197525000Y-97095000D03*
X197525000Y-98365000D03*
X197525000Y-99635000D03*
X197525000Y-100905000D03*
X197525000Y-102175000D03*
X197525000Y-103445000D03*
%TD*%
D14*
%TO.C,R64*%
X128187500Y-28925000D03*
X128187500Y-30575000D03*
%TD*%
%TO.C,R152*%
X176150000Y-66925000D03*
X176150000Y-68575000D03*
%TD*%
D24*
%TO.C,R1079*%
X78250000Y-77750000D03*
X78250000Y-79575000D03*
%TD*%
D19*
%TO.C,R110*%
X139037500Y-34037500D03*
X139037500Y-36962500D03*
%TD*%
D15*
%TO.C,D62*%
X160937500Y-55450000D03*
X160937500Y-57550000D03*
%TD*%
%TO.C,D119*%
X213437500Y-44200000D03*
X213437500Y-46300000D03*
%TD*%
D13*
%TO.C,R217*%
X208437500Y-83062500D03*
X211362500Y-83062500D03*
%TD*%
D15*
%TO.C,D22*%
X120937500Y-17450000D03*
X120937500Y-19550000D03*
%TD*%
%TO.C,D11*%
X109750000Y-25312500D03*
X109750000Y-27412500D03*
%TD*%
D19*
%TO.C,R114*%
X155037500Y-53037500D03*
X155037500Y-55962500D03*
%TD*%
D24*
%TO.C,R1032*%
X87176519Y-67925000D03*
X87176519Y-69750000D03*
%TD*%
D47*
%TO.C,SW6*%
X223850000Y-127100000D03*
X230150000Y-127100000D03*
X223850000Y-130900000D03*
X230150000Y-130900000D03*
%TD*%
D24*
%TO.C,R1110*%
X78250000Y-97650000D03*
X78250000Y-99475000D03*
%TD*%
D25*
%TO.C,R1026*%
X84250000Y-35500000D03*
X84250000Y-33850000D03*
%TD*%
D20*
%TO.C,C10*%
X204850000Y-142300000D03*
X203300000Y-142300000D03*
%TD*%
D25*
%TO.C,R1073*%
X84250000Y-47400000D03*
X84250000Y-45750000D03*
%TD*%
D30*
%TO.C,C21*%
X200000000Y-165625000D03*
X200000000Y-167175000D03*
%TD*%
D10*
%TO.C,R167*%
X185150000Y-80962500D03*
X185150000Y-78037500D03*
%TD*%
%TO.C,R231*%
X209150000Y-24062500D03*
X209150000Y-21137500D03*
%TD*%
D12*
%TO.C,C34*%
X117400000Y-55237500D03*
X117400000Y-58187500D03*
%TD*%
D24*
%TO.C,R1029*%
X87250000Y-120737500D03*
X87250000Y-122562500D03*
%TD*%
D11*
%TO.C,Q5*%
X117437500Y-23662500D03*
X117437500Y-21762500D03*
X115562500Y-22712500D03*
%TD*%
D26*
%TO.C,U1008*%
X98162500Y-77555000D03*
X98162500Y-78825000D03*
X98162500Y-80095000D03*
X98162500Y-81365000D03*
X98162500Y-82635000D03*
X98162500Y-83905000D03*
X98162500Y-85175000D03*
X98162500Y-86445000D03*
X104337500Y-86445000D03*
X104337500Y-85175000D03*
X104337500Y-83905000D03*
X104337500Y-82635000D03*
X104337500Y-81365000D03*
X104337500Y-80095000D03*
X104337500Y-78825000D03*
X104337500Y-77555000D03*
%TD*%
D14*
%TO.C,R96*%
X136150000Y-67025000D03*
X136150000Y-68675000D03*
%TD*%
D10*
%TO.C,R35*%
X113150000Y-61925000D03*
X113150000Y-59000000D03*
%TD*%
D12*
%TO.C,C44*%
X133437500Y-93275000D03*
X133437500Y-96225000D03*
%TD*%
%TO.C,C91*%
X229400000Y-55375000D03*
X229400000Y-58325000D03*
%TD*%
D13*
%TO.C,R61*%
X120475000Y-63962500D03*
X123400000Y-63962500D03*
%TD*%
D14*
%TO.C,R72*%
X128187500Y-104925000D03*
X128187500Y-106575000D03*
%TD*%
D47*
%TO.C,SW4*%
X213850000Y-131200000D03*
X220150000Y-131200000D03*
X213850000Y-135000000D03*
X220150000Y-135000000D03*
%TD*%
D11*
%TO.C,Q1048*%
X82125000Y-27700000D03*
X82125000Y-25800000D03*
X80250000Y-26750000D03*
%TD*%
D14*
%TO.C,R11*%
X207100000Y-152575000D03*
X207100000Y-154225000D03*
%TD*%
D24*
%TO.C,R1095*%
X87250000Y-75750000D03*
X87250000Y-77575000D03*
%TD*%
D13*
%TO.C,R117*%
X152475000Y-25962500D03*
X155400000Y-25962500D03*
%TD*%
D15*
%TO.C,D68*%
X168900000Y-74550000D03*
X168900000Y-76650000D03*
%TD*%
D25*
%TO.C,R1052*%
X93250000Y-134400000D03*
X93250000Y-132750000D03*
%TD*%
D11*
%TO.C,Q107*%
X213337500Y-23800000D03*
X213337500Y-21900000D03*
X211462500Y-22850000D03*
%TD*%
D18*
%TO.C,R2*%
X215150000Y-139500000D03*
X213500000Y-139500000D03*
%TD*%
D70*
%TO.C,J2*%
X106700000Y-140400000D03*
X104700000Y-137400000D03*
X102700000Y-140400000D03*
X106700000Y-134400000D03*
X104700000Y-143400000D03*
X108700000Y-137400000D03*
X104700000Y-140400000D03*
X106700000Y-137400000D03*
%TD*%
D10*
%TO.C,R39*%
X113187500Y-99962500D03*
X113187500Y-97037500D03*
%TD*%
D15*
%TO.C,D14*%
X112750000Y-17412500D03*
X112750000Y-19512500D03*
%TD*%
D12*
%TO.C,C83*%
X213400000Y-17375000D03*
X213400000Y-20325000D03*
%TD*%
D23*
%TO.C,R279*%
X220175000Y-146000000D03*
X221825000Y-146000000D03*
%TD*%
D25*
%TO.C,R1105*%
X93187500Y-46575000D03*
X93187500Y-44925000D03*
%TD*%
D15*
%TO.C,D58*%
X152937500Y-55450000D03*
X152937500Y-57550000D03*
%TD*%
D11*
%TO.C,Q1047*%
X82187500Y-43700000D03*
X82187500Y-41800000D03*
X80312500Y-42750000D03*
%TD*%
%TO.C,Q1001*%
X91187500Y-158375000D03*
X91187500Y-156475000D03*
X89312500Y-157425000D03*
%TD*%
%TO.C,Q1016*%
X82250000Y-35750000D03*
X82250000Y-33850000D03*
X80375000Y-34800000D03*
%TD*%
D13*
%TO.C,R105*%
X144437500Y-44925000D03*
X147362500Y-44925000D03*
%TD*%
D19*
%TO.C,R174*%
X179037500Y-15037500D03*
X179037500Y-17962500D03*
%TD*%
D16*
%TO.C,Q12*%
X113737500Y-106187500D03*
X115637500Y-106187500D03*
X114687500Y-104312500D03*
%TD*%
D11*
%TO.C,Q1004*%
X82187500Y-111925000D03*
X82187500Y-110025000D03*
X80312500Y-110975000D03*
%TD*%
D10*
%TO.C,R27*%
X113250000Y-23925000D03*
X113250000Y-21000000D03*
%TD*%
D11*
%TO.C,Q115*%
X221337500Y-42662500D03*
X221337500Y-40762500D03*
X219462500Y-41712500D03*
%TD*%
D15*
%TO.C,D133*%
X229400000Y-44162500D03*
X229400000Y-46262500D03*
%TD*%
D19*
%TO.C,R98*%
X139000000Y-53137500D03*
X139000000Y-56062500D03*
%TD*%
D16*
%TO.C,Q100*%
X209700000Y-106287500D03*
X211600000Y-106287500D03*
X210650000Y-104412500D03*
%TD*%
D12*
%TO.C,C58*%
X165437500Y-36275000D03*
X165437500Y-39225000D03*
%TD*%
D24*
%TO.C,R1045*%
X78250000Y-121650000D03*
X78250000Y-123475000D03*
%TD*%
D25*
%TO.C,R1074*%
X93187500Y-37575000D03*
X93187500Y-35925000D03*
%TD*%
D15*
%TO.C,D87*%
X181437500Y-25200000D03*
X181437500Y-27300000D03*
%TD*%
D14*
%TO.C,R36*%
X112187500Y-104925000D03*
X112187500Y-106575000D03*
%TD*%
%TO.C,R88*%
X136150000Y-86025000D03*
X136150000Y-87675000D03*
%TD*%
D15*
%TO.C,D84*%
X184900000Y-74450000D03*
X184900000Y-76550000D03*
%TD*%
D16*
%TO.C,Q30*%
X129737500Y-106187500D03*
X131637500Y-106187500D03*
X130687500Y-104312500D03*
%TD*%
D17*
%TO.C,C29*%
X204500000Y-151775000D03*
X204500000Y-150225000D03*
%TD*%
D15*
%TO.C,D73*%
X173437500Y-44200000D03*
X173437500Y-46300000D03*
%TD*%
D25*
%TO.C,R1067*%
X84250000Y-151575000D03*
X84250000Y-149925000D03*
%TD*%
D13*
%TO.C,R149*%
X176437500Y-82962500D03*
X179362500Y-82962500D03*
%TD*%
D25*
%TO.C,R1055*%
X84250000Y-83400000D03*
X84250000Y-81750000D03*
%TD*%
D10*
%TO.C,R123*%
X161187500Y-61962500D03*
X161187500Y-59037500D03*
%TD*%
%TO.C,R115*%
X153187500Y-61962500D03*
X153187500Y-59037500D03*
%TD*%
D11*
%TO.C,Q1056*%
X90287500Y-32200000D03*
X90287500Y-30300000D03*
X88412500Y-31250000D03*
%TD*%
D23*
%TO.C,R302*%
X230475000Y-134000000D03*
X232125000Y-134000000D03*
%TD*%
D13*
%TO.C,R29*%
X112587500Y-44987500D03*
X115512500Y-44987500D03*
%TD*%
D17*
%TO.C,C3*%
X135800000Y-103375000D03*
X135800000Y-101825000D03*
%TD*%
D14*
%TO.C,R16*%
X96150000Y-29025000D03*
X96150000Y-30675000D03*
%TD*%
D10*
%TO.C,R163*%
X177187500Y-42962500D03*
X177187500Y-40037500D03*
%TD*%
%TO.C,R171*%
X185150000Y-61962500D03*
X185150000Y-59037500D03*
%TD*%
D16*
%TO.C,Q36*%
X145737500Y-30187500D03*
X147637500Y-30187500D03*
X146687500Y-28312500D03*
%TD*%
%TO.C,Q76*%
X185700000Y-87187500D03*
X187600000Y-87187500D03*
X186650000Y-85312500D03*
%TD*%
D11*
%TO.C,Q1007*%
X82250000Y-55750000D03*
X82250000Y-53850000D03*
X80375000Y-54800000D03*
%TD*%
%TO.C,Q1040*%
X91187500Y-35700000D03*
X91187500Y-33800000D03*
X89312500Y-34750000D03*
%TD*%
D18*
%TO.C,R280*%
X221825000Y-144500000D03*
X220175000Y-144500000D03*
%TD*%
D25*
%TO.C,R1101*%
X84250000Y-115400000D03*
X84250000Y-113750000D03*
%TD*%
D18*
%TO.C,R293*%
X213825000Y-154500000D03*
X212175000Y-154500000D03*
%TD*%
D11*
%TO.C,Q1028*%
X91250000Y-102550000D03*
X91250000Y-100650000D03*
X89375000Y-101600000D03*
%TD*%
D15*
%TO.C,D36*%
X136900000Y-17450000D03*
X136900000Y-19550000D03*
%TD*%
D71*
%TO.C,D8*%
X113100001Y-132200000D03*
X109099999Y-132200000D03*
%TD*%
D13*
%TO.C,R229*%
X208437500Y-26062500D03*
X211362500Y-26062500D03*
%TD*%
D19*
%TO.C,R102*%
X147037500Y-53037500D03*
X147037500Y-55962500D03*
%TD*%
D15*
%TO.C,D124*%
X216900000Y-36412500D03*
X216900000Y-38512500D03*
%TD*%
%TO.C,D91*%
X197437500Y-82200000D03*
X197437500Y-84300000D03*
%TD*%
D19*
%TO.C,R70*%
X139000000Y-15037500D03*
X139000000Y-17962500D03*
%TD*%
D11*
%TO.C,Q121*%
X229337500Y-99800000D03*
X229337500Y-97900000D03*
X227462500Y-98850000D03*
%TD*%
D16*
%TO.C,Q64*%
X161737500Y-30187500D03*
X163637500Y-30187500D03*
X162687500Y-28312500D03*
%TD*%
D14*
%TO.C,R184*%
X192187500Y-66925000D03*
X192187500Y-68575000D03*
%TD*%
D13*
%TO.C,R25*%
X112787500Y-25962500D03*
X115712500Y-25962500D03*
%TD*%
D14*
%TO.C,R160*%
X176187500Y-47925000D03*
X176187500Y-49575000D03*
%TD*%
D13*
%TO.C,R257*%
X224437500Y-102062500D03*
X227362500Y-102062500D03*
%TD*%
D12*
%TO.C,C86*%
X221437500Y-74275000D03*
X221437500Y-77225000D03*
%TD*%
D14*
%TO.C,R196*%
X200150000Y-86025000D03*
X200150000Y-87675000D03*
%TD*%
D12*
%TO.C,C77*%
X197437500Y-17275000D03*
X197437500Y-20225000D03*
%TD*%
D16*
%TO.C,Q92*%
X201700000Y-87287500D03*
X203600000Y-87287500D03*
X202650000Y-85412500D03*
%TD*%
D13*
%TO.C,R225*%
X208475000Y-63962500D03*
X211400000Y-63962500D03*
%TD*%
D16*
%TO.C,Q86*%
X193737500Y-68187500D03*
X195637500Y-68187500D03*
X194687500Y-66312500D03*
%TD*%
D15*
%TO.C,D95*%
X189437500Y-25200000D03*
X189437500Y-27300000D03*
%TD*%
D72*
%TO.C,D137*%
X217000000Y-149300002D03*
X217000000Y-145000000D03*
%TD*%
D14*
%TO.C,R264*%
X224150000Y-47887500D03*
X224150000Y-49537500D03*
%TD*%
D11*
%TO.C,Q127*%
X229375000Y-80700000D03*
X229375000Y-78800000D03*
X227500000Y-79750000D03*
%TD*%
D25*
%TO.C,R1039*%
X84250000Y-87400000D03*
X84250000Y-85750000D03*
%TD*%
D19*
%TO.C,R166*%
X187000000Y-72037500D03*
X187000000Y-74962500D03*
%TD*%
D15*
%TO.C,D9*%
X101400000Y-25300000D03*
X101400000Y-27400000D03*
%TD*%
D19*
%TO.C,R198*%
X203000000Y-72137500D03*
X203000000Y-75062500D03*
%TD*%
D47*
%TO.C,SW5*%
X203850000Y-127100000D03*
X210150000Y-127100000D03*
X203850000Y-130900000D03*
X210150000Y-130900000D03*
%TD*%
D11*
%TO.C,Q57*%
X165375000Y-42700000D03*
X165375000Y-40800000D03*
X163500000Y-41750000D03*
%TD*%
D24*
%TO.C,R1033*%
X87250000Y-51750000D03*
X87250000Y-53575000D03*
%TD*%
D25*
%TO.C,R1038*%
X84250000Y-107750000D03*
X84250000Y-106100000D03*
%TD*%
D12*
%TO.C,C55*%
X157437500Y-17275000D03*
X157437500Y-20225000D03*
%TD*%
D14*
%TO.C,R10*%
X212000000Y-162575000D03*
X212000000Y-164225000D03*
%TD*%
D16*
%TO.C,Q38*%
X137700000Y-87287500D03*
X139600000Y-87287500D03*
X138650000Y-85412500D03*
%TD*%
D11*
%TO.C,Q1025*%
X91250000Y-150550000D03*
X91250000Y-148650000D03*
X89375000Y-149600000D03*
%TD*%
D16*
%TO.C,Q98*%
X201700000Y-49287500D03*
X203600000Y-49287500D03*
X202650000Y-47412500D03*
%TD*%
D13*
%TO.C,R97*%
X136437500Y-64062500D03*
X139362500Y-64062500D03*
%TD*%
D10*
%TO.C,R155*%
X177150000Y-61962500D03*
X177150000Y-59037500D03*
%TD*%
D13*
%TO.C,R185*%
X192475000Y-63962500D03*
X195400000Y-63962500D03*
%TD*%
D19*
%TO.C,R138*%
X171037500Y-53037500D03*
X171037500Y-55962500D03*
%TD*%
D15*
%TO.C,D32*%
X120937500Y-55450000D03*
X120937500Y-57550000D03*
%TD*%
D11*
%TO.C,Q1*%
X101337500Y-23800000D03*
X101337500Y-21900000D03*
X99462500Y-22850000D03*
%TD*%
D12*
%TO.C,C54*%
X157437500Y-55275000D03*
X157437500Y-58225000D03*
%TD*%
D73*
%TO.C,J6*%
X99835000Y-136250000D03*
X99835000Y-136750000D03*
X99835000Y-137250000D03*
X99835000Y-137750000D03*
X99835000Y-138250000D03*
X99835000Y-138750000D03*
X99835000Y-139250000D03*
X99835000Y-139750000D03*
X99835000Y-140250000D03*
X99835000Y-140750000D03*
X99835000Y-141250000D03*
X99835000Y-141750000D03*
X98165000Y-141750000D03*
X98165000Y-141250000D03*
X98165000Y-140750000D03*
X98165000Y-140250000D03*
X98165000Y-139750000D03*
X98165000Y-139250000D03*
X98165000Y-138750000D03*
X98165000Y-138250000D03*
X98165000Y-137750000D03*
X98165000Y-137250000D03*
X98165000Y-136750000D03*
X98165000Y-136250000D03*
D74*
X101150000Y-136600000D03*
X96850000Y-136600000D03*
X101150000Y-141400000D03*
X96850000Y-141400000D03*
%TD*%
D33*
%TO.C,U2*%
X203300000Y-133850000D03*
X201000000Y-133850001D03*
D34*
X201000000Y-140149999D03*
D33*
X198700000Y-133850000D03*
%TD*%
D10*
%TO.C,R199*%
X201150000Y-81062500D03*
X201150000Y-78137500D03*
%TD*%
D13*
%TO.C,R181*%
X192475000Y-82962500D03*
X195400000Y-82962500D03*
%TD*%
D19*
%TO.C,R250*%
X219000000Y-15000000D03*
X219000000Y-17925000D03*
%TD*%
D16*
%TO.C,Q96*%
X193737500Y-30187500D03*
X195637500Y-30187500D03*
X194687500Y-28312500D03*
%TD*%
D23*
%TO.C,R15*%
X100675000Y-133000000D03*
X102325000Y-133000000D03*
%TD*%
D28*
%TO.C,C23*%
X212225000Y-159400000D03*
X213775000Y-159400000D03*
%TD*%
D19*
%TO.C,R270*%
X227037500Y-72037500D03*
X227037500Y-74962500D03*
%TD*%
D32*
%TO.C,H6*%
X127000000Y-112000000D03*
%TD*%
D75*
%TO.C,SW7*%
X229850000Y-116100000D03*
X204350000Y-116100000D03*
%TD*%
D15*
%TO.C,D64*%
X152937500Y-36450000D03*
X152937500Y-38550000D03*
%TD*%
D17*
%TO.C,C102*%
X145000000Y-110775000D03*
X145000000Y-109225000D03*
%TD*%
D23*
%TO.C,R288*%
X228175000Y-123500000D03*
X229825000Y-123500000D03*
%TD*%
D15*
%TO.C,D43*%
X149437500Y-25200000D03*
X149437500Y-27300000D03*
%TD*%
D11*
%TO.C,Q1002*%
X82187500Y-143600000D03*
X82187500Y-141700000D03*
X80312500Y-142650000D03*
%TD*%
D14*
%TO.C,R112*%
X152187500Y-66925000D03*
X152187500Y-68575000D03*
%TD*%
D15*
%TO.C,D50*%
X136900000Y-55550000D03*
X136900000Y-57650000D03*
%TD*%
D25*
%TO.C,R1069*%
X84250000Y-119400000D03*
X84250000Y-117750000D03*
%TD*%
D20*
%TO.C,C1004*%
X109715000Y-129700000D03*
X108165000Y-129700000D03*
%TD*%
D15*
%TO.C,D104*%
X192937500Y-17450000D03*
X192937500Y-19550000D03*
%TD*%
D10*
%TO.C,R179*%
X185187500Y-42962500D03*
X185187500Y-40037500D03*
%TD*%
%TO.C,R139*%
X169187500Y-61962500D03*
X169187500Y-59037500D03*
%TD*%
D24*
%TO.C,R1092*%
X87250000Y-128650000D03*
X87250000Y-130475000D03*
%TD*%
D14*
%TO.C,R228*%
X208150000Y-29025000D03*
X208150000Y-30675000D03*
%TD*%
D13*
%TO.C,R209*%
X200437500Y-45062500D03*
X203362500Y-45062500D03*
%TD*%
D14*
%TO.C,R208*%
X200150000Y-48025000D03*
X200150000Y-49675000D03*
%TD*%
D31*
%TO.C,C109*%
X224000000Y-144075001D03*
X224000000Y-141124999D03*
%TD*%
D13*
%TO.C,R93*%
X128475000Y-63962500D03*
X131400000Y-63962500D03*
%TD*%
D24*
%TO.C,R1124*%
X87250000Y-124825000D03*
X87250000Y-126650000D03*
%TD*%
D16*
%TO.C,Q2*%
X97700000Y-30287500D03*
X99600000Y-30287500D03*
X98650000Y-28412500D03*
%TD*%
D15*
%TO.C,D99*%
X205400000Y-82300000D03*
X205400000Y-84400000D03*
%TD*%
D16*
%TO.C,Q110*%
X217700000Y-106287500D03*
X219600000Y-106287500D03*
X218650000Y-104412500D03*
%TD*%
D13*
%TO.C,R69*%
X136437500Y-25962500D03*
X139362500Y-25962500D03*
%TD*%
D12*
%TO.C,C32*%
X117500000Y-17237500D03*
X117500000Y-20187500D03*
%TD*%
D19*
%TO.C,R146*%
X171037500Y-34037500D03*
X171037500Y-36962500D03*
%TD*%
D10*
%TO.C,R215*%
X209150000Y-100062500D03*
X209150000Y-97137500D03*
%TD*%
D11*
%TO.C,Q23*%
X125375000Y-61700000D03*
X125375000Y-59800000D03*
X123500000Y-60750000D03*
%TD*%
D10*
%TO.C,R183*%
X193187500Y-80962500D03*
X193187500Y-78037500D03*
%TD*%
D76*
%TO.C,D138*%
X137500000Y-118000000D03*
X141800002Y-118000000D03*
%TD*%
D32*
%TO.C,H1*%
X189000000Y-123500000D03*
%TD*%
D15*
%TO.C,D65*%
X165437500Y-44200000D03*
X165437500Y-46300000D03*
%TD*%
%TO.C,D122*%
X216937500Y-74450000D03*
X216937500Y-76550000D03*
%TD*%
D16*
%TO.C,Q84*%
X193737500Y-87187500D03*
X195637500Y-87187500D03*
X194687500Y-85312500D03*
%TD*%
D23*
%TO.C,R297*%
X107175000Y-115000000D03*
X108825000Y-115000000D03*
%TD*%
D24*
%TO.C,R1043*%
X78150000Y-153937500D03*
X78150000Y-155762500D03*
%TD*%
D15*
%TO.C,D109*%
X213400000Y-82300000D03*
X213400000Y-84400000D03*
%TD*%
D14*
%TO.C,R40*%
X120187500Y-28925000D03*
X120187500Y-30575000D03*
%TD*%
D13*
%TO.C,R201*%
X200437500Y-64062500D03*
X203362500Y-64062500D03*
%TD*%
%TO.C,R89*%
X136437500Y-83062500D03*
X139362500Y-83062500D03*
%TD*%
D25*
%TO.C,R1120*%
X93250000Y-57500000D03*
X93250000Y-55850000D03*
%TD*%
D16*
%TO.C,Q62*%
X169737500Y-68187500D03*
X171637500Y-68187500D03*
X170687500Y-66312500D03*
%TD*%
D24*
%TO.C,R1107*%
X78250000Y-145737500D03*
X78250000Y-147562500D03*
%TD*%
D30*
%TO.C,C1010*%
X107000000Y-66475000D03*
X107000000Y-68025000D03*
%TD*%
D24*
%TO.C,R1031*%
X78250000Y-89650000D03*
X78250000Y-91475000D03*
%TD*%
D19*
%TO.C,R154*%
X179000000Y-53037500D03*
X179000000Y-55962500D03*
%TD*%
D10*
%TO.C,R111*%
X137187500Y-42962500D03*
X137187500Y-40037500D03*
%TD*%
D11*
%TO.C,Q101*%
X213337500Y-80800000D03*
X213337500Y-78900000D03*
X211462500Y-79850000D03*
%TD*%
D19*
%TO.C,R190*%
X187037500Y-15037500D03*
X187037500Y-17962500D03*
%TD*%
%TO.C,R238*%
X211037500Y-34037500D03*
X211037500Y-36962500D03*
%TD*%
D11*
%TO.C,Q53*%
X165375000Y-61700000D03*
X165375000Y-59800000D03*
X163500000Y-60750000D03*
%TD*%
D14*
%TO.C,R116*%
X152187500Y-28925000D03*
X152187500Y-30575000D03*
%TD*%
D77*
%TO.C,U17*%
X154150000Y-125404999D03*
X154150000Y-124135000D03*
X154150000Y-122865000D03*
X154150000Y-121595001D03*
X149000000Y-121595001D03*
X149000000Y-122865000D03*
X149000000Y-124135000D03*
X149000000Y-125404999D03*
%TD*%
D25*
%TO.C,R1100*%
X84250000Y-131400000D03*
X84250000Y-129750000D03*
%TD*%
D16*
%TO.C,Q24*%
X121737500Y-68187500D03*
X123637500Y-68187500D03*
X122687500Y-66312500D03*
%TD*%
D18*
%TO.C,R292*%
X229825000Y-120500000D03*
X228175000Y-120500000D03*
%TD*%
D24*
%TO.C,R1062*%
X87250000Y-100737500D03*
X87250000Y-102562500D03*
%TD*%
D31*
%TO.C,C98*%
X124700000Y-125075001D03*
X124700000Y-122124999D03*
%TD*%
D15*
%TO.C,D41*%
X133437500Y-82200000D03*
X133437500Y-84300000D03*
%TD*%
D24*
%TO.C,R1093*%
X87250000Y-112650000D03*
X87250000Y-114475000D03*
%TD*%
D10*
%TO.C,R43*%
X121187500Y-23962500D03*
X121187500Y-21037500D03*
%TD*%
D19*
%TO.C,R106*%
X147000000Y-34000000D03*
X147000000Y-36925000D03*
%TD*%
D11*
%TO.C,Q1036*%
X82187500Y-103600000D03*
X82187500Y-101700000D03*
X80312500Y-102650000D03*
%TD*%
%TO.C,Q7*%
X117487500Y-42687500D03*
X117487500Y-40787500D03*
X115612500Y-41737500D03*
%TD*%
D13*
%TO.C,R193*%
X192475000Y-44962500D03*
X195400000Y-44962500D03*
%TD*%
D19*
%TO.C,R230*%
X211000000Y-15137500D03*
X211000000Y-18062500D03*
%TD*%
D14*
%TO.C,R260*%
X224150000Y-67025000D03*
X224150000Y-68675000D03*
%TD*%
D13*
%TO.C,R53*%
X120475000Y-82962500D03*
X123400000Y-82962500D03*
%TD*%
D14*
%TO.C,R252*%
X216187500Y-66925000D03*
X216187500Y-68575000D03*
%TD*%
D15*
%TO.C,D129*%
X229400000Y-101300000D03*
X229400000Y-103400000D03*
%TD*%
D10*
%TO.C,R103*%
X145187500Y-61962500D03*
X145187500Y-59037500D03*
%TD*%
D15*
%TO.C,D90*%
X184937500Y-36450000D03*
X184937500Y-38550000D03*
%TD*%
D27*
%TO.C,D5*%
X206712500Y-147000000D03*
X208287500Y-147000000D03*
%TD*%
D19*
%TO.C,R118*%
X155037500Y-15037500D03*
X155037500Y-17962500D03*
%TD*%
D39*
%TO.C,D4*%
X170500000Y-92500000D03*
X168924998Y-92500000D03*
%TD*%
D19*
%TO.C,R234*%
X219000000Y-91137500D03*
X219000000Y-94062500D03*
%TD*%
D14*
%TO.C,R216*%
X208150000Y-86025000D03*
X208150000Y-87675000D03*
%TD*%
D16*
%TO.C,Q10*%
X113700000Y-68150000D03*
X115600000Y-68150000D03*
X114650000Y-66275000D03*
%TD*%
D19*
%TO.C,R122*%
X163037500Y-53037500D03*
X163037500Y-55962500D03*
%TD*%
D11*
%TO.C,Q1014*%
X91176519Y-69925000D03*
X91176519Y-68025000D03*
X89301519Y-68975000D03*
%TD*%
D15*
%TO.C,D25*%
X125400000Y-44200000D03*
X125400000Y-46300000D03*
%TD*%
D24*
%TO.C,R1113*%
X87250000Y-44337500D03*
X87250000Y-46162500D03*
%TD*%
D19*
%TO.C,R3*%
X206000000Y-101537500D03*
X206000000Y-104462500D03*
%TD*%
D15*
%TO.C,D81*%
X181437500Y-44200000D03*
X181437500Y-46300000D03*
%TD*%
D10*
%TO.C,R219*%
X209150000Y-81062500D03*
X209150000Y-78137500D03*
%TD*%
D16*
%TO.C,Q72*%
X169737500Y-30187500D03*
X171637500Y-30187500D03*
X170687500Y-28312500D03*
%TD*%
D11*
%TO.C,Q87*%
X189375000Y-23700000D03*
X189375000Y-21800000D03*
X187500000Y-22750000D03*
%TD*%
D13*
%TO.C,R153*%
X176437500Y-63962500D03*
X179362500Y-63962500D03*
%TD*%
D11*
%TO.C,Q1015*%
X91250000Y-53750000D03*
X91250000Y-51850000D03*
X89375000Y-52800000D03*
%TD*%
D24*
%TO.C,R1050*%
X87187500Y-37337500D03*
X87187500Y-39162500D03*
%TD*%
D14*
%TO.C,R32*%
X112150000Y-66887500D03*
X112150000Y-68537500D03*
%TD*%
%TO.C,R80*%
X128187500Y-85925000D03*
X128187500Y-87575000D03*
%TD*%
D13*
%TO.C,R109*%
X136475000Y-44962500D03*
X139400000Y-44962500D03*
%TD*%
D14*
%TO.C,R132*%
X168150000Y-86025000D03*
X168150000Y-87675000D03*
%TD*%
D24*
%TO.C,R1064*%
X87250000Y-63837500D03*
X87250000Y-65662500D03*
%TD*%
D78*
%TO.C,L3*%
X148449999Y-105500000D03*
X159550001Y-105500000D03*
%TD*%
D20*
%TO.C,C96*%
X125275000Y-116500000D03*
X123725000Y-116500000D03*
%TD*%
D11*
%TO.C,Q111*%
X213375000Y-42700000D03*
X213375000Y-40800000D03*
X211500000Y-41750000D03*
%TD*%
D25*
%TO.C,R277*%
X115000000Y-120825000D03*
X115000000Y-119175000D03*
%TD*%
D10*
%TO.C,R31*%
X113050000Y-43012500D03*
X113050000Y-40087500D03*
%TD*%
D11*
%TO.C,Q1030*%
X91187500Y-65700000D03*
X91187500Y-63800000D03*
X89312500Y-64750000D03*
%TD*%
D12*
%TO.C,C45*%
X133437500Y-36275000D03*
X133437500Y-39225000D03*
%TD*%
D29*
%TO.C,U6*%
X161475000Y-79945000D03*
X161475000Y-78675000D03*
X161475000Y-77405000D03*
X161475000Y-76135000D03*
X161475000Y-74865000D03*
X161475000Y-73595000D03*
X161475000Y-72325000D03*
X161475000Y-71055000D03*
X156525000Y-71055000D03*
X156525000Y-72325000D03*
X156525000Y-73595000D03*
X156525000Y-74865000D03*
X156525000Y-76135000D03*
X156525000Y-77405000D03*
X156525000Y-78675000D03*
X156525000Y-79945000D03*
%TD*%
D13*
%TO.C,R141*%
X160475000Y-25962500D03*
X163400000Y-25962500D03*
%TD*%
D25*
%TO.C,R1090*%
X84250000Y-27675000D03*
X84250000Y-26025000D03*
%TD*%
D13*
%TO.C,R253*%
X216475000Y-63962500D03*
X219400000Y-63962500D03*
%TD*%
D26*
%TO.C,U1007*%
X98162500Y-88555000D03*
X98162500Y-89825000D03*
X98162500Y-91095000D03*
X98162500Y-92365000D03*
X98162500Y-93635000D03*
X98162500Y-94905000D03*
X98162500Y-96175000D03*
X98162500Y-97445000D03*
X104337500Y-97445000D03*
X104337500Y-96175000D03*
X104337500Y-94905000D03*
X104337500Y-93635000D03*
X104337500Y-92365000D03*
X104337500Y-91095000D03*
X104337500Y-89825000D03*
X104337500Y-88555000D03*
%TD*%
D13*
%TO.C,R285*%
X137537500Y-125500000D03*
X140462500Y-125500000D03*
%TD*%
D12*
%TO.C,C47*%
X149437500Y-17275000D03*
X149437500Y-20225000D03*
%TD*%
D16*
%TO.C,Q80*%
X177737500Y-30187500D03*
X179637500Y-30187500D03*
X178687500Y-28312500D03*
%TD*%
D29*
%TO.C,U9*%
X186475000Y-103445000D03*
X186475000Y-102175000D03*
X186475000Y-100905000D03*
X186475000Y-99635000D03*
X186475000Y-98365000D03*
X186475000Y-97095000D03*
X186475000Y-95825000D03*
X186475000Y-94555000D03*
X181525000Y-94555000D03*
X181525000Y-95825000D03*
X181525000Y-97095000D03*
X181525000Y-98365000D03*
X181525000Y-99635000D03*
X181525000Y-100905000D03*
X181525000Y-102175000D03*
X181525000Y-103445000D03*
%TD*%
D12*
%TO.C,C70*%
X189437500Y-36275000D03*
X189437500Y-39225000D03*
%TD*%
D23*
%TO.C,R276*%
X113850000Y-117024999D03*
X115500000Y-117024999D03*
%TD*%
D25*
%TO.C,R1025*%
X93250000Y-53500000D03*
X93250000Y-51850000D03*
%TD*%
D16*
%TO.C,Q22*%
X121737500Y-106187500D03*
X123637500Y-106187500D03*
X122687500Y-104312500D03*
%TD*%
D38*
%TO.C,BT2*%
X114370000Y-159900000D03*
X193030000Y-159900000D03*
%TD*%
D15*
%TO.C,D46*%
X136900000Y-74550000D03*
X136900000Y-76650000D03*
%TD*%
%TO.C,D102*%
X200900000Y-55550000D03*
X200900000Y-57650000D03*
%TD*%
D14*
%TO.C,R244*%
X216150000Y-47887500D03*
X216150000Y-49537500D03*
%TD*%
D39*
%TO.C,D2*%
X111787501Y-116500000D03*
X110212499Y-116500000D03*
%TD*%
D25*
%TO.C,R1104*%
X84250000Y-59400000D03*
X84250000Y-57750000D03*
%TD*%
D16*
%TO.C,Q108*%
X209700000Y-30287500D03*
X211600000Y-30287500D03*
X210650000Y-28412500D03*
%TD*%
D24*
%TO.C,R1027*%
X87250000Y-152650000D03*
X87250000Y-154475000D03*
%TD*%
D78*
%TO.C,L4*%
X232050001Y-154000000D03*
X220949999Y-154000000D03*
%TD*%
D13*
%TO.C,R245*%
X216437500Y-44925000D03*
X219362500Y-44925000D03*
%TD*%
%TO.C,R261*%
X224437500Y-64062500D03*
X227362500Y-64062500D03*
%TD*%
D24*
%TO.C,R1094*%
X87250000Y-96650000D03*
X87250000Y-98475000D03*
%TD*%
D25*
%TO.C,R1007*%
X84250000Y-95575000D03*
X84250000Y-93925000D03*
%TD*%
D10*
%TO.C,R47*%
X113187500Y-80962500D03*
X113187500Y-78037500D03*
%TD*%
D11*
%TO.C,Q1042*%
X91250000Y-130550000D03*
X91250000Y-128650000D03*
X89375000Y-129600000D03*
%TD*%
D16*
%TO.C,Q82*%
X185737500Y-49187500D03*
X187637500Y-49187500D03*
X186687500Y-47312500D03*
%TD*%
D28*
%TO.C,C1006*%
X107225000Y-118000000D03*
X108775000Y-118000000D03*
%TD*%
D16*
%TO.C,Q94*%
X201700000Y-68287500D03*
X203600000Y-68287500D03*
X202650000Y-66412500D03*
%TD*%
D11*
%TO.C,Q99*%
X213337500Y-99800000D03*
X213337500Y-97900000D03*
X211462500Y-98850000D03*
%TD*%
D20*
%TO.C,C8*%
X204850000Y-143800000D03*
X203300000Y-143800000D03*
%TD*%
D25*
%TO.C,R1085*%
X93250000Y-114575000D03*
X93250000Y-112925000D03*
%TD*%
D12*
%TO.C,C15*%
X117000000Y-122049998D03*
X117000000Y-125000000D03*
%TD*%
D15*
%TO.C,D132*%
X224900000Y-55550000D03*
X224900000Y-57650000D03*
%TD*%
D10*
%TO.C,R203*%
X201150000Y-62062500D03*
X201150000Y-59137500D03*
%TD*%
D18*
%TO.C,R12*%
X104825000Y-134500000D03*
X103175000Y-134500000D03*
%TD*%
D28*
%TO.C,C11*%
X158625000Y-81700000D03*
X160175000Y-81700000D03*
%TD*%
D15*
%TO.C,D117*%
X221400000Y-101300000D03*
X221400000Y-103400000D03*
%TD*%
%TO.C,D134*%
X224900000Y-36412500D03*
X224900000Y-38512500D03*
%TD*%
D24*
%TO.C,R1047*%
X78250000Y-85750000D03*
X78250000Y-87575000D03*
%TD*%
D16*
%TO.C,Q120*%
X217737500Y-68187500D03*
X219637500Y-68187500D03*
X218687500Y-66312500D03*
%TD*%
D11*
%TO.C,Q13*%
X125375000Y-23700000D03*
X125375000Y-21800000D03*
X123500000Y-22750000D03*
%TD*%
D25*
%TO.C,R8*%
X213500000Y-168650000D03*
X213500000Y-167000000D03*
%TD*%
D19*
%TO.C,R38*%
X115037500Y-91037500D03*
X115037500Y-93962500D03*
%TD*%
D24*
%TO.C,R1014*%
X78250000Y-109975000D03*
X78250000Y-111800000D03*
%TD*%
D13*
%TO.C,R81*%
X128475000Y-82962500D03*
X131400000Y-82962500D03*
%TD*%
D30*
%TO.C,C1008*%
X107000000Y-77475000D03*
X107000000Y-79025000D03*
%TD*%
D10*
%TO.C,R239*%
X209187500Y-42962500D03*
X209187500Y-40037500D03*
%TD*%
%TO.C,R131*%
X161187500Y-42962500D03*
X161187500Y-40037500D03*
%TD*%
D14*
%TO.C,R180*%
X192187500Y-85925000D03*
X192187500Y-87575000D03*
%TD*%
%TO.C,R172*%
X176187500Y-28925000D03*
X176187500Y-30575000D03*
%TD*%
D79*
%TO.C,R284*%
X146412500Y-121000000D03*
X144587500Y-121000000D03*
%TD*%
D12*
%TO.C,C85*%
X213437500Y-36275000D03*
X213437500Y-39225000D03*
%TD*%
D15*
%TO.C,D123*%
X221400000Y-44162500D03*
X221400000Y-46262500D03*
%TD*%
D11*
%TO.C,Q19*%
X125375000Y-80700000D03*
X125375000Y-78800000D03*
X123500000Y-79750000D03*
%TD*%
D30*
%TO.C,C16*%
X213500000Y-162625000D03*
X213500000Y-164175000D03*
%TD*%
D19*
%TO.C,R170*%
X187000000Y-53037500D03*
X187000000Y-55962500D03*
%TD*%
D24*
%TO.C,R1127*%
X87250000Y-71837500D03*
X87250000Y-73662500D03*
%TD*%
D15*
%TO.C,D40*%
X128937500Y-36450000D03*
X128937500Y-38550000D03*
%TD*%
D11*
%TO.C,Q113*%
X221375000Y-80700000D03*
X221375000Y-78800000D03*
X219500000Y-79750000D03*
%TD*%
D19*
%TO.C,R242*%
X219037500Y-72037500D03*
X219037500Y-74962500D03*
%TD*%
D10*
%TO.C,R119*%
X153187500Y-23962500D03*
X153187500Y-21037500D03*
%TD*%
D11*
%TO.C,Q21*%
X125375000Y-99700000D03*
X125375000Y-97800000D03*
X123500000Y-98750000D03*
%TD*%
D18*
%TO.C,R304*%
X211325000Y-144000000D03*
X209675000Y-144000000D03*
%TD*%
D25*
%TO.C,R1036*%
X84250000Y-139575000D03*
X84250000Y-137925000D03*
%TD*%
D12*
%TO.C,C39*%
X125437500Y-74275000D03*
X125437500Y-77225000D03*
%TD*%
D16*
%TO.C,Q104*%
X201700000Y-30287500D03*
X203600000Y-30287500D03*
X202650000Y-28412500D03*
%TD*%
D11*
%TO.C,Q1021*%
X82187500Y-87700000D03*
X82187500Y-85800000D03*
X80312500Y-86750000D03*
%TD*%
D13*
%TO.C,R101*%
X144475000Y-63962500D03*
X147400000Y-63962500D03*
%TD*%
%TO.C,R49*%
X120437500Y-44962500D03*
X123362500Y-44962500D03*
%TD*%
D24*
%TO.C,R1034*%
X78250000Y-33837500D03*
X78250000Y-35662500D03*
%TD*%
D10*
%TO.C,R55*%
X121187500Y-80962500D03*
X121187500Y-78037500D03*
%TD*%
D25*
%TO.C,R1106*%
X93187500Y-34575000D03*
X93187500Y-32925000D03*
%TD*%
D10*
%TO.C,R71*%
X137150000Y-23962500D03*
X137150000Y-21037500D03*
%TD*%
D15*
%TO.C,D47*%
X133437500Y-63200000D03*
X133437500Y-65300000D03*
%TD*%
D32*
%TO.C,H3*%
X227700000Y-24600000D03*
%TD*%
D14*
%TO.C,R240*%
X216187500Y-85925000D03*
X216187500Y-87575000D03*
%TD*%
D13*
%TO.C,R269*%
X224475000Y-82962500D03*
X227400000Y-82962500D03*
%TD*%
D12*
%TO.C,C97*%
X122200000Y-122124999D03*
X122200000Y-125075001D03*
%TD*%
D19*
%TO.C,R202*%
X203000000Y-53137500D03*
X203000000Y-56062500D03*
%TD*%
D14*
%TO.C,R176*%
X184187500Y-47925000D03*
X184187500Y-49575000D03*
%TD*%
D11*
%TO.C,Q1027*%
X91187500Y-118600000D03*
X91187500Y-116700000D03*
X89312500Y-117650000D03*
%TD*%
D28*
%TO.C,C26*%
X212225000Y-156400000D03*
X213775000Y-156400000D03*
%TD*%
D11*
%TO.C,Q1018*%
X82187500Y-139600000D03*
X82187500Y-137700000D03*
X80312500Y-138650000D03*
%TD*%
D13*
%TO.C,R189*%
X184475000Y-25962500D03*
X187400000Y-25962500D03*
%TD*%
D19*
%TO.C,R214*%
X211000000Y-91137500D03*
X211000000Y-94062500D03*
%TD*%
D15*
%TO.C,D33*%
X133437500Y-25200000D03*
X133437500Y-27300000D03*
%TD*%
D13*
%TO.C,R173*%
X176475000Y-25962500D03*
X179400000Y-25962500D03*
%TD*%
D11*
%TO.C,Q29*%
X133375000Y-99700000D03*
X133375000Y-97800000D03*
X131500000Y-98750000D03*
%TD*%
D20*
%TO.C,C107*%
X230775000Y-146100000D03*
X229225000Y-146100000D03*
%TD*%
D11*
%TO.C,Q35*%
X149375000Y-23700000D03*
X149375000Y-21800000D03*
X147500000Y-22750000D03*
%TD*%
D15*
%TO.C,D53*%
X149400000Y-44162500D03*
X149400000Y-46262500D03*
%TD*%
D12*
%TO.C,C35*%
X117437500Y-93275000D03*
X117437500Y-96225000D03*
%TD*%
D10*
%TO.C,R259*%
X225150000Y-100062500D03*
X225150000Y-97137500D03*
%TD*%
D29*
%TO.C,U4*%
X143475000Y-103500000D03*
X143475000Y-102230000D03*
X143475000Y-100960000D03*
X143475000Y-99690000D03*
X143475000Y-98420000D03*
X143475000Y-97150000D03*
X143475000Y-95880000D03*
X143475000Y-94610000D03*
X138525000Y-94610000D03*
X138525000Y-95880000D03*
X138525000Y-97150000D03*
X138525000Y-98420000D03*
X138525000Y-99690000D03*
X138525000Y-100960000D03*
X138525000Y-102230000D03*
X138525000Y-103500000D03*
%TD*%
D13*
%TO.C,R85*%
X144475000Y-25962500D03*
X147400000Y-25962500D03*
%TD*%
D15*
%TO.C,D105*%
X205400000Y-44300000D03*
X205400000Y-46400000D03*
%TD*%
D25*
%TO.C,R1117*%
X93250000Y-110575000D03*
X93250000Y-108925000D03*
%TD*%
D16*
%TO.C,Q74*%
X177737500Y-49187500D03*
X179637500Y-49187500D03*
X178687500Y-47312500D03*
%TD*%
D29*
%TO.C,U8*%
X178475000Y-103445000D03*
X178475000Y-102175000D03*
X178475000Y-100905000D03*
X178475000Y-99635000D03*
X178475000Y-98365000D03*
X178475000Y-97095000D03*
X178475000Y-95825000D03*
X178475000Y-94555000D03*
X173525000Y-94555000D03*
X173525000Y-95825000D03*
X173525000Y-97095000D03*
X173525000Y-98365000D03*
X173525000Y-99635000D03*
X173525000Y-100905000D03*
X173525000Y-102175000D03*
X173525000Y-103445000D03*
%TD*%
D10*
%TO.C,R143*%
X161187500Y-23962500D03*
X161187500Y-21037500D03*
%TD*%
D24*
%TO.C,R1049*%
X78250000Y-49925000D03*
X78250000Y-51750000D03*
%TD*%
D11*
%TO.C,Q75*%
X189337500Y-80700000D03*
X189337500Y-78800000D03*
X187462500Y-79750000D03*
%TD*%
D16*
%TO.C,Q126*%
X225700000Y-49150000D03*
X227600000Y-49150000D03*
X226650000Y-47275000D03*
%TD*%
D11*
%TO.C,Q1049*%
X82187500Y-147600000D03*
X82187500Y-145700000D03*
X80312500Y-146650000D03*
%TD*%
D15*
%TO.C,D21*%
X125437500Y-25200000D03*
X125437500Y-27300000D03*
%TD*%
D11*
%TO.C,Q85*%
X197375000Y-61700000D03*
X197375000Y-59800000D03*
X195500000Y-60750000D03*
%TD*%
D19*
%TO.C,R78*%
X131037500Y-34037500D03*
X131037500Y-36962500D03*
%TD*%
D12*
%TO.C,C71*%
X197437500Y-74275000D03*
X197437500Y-77225000D03*
%TD*%
D11*
%TO.C,Q1041*%
X91187500Y-146600000D03*
X91187500Y-144700000D03*
X89312500Y-145650000D03*
%TD*%
D30*
%TO.C,C17*%
X211900000Y-149425000D03*
X211900000Y-150975000D03*
%TD*%
D13*
%TO.C,R157*%
X168475000Y-25962500D03*
X171400000Y-25962500D03*
%TD*%
D15*
%TO.C,D63*%
X157437500Y-44200000D03*
X157437500Y-46300000D03*
%TD*%
D25*
%TO.C,R1024*%
X93176519Y-69675000D03*
X93176519Y-68025000D03*
%TD*%
D24*
%TO.C,R1080*%
X78250000Y-61925000D03*
X78250000Y-63750000D03*
%TD*%
D14*
%TO.C,R224*%
X208187500Y-66925000D03*
X208187500Y-68575000D03*
%TD*%
D19*
%TO.C,R54*%
X123037500Y-72037500D03*
X123037500Y-74962500D03*
%TD*%
D15*
%TO.C,D118*%
X216900000Y-93550000D03*
X216900000Y-95650000D03*
%TD*%
D16*
%TO.C,Q70*%
X177700000Y-68187500D03*
X179600000Y-68187500D03*
X178650000Y-66312500D03*
%TD*%
D15*
%TO.C,D135*%
X229437500Y-82200000D03*
X229437500Y-84300000D03*
%TD*%
%TO.C,D77*%
X181400000Y-63200000D03*
X181400000Y-65300000D03*
%TD*%
%TO.C,D97*%
X197437500Y-44200000D03*
X197437500Y-46300000D03*
%TD*%
D14*
%TO.C,R108*%
X136187500Y-47925000D03*
X136187500Y-49575000D03*
%TD*%
D24*
%TO.C,R1075*%
X78250000Y-149737500D03*
X78250000Y-151562500D03*
%TD*%
D11*
%TO.C,Q91*%
X205337500Y-80800000D03*
X205337500Y-78900000D03*
X203462500Y-79850000D03*
%TD*%
D30*
%TO.C,C1003*%
X106500000Y-44225000D03*
X106500000Y-45775000D03*
%TD*%
D25*
%TO.C,R1022*%
X93250000Y-106400000D03*
X93250000Y-104750000D03*
%TD*%
D11*
%TO.C,Q1017*%
X82187500Y-155425000D03*
X82187500Y-153525000D03*
X80312500Y-154475000D03*
%TD*%
D15*
%TO.C,D110*%
X208900000Y-74550000D03*
X208900000Y-76650000D03*
%TD*%
D14*
%TO.C,R148*%
X176150000Y-85925000D03*
X176150000Y-87575000D03*
%TD*%
D19*
%TO.C,R222*%
X203000000Y-15137500D03*
X203000000Y-18062500D03*
%TD*%
D80*
%TO.C,U12*%
X210600000Y-170305000D03*
X210600000Y-169035000D03*
X210600000Y-167765000D03*
X210600000Y-166495000D03*
X203400000Y-166495000D03*
X203400000Y-167765000D03*
X203400000Y-169035000D03*
X203400000Y-170305000D03*
%TD*%
D14*
%TO.C,R100*%
X144187500Y-66925000D03*
X144187500Y-68575000D03*
%TD*%
D12*
%TO.C,C60*%
X173437500Y-55275000D03*
X173437500Y-58225000D03*
%TD*%
D11*
%TO.C,Q43*%
X149375000Y-61700000D03*
X149375000Y-59800000D03*
X147500000Y-60750000D03*
%TD*%
%TO.C,Q27*%
X141337500Y-23700000D03*
X141337500Y-21800000D03*
X139462500Y-22750000D03*
%TD*%
D25*
%TO.C,R1006*%
X84250000Y-111575000D03*
X84250000Y-109925000D03*
%TD*%
D13*
%TO.C,R45*%
X112475000Y-82962500D03*
X115400000Y-82962500D03*
%TD*%
D11*
%TO.C,Q95*%
X197375000Y-23700000D03*
X197375000Y-21800000D03*
X195500000Y-22750000D03*
%TD*%
D47*
%TO.C,SW3*%
X213850000Y-124100000D03*
X220150000Y-124100000D03*
X213850000Y-127900000D03*
X220150000Y-127900000D03*
%TD*%
D25*
%TO.C,R1019*%
X93250000Y-154300000D03*
X93250000Y-152650000D03*
%TD*%
D14*
%TO.C,R1001*%
X88850000Y-88525000D03*
X88850000Y-90175000D03*
%TD*%
D28*
%TO.C,C95*%
X123725000Y-119500000D03*
X125275000Y-119500000D03*
%TD*%
D11*
%TO.C,Q1063*%
X82250000Y-39650000D03*
X82250000Y-37750000D03*
X80375000Y-38700000D03*
%TD*%
D15*
%TO.C,D98*%
X192937500Y-36450000D03*
X192937500Y-38550000D03*
%TD*%
D14*
%TO.C,R9*%
X200000000Y-150175000D03*
X200000000Y-151825000D03*
%TD*%
D15*
%TO.C,D103*%
X197437500Y-25200000D03*
X197437500Y-27300000D03*
%TD*%
D10*
%TO.C,R91*%
X137150000Y-81062500D03*
X137150000Y-78137500D03*
%TD*%
D24*
%TO.C,R1065*%
X87250000Y-47887500D03*
X87250000Y-49712500D03*
%TD*%
D10*
%TO.C,R147*%
X169187500Y-42962500D03*
X169187500Y-40037500D03*
%TD*%
D25*
%TO.C,R1021*%
X93250000Y-122575000D03*
X93250000Y-120925000D03*
%TD*%
D10*
%TO.C,R211*%
X201150000Y-43062500D03*
X201150000Y-40137500D03*
%TD*%
D18*
%TO.C,R301*%
X232100000Y-135500000D03*
X230450000Y-135500000D03*
%TD*%
D14*
%TO.C,R7*%
X120175000Y-109700000D03*
X120175000Y-111350000D03*
%TD*%
D81*
%TO.C,Q131*%
X226562500Y-133850000D03*
X226562500Y-135750000D03*
X228437500Y-134800000D03*
%TD*%
D10*
%TO.C,R107*%
X145150000Y-42925000D03*
X145150000Y-40000000D03*
%TD*%
D12*
%TO.C,C51*%
X149437500Y-55275000D03*
X149437500Y-58225000D03*
%TD*%
D19*
%TO.C,R178*%
X187037500Y-34037500D03*
X187037500Y-36962500D03*
%TD*%
D14*
%TO.C,R128*%
X160187500Y-47925000D03*
X160187500Y-49575000D03*
%TD*%
D25*
%TO.C,R1057*%
X93250000Y-49850000D03*
X93250000Y-48200000D03*
%TD*%
D29*
%TO.C,U5*%
X152975000Y-79945000D03*
X152975000Y-78675000D03*
X152975000Y-77405000D03*
X152975000Y-76135000D03*
X152975000Y-74865000D03*
X152975000Y-73595000D03*
X152975000Y-72325000D03*
X152975000Y-71055000D03*
X148025000Y-71055000D03*
X148025000Y-72325000D03*
X148025000Y-73595000D03*
X148025000Y-74865000D03*
X148025000Y-76135000D03*
X148025000Y-77405000D03*
X148025000Y-78675000D03*
X148025000Y-79945000D03*
%TD*%
D24*
%TO.C,R1125*%
X87250000Y-108650000D03*
X87250000Y-110475000D03*
%TD*%
D13*
%TO.C,R241*%
X216475000Y-82962500D03*
X219400000Y-82962500D03*
%TD*%
%TO.C,R177*%
X184475000Y-44962500D03*
X187400000Y-44962500D03*
%TD*%
D24*
%TO.C,R1061*%
X87250000Y-116737500D03*
X87250000Y-118562500D03*
%TD*%
D19*
%TO.C,R126*%
X155037500Y-34037500D03*
X155037500Y-36962500D03*
%TD*%
D24*
%TO.C,R1091*%
X87250000Y-144737500D03*
X87250000Y-146562500D03*
%TD*%
D13*
%TO.C,R133*%
X168437500Y-83062500D03*
X171362500Y-83062500D03*
%TD*%
D10*
%TO.C,R235*%
X217150000Y-100062500D03*
X217150000Y-97137500D03*
%TD*%
D11*
%TO.C,Q61*%
X173375000Y-61700000D03*
X173375000Y-59800000D03*
X171500000Y-60750000D03*
%TD*%
D24*
%TO.C,R1030*%
X87250000Y-104737500D03*
X87250000Y-106562500D03*
%TD*%
%TO.C,R1012*%
X78250000Y-141737500D03*
X78250000Y-143562500D03*
%TD*%
D12*
%TO.C,C74*%
X197437500Y-36275000D03*
X197437500Y-39225000D03*
%TD*%
D19*
%TO.C,R194*%
X195037500Y-34037500D03*
X195037500Y-36962500D03*
%TD*%
D15*
%TO.C,D57*%
X157437500Y-63200000D03*
X157437500Y-65300000D03*
%TD*%
%TO.C,D31*%
X125437500Y-63200000D03*
X125437500Y-65300000D03*
%TD*%
D16*
%TO.C,Q68*%
X177700000Y-87187500D03*
X179600000Y-87187500D03*
X178650000Y-85312500D03*
%TD*%
D11*
%TO.C,Q49*%
X157375000Y-61700000D03*
X157375000Y-59800000D03*
X155500000Y-60750000D03*
%TD*%
D30*
%TO.C,C1007*%
X107000000Y-88475000D03*
X107000000Y-90025000D03*
%TD*%
M02*
