M48
; DRILL file {KiCad 8.0.2} date 2024-06-03T23:57:49-0400
; FORMAT={-:-/ absolute / inch / decimal}
; #@! TF.CreationDate,2024-06-03T23:57:49-04:00
; #@! TF.GenerationSoftware,Kicad,Pcbnew,8.0.2
; #@! TF.FileFunction,NonPlated,1,4,NPTH
FMAT,2
INCH
; #@! TA.AperFunction,NonPlated,NPTH,ComponentDrill
T1C0.0228
; #@! TA.AperFunction,NonPlated,NPTH,ComponentDrill
T2C0.0260
; #@! TA.AperFunction,NonPlated,NPTH,ComponentDrill
T3C0.0390
; #@! TA.AperFunction,NonPlated,NPTH,ComponentDrill
T4C0.0472
; #@! TA.AperFunction,NonPlated,NPTH,ComponentDrill
T5C0.0941
; #@! TA.AperFunction,NonPlated,NPTH,ComponentDrill
T6C0.1260
; #@! TA.AperFunction,NonPlated,NPTH,ComponentDrill
T7C0.1358
; #@! TA.AperFunction,NonPlated,NPTH,ComponentDrill
T8C0.1693
%
G90
G05
T2
X3.8976Y-5.3248
T3
X7.6909Y-5.7949
X7.7309Y-5.9949
X7.7709Y-5.7949
T4
X3.5679Y-3.374
X3.7539Y-6.5955
X3.7638Y-6.3386
X5.0098Y-5.4508
T5
X4.6366Y-5.9803
X7.4657Y-5.7441
T6
X3.1398Y-0.6496
X3.1398Y-6.4764
X8.9665Y-0.6496
X8.9665Y-6.4764
T7
X4.9646Y-5.7441
X4.9646Y-6.6102
X7.1378Y-5.1142
X7.1378Y-5.9803
T8
X3.5433Y-0.8268
X4.2913Y-6.5748
X5.0Y-4.4094
X7.4409Y-4.8622
X7.6969Y-6.5748
X8.9646Y-0.9685
T1
G00X3.8976Y-5.6118
M15
G01X3.8976Y-5.6283
M16
G05
M30
