%TF.GenerationSoftware,KiCad,Pcbnew,8.0.2*%
%TF.CreationDate,2024-06-03T23:57:49-04:00*%
%TF.ProjectId,IGGDriver,49474744-7269-4766-9572-2e6b69636164,rev?*%
%TF.SameCoordinates,Original*%
%TF.FileFunction,Copper,L3,Inr*%
%TF.FilePolarity,Positive*%
%FSLAX46Y46*%
G04 Gerber Fmt 4.6, Leading zero omitted, Abs format (unit mm)*
G04 Created by KiCad (PCBNEW 8.0.2) date 2024-06-03 23:57:49*
%MOMM*%
%LPD*%
G01*
G04 APERTURE LIST*
G04 Aperture macros list*
%AMRoundRect*
0 Rectangle with rounded corners*
0 $1 Rounding radius*
0 $2 $3 $4 $5 $6 $7 $8 $9 X,Y pos of 4 corners*
0 Add a 4 corners polygon primitive as box body*
4,1,4,$2,$3,$4,$5,$6,$7,$8,$9,$2,$3,0*
0 Add four circle primitives for the rounded corners*
1,1,$1+$1,$2,$3*
1,1,$1+$1,$4,$5*
1,1,$1+$1,$6,$7*
1,1,$1+$1,$8,$9*
0 Add four rect primitives between the rounded corners*
20,1,$1+$1,$2,$3,$4,$5,0*
20,1,$1+$1,$4,$5,$6,$7,0*
20,1,$1+$1,$6,$7,$8,$9,0*
20,1,$1+$1,$8,$9,$2,$3,0*%
G04 Aperture macros list end*
%TA.AperFunction,ComponentPad*%
%ADD10RoundRect,0.250000X-0.600000X-0.725000X0.600000X-0.725000X0.600000X0.725000X-0.600000X0.725000X0*%
%TD*%
%TA.AperFunction,ComponentPad*%
%ADD11O,1.700000X1.950000*%
%TD*%
%TA.AperFunction,HeatsinkPad*%
%ADD12C,0.500000*%
%TD*%
%TA.AperFunction,ComponentPad*%
%ADD13RoundRect,0.250000X0.750000X-0.600000X0.750000X0.600000X-0.750000X0.600000X-0.750000X-0.600000X0*%
%TD*%
%TA.AperFunction,ComponentPad*%
%ADD14O,2.000000X1.700000*%
%TD*%
%TA.AperFunction,ComponentPad*%
%ADD15C,0.600000*%
%TD*%
%TA.AperFunction,ComponentPad*%
%ADD16RoundRect,0.250000X0.600000X0.725000X-0.600000X0.725000X-0.600000X-0.725000X0.600000X-0.725000X0*%
%TD*%
%TA.AperFunction,ComponentPad*%
%ADD17C,2.000000*%
%TD*%
%TA.AperFunction,ComponentPad*%
%ADD18RoundRect,0.375000X1.125000X0.375000X-1.125000X0.375000X-1.125000X-0.375000X1.125000X-0.375000X0*%
%TD*%
%TA.AperFunction,ComponentPad*%
%ADD19RoundRect,0.375000X0.375000X-1.125000X0.375000X1.125000X-0.375000X1.125000X-0.375000X-1.125000X0*%
%TD*%
%TA.AperFunction,ComponentPad*%
%ADD20C,1.100000*%
%TD*%
%TA.AperFunction,ComponentPad*%
%ADD21C,2.400000*%
%TD*%
%TA.AperFunction,ViaPad*%
%ADD22C,0.350000*%
%TD*%
%TA.AperFunction,ViaPad*%
%ADD23C,0.600000*%
%TD*%
%TA.AperFunction,ViaPad*%
%ADD24C,1.000000*%
%TD*%
%TA.AperFunction,ViaPad*%
%ADD25C,0.500000*%
%TD*%
%TA.AperFunction,Conductor*%
%ADD26C,0.150000*%
%TD*%
%TA.AperFunction,Conductor*%
%ADD27C,0.228600*%
%TD*%
%TA.AperFunction,Conductor*%
%ADD28C,0.200000*%
%TD*%
%TA.AperFunction,Conductor*%
%ADD29C,0.100000*%
%TD*%
%TA.AperFunction,Conductor*%
%ADD30C,1.000000*%
%TD*%
%TA.AperFunction,Conductor*%
%ADD31C,0.750000*%
%TD*%
%TA.AperFunction,Conductor*%
%ADD32C,0.110000*%
%TD*%
G04 APERTURE END LIST*
D10*
%TO.N,Net-(BT2-+)*%
%TO.C,J3*%
X128850000Y-136450000D03*
D11*
%TO.N,/BAT_MID*%
X131350000Y-136450000D03*
%TO.N,GND*%
X133850000Y-136450000D03*
%TD*%
D12*
%TO.N,GND*%
%TO.C,U16*%
X120275000Y-114600000D03*
X119225000Y-114600000D03*
X118175000Y-114600000D03*
X120275000Y-115650000D03*
X119225000Y-115650000D03*
X118175000Y-115650000D03*
X120275000Y-116700000D03*
X119225000Y-116700000D03*
X118175000Y-116700000D03*
%TD*%
D13*
%TO.N,HT*%
%TO.C,J1002*%
X88625000Y-84100000D03*
D14*
%TO.N,GND*%
X88625000Y-81600000D03*
%TD*%
D15*
%TO.N,GND*%
%TO.C,U18*%
X230000000Y-144100000D03*
X230000000Y-142900000D03*
X230000000Y-141600000D03*
X230000000Y-140500000D03*
X228800000Y-144100000D03*
X228800000Y-142900000D03*
X228800000Y-141600000D03*
X228800000Y-140500000D03*
%TD*%
D16*
%TO.N,GND*%
%TO.C,J1*%
X94000000Y-163000000D03*
D11*
%TO.N,/LED*%
X91500000Y-163000000D03*
%TO.N,/RX*%
X89000000Y-163000000D03*
%TO.N,+3V3*%
X86500000Y-163000000D03*
%TD*%
D16*
%TO.N,GND*%
%TO.C,J7*%
X93750000Y-169525000D03*
D11*
%TO.N,/SCL*%
X91250000Y-169525000D03*
%TO.N,/SDA*%
X88750000Y-169525000D03*
%TO.N,+3V3*%
X86250000Y-169525000D03*
%TD*%
D17*
%TO.N,Net-(U1012-Q9)*%
%TO.C,TP1001*%
X108000000Y-51200000D03*
%TD*%
D18*
%TO.N,/Kathode/OUT_K0*%
%TO.C,U13*%
X71250000Y-169250000D03*
%TO.N,/Kathode/OUT_K1*%
X71250000Y-166750000D03*
%TO.N,/Kathode/OUT_K2*%
X71250000Y-164250000D03*
%TO.N,/Kathode/OUT_K3*%
X71250000Y-161750000D03*
%TO.N,/Kathode/OUT_K4*%
X71250000Y-159250000D03*
%TO.N,/Kathode/OUT_K5*%
X71250000Y-156750000D03*
%TO.N,/Kathode/OUT_K6*%
X71250000Y-154250000D03*
%TO.N,/Kathode/OUT_K7*%
X71250000Y-151750000D03*
%TO.N,/Kathode/OUT_K8*%
X71250000Y-149250000D03*
%TO.N,/Kathode/OUT_K9*%
X71250000Y-146750000D03*
%TO.N,/Kathode/OUT_K10*%
X71250000Y-144250000D03*
%TO.N,/Kathode/OUT_K11*%
X71250000Y-141750000D03*
%TO.N,/Kathode/OUT_K12*%
X71250000Y-139250000D03*
%TO.N,/Kathode/OUT_K13*%
X71250000Y-136750000D03*
%TO.N,/Kathode/OUT_K14*%
X71250000Y-134250000D03*
%TO.N,/Kathode/OUT_K15*%
X71250000Y-131750000D03*
%TO.N,/Kathode/OUT_K16*%
X71250000Y-129250000D03*
%TO.N,/Kathode/OUT_K17*%
X71250000Y-126750000D03*
%TO.N,/Kathode/OUT_K18*%
X71250000Y-124250000D03*
%TO.N,/Kathode/OUT_K19*%
X71250000Y-121750000D03*
%TO.N,/Kathode/OUT_K20*%
X71250000Y-119250000D03*
%TO.N,/Kathode/OUT_K21*%
X71250000Y-116750000D03*
%TO.N,/Kathode/OUT_K22*%
X71250000Y-114250000D03*
%TO.N,/Kathode/OUT_K23*%
X71250000Y-111750000D03*
%TO.N,/Kathode/OUT_K24*%
X71250000Y-109250000D03*
%TO.N,/Kathode/OUT_K25*%
X71250000Y-106750000D03*
%TO.N,/Kathode/OUT_K26*%
X71250000Y-104250000D03*
%TO.N,/Kathode/OUT_K27*%
X71250000Y-101750000D03*
%TO.N,/Kathode/OUT_K28*%
X71250000Y-99250000D03*
%TO.N,/Kathode/OUT_K29*%
X71250000Y-96750000D03*
%TO.N,/Kathode/OUT_K30*%
X71250000Y-94250000D03*
%TO.N,/Kathode/OUT_K31*%
X71250000Y-91750000D03*
%TO.N,/Kathode/OUT_K32*%
X71250000Y-89250000D03*
%TO.N,/Kathode/OUT_K33*%
X71250000Y-86750000D03*
%TO.N,/Kathode/OUT_K34*%
X71250000Y-84250000D03*
%TO.N,/Kathode/OUT_K35*%
X71250000Y-81750000D03*
%TO.N,/Kathode/OUT_K36*%
X71250000Y-79250000D03*
%TO.N,/Kathode/OUT_K37*%
X71250000Y-76750000D03*
%TO.N,/Kathode/OUT_K38*%
X71250000Y-74250000D03*
%TO.N,/Kathode/OUT_K39*%
X71250000Y-71750000D03*
%TO.N,/Kathode/OUT_K40*%
X71250000Y-69250000D03*
%TO.N,/Kathode/OUT_K41*%
X71250000Y-66750000D03*
%TO.N,/Kathode/OUT_K42*%
X71250000Y-64250000D03*
%TO.N,/Kathode/OUT_K43*%
X71250000Y-61750000D03*
%TO.N,/Kathode/OUT_K44*%
X71250000Y-59250000D03*
%TO.N,/Kathode/OUT_K45*%
X71250000Y-56750000D03*
%TO.N,/Kathode/OUT_K46*%
X71250000Y-54250000D03*
%TO.N,/Kathode/OUT_K47*%
X71250000Y-51750000D03*
%TO.N,/Kathode/OUT_K48*%
X71250000Y-49250000D03*
%TO.N,/Kathode/OUT_K49*%
X71250000Y-46750000D03*
%TO.N,/Kathode/OUT_K50*%
X71250000Y-44250000D03*
%TO.N,/Kathode/OUT_K51*%
X71250000Y-41750000D03*
%TO.N,/Kathode/OUT_K52*%
X71250000Y-39250000D03*
%TO.N,/Kathode/OUT_K53*%
X71250000Y-36750000D03*
%TO.N,/Kathode/OUT_K54*%
X71250000Y-34250000D03*
%TO.N,/Kathode/OUT_K55*%
X71250000Y-31750000D03*
%TO.N,/Kathode/OUT_K56*%
X71250000Y-29250000D03*
%TO.N,/Kathode/OUT_K57*%
X71250000Y-26750000D03*
%TO.N,/Kathode/OUT_K58*%
X71250000Y-24250000D03*
%TO.N,/Kathode/OUT_K59*%
X71250000Y-21750000D03*
%TO.N,/Kathode/OUT_K60*%
X71250000Y-19250000D03*
%TO.N,/Kathode/OUT_K61*%
X71250000Y-16750000D03*
%TO.N,/Kathode/OUT_K62*%
X71250000Y-14250000D03*
%TO.N,/Kathode/OUT_K63*%
X71250000Y-11750000D03*
D19*
%TO.N,/AO1*%
X75000000Y-8000000D03*
%TO.N,/AO2*%
X77500000Y-8000000D03*
%TO.N,/AO3*%
X80000000Y-8000000D03*
%TO.N,/AO4*%
X82500000Y-8000000D03*
%TO.N,/AO5*%
X85000000Y-8000000D03*
%TO.N,/AO6*%
X87500000Y-8000000D03*
%TO.N,/AO7*%
X90000000Y-8000000D03*
%TO.N,/AO8*%
X92500000Y-8000000D03*
%TO.N,/AO9*%
X95000000Y-8000000D03*
%TO.N,/AO10*%
X97500000Y-8000000D03*
%TO.N,/AO11*%
X100000000Y-8000000D03*
%TO.N,/AO12*%
X102500000Y-8000000D03*
%TO.N,/AO13*%
X105000000Y-8000000D03*
%TO.N,/AO14*%
X107500000Y-8000000D03*
%TO.N,/AO15*%
X110000000Y-8000000D03*
%TO.N,/AO16*%
X112500000Y-8000000D03*
%TO.N,/AO17*%
X115000000Y-8000000D03*
%TO.N,/AO18*%
X117500000Y-8000000D03*
%TO.N,/AO19*%
X120000000Y-8000000D03*
%TO.N,/AO20*%
X122500000Y-8000000D03*
%TO.N,/AO21*%
X125000000Y-8000000D03*
%TO.N,/AO22*%
X127500000Y-8000000D03*
%TO.N,/AO23*%
X130000000Y-8000000D03*
%TO.N,/AO24*%
X132500000Y-8000000D03*
%TO.N,/AO25*%
X135000000Y-8000000D03*
%TO.N,/AO26*%
X137500000Y-8000000D03*
%TO.N,/AO27*%
X140000000Y-8000000D03*
%TO.N,/AO28*%
X142500000Y-8000000D03*
%TO.N,/AO29*%
X145000000Y-8000000D03*
%TO.N,/AO30*%
X147500000Y-8000000D03*
%TO.N,/AO31*%
X150000000Y-8000000D03*
%TO.N,/AO32*%
X152500000Y-8000000D03*
%TO.N,/AO33*%
X155000000Y-8000000D03*
%TO.N,/AO34*%
X157500000Y-8000000D03*
%TO.N,/AO35*%
X160000000Y-8000000D03*
%TO.N,/AO36*%
X162500000Y-8000000D03*
%TO.N,/AO37*%
X165000000Y-8000000D03*
%TO.N,/AO38*%
X167500000Y-8000000D03*
%TO.N,/AO39*%
X170000000Y-8000000D03*
%TO.N,/AO40*%
X172500000Y-8000000D03*
%TO.N,/AO41*%
X175000000Y-8000000D03*
%TO.N,/AO42*%
X177500000Y-8000000D03*
%TO.N,/AO43*%
X180000000Y-8000000D03*
%TO.N,/AO44*%
X182500000Y-8000000D03*
%TO.N,/AO45*%
X185000000Y-8000000D03*
%TO.N,/AO46*%
X187500000Y-8000000D03*
%TO.N,/AO47*%
X190000000Y-8000000D03*
%TO.N,/AO48*%
X192500000Y-8000000D03*
%TO.N,/AO49*%
X195000000Y-8000000D03*
%TO.N,/AO50*%
X197500000Y-8000000D03*
%TO.N,/AO51*%
X200000000Y-8000000D03*
%TO.N,/AO52*%
X202500000Y-8000000D03*
%TO.N,/AO53*%
X205000000Y-8000000D03*
%TO.N,/AO54*%
X207500000Y-8000000D03*
%TO.N,/AO55*%
X210000000Y-8000000D03*
%TO.N,/AO56*%
X212500000Y-8000000D03*
%TO.N,/AO57*%
X215000000Y-8000000D03*
%TO.N,/AO58*%
X217500000Y-8000000D03*
%TO.N,/AO59*%
X220000000Y-8000000D03*
%TO.N,/AO60*%
X222500000Y-8000000D03*
%TO.N,/AO61*%
X225000000Y-8000000D03*
%TO.N,/AO62*%
X227500000Y-8000000D03*
%TO.N,/AO63*%
X230000000Y-8000000D03*
%TO.N,/AO64*%
X232500000Y-8000000D03*
%TD*%
D20*
%TO.N,GND*%
%TO.C,J6*%
X101150000Y-136600000D03*
X96850000Y-136600000D03*
X101150000Y-141400000D03*
X96850000Y-141400000D03*
%TD*%
D17*
%TO.N,Net-(U1012-Cout)*%
%TO.C,TP1002*%
X108000000Y-48500000D03*
%TD*%
D21*
%TO.N,Net-(BT3-+)*%
%TO.C,C106*%
X173000000Y-123500000D03*
%TO.N,GND*%
X173000000Y-108500000D03*
%TD*%
D22*
%TO.N,/~{USB_BOOT}*%
X214100000Y-166900000D03*
X212300000Y-137950000D03*
X217500000Y-138900000D03*
X203000000Y-108500000D03*
D23*
%TO.N,GND*%
X89550000Y-30050000D03*
D22*
X199200000Y-162800000D03*
D23*
X179946111Y-29482269D03*
X211946111Y-48482269D03*
D22*
X107200000Y-79800000D03*
X168800000Y-94100000D03*
D23*
X81000000Y-133200000D03*
X97000000Y-108500000D03*
X97039265Y-119509265D03*
X83275000Y-73804596D03*
X90450000Y-33550000D03*
X227908611Y-67582269D03*
D22*
X221000000Y-169700000D03*
D23*
X90450000Y-116450000D03*
D22*
X198400000Y-155800000D03*
D24*
X143100000Y-121700000D03*
D23*
X82850000Y-149550000D03*
D22*
X108400000Y-36800000D03*
D24*
X159200000Y-117600000D03*
D22*
X191800000Y-106500000D03*
D23*
X195946111Y-29482269D03*
X91750000Y-148550000D03*
X83010118Y-45590276D03*
D22*
X120200000Y-119000000D03*
D23*
X113500000Y-120000000D03*
D22*
X222300000Y-133900000D03*
D23*
X105900000Y-68300000D03*
X92201519Y-67923986D03*
X227908611Y-105582269D03*
X83275000Y-65579276D03*
X99908611Y-29582269D03*
D22*
X122800000Y-109700000D03*
D23*
X106400000Y-55100000D03*
X115908611Y-67444769D03*
D22*
X207400000Y-108600000D03*
D23*
X139946111Y-48482269D03*
X83100000Y-134400000D03*
D24*
X138500000Y-105200000D03*
D23*
X203908611Y-29582269D03*
X219946111Y-86482269D03*
X219908611Y-48444769D03*
X83275000Y-121750000D03*
X123946111Y-105482269D03*
X155946111Y-29482269D03*
D22*
X181900000Y-106000000D03*
D23*
X123946111Y-67482269D03*
D22*
X147400000Y-125500000D03*
X110600000Y-108300000D03*
D23*
X131946111Y-67482269D03*
X83275000Y-21907272D03*
X147908611Y-48444769D03*
D22*
X123300000Y-115900000D03*
D23*
X90400000Y-124200000D03*
D22*
X211700000Y-150797288D03*
D23*
X227908611Y-48444769D03*
X83350000Y-101450000D03*
D22*
X111600000Y-114100000D03*
X187800000Y-106300000D03*
D23*
X90400000Y-104200000D03*
X83300000Y-36700000D03*
X92050000Y-144450000D03*
X92150000Y-132650000D03*
X179908611Y-86482269D03*
X91850000Y-156350000D03*
D22*
X110800000Y-152200000D03*
X99900000Y-132000000D03*
D23*
X179946111Y-48482269D03*
X171946111Y-48482269D03*
D22*
X223900000Y-125500000D03*
D23*
X131946111Y-48482269D03*
X90550000Y-37150000D03*
X115946111Y-105482269D03*
D22*
X197800000Y-148500000D03*
X213900000Y-155700000D03*
X150400000Y-81500000D03*
D23*
X97752617Y-64399272D03*
X92150000Y-71850000D03*
D22*
X96400000Y-156500000D03*
D23*
X213825000Y-165250000D03*
X211908611Y-86582269D03*
X219942236Y-67878044D03*
X97200000Y-130400000D03*
X82850000Y-124850000D03*
D22*
X210600000Y-132700000D03*
D23*
X147946111Y-29482269D03*
X203908611Y-48582269D03*
X83250000Y-89450000D03*
X187946111Y-29482269D03*
X187908611Y-86482269D03*
X90200000Y-112100000D03*
X140025518Y-29405237D03*
X83000000Y-29200000D03*
D24*
X132200000Y-123500000D03*
D22*
X194200000Y-104700000D03*
D23*
X83109484Y-57707943D03*
D22*
X229900000Y-133200000D03*
D23*
X150917565Y-70950000D03*
X83250000Y-33020665D03*
X83331045Y-93282870D03*
X155946111Y-67482269D03*
D22*
X113200000Y-146900000D03*
D23*
X91929958Y-92676417D03*
D22*
X194000000Y-126000000D03*
D23*
X91850000Y-152350000D03*
X211946111Y-67482269D03*
D22*
X224500000Y-140200000D03*
D23*
X187908611Y-67482269D03*
X155946111Y-48482269D03*
X131975000Y-29485524D03*
X196000000Y-48482269D03*
D22*
X207000000Y-149325000D03*
D23*
X92150000Y-96450000D03*
X82163603Y-26336397D03*
X92350000Y-47650000D03*
D22*
X214900000Y-140500000D03*
D23*
X171946111Y-67482269D03*
D24*
X150100000Y-123500000D03*
D22*
X122200000Y-114300000D03*
X200800000Y-166700000D03*
D23*
X105900000Y-89816327D03*
X179908611Y-67482269D03*
D22*
X194300000Y-110000000D03*
D23*
X91850000Y-140650000D03*
D22*
X113700000Y-111800000D03*
X187100000Y-94000000D03*
D23*
X83340895Y-41345371D03*
D22*
X210300000Y-134900000D03*
D23*
X81100000Y-145100000D03*
D22*
X202800000Y-149300000D03*
X198877351Y-119883974D03*
X98500000Y-76200000D03*
D23*
X163946111Y-48482269D03*
X92050000Y-59650000D03*
X106400000Y-111900000D03*
X83025000Y-85410264D03*
X81000000Y-141100000D03*
X91950000Y-136450000D03*
X90850000Y-100750000D03*
D22*
X203100000Y-93900000D03*
D23*
X83275000Y-49558932D03*
D22*
X204100000Y-105500000D03*
X136700000Y-101600000D03*
X201900000Y-123600000D03*
D23*
X123537376Y-48815608D03*
X227946111Y-86482269D03*
X131975000Y-86485524D03*
D22*
X123162499Y-123662499D03*
D23*
X92291989Y-51495644D03*
X196000000Y-67482269D03*
X90550000Y-40650000D03*
D22*
X145200000Y-94700000D03*
D23*
X115850000Y-49987500D03*
X97100000Y-86500000D03*
X147946111Y-67482269D03*
X92050000Y-63750000D03*
D22*
X167500000Y-105100000D03*
D23*
X83150000Y-129450000D03*
D22*
X219300000Y-144500000D03*
D23*
X91124265Y-129124265D03*
X163946111Y-67482269D03*
X83283692Y-81437471D03*
X90650000Y-108550000D03*
X115946111Y-86482269D03*
D22*
X207684905Y-154918800D03*
X179200000Y-93900000D03*
X118200000Y-110800000D03*
D23*
X83350000Y-105550000D03*
X97000000Y-53200000D03*
X163946111Y-29482269D03*
D22*
X108800000Y-30500000D03*
D23*
X211881827Y-29734454D03*
D22*
X98500000Y-35200000D03*
X116000000Y-124274998D03*
D23*
X83221417Y-113539009D03*
X91750000Y-87150000D03*
X83306554Y-54167866D03*
X203908611Y-86582269D03*
X171946111Y-29482269D03*
X83300000Y-97100000D03*
X203908611Y-67582269D03*
X83280477Y-61256495D03*
D22*
X225300000Y-124300000D03*
X97400000Y-146700000D03*
D23*
X171908611Y-86582269D03*
X219908611Y-105582269D03*
D22*
X109200000Y-155400000D03*
D23*
X131946111Y-105482269D03*
D22*
X194000000Y-94000000D03*
X105800000Y-164500000D03*
D23*
X81350000Y-77300000D03*
X92150000Y-75550000D03*
X83100000Y-117200000D03*
D22*
X107900000Y-45800000D03*
X108000000Y-101200000D03*
D23*
X107300000Y-129700000D03*
D22*
X205500000Y-147300000D03*
D23*
X82950000Y-153150000D03*
D24*
X145100000Y-108400000D03*
D22*
X202100000Y-124300000D03*
D23*
X196000000Y-86482269D03*
X83416238Y-109301287D03*
D22*
X204500000Y-123600000D03*
D23*
X90550000Y-44050000D03*
X81200000Y-137200000D03*
D22*
X160000000Y-82300000D03*
D23*
X220079581Y-29740700D03*
X83270988Y-69625207D03*
X123746539Y-29768902D03*
X211908611Y-105582269D03*
D22*
X209900000Y-166000000D03*
X201800000Y-143800000D03*
X96900000Y-98000000D03*
D23*
X90750000Y-120550000D03*
X92275000Y-55650000D03*
X187946111Y-48482269D03*
D22*
X185700000Y-106500000D03*
D24*
X203300000Y-135300000D03*
D22*
X101200000Y-155100000D03*
X159300000Y-71300000D03*
X199300000Y-167800000D03*
D24*
X119940000Y-137500000D03*
D23*
X123900000Y-86482269D03*
D22*
X225300000Y-141665000D03*
D23*
X139908611Y-67582269D03*
X139908611Y-86500000D03*
D24*
%TO.N,+5V*%
X169300000Y-108300000D03*
D22*
X106400000Y-128300000D03*
D24*
X208500000Y-132900000D03*
D22*
X185600000Y-104500000D03*
D24*
X215600000Y-149400000D03*
D22*
X183500000Y-104000000D03*
X102000000Y-122100000D03*
X101200000Y-90700000D03*
X196750000Y-115650000D03*
D24*
X206100000Y-140100000D03*
D22*
%TO.N,+3V3*%
X205100000Y-157900000D03*
X213300000Y-150900000D03*
D24*
X203300000Y-140200000D03*
D22*
X205500000Y-120500000D03*
X204600000Y-162200000D03*
X215400000Y-163100000D03*
X204300000Y-157400000D03*
X214100000Y-163200000D03*
D24*
X201100000Y-132400000D03*
D22*
X213700000Y-152200000D03*
X203400000Y-162200000D03*
X199400000Y-151500000D03*
X197500000Y-152700000D03*
X208100000Y-122300000D03*
%TO.N,/VUSB*%
X108900000Y-133500000D03*
X101000000Y-140100000D03*
X115000000Y-121900000D03*
%TO.N,Net-(D9-A)*%
X101400000Y-27900000D03*
X101400000Y-21200000D03*
%TO.N,Net-(D11-A)*%
X109850000Y-27862500D03*
X109950000Y-22062500D03*
%TO.N,Net-(D13-A)*%
X117900000Y-27862500D03*
X117400000Y-21262500D03*
%TO.N,Net-(D15-A)*%
X117650000Y-46787500D03*
X117350000Y-39987500D03*
%TO.N,Net-(D17-A)*%
X117400000Y-65762500D03*
X117400000Y-59062500D03*
%TO.N,Net-(D19-A)*%
X117437500Y-97100000D03*
X117437500Y-103800000D03*
%TO.N,Net-(D21-A)*%
X125359108Y-21202612D03*
X125877792Y-27834289D03*
%TO.N,Net-(D23-A)*%
X117437500Y-78100000D03*
X117437500Y-84800000D03*
%TO.N,Net-(D25-A)*%
X125450000Y-40100000D03*
X125450000Y-46808108D03*
%TO.N,Net-(D27-A)*%
X125437500Y-78100000D03*
X125437500Y-84800000D03*
%TO.N,Net-(D29-A)*%
X125437500Y-103800000D03*
X125437500Y-97100000D03*
%TO.N,Net-(D31-A)*%
X125437500Y-59100000D03*
X125437500Y-65800000D03*
%TO.N,Net-(D33-A)*%
X133437500Y-27800000D03*
X133437500Y-21100000D03*
%TO.N,Net-(D35-A)*%
X141400000Y-21100000D03*
X141400000Y-27800000D03*
%TO.N,Net-(D37-A)*%
X133437500Y-97100000D03*
X133332744Y-103715541D03*
%TO.N,Net-(D39-A)*%
X133437500Y-46800000D03*
X133437500Y-40100000D03*
%TO.N,Net-(D41-A)*%
X133437500Y-78100000D03*
X133437500Y-84800000D03*
%TO.N,Net-(D43-A)*%
X149437500Y-27800000D03*
X149437500Y-21100000D03*
%TO.N,Net-(D45-A)*%
X141400000Y-84900000D03*
X141400000Y-78200000D03*
%TO.N,Net-(D47-A)*%
X133437500Y-65800000D03*
X133437500Y-59100000D03*
%TO.N,Net-(D49-A)*%
X141400000Y-65900000D03*
X141400000Y-59200000D03*
%TO.N,Net-(D51-A)*%
X149437500Y-65800000D03*
X149416743Y-59124891D03*
%TO.N,Net-(D53-A)*%
X149400000Y-46700000D03*
X149300000Y-40100000D03*
%TO.N,Net-(D55-A)*%
X141275000Y-46918514D03*
X141275000Y-40268600D03*
%TO.N,Net-(D57-A)*%
X157347519Y-59255667D03*
X157437500Y-65800000D03*
%TO.N,Net-(D59-A)*%
X157437500Y-27800000D03*
X157437500Y-21100000D03*
%TO.N,Net-(D61-A)*%
X165437500Y-59100000D03*
X165437500Y-65800000D03*
%TO.N,Net-(D63-A)*%
X157437500Y-46800000D03*
X157437500Y-40100000D03*
%TO.N,Net-(D65-A)*%
X165437500Y-40100000D03*
X165437500Y-46800000D03*
%TO.N,Net-(D67-A)*%
X173400000Y-78200000D03*
X173400000Y-84900000D03*
%TO.N,Net-(D69-A)*%
X173437500Y-65800000D03*
X173437500Y-59100000D03*
%TO.N,Net-(D71-A)*%
X165437500Y-27800000D03*
X165437500Y-21100000D03*
%TO.N,Net-(D73-A)*%
X173437500Y-40100000D03*
X173437500Y-46800000D03*
%TO.N,Net-(D75-A)*%
X181400000Y-78100000D03*
X181400000Y-84800000D03*
%TO.N,Net-(D77-A)*%
X181400000Y-59100000D03*
X181400000Y-65800000D03*
%TO.N,Net-(D79-A)*%
X173437500Y-27800000D03*
X173437500Y-21100000D03*
%TO.N,Net-(D81-A)*%
X181437500Y-46800000D03*
X181437500Y-40100000D03*
%TO.N,Net-(D83-A)*%
X189525000Y-78133427D03*
X189400000Y-84800000D03*
%TO.N,Net-(D85-A)*%
X189400000Y-65800000D03*
X189400000Y-59100000D03*
%TO.N,Net-(D87-A)*%
X181437500Y-21100000D03*
X181437500Y-27800000D03*
%TO.N,Net-(D89-A)*%
X189437500Y-46800000D03*
X189437500Y-40100000D03*
%TO.N,Net-(D91-A)*%
X197437500Y-84800000D03*
X197437500Y-78100000D03*
%TO.N,Net-(D93-A)*%
X197222000Y-59100000D03*
X197222000Y-65839348D03*
%TO.N,Net-(D95-A)*%
X189437500Y-21100000D03*
X189437500Y-27800000D03*
%TO.N,Net-(D97-A)*%
X197222000Y-40143810D03*
X197222000Y-46875734D03*
%TO.N,Net-(D99-A)*%
X205400000Y-78200000D03*
X205400000Y-84900000D03*
%TO.N,Net-(D101-A)*%
X205400000Y-59200000D03*
X205400000Y-65900000D03*
%TO.N,Net-(D103-A)*%
X197222000Y-27828157D03*
X197222000Y-21100000D03*
%TO.N,Net-(D105-A)*%
X205400000Y-46900000D03*
X205400000Y-40200000D03*
%TO.N,Net-(D107-A)*%
X213400000Y-97200000D03*
X213400000Y-103900000D03*
%TO.N,Net-(D109-A)*%
X213400000Y-84900000D03*
X213400000Y-78200000D03*
%TO.N,Net-(D111-A)*%
X205400000Y-27900000D03*
X205400000Y-21200000D03*
%TO.N,Net-(D113-A)*%
X213125000Y-65931808D03*
X212950000Y-59100000D03*
%TO.N,Net-(D115-A)*%
X213400000Y-21200000D03*
X213400000Y-27900000D03*
%TO.N,Net-(D117-A)*%
X221400000Y-97200000D03*
X221400000Y-103900000D03*
%TO.N,Net-(D119-A)*%
X212950000Y-46985498D03*
X212736399Y-40111544D03*
%TO.N,Net-(D121-A)*%
X221437500Y-78100000D03*
X221437500Y-84800000D03*
%TO.N,Net-(D123-A)*%
X221400000Y-40062500D03*
X221448102Y-46727822D03*
%TO.N,Net-(D125-A)*%
X221022315Y-28142595D03*
X221400000Y-21062500D03*
%TO.N,Net-(D127-A)*%
X221950000Y-59396117D03*
X221493018Y-65788245D03*
%TO.N,Net-(D129-A)*%
X229400000Y-97200000D03*
X229400000Y-103900000D03*
%TO.N,Net-(D131-A)*%
X229400000Y-59200000D03*
X229400000Y-65900000D03*
%TO.N,Net-(D133-A)*%
X229400000Y-40062500D03*
X229400000Y-46762500D03*
%TO.N,Net-(D135-A)*%
X229437500Y-78100000D03*
X229437500Y-84800000D03*
D25*
%TO.N,HT*%
X85555668Y-105000000D03*
D22*
X202612315Y-80178675D03*
X210362500Y-79850000D03*
X194400000Y-41750000D03*
X226362500Y-98850000D03*
D25*
X86250000Y-51250000D03*
X87742893Y-112242893D03*
D22*
X194400000Y-22750000D03*
D23*
X86226344Y-156679828D03*
D22*
X106150000Y-23562500D03*
X226175000Y-79837192D03*
X170400000Y-22750000D03*
D25*
X87620943Y-136636437D03*
X86221458Y-55350000D03*
D22*
X162400000Y-60750000D03*
D23*
X87431261Y-144850000D03*
D25*
X88300000Y-120300000D03*
D22*
X186400000Y-41750000D03*
D25*
X80250000Y-28750000D03*
D22*
X130025000Y-80067079D03*
X202362500Y-22850000D03*
X122450000Y-22752697D03*
X202362500Y-41850000D03*
X178362500Y-60750000D03*
D25*
X86550000Y-33550000D03*
X79755029Y-25200001D03*
D22*
X218400000Y-79750000D03*
X194400000Y-60750000D03*
X79291422Y-41508578D03*
D23*
X79652091Y-149051301D03*
D22*
X186400000Y-22750000D03*
D25*
X78750000Y-133250000D03*
D22*
X170400000Y-41750000D03*
X169975000Y-80121527D03*
X154400000Y-60750000D03*
D25*
X87750000Y-132250000D03*
D22*
X114606250Y-23668750D03*
D25*
X86250000Y-59600000D03*
X79104562Y-77425830D03*
X79250000Y-81250000D03*
X87669863Y-100215923D03*
D22*
X210400000Y-41750000D03*
X138362500Y-60850000D03*
X210362500Y-98850000D03*
D25*
X78747907Y-113324784D03*
D22*
X121875000Y-61146817D03*
X146362500Y-41712500D03*
D25*
X79871501Y-60866753D03*
D23*
X86151416Y-153048812D03*
D25*
X86750000Y-71750000D03*
D22*
X115100000Y-42600000D03*
X146400000Y-22750000D03*
D23*
X79773473Y-145050001D03*
D22*
X218250000Y-41767145D03*
D25*
X86083101Y-63491047D03*
X78719494Y-85425000D03*
D22*
X226362500Y-60850000D03*
X193975000Y-80142411D03*
X218362500Y-98850000D03*
X114400000Y-98750000D03*
D25*
X77798729Y-21900811D03*
D22*
X162400000Y-22750000D03*
D25*
X78750000Y-121250000D03*
X87530074Y-108161865D03*
X80291166Y-32878775D03*
X78737644Y-137412433D03*
D22*
X114400000Y-79750000D03*
X178362500Y-79750000D03*
X138362500Y-22750000D03*
X186362500Y-79750000D03*
X80100000Y-73400000D03*
D25*
X78786496Y-141366753D03*
X79750000Y-45250000D03*
X86257810Y-48004148D03*
X78750000Y-129250000D03*
X79750000Y-69250000D03*
D22*
X162400000Y-41750000D03*
X178400000Y-41750000D03*
X138362500Y-79850000D03*
D25*
X78747907Y-117324784D03*
X78746621Y-89337307D03*
X78696456Y-105524040D03*
D22*
X218450000Y-24167574D03*
D25*
X79915141Y-64893798D03*
X79229707Y-101187491D03*
X79871501Y-48866753D03*
D22*
X154400000Y-41750000D03*
D24*
X132400000Y-117400001D03*
D22*
X138400000Y-41750000D03*
X122362500Y-41750000D03*
D25*
X86299504Y-37597421D03*
D22*
X154400000Y-22750000D03*
D25*
X87872881Y-124541333D03*
D22*
X185575000Y-61704116D03*
X122400000Y-79750000D03*
D25*
X85434147Y-44836599D03*
D22*
X130400000Y-98750000D03*
X114362500Y-60712500D03*
D25*
X86735586Y-75500000D03*
X78750000Y-93250000D03*
X78747907Y-109649784D03*
D23*
X78626262Y-153375000D03*
D22*
X130400000Y-41750000D03*
D23*
X88773473Y-140050001D03*
D25*
X87727475Y-96500000D03*
X78238781Y-37883134D03*
D22*
X202362500Y-60850000D03*
D25*
X87503643Y-116600000D03*
D23*
X87663623Y-148500000D03*
D22*
X218350000Y-60752697D03*
D25*
X88850000Y-87450000D03*
D22*
X130400000Y-60750000D03*
X226362500Y-41712500D03*
D25*
X78746624Y-97287500D03*
D22*
X129950000Y-23003312D03*
D25*
X87737644Y-128412433D03*
X86833099Y-29864471D03*
D22*
X122400000Y-98750000D03*
D25*
X78750000Y-125182621D03*
X79753997Y-57150141D03*
X87750000Y-92250000D03*
X86147458Y-67511703D03*
D22*
X146400000Y-60750000D03*
X210400000Y-60750000D03*
X98362500Y-22850000D03*
D25*
X86450000Y-40650000D03*
D22*
X210176000Y-22850000D03*
X178400000Y-22750000D03*
D25*
X79807066Y-53250001D03*
D22*
X170400000Y-60750000D03*
%TO.N,/K_CLK_5V*%
X136200000Y-131400000D03*
D23*
X103354074Y-123945926D03*
D22*
X182000000Y-111900000D03*
X124500000Y-131500000D03*
D23*
X110900000Y-126500000D03*
D22*
X184000000Y-111900000D03*
%TO.N,/K_RST_5V*%
X198200000Y-105200000D03*
X161500000Y-100000000D03*
X135800000Y-109900000D03*
X196300000Y-112400000D03*
%TO.N,/RST*%
X198200000Y-151000000D03*
X190840615Y-111048763D03*
%TO.N,Net-(J5-SWDIO)*%
X198300000Y-150400000D03*
X199000000Y-151100000D03*
%TO.N,Net-(J5-SWCLK)*%
X197903554Y-151496446D03*
X199100000Y-152000000D03*
%TO.N,Net-(J6-CC2)*%
X97500000Y-133600000D03*
X97400000Y-139500000D03*
%TO.N,/SR_D2*%
X134400000Y-109300000D03*
X210543387Y-161962318D03*
X145900000Y-78000000D03*
X135800000Y-100400000D03*
%TO.N,/SR_D3*%
X211123866Y-161810507D03*
X159650000Y-76750000D03*
%TO.N,/SR_D4*%
X211344222Y-161252433D03*
X163700000Y-100900000D03*
%TO.N,/SR_D5*%
X172862278Y-100625000D03*
X211766509Y-160925000D03*
%TO.N,/SR_D6*%
X180300000Y-101100000D03*
X211392042Y-159500000D03*
%TO.N,/SR_D7*%
X188400000Y-100900000D03*
X211000000Y-160000000D03*
%TO.N,/SR_D8*%
X210800000Y-159400000D03*
X196100000Y-104000000D03*
%TO.N,/BAT_DIV*%
X201600000Y-161200000D03*
X200800000Y-168200000D03*
X213300000Y-138800000D03*
%TO.N,/HV_DIV*%
X206900000Y-107900000D03*
X203400000Y-161000000D03*
X201800000Y-169400000D03*
%TO.N,/AI1*%
X96400000Y-30000000D03*
X136600000Y-108300000D03*
%TO.N,/AI2*%
X147100000Y-102500000D03*
X104600000Y-31200000D03*
%TO.N,/AO2*%
X106250000Y-14962500D03*
%TO.N,/AI3*%
X146600000Y-102100000D03*
X112700000Y-28300000D03*
%TO.N,/AO3*%
X114200000Y-14962500D03*
%TO.N,/AI4*%
X112350000Y-47587500D03*
X146600000Y-101200000D03*
%TO.N,/AO4*%
X114150000Y-33987500D03*
%TO.N,/AI5*%
X112200000Y-68062500D03*
X146300000Y-99800000D03*
%TO.N,/AO5*%
X113900000Y-52962500D03*
%TO.N,/AI7*%
X145800000Y-97200000D03*
X112354626Y-105982874D03*
%TO.N,/AO7*%
X113937500Y-91000000D03*
%TO.N,/AI8*%
X142000000Y-95200000D03*
X120650000Y-30100000D03*
%TO.N,/AO8*%
X121739090Y-16034577D03*
%TO.N,/AI6*%
X112237500Y-87100000D03*
X146100000Y-98400000D03*
%TO.N,/AO6*%
X113937500Y-72000000D03*
%TO.N,/AI9*%
X149374999Y-79935132D03*
X120450000Y-49281292D03*
X140700000Y-93200000D03*
X140600000Y-91900000D03*
%TO.N,/AO9*%
X121800000Y-34026683D03*
X120694236Y-16178551D03*
%TO.N,/AI11*%
X120237500Y-87100000D03*
X139300000Y-90500000D03*
X151800000Y-78900000D03*
X139600000Y-93300000D03*
%TO.N,/AO11*%
X124694101Y-14264359D03*
X121937500Y-72000000D03*
%TO.N,/AI12*%
X151800000Y-77600000D03*
X132900000Y-90900000D03*
X127300000Y-94600000D03*
X120583994Y-105719246D03*
%TO.N,/AO12*%
X121937500Y-91000000D03*
X124778255Y-15697336D03*
%TO.N,/AI10*%
X145500000Y-77000000D03*
X133000000Y-69800000D03*
%TO.N,/AO10*%
X122025000Y-53009669D03*
X121227503Y-15117634D03*
%TO.N,/AI13*%
X129900000Y-31600000D03*
X151600000Y-76000000D03*
%TO.N,/AO13*%
X118589499Y-11636213D03*
%TO.N,/AI15*%
X136200000Y-30100000D03*
X154041668Y-73451008D03*
%TO.N,/AI16*%
X128237500Y-106100000D03*
X154500000Y-80300000D03*
%TO.N,/AO16*%
X127212500Y-17609063D03*
X130225000Y-91128414D03*
%TO.N,/AI14*%
X150900000Y-77200000D03*
X129050000Y-50400000D03*
%TO.N,/AO14*%
X119911894Y-14200000D03*
X129937500Y-34000000D03*
X125820467Y-15825000D03*
%TO.N,/AI17*%
X129800000Y-88300000D03*
X157800000Y-78600000D03*
%TO.N,/AO17*%
X129275000Y-72481884D03*
%TO.N,/AI19*%
X144237500Y-30100000D03*
X158400000Y-67300000D03*
X158400000Y-78700000D03*
X158093068Y-68975000D03*
%TO.N,/AO19*%
X130700000Y-12700000D03*
%TO.N,/AI20*%
X158300000Y-77600000D03*
X136200000Y-87200000D03*
%TO.N,/AO20*%
X137900000Y-72100000D03*
X130900000Y-19800000D03*
%TO.N,/AI18*%
X160100000Y-79800000D03*
X128237500Y-68100000D03*
%TO.N,/AO18*%
X129975000Y-53011934D03*
%TO.N,/AI21*%
X158200000Y-76025000D03*
X136575000Y-68434501D03*
%TO.N,/AO21*%
X137900000Y-53100000D03*
X132787500Y-15300000D03*
%TO.N,/AI23*%
X144237500Y-68100000D03*
X158037291Y-74025000D03*
%TO.N,/AO23*%
X145937500Y-53000000D03*
%TO.N,/AI24*%
X144200000Y-49062500D03*
X160300000Y-72300000D03*
%TO.N,/AO24*%
X145953002Y-33950000D03*
%TO.N,/AI22*%
X136237500Y-49100000D03*
X157914927Y-74975000D03*
%TO.N,/AO22*%
X137937500Y-34000000D03*
%TO.N,/AI25*%
X152531062Y-67959310D03*
X166900000Y-102200000D03*
%TO.N,/AO25*%
X153937500Y-53000000D03*
%TO.N,/AI27*%
X152237500Y-30100000D03*
X171800000Y-102100000D03*
%TO.N,/AI28*%
X171800000Y-100900000D03*
X160237500Y-68100000D03*
%TO.N,/AO28*%
X161937500Y-53000000D03*
%TO.N,/AI26*%
X152775000Y-49178691D03*
X171800000Y-103300000D03*
%TO.N,/AO26*%
X153937500Y-34000000D03*
%TO.N,/AI29*%
X160800000Y-49100000D03*
X171800000Y-99500000D03*
%TO.N,/AO29*%
X161937500Y-34000000D03*
%TO.N,/AI31*%
X171800000Y-97000000D03*
X168200000Y-87200000D03*
%TO.N,/AO31*%
X169900000Y-72100000D03*
%TO.N,/AI32*%
X175700000Y-93000000D03*
X169000000Y-67700000D03*
%TO.N,/AO32*%
X169937500Y-53000000D03*
%TO.N,/AI30*%
X171900000Y-98425000D03*
X160250000Y-30100000D03*
%TO.N,/AI33*%
X180000000Y-102800000D03*
X168575000Y-49303771D03*
%TO.N,/AO33*%
X169937500Y-34000000D03*
%TO.N,/AI35*%
X176200000Y-87100000D03*
X179700000Y-102100000D03*
%TO.N,/AO35*%
X177900000Y-72000000D03*
%TO.N,/AI36*%
X179600000Y-100700000D03*
X176712500Y-68466449D03*
%TO.N,/AO36*%
X177900000Y-53000000D03*
%TO.N,/AI34*%
X179600000Y-103400000D03*
X168237500Y-30100000D03*
%TO.N,/AI37*%
X179600000Y-99600000D03*
X176237500Y-49100000D03*
%TO.N,/AO37*%
X177937500Y-34000000D03*
%TO.N,/AI39*%
X179400000Y-96877331D03*
X184200000Y-87100000D03*
%TO.N,/AO39*%
X185900000Y-72000000D03*
%TO.N,/AI40*%
X184200000Y-68100000D03*
X179828768Y-95175000D03*
%TO.N,/AO40*%
X185575000Y-53162141D03*
%TO.N,/AI38*%
X179628768Y-98425000D03*
X176237500Y-30100000D03*
%TO.N,/AI41*%
X182700000Y-102200000D03*
X184237500Y-49100000D03*
%TO.N,/AO41*%
X185937500Y-34000000D03*
%TO.N,/AI43*%
X192237500Y-87100000D03*
X187600000Y-102200000D03*
%TO.N,/AO43*%
X193937500Y-72000000D03*
%TO.N,/AI44*%
X187600000Y-100900000D03*
X192237500Y-68100000D03*
%TO.N,/AO44*%
X193937500Y-53000000D03*
%TO.N,/AI42*%
X184237500Y-30100000D03*
X187800000Y-103500000D03*
%TO.N,/AI45*%
X192237500Y-49100000D03*
X187700000Y-99600000D03*
%TO.N,/AO45*%
X193937500Y-34000000D03*
%TO.N,/AI47*%
X200100000Y-91800000D03*
X200200000Y-87200000D03*
%TO.N,/AO47*%
X201846683Y-72188106D03*
%TO.N,/AI48*%
X200200000Y-68200000D03*
X199500000Y-91525000D03*
%TO.N,/AO48*%
X201829032Y-53237181D03*
%TO.N,/AI46*%
X188000000Y-98400000D03*
X192237500Y-30100000D03*
%TO.N,/AI49*%
X195700000Y-102800000D03*
X200475000Y-49200000D03*
%TO.N,/AO49*%
X201900000Y-34100000D03*
%TO.N,/AI51*%
X208200000Y-106200000D03*
X195800000Y-101200000D03*
%TO.N,/AO51*%
X209900000Y-91100000D03*
%TO.N,/AI52*%
X208700000Y-86900010D03*
X195700000Y-100600000D03*
%TO.N,/AO52*%
X209900000Y-72100000D03*
%TO.N,/AI50*%
X195700000Y-103500000D03*
X200200000Y-30200000D03*
%TO.N,/AI53*%
X195286498Y-99049087D03*
X208237500Y-68100000D03*
%TO.N,/AO53*%
X210044000Y-53016624D03*
%TO.N,/AI55*%
X208144000Y-30207157D03*
X196000000Y-96400000D03*
%TO.N,/AI56*%
X216200000Y-106200000D03*
X195700000Y-95100000D03*
%TO.N,/AO56*%
X217842172Y-91183595D03*
%TO.N,/AI54*%
X208018473Y-49259068D03*
X195500000Y-97800000D03*
%TO.N,/AO54*%
X210290579Y-34000000D03*
%TO.N,/AI57*%
X198700000Y-102200000D03*
X214700000Y-89300000D03*
%TO.N,/AO57*%
X217937500Y-72000000D03*
%TO.N,/AI59*%
X200700000Y-99800000D03*
X215850000Y-49975808D03*
%TO.N,/AO59*%
X218050000Y-34050202D03*
%TO.N,/AI60*%
X200900000Y-100900000D03*
X215949847Y-30617106D03*
%TO.N,/AI58*%
X200600000Y-99100000D03*
X216312500Y-68100000D03*
%TO.N,/AO58*%
X217846998Y-53090502D03*
%TO.N,/AI61*%
X203600000Y-99700000D03*
X224200000Y-106200000D03*
%TO.N,/AO61*%
X225765170Y-91126681D03*
%TO.N,/AI63*%
X201400000Y-97100000D03*
X224200000Y-68200000D03*
%TO.N,/AO63*%
X225900000Y-53100000D03*
%TO.N,/AI64*%
X203464124Y-95935876D03*
X223925000Y-49118315D03*
%TO.N,/AO64*%
X226075000Y-33962500D03*
%TO.N,/AI62*%
X224475000Y-87151056D03*
X201300000Y-98300000D03*
%TO.N,/AO62*%
X225937500Y-72000000D03*
%TO.N,/SR_SHCP*%
X210400000Y-156600000D03*
X175300000Y-106200000D03*
D23*
X149400000Y-74100000D03*
X157700000Y-73200000D03*
X198600000Y-97100000D03*
X182800000Y-96700000D03*
X166700000Y-96800000D03*
X175200000Y-96600000D03*
D22*
X176200000Y-102200000D03*
D23*
X190600000Y-96700000D03*
X140000000Y-97300000D03*
%TO.N,/~SR_OE*%
X175000000Y-99000000D03*
X190600000Y-99450000D03*
X157500000Y-76500000D03*
X182900000Y-99000000D03*
X140200000Y-99500000D03*
X198600000Y-99450000D03*
X149100000Y-76600000D03*
X166800000Y-99350000D03*
%TO.N,/~SR_MC*%
X149300000Y-72300000D03*
X157900000Y-72300000D03*
X174900000Y-95700000D03*
X198524265Y-95824265D03*
X140100000Y-95900000D03*
X182900000Y-95800000D03*
X166640982Y-95779509D03*
X190700000Y-95700000D03*
%TO.N,/SR_STCP*%
X155350854Y-75402324D03*
X166700000Y-98100000D03*
X175000000Y-97900000D03*
X140200000Y-98400000D03*
X198600000Y-98400000D03*
X190600000Y-98400000D03*
X149400000Y-75400000D03*
X182900000Y-97900000D03*
D22*
%TO.N,/SR_D1*%
X133800000Y-109300000D03*
X210769149Y-162522974D03*
D23*
%TO.N,Net-(U12-DI(IO0))*%
X204995676Y-166945288D03*
X207000000Y-167750000D03*
%TO.N,Net-(U12-CLK)*%
X204350000Y-167750000D03*
X206104442Y-167675000D03*
%TO.N,Net-(U12-DO(IO1))*%
X208750000Y-168475000D03*
X208750000Y-166700000D03*
D24*
%TO.N,/BAT_MID*%
X184100000Y-138900000D03*
X187800000Y-138900000D03*
%TO.N,Net-(BT3-+)*%
X186300000Y-117100000D03*
D22*
%TO.N,/SD_DAT3*%
X201424920Y-159967973D03*
X104850000Y-158100000D03*
%TO.N,/SD_DAT1*%
X98500000Y-157950000D03*
X201015060Y-158274583D03*
%TO.N,/SD_CMD*%
X104000000Y-155700000D03*
X200912365Y-157209289D03*
%TO.N,/SD_CLK*%
X101900000Y-158200000D03*
X201379863Y-160680015D03*
%TO.N,/SD_DAT2*%
X106200000Y-158000000D03*
X201418338Y-159436912D03*
%TO.N,/SD_DAT0*%
X99600000Y-155550000D03*
X201516443Y-157997816D03*
%TO.N,/K_CLK*%
X208363564Y-154947249D03*
X192400000Y-114800000D03*
%TO.N,/K_RST*%
X194640615Y-114848763D03*
X208896446Y-154996446D03*
D23*
%TO.N,/Kathode/LAST_COUNT_RESET*%
X107600000Y-61500000D03*
X106700000Y-109100000D03*
D25*
%TO.N,/Kathode/OUT_K0*%
X86250000Y-158750000D03*
%TO.N,/Kathode/OUT_K8*%
X77236902Y-143741605D03*
%TO.N,/Kathode/OUT_K16*%
X77250000Y-127957478D03*
%TO.N,/Kathode/OUT_K24*%
X76570476Y-111097317D03*
%TO.N,/Kathode/OUT_K32*%
X76425000Y-93929847D03*
%TO.N,/Kathode/OUT_K40*%
X77084042Y-71421804D03*
%TO.N,/Kathode/OUT_K48*%
X76555768Y-54850304D03*
%TO.N,/Kathode/OUT_K56*%
X86083630Y-42050000D03*
%TO.N,/Kathode/OUT_K1*%
X86250000Y-154750000D03*
%TO.N,/Kathode/OUT_K9*%
X86250000Y-138750000D03*
%TO.N,/Kathode/OUT_K17*%
X86250000Y-122750000D03*
%TO.N,/Kathode/OUT_K25*%
X88310761Y-106403453D03*
%TO.N,/Kathode/OUT_K33*%
X76347780Y-90296545D03*
%TO.N,/Kathode/OUT_K41*%
X86150815Y-69700000D03*
%TO.N,/Kathode/OUT_K49*%
X86085001Y-53152644D03*
%TO.N,/Kathode/OUT_K57*%
X79834428Y-35578775D03*
%TO.N,/Kathode/OUT_K2*%
X77417978Y-156971289D03*
%TO.N,/Kathode/OUT_K10*%
X76734871Y-139600000D03*
%TO.N,/Kathode/OUT_K18*%
X77250000Y-123750000D03*
%TO.N,/Kathode/OUT_K26*%
X76242950Y-106333760D03*
%TO.N,/Kathode/OUT_K34*%
X77180165Y-87383651D03*
%TO.N,/Kathode/OUT_K42*%
X77250000Y-67575000D03*
%TO.N,/Kathode/OUT_K50*%
X76250000Y-48750000D03*
%TO.N,/Kathode/OUT_K58*%
X86450000Y-38950000D03*
%TO.N,/Kathode/OUT_K3*%
X86250000Y-150750000D03*
%TO.N,/Kathode/OUT_K11*%
X86250000Y-134750000D03*
%TO.N,/Kathode/OUT_K19*%
X88293561Y-118382870D03*
%TO.N,/Kathode/OUT_K27*%
X88304167Y-102396859D03*
%TO.N,/Kathode/OUT_K35*%
X77750000Y-83750000D03*
%TO.N,/Kathode/OUT_K43*%
X86186156Y-65503779D03*
%TO.N,/Kathode/OUT_K51*%
X86158086Y-49200000D03*
%TO.N,/Kathode/OUT_K59*%
X79834428Y-31450000D03*
%TO.N,/Kathode/OUT_K4*%
X77417978Y-152125000D03*
%TO.N,/Kathode/OUT_K12*%
X77199928Y-136094967D03*
%TO.N,/Kathode/OUT_K20*%
X76356269Y-119716422D03*
%TO.N,/Kathode/OUT_K28*%
X76295405Y-102704595D03*
%TO.N,/Kathode/OUT_K36*%
X77250000Y-79750000D03*
%TO.N,/Kathode/OUT_K44*%
X77245493Y-63586476D03*
%TO.N,/Kathode/OUT_K52*%
X76382922Y-45069579D03*
%TO.N,/Kathode/OUT_K60*%
X86459241Y-35373075D03*
%TO.N,/Kathode/OUT_K5*%
X86198580Y-146691281D03*
%TO.N,/Kathode/OUT_K13*%
X86250000Y-130750000D03*
%TO.N,/Kathode/OUT_K21*%
X88269648Y-114305415D03*
%TO.N,/Kathode/OUT_K29*%
X88269648Y-98305415D03*
%TO.N,/Kathode/OUT_K37*%
X86250000Y-77750000D03*
%TO.N,/Kathode/OUT_K45*%
X86146851Y-61600000D03*
%TO.N,/Kathode/OUT_K53*%
X76300000Y-41565748D03*
%TO.N,/Kathode/OUT_K61*%
X79949665Y-26929675D03*
%TO.N,/Kathode/OUT_K6*%
X77595842Y-147808439D03*
%TO.N,/Kathode/OUT_K14*%
X77222850Y-132172674D03*
%TO.N,/Kathode/OUT_K22*%
X76750000Y-115250000D03*
%TO.N,/Kathode/OUT_K30*%
X77092983Y-99007017D03*
%TO.N,/Kathode/OUT_K38*%
X77225303Y-75303342D03*
%TO.N,/Kathode/OUT_K46*%
X77749488Y-59599733D03*
%TO.N,/Kathode/OUT_K54*%
X86002513Y-45893465D03*
%TO.N,/Kathode/OUT_K62*%
X87781250Y-31881250D03*
%TO.N,/Kathode/OUT_K7*%
X86250000Y-142750000D03*
%TO.N,/Kathode/OUT_K15*%
X86176376Y-127018099D03*
%TO.N,/Kathode/OUT_K23*%
X88269648Y-110305415D03*
%TO.N,/Kathode/OUT_K31*%
X88254291Y-94300000D03*
%TO.N,/Kathode/OUT_K39*%
X86186156Y-73400000D03*
%TO.N,/Kathode/OUT_K47*%
X85991774Y-58100000D03*
%TO.N,/Kathode/OUT_K55*%
X79750000Y-39250000D03*
D22*
%TO.N,/Kathode/K0*%
X96200000Y-134100000D03*
X96900000Y-124200000D03*
%TO.N,/Kathode/K8*%
X94525000Y-139900000D03*
X85400000Y-141200000D03*
%TO.N,/Kathode/K16*%
X94675000Y-123400000D03*
X85500000Y-125500000D03*
%TO.N,/Kathode/K24*%
X85000000Y-109100000D03*
X99700000Y-107900000D03*
%TO.N,/Kathode/K32*%
X102525000Y-97225000D03*
X84900000Y-93200000D03*
%TO.N,/Kathode/K40*%
X85200000Y-68700000D03*
X103300000Y-86400000D03*
%TO.N,/Kathode/K48*%
X102925000Y-75445000D03*
X84900000Y-54200000D03*
%TO.N,/Kathode/K56*%
X102725000Y-64491906D03*
X94100000Y-42900000D03*
%TO.N,/Kathode/K1*%
X96900000Y-122900000D03*
X96000000Y-133500000D03*
%TO.N,/Kathode/K9*%
X95900000Y-115100000D03*
X94600000Y-128800000D03*
%TO.N,/Kathode/K17*%
X96800000Y-102300000D03*
X93600000Y-120000000D03*
%TO.N,/Kathode/K25*%
X99400000Y-89700000D03*
X95300000Y-97300000D03*
X95600000Y-92800000D03*
%TO.N,/Kathode/K33*%
X94200000Y-81300000D03*
X95800000Y-79100000D03*
X85000000Y-89500000D03*
%TO.N,/Kathode/K41*%
X96900000Y-67800000D03*
X93200000Y-67300000D03*
%TO.N,/Kathode/K57*%
X84100000Y-33400000D03*
X95500000Y-45300000D03*
%TO.N,/Kathode/K2*%
X95600000Y-128200000D03*
X84500000Y-152700000D03*
%TO.N,/Kathode/K10*%
X85400000Y-137400000D03*
X95700000Y-116300000D03*
%TO.N,/Kathode/K18*%
X84700000Y-121400000D03*
X94400000Y-106600000D03*
%TO.N,/Kathode/K26*%
X99800000Y-100500000D03*
X84200000Y-105400000D03*
%TO.N,/Kathode/K34*%
X95600000Y-81700000D03*
X85000000Y-85600000D03*
%TO.N,/Kathode/K42*%
X96300000Y-70000000D03*
X84600000Y-65000000D03*
%TO.N,/Kathode/K50*%
X95285000Y-59151122D03*
X84900000Y-50200000D03*
%TO.N,/Kathode/K58*%
X95700000Y-48000000D03*
X95700000Y-38925000D03*
%TO.N,/Kathode/K3*%
X99200000Y-129200000D03*
X98500000Y-131800000D03*
%TO.N,/Kathode/K35*%
X96700000Y-84800000D03*
X84400000Y-81000000D03*
%TO.N,/Kathode/K51*%
X93900000Y-48300000D03*
X94200000Y-52400000D03*
X94114124Y-54275000D03*
X95400000Y-63100000D03*
%TO.N,/Kathode/K59*%
X96700000Y-51900000D03*
X85300000Y-28800000D03*
%TO.N,/Kathode/K4*%
X93850000Y-147450000D03*
X85000000Y-149300000D03*
%TO.N,/Kathode/K12*%
X84900000Y-133100000D03*
X96000000Y-120500000D03*
%TO.N,/Kathode/K20*%
X85100000Y-116900000D03*
X93600000Y-115600000D03*
%TO.N,/Kathode/K28*%
X102731055Y-96262427D03*
X84600000Y-101300000D03*
%TO.N,/Kathode/K36*%
X84250000Y-77925000D03*
X102100000Y-85900000D03*
%TO.N,/Kathode/K44*%
X102000000Y-75200000D03*
X84700000Y-61000000D03*
%TO.N,/Kathode/K52*%
X85500000Y-46900000D03*
X102725000Y-63145149D03*
%TO.N,/Kathode/K60*%
X103672936Y-52044241D03*
X98500000Y-43300000D03*
%TO.N,/Kathode/K5*%
X95100000Y-128600000D03*
X93625000Y-144839241D03*
%TO.N,/Kathode/K13*%
X93600000Y-128000000D03*
X95300000Y-117000000D03*
%TO.N,/Kathode/K21*%
X96063709Y-103864539D03*
X96700000Y-106500000D03*
%TO.N,/Kathode/K29*%
X96200000Y-95500000D03*
X96300000Y-92800000D03*
%TO.N,/Kathode/K37*%
X93900000Y-75800000D03*
X95700000Y-77600000D03*
%TO.N,/Kathode/K53*%
X84800000Y-42600000D03*
X97184954Y-54813202D03*
%TO.N,/Kathode/K61*%
X96800000Y-44300000D03*
X85400000Y-26500000D03*
%TO.N,/Kathode/K6*%
X94800000Y-129700000D03*
X84600000Y-145100000D03*
%TO.N,/Kathode/K14*%
X84700000Y-129300000D03*
X95125000Y-118300000D03*
%TO.N,/Kathode/K22*%
X85200000Y-113000000D03*
X93800000Y-107800000D03*
%TO.N,/Kathode/K30*%
X96700000Y-93800000D03*
X84900000Y-96900000D03*
%TO.N,/Kathode/K38*%
X85000000Y-74400000D03*
X96800000Y-82300000D03*
%TO.N,/Kathode/K46*%
X97200000Y-71600000D03*
X84400000Y-57100000D03*
%TO.N,/Kathode/K54*%
X102075000Y-58500000D03*
X94000000Y-45000000D03*
%TO.N,/Kathode/K62*%
X95100000Y-37000000D03*
X95500000Y-49300000D03*
%TO.N,/Kathode/K47*%
X93900000Y-56100000D03*
X100200000Y-71800000D03*
%TO.N,/Kathode/K55*%
X96035876Y-61764124D03*
X83000000Y-40500000D03*
X91900000Y-48600000D03*
X91000000Y-50700000D03*
%TO.N,/Kathode/K63*%
X97100000Y-50700000D03*
X87000000Y-28100000D03*
D23*
%TO.N,Net-(U1002-Reset)*%
X112700000Y-118200000D03*
X103100000Y-122900000D03*
%TO.N,Net-(U1007-CKEN)*%
X106700000Y-120200000D03*
X103452566Y-92700000D03*
%TO.N,Net-(U1007-CLK)*%
X106706803Y-123558273D03*
X102852566Y-93844418D03*
%TO.N,Net-(U1005-CLK)*%
X110700000Y-124700000D03*
X105600000Y-113500000D03*
D22*
%TO.N,/Kathode/CLK*%
X111600000Y-117600000D03*
D23*
X99600000Y-44700000D03*
X105563150Y-73546801D03*
%TO.N,Net-(U1008-CLK)*%
X103200000Y-80200000D03*
X106300000Y-122600000D03*
%TO.N,Net-(U1006-CKEN)*%
X102900000Y-103800000D03*
X106400000Y-124900000D03*
%TO.N,Net-(U1005-CKEN)*%
X105800000Y-116900000D03*
X111100000Y-122416694D03*
%TO.N,Net-(U1006-CLK)*%
X112100000Y-123967613D03*
X105600000Y-102100000D03*
%TO.N,Net-(U1011-CLK)*%
X101900000Y-37900000D03*
X103542475Y-58176765D03*
%TO.N,Net-(U1009-CKEN)*%
X100700000Y-37800000D03*
X102725735Y-70225735D03*
%TO.N,Net-(U1011-CKEN)*%
X102900000Y-59600000D03*
X98200000Y-42300000D03*
%TO.N,Net-(U1009-CLK)*%
X103200000Y-37800000D03*
X105500000Y-69300000D03*
D22*
%TO.N,Net-(U1008-CKEN)*%
X101800000Y-81500000D03*
X105600000Y-37900000D03*
D24*
%TO.N,Net-(D138-A)*%
X152100000Y-112200000D03*
X157200000Y-110800000D03*
D22*
%TO.N,/RP_USB_D+*%
X204650000Y-164700000D03*
X106100000Y-139150000D03*
%TO.N,/RP_USB_D-*%
X204200000Y-164350000D03*
X105500000Y-138450000D03*
%TO.N,/HV_GEN/FB*%
X155500000Y-126600000D03*
X156000000Y-122600000D03*
D24*
%TO.N,+BATT*%
X195400000Y-116500000D03*
X178400000Y-109300000D03*
D22*
%TO.N,Net-(J6-D--PadA7)*%
X101131819Y-138275288D03*
X100800000Y-139300000D03*
X99000000Y-138300000D03*
%TO.N,/SCL*%
X195600000Y-127600000D03*
X209600000Y-152200000D03*
X196600000Y-132100000D03*
X194900000Y-121500000D03*
X212700000Y-153100000D03*
%TO.N,/SDA*%
X195000000Y-127500000D03*
X209200000Y-152700000D03*
X195400000Y-132100000D03*
X194900000Y-122200000D03*
X212200000Y-154765357D03*
%TO.N,/5V_EN*%
X207300000Y-125100000D03*
X224750000Y-136050000D03*
X204668932Y-125323961D03*
X215600000Y-141500000D03*
D24*
%TO.N,/BatteryManagement/V_OUT*%
X180800000Y-109300000D03*
X185900000Y-109000000D03*
X121200000Y-121124999D03*
X135800000Y-130300000D03*
D22*
%TO.N,Net-(U18-VSENSE)*%
X232500000Y-146500000D03*
X227000000Y-146400000D03*
%TO.N,/ANA_SW*%
X201239998Y-161680002D03*
X202600000Y-130800000D03*
X225900000Y-130800000D03*
X212700000Y-135100000D03*
X201400000Y-168300000D03*
X208500000Y-130800000D03*
X222625000Y-130375000D03*
%TO.N,Net-(R291-Pad2)*%
X226600000Y-122900000D03*
X226000000Y-124700000D03*
%TO.N,Net-(R292-Pad2)*%
X210150000Y-126200000D03*
X205200000Y-127100000D03*
%TO.N,/HV_EN*%
X152600000Y-120700000D03*
X175900000Y-154100000D03*
X203400000Y-160300000D03*
X198800000Y-160500000D03*
X183400000Y-160500000D03*
%TO.N,/RX*%
X208100000Y-162075000D03*
%TO.N,/BMS_USB_D+*%
X108400000Y-135100000D03*
X122600000Y-112200000D03*
%TO.N,/BMS_USB_D-*%
X109700000Y-135900000D03*
X107900000Y-135700000D03*
X122600000Y-112900000D03*
%TO.N,/LED*%
X208600000Y-161600000D03*
%TO.N,/ACCEL_INT*%
X200800000Y-162200000D03*
X202100000Y-122700000D03*
%TO.N,Net-(Q129-G)*%
X145300000Y-119800000D03*
X144000000Y-113900000D03*
%TD*%
D26*
%TO.N,/~{USB_BOOT}*%
X216450000Y-141950000D02*
X216450000Y-164550000D01*
X213100521Y-134899480D02*
X213125000Y-134923959D01*
X212050000Y-132250000D02*
X212050000Y-133848959D01*
X213125000Y-134923959D02*
X213125000Y-137125000D01*
X216450000Y-139950000D02*
X216450000Y-141950000D01*
X216450000Y-164550000D02*
X214100000Y-166900000D01*
X217500000Y-138900000D02*
X216450000Y-139950000D01*
X206400000Y-121250000D02*
X206400000Y-126100000D01*
X206400000Y-111900000D02*
X206400000Y-121250000D01*
X212050000Y-133848959D02*
X213100521Y-134899480D01*
X203000000Y-108500000D02*
X206400000Y-111900000D01*
X212050000Y-131750000D02*
X212050000Y-132250000D01*
X206400000Y-126100000D02*
X207200000Y-126900000D01*
X213125000Y-137125000D02*
X212300000Y-137950000D01*
X207200000Y-126900000D02*
X212050000Y-131750000D01*
D27*
%TO.N,/RP_USB_D-*%
X202819408Y-164350000D02*
X202090500Y-163621092D01*
D26*
%TO.N,/SD_DAT0*%
X200774946Y-157774583D02*
X201222167Y-157774583D01*
D27*
%TO.N,/RP_USB_D+*%
X106790500Y-139150000D02*
X106100000Y-139150000D01*
D26*
%TO.N,/SD_DAT0*%
X107672792Y-157600000D02*
X200600363Y-157600000D01*
D27*
%TO.N,/RP_USB_D+*%
X203214300Y-164814300D02*
X203200000Y-164800000D01*
X106900000Y-139040500D02*
X106790500Y-139150000D01*
D26*
%TO.N,/SD_DAT0*%
X107072792Y-157000000D02*
X107672792Y-157600000D01*
D27*
%TO.N,/RP_USB_D-*%
X201710797Y-156291389D02*
X131010797Y-156291389D01*
X202790500Y-161278908D02*
X202790500Y-157371092D01*
%TO.N,/RP_USB_D+*%
X204650000Y-164700000D02*
X204535700Y-164814300D01*
%TO.N,/RP_USB_D-*%
X202790500Y-157371092D02*
X201710797Y-156291389D01*
D26*
%TO.N,/SD_CMD*%
X104000000Y-155700000D02*
X106402944Y-155700000D01*
D27*
%TO.N,/RP_USB_D-*%
X105709500Y-138659500D02*
X105500000Y-138450000D01*
%TO.N,/RP_USB_D+*%
X201344362Y-156878600D02*
X201135751Y-156669989D01*
%TO.N,/RP_USB_D-*%
X113378908Y-138659500D02*
X105709500Y-138659500D01*
D26*
%TO.N,/SD_CMD*%
X200821654Y-157300000D02*
X200912365Y-157209289D01*
D27*
%TO.N,/RP_USB_D+*%
X201759192Y-156878600D02*
X201344362Y-156878600D01*
%TO.N,/RP_USB_D-*%
X202090500Y-161978908D02*
X202790500Y-161278908D01*
X131010797Y-156291389D02*
X113378908Y-138659500D01*
%TO.N,/RP_USB_D+*%
X202409500Y-157528908D02*
X201759192Y-156878600D01*
%TO.N,/RP_USB_D-*%
X204200000Y-164350000D02*
X202819408Y-164350000D01*
D26*
%TO.N,/SD_DAT0*%
X200600363Y-157600000D02*
X200774946Y-157774583D01*
D27*
%TO.N,/RP_USB_D+*%
X203200000Y-164800000D02*
X202730592Y-164800000D01*
D26*
%TO.N,/SD_DAT0*%
X99600000Y-156650000D02*
X99950000Y-157000000D01*
D27*
%TO.N,/RP_USB_D+*%
X201135751Y-156669989D02*
X130850581Y-156669989D01*
D26*
%TO.N,/SD_CMD*%
X106402944Y-155700000D02*
X108002944Y-157300000D01*
D27*
%TO.N,/RP_USB_D+*%
X202409500Y-161121092D02*
X202409500Y-157528908D01*
X201709500Y-161821092D02*
X202409500Y-161121092D01*
X202730592Y-164800000D02*
X201709500Y-163778908D01*
D26*
%TO.N,/SD_DAT0*%
X99950000Y-157000000D02*
X107072792Y-157000000D01*
D27*
%TO.N,/RP_USB_D+*%
X204535700Y-164814300D02*
X203214300Y-164814300D01*
X201709500Y-163778908D02*
X201709500Y-161821092D01*
D26*
%TO.N,/SD_CMD*%
X108002944Y-157300000D02*
X200821654Y-157300000D01*
D27*
%TO.N,/RP_USB_D-*%
X202090500Y-163621092D02*
X202090500Y-161978908D01*
%TO.N,/RP_USB_D+*%
X130850581Y-156669989D02*
X113221092Y-139040500D01*
X113221092Y-139040500D02*
X106900000Y-139040500D01*
D26*
%TO.N,/SD_DAT0*%
X99600000Y-155550000D02*
X99600000Y-156650000D01*
X201222167Y-157774583D02*
X201445400Y-157997816D01*
X201445400Y-157997816D02*
X201516443Y-157997816D01*
D28*
%TO.N,/Kathode/OUT_K58*%
X71850000Y-24250000D02*
X73149183Y-24250000D01*
X73149183Y-24250000D02*
X74550000Y-25650817D01*
X82689807Y-34228775D02*
X85300000Y-36838968D01*
X74550000Y-25650817D02*
X74550000Y-27198788D01*
X78941166Y-32744467D02*
X78941166Y-33437964D01*
X74550000Y-27198788D02*
X76500000Y-29148788D01*
X76500000Y-30303301D02*
X78941166Y-32744467D01*
X76500000Y-29148788D02*
X76500000Y-30303301D01*
X78941166Y-33437964D02*
X79731977Y-34228775D01*
X85300000Y-36838968D02*
X85300000Y-38339682D01*
X79731977Y-34228775D02*
X82689807Y-34228775D01*
X85300000Y-38339682D02*
X85910318Y-38950000D01*
X85910318Y-38950000D02*
X86450000Y-38950000D01*
D29*
%TO.N,/AI34*%
X168237500Y-30100000D02*
X168100000Y-30237500D01*
X168100000Y-30237500D02*
X168100000Y-67800000D01*
X170900000Y-70600000D02*
X170900000Y-89400000D01*
X170900000Y-89400000D02*
X177800000Y-96300000D01*
X179500000Y-103400000D02*
X179600000Y-103400000D01*
X168100000Y-67800000D02*
X170900000Y-70600000D01*
X177800000Y-101700000D02*
X179500000Y-103400000D01*
X177800000Y-96300000D02*
X177800000Y-101700000D01*
%TO.N,/AI33*%
X168575000Y-49303771D02*
X168575000Y-49825000D01*
X171100000Y-70400000D02*
X171100000Y-89300000D01*
X168575000Y-49825000D02*
X168300000Y-50100000D01*
X168300000Y-50100000D02*
X168300000Y-67600000D01*
X168300000Y-67600000D02*
X171100000Y-70400000D01*
X178000000Y-101000000D02*
X179800000Y-102800000D01*
X171100000Y-89300000D02*
X178000000Y-96200000D01*
X178000000Y-96200000D02*
X178000000Y-101000000D01*
X179800000Y-102800000D02*
X180000000Y-102800000D01*
%TO.N,/AI32*%
X175700000Y-93000000D02*
X175700000Y-74400000D01*
X175700000Y-74400000D02*
X169000000Y-67700000D01*
D28*
%TO.N,/Kathode/OUT_K62*%
X71850000Y-14250000D02*
X83322793Y-25722793D01*
X83322793Y-25722793D02*
X84050000Y-25722793D01*
X84050000Y-25722793D02*
X84275000Y-25947793D01*
X84275000Y-25947793D02*
X84275000Y-29575000D01*
X84275000Y-29575000D02*
X86581250Y-31881250D01*
X86581250Y-31881250D02*
X87781250Y-31881250D01*
%TO.N,/Kathode/OUT_K30*%
X77092983Y-99007017D02*
X72335966Y-94250000D01*
D30*
%TO.N,+5V*%
X203600000Y-127400000D02*
X203600000Y-122500000D01*
D31*
X106400000Y-128300000D02*
X102000000Y-123900000D01*
D30*
X208500000Y-132300000D02*
X203600000Y-127400000D01*
D31*
X103625000Y-95925000D02*
X101200000Y-93500000D01*
D30*
X174516296Y-107400000D02*
X173766296Y-106650000D01*
D32*
X185600000Y-104500000D02*
X184000000Y-104500000D01*
D30*
X208500000Y-132900000D02*
X208500000Y-132300000D01*
D31*
X103625000Y-98275000D02*
X103625000Y-95925000D01*
D30*
X208500000Y-132900000D02*
X208500000Y-137700000D01*
X196750000Y-115650000D02*
X203600000Y-122500000D01*
D31*
X102000000Y-123900000D02*
X102000000Y-122100000D01*
D30*
X170950000Y-106650000D02*
X169300000Y-108300000D01*
X173766296Y-106650000D02*
X170950000Y-106650000D01*
D32*
X184000000Y-104500000D02*
X183500000Y-104000000D01*
D30*
X196750000Y-115650000D02*
X196750000Y-114400431D01*
X189749569Y-107400000D02*
X174516296Y-107400000D01*
D31*
X102000000Y-122100000D02*
X102000000Y-99900000D01*
X102000000Y-99900000D02*
X103625000Y-98275000D01*
X101200000Y-93500000D02*
X101200000Y-90700000D01*
D30*
X196750000Y-114400431D02*
X189749569Y-107400000D01*
X208500000Y-137700000D02*
X206100000Y-140100000D01*
D28*
%TO.N,+3V3*%
X214200000Y-163100000D02*
X214100000Y-163200000D01*
D26*
X213300000Y-150900000D02*
X213300000Y-151800000D01*
X204300000Y-157400000D02*
X204600000Y-157400000D01*
D28*
X86250000Y-169525000D02*
X86250000Y-163250000D01*
X215400000Y-163100000D02*
X214200000Y-163100000D01*
D26*
X204600000Y-157400000D02*
X205100000Y-157900000D01*
X204600000Y-162200000D02*
X203400000Y-162200000D01*
D30*
X201100000Y-138000000D02*
X203300000Y-140200000D01*
X201100000Y-132400000D02*
X201100000Y-138000000D01*
D26*
X213300000Y-151800000D02*
X213700000Y-152200000D01*
D31*
%TO.N,/VUSB*%
X101000000Y-140100000D02*
X101600000Y-140100000D01*
X101600000Y-140100000D02*
X108200000Y-133500000D01*
X108900000Y-133500000D02*
X108900000Y-131700000D01*
X113400000Y-127200000D02*
X113400000Y-123500000D01*
X108200000Y-133500000D02*
X108900000Y-133500000D01*
X108900000Y-131700000D02*
X113400000Y-127200000D01*
X113400000Y-123500000D02*
X115000000Y-121900000D01*
D28*
%TO.N,HT*%
X88850000Y-87450000D02*
X88625000Y-87225000D01*
X88625000Y-87225000D02*
X88625000Y-84100000D01*
D29*
%TO.N,/K_CLK_5V*%
X105600000Y-126500000D02*
X103354074Y-124254074D01*
D26*
X136200000Y-131400000D02*
X124600000Y-131400000D01*
D29*
X110900000Y-126500000D02*
X105600000Y-126500000D01*
D26*
X184000000Y-111900000D02*
X182000000Y-111900000D01*
D29*
X103354074Y-124254074D02*
X103354074Y-123945926D01*
D26*
X124600000Y-131400000D02*
X124500000Y-131500000D01*
D28*
%TO.N,/K_RST_5V*%
X136300000Y-109900000D02*
X137900000Y-108300000D01*
X144100000Y-108300000D02*
X152300000Y-100100000D01*
X198200000Y-105200000D02*
X198200000Y-110500000D01*
X152300000Y-100100000D02*
X161400000Y-100100000D01*
X137900000Y-108300000D02*
X144100000Y-108300000D01*
X198200000Y-110500000D02*
X196300000Y-112400000D01*
X135800000Y-109900000D02*
X136300000Y-109900000D01*
X161400000Y-100100000D02*
X161500000Y-100000000D01*
D26*
%TO.N,/RST*%
X192100000Y-120900000D02*
X190840615Y-119640615D01*
X192100000Y-148600000D02*
X192100000Y-120900000D01*
X190840615Y-119640615D02*
X190840615Y-111048763D01*
X197500000Y-150300000D02*
X193800000Y-150300000D01*
X198200000Y-151000000D02*
X197500000Y-150300000D01*
X193800000Y-150300000D02*
X192100000Y-148600000D01*
%TO.N,Net-(J6-CC2)*%
X96000000Y-138100000D02*
X96000000Y-135000000D01*
X97400000Y-133600000D02*
X97500000Y-133600000D01*
X97400000Y-139500000D02*
X96000000Y-138100000D01*
X96000000Y-135000000D02*
X97400000Y-133600000D01*
%TO.N,/SR_D2*%
X203548528Y-154800000D02*
X209400000Y-160651472D01*
X134100000Y-126900000D02*
X162000000Y-154800000D01*
X134400000Y-110400000D02*
X134100000Y-110700000D01*
X209400000Y-160751472D02*
X210543387Y-161894859D01*
X134400000Y-109300000D02*
X134400000Y-110400000D01*
X209400000Y-160651472D02*
X209400000Y-160751472D01*
X210543387Y-161894859D02*
X210543387Y-161962318D01*
X162000000Y-154800000D02*
X203548528Y-154800000D01*
X134100000Y-110700000D02*
X134100000Y-126900000D01*
%TO.N,/SR_D3*%
X209500000Y-160272792D02*
X209500000Y-160327208D01*
X163100000Y-86600000D02*
X163100000Y-91600000D01*
X161200000Y-84700000D02*
X163100000Y-86600000D01*
X162800000Y-91900000D02*
X162800000Y-95200000D01*
X203727208Y-154500000D02*
X209500000Y-160272792D01*
X166000000Y-110400000D02*
X166000000Y-132721320D01*
X209700000Y-160527208D02*
X209700000Y-160627208D01*
X210638359Y-161325000D02*
X211123866Y-161810507D01*
X166000000Y-132721320D02*
X187778680Y-154500000D01*
X163100000Y-91600000D02*
X162800000Y-91900000D01*
X209700000Y-160627208D02*
X210397792Y-161325000D01*
X159650000Y-76750000D02*
X161200000Y-78300000D01*
X162800000Y-95200000D02*
X162300000Y-95700000D01*
X161200000Y-78300000D02*
X161200000Y-84700000D01*
X210397792Y-161325000D02*
X210638359Y-161325000D01*
X162300000Y-106700000D02*
X166000000Y-110400000D01*
X162300000Y-95700000D02*
X162300000Y-106700000D01*
X209500000Y-160327208D02*
X209700000Y-160527208D01*
X187778680Y-154500000D02*
X203727208Y-154500000D01*
%TO.N,/SR_D4*%
X209800000Y-160048528D02*
X209800000Y-160202944D01*
X166300000Y-132597056D02*
X187902944Y-154200000D01*
X163700000Y-100900000D02*
X166300000Y-103500000D01*
X166300000Y-103500000D02*
X166300000Y-132597056D01*
X210522056Y-161025000D02*
X211116789Y-161025000D01*
X211116789Y-161025000D02*
X211344222Y-161252433D01*
X203951472Y-154200000D02*
X209800000Y-160048528D01*
X209800000Y-160202944D02*
X210000000Y-160402944D01*
X187902944Y-154200000D02*
X203951472Y-154200000D01*
X210000000Y-160502944D02*
X210522056Y-161025000D01*
X210000000Y-160402944D02*
X210000000Y-160502944D01*
%TO.N,/SR_D5*%
X171101041Y-104600000D02*
X172225000Y-103476041D01*
X166600000Y-132472792D02*
X166600000Y-107600000D01*
X172225000Y-101262278D02*
X172862278Y-100625000D01*
X210300000Y-160378680D02*
X210300000Y-160278680D01*
X210200000Y-160178680D02*
X210200000Y-160024264D01*
X166600000Y-107600000D02*
X169600000Y-104600000D01*
X188027208Y-153900000D02*
X166600000Y-132472792D01*
X210200000Y-160024264D02*
X204075736Y-153900000D01*
X169600000Y-104600000D02*
X171101041Y-104600000D01*
X172225000Y-103476041D02*
X172225000Y-101262278D01*
X210300000Y-160278680D02*
X210200000Y-160178680D01*
X210646320Y-160725000D02*
X210300000Y-160378680D01*
X211766509Y-160925000D02*
X211566509Y-160725000D01*
X211566509Y-160725000D02*
X210646320Y-160725000D01*
X204075736Y-153900000D02*
X188027208Y-153900000D01*
%TO.N,/SR_D6*%
X169724264Y-104900000D02*
X166900000Y-107724264D01*
X188151472Y-153600000D02*
X204227208Y-153600000D01*
X211392042Y-159284935D02*
X211392042Y-159500000D01*
X166900000Y-107724264D02*
X166900000Y-132348528D01*
X180300000Y-101100000D02*
X180425000Y-101225000D01*
X179500000Y-104900000D02*
X169724264Y-104900000D01*
X204227208Y-153600000D02*
X209527208Y-158900000D01*
X209527208Y-158900000D02*
X211007107Y-158900000D01*
X166900000Y-132348528D02*
X188151472Y-153600000D01*
X180425000Y-101225000D02*
X180425000Y-103975000D01*
X180425000Y-103975000D02*
X179500000Y-104900000D01*
X211007107Y-158900000D02*
X211392042Y-159284935D01*
%TO.N,/SR_D7*%
X188400000Y-103800000D02*
X188400000Y-100900000D01*
X206800000Y-155748528D02*
X206800000Y-155624264D01*
X169875736Y-105200000D02*
X187000000Y-105200000D01*
X187000000Y-105200000D02*
X188400000Y-103800000D01*
X188275736Y-153300000D02*
X167200000Y-132224264D01*
X211131371Y-158600000D02*
X209651472Y-158600000D01*
X167200000Y-107875736D02*
X169875736Y-105200000D01*
X167200000Y-132224264D02*
X167200000Y-107875736D01*
X211900000Y-160000000D02*
X212000000Y-159900000D01*
X212000000Y-159900000D02*
X212000000Y-159468629D01*
X204475736Y-153300000D02*
X188275736Y-153300000D01*
X206800000Y-155624264D02*
X204475736Y-153300000D01*
X209651472Y-158600000D02*
X206800000Y-155748528D01*
X211000000Y-160000000D02*
X211900000Y-160000000D01*
X212000000Y-159468629D02*
X211131371Y-158600000D01*
%TO.N,/SR_D8*%
X210600000Y-160254416D02*
X210770584Y-160425000D01*
X210800000Y-159400000D02*
X210500000Y-159700000D01*
X198207107Y-152800000D02*
X197607107Y-152200000D01*
X210600000Y-160154416D02*
X210600000Y-160254416D01*
X194600000Y-105500000D02*
X196100000Y-104000000D01*
X207100000Y-155624264D02*
X207100000Y-155500000D01*
X210500000Y-159700000D02*
X210500000Y-160054416D01*
X207100000Y-155500000D02*
X204400000Y-152800000D01*
X212400000Y-160000000D02*
X212400000Y-159444365D01*
X186800000Y-151400000D02*
X167500000Y-132100000D01*
X167500000Y-108000000D02*
X170000000Y-105500000D01*
X210655635Y-157700000D02*
X209175736Y-157700000D01*
X209175736Y-157700000D02*
X207100000Y-155624264D01*
X197607107Y-152200000D02*
X197477539Y-152200000D01*
X196677539Y-151400000D02*
X186800000Y-151400000D01*
X204400000Y-152800000D02*
X198207107Y-152800000D01*
X197477539Y-152200000D02*
X196677539Y-151400000D01*
X170000000Y-105500000D02*
X194600000Y-105500000D01*
X211975000Y-160425000D02*
X212400000Y-160000000D01*
X210500000Y-160054416D02*
X210600000Y-160154416D01*
X210770584Y-160425000D02*
X211975000Y-160425000D01*
X212400000Y-159444365D02*
X210655635Y-157700000D01*
X167500000Y-132100000D02*
X167500000Y-108000000D01*
%TO.N,/BAT_DIV*%
X211200000Y-148100000D02*
X211200000Y-139500000D01*
X200800000Y-168200000D02*
X200800000Y-168600000D01*
X210900000Y-148400000D02*
X211200000Y-148100000D01*
X212100000Y-167175736D02*
X212100000Y-162775736D01*
X213600000Y-158024264D02*
X210900000Y-155324264D01*
X200800000Y-168600000D02*
X201000000Y-168800000D01*
X208100000Y-169400000D02*
X209875736Y-169400000D01*
X211200000Y-139500000D02*
X211900000Y-138800000D01*
X201000000Y-168800000D02*
X207500000Y-168800000D01*
X207500000Y-168800000D02*
X208100000Y-169400000D01*
X210900000Y-155324264D02*
X210900000Y-148400000D01*
X212100000Y-162775736D02*
X213600000Y-161275736D01*
X211900000Y-138800000D02*
X213300000Y-138800000D01*
X209875736Y-169400000D02*
X212100000Y-167175736D01*
X213600000Y-161275736D02*
X213600000Y-158024264D01*
%TO.N,/HV_DIV*%
X210000000Y-169700000D02*
X212400000Y-167300000D01*
X212400000Y-133700000D02*
X213900000Y-135200000D01*
X213700000Y-139300000D02*
X213900000Y-139100000D01*
X211500000Y-148300000D02*
X211500000Y-139700000D01*
X213900000Y-139100000D02*
X213900000Y-135200000D01*
X211500000Y-139700000D02*
X212000000Y-139200000D01*
X207600000Y-169400000D02*
X207900000Y-169700000D01*
X212400000Y-133700000D02*
X212400000Y-131600000D01*
X212000000Y-139200000D02*
X212600000Y-139200000D01*
X212400000Y-131600000D02*
X206775000Y-125975000D01*
X206775000Y-108025000D02*
X206900000Y-107900000D01*
X212600000Y-139200000D02*
X212700000Y-139300000D01*
X211200000Y-148600000D02*
X211500000Y-148300000D01*
X213900000Y-161400000D02*
X213900000Y-157900000D01*
X213900000Y-157900000D02*
X211200000Y-155200000D01*
X201800000Y-169400000D02*
X207600000Y-169400000D01*
X211200000Y-155200000D02*
X211200000Y-148600000D01*
X207900000Y-169700000D02*
X210000000Y-169700000D01*
X212400000Y-162900000D02*
X213900000Y-161400000D01*
X206775000Y-125975000D02*
X206775000Y-108025000D01*
X212700000Y-139300000D02*
X213700000Y-139300000D01*
X212400000Y-167300000D02*
X212400000Y-162900000D01*
D29*
%TO.N,/AI1*%
X112600000Y-108300000D02*
X112600000Y-108282842D01*
X136600000Y-108300000D02*
X112600000Y-108300000D01*
X110300000Y-67900000D02*
X111200000Y-67000000D01*
X109900000Y-31700000D02*
X98100000Y-31700000D01*
X110300000Y-105982843D02*
X112600000Y-108282842D01*
X110300000Y-105982843D02*
X110300000Y-67900000D01*
X111200000Y-67000000D02*
X111200000Y-33000000D01*
X98100000Y-31700000D02*
X96400000Y-30000000D01*
X111200000Y-33000000D02*
X109900000Y-31700000D01*
%TO.N,/AI2*%
X112500000Y-107900000D02*
X110500000Y-105900000D01*
X147100000Y-102500000D02*
X147100000Y-104800000D01*
X111800000Y-31200000D02*
X104600000Y-31200000D01*
X110500000Y-68000000D02*
X111900000Y-66600000D01*
X110500000Y-105900000D02*
X110500000Y-68000000D01*
X111900000Y-49600000D02*
X111700000Y-49400000D01*
X144000000Y-107900000D02*
X112500000Y-107900000D01*
X112500000Y-46588972D02*
X112500000Y-31900000D01*
X112500000Y-31900000D02*
X111800000Y-31200000D01*
X147100000Y-104800000D02*
X144000000Y-107900000D01*
X111700000Y-47388972D02*
X112500000Y-46588972D01*
X111900000Y-66600000D02*
X111900000Y-49600000D01*
X111700000Y-49400000D02*
X111700000Y-47388972D01*
D26*
%TO.N,/AO2*%
X85000000Y-15700000D02*
X105512500Y-15700000D01*
X81500000Y-12200000D02*
X85000000Y-15700000D01*
X105512500Y-15700000D02*
X106250000Y-14962500D01*
X77500000Y-11000000D02*
X78700000Y-12200000D01*
X77500000Y-8000000D02*
X77500000Y-11000000D01*
X78700000Y-12200000D02*
X81500000Y-12200000D01*
D29*
%TO.N,/AI3*%
X143900000Y-107700000D02*
X112600000Y-107700000D01*
X112100000Y-49500000D02*
X111950000Y-49350000D01*
X146600000Y-102200000D02*
X146400000Y-102400000D01*
X112100000Y-66700000D02*
X112100000Y-49500000D01*
X110700000Y-68100000D02*
X112100000Y-66700000D01*
X111950000Y-49350000D02*
X111950000Y-47421814D01*
X112600000Y-107700000D02*
X110700000Y-105800000D01*
X146400000Y-102400000D02*
X146400000Y-105200000D01*
X110700000Y-105800000D02*
X110700000Y-68100000D01*
X146600000Y-102100000D02*
X146600000Y-102200000D01*
X111950000Y-47421814D02*
X112700000Y-46671814D01*
X146400000Y-105200000D02*
X143900000Y-107700000D01*
X112700000Y-46671814D02*
X112700000Y-28300000D01*
D26*
%TO.N,/AO3*%
X113037500Y-13800000D02*
X114200000Y-14962500D01*
X80000000Y-8000000D02*
X80000000Y-9497918D01*
X94850000Y-13800000D02*
X113037500Y-13800000D01*
X93800000Y-14850000D02*
X94850000Y-13800000D01*
X85352082Y-14850000D02*
X93800000Y-14850000D01*
X80000000Y-9497918D02*
X85352082Y-14850000D01*
D29*
%TO.N,/AI4*%
X143800000Y-107500000D02*
X146200000Y-105100000D01*
X146200000Y-101600000D02*
X146600000Y-101200000D01*
X112350000Y-47587500D02*
X112350000Y-66750000D01*
X112682842Y-107500000D02*
X143800000Y-107500000D01*
X110900000Y-68200000D02*
X110900000Y-105717158D01*
X110900000Y-105717158D02*
X112682842Y-107500000D01*
X146200000Y-105100000D02*
X146200000Y-101600000D01*
X112350000Y-66750000D02*
X110900000Y-68200000D01*
D26*
%TO.N,/AO4*%
X82500000Y-8000000D02*
X82500000Y-9500000D01*
X85950000Y-12950000D02*
X113531003Y-12950000D01*
X115556250Y-32581250D02*
X114150000Y-33987500D01*
X113531003Y-12950000D02*
X115556250Y-14975247D01*
X115556250Y-14975247D02*
X115556250Y-32581250D01*
X82500000Y-9500000D02*
X85950000Y-12950000D01*
D29*
%TO.N,/AI5*%
X146000000Y-100700000D02*
X146000000Y-105017158D01*
X111100000Y-105634316D02*
X111100000Y-69162500D01*
X111100000Y-69162500D02*
X112200000Y-68062500D01*
X146000000Y-105017158D02*
X143717158Y-107300000D01*
X146300000Y-99800000D02*
X146300000Y-100400000D01*
X143717158Y-107300000D02*
X112765684Y-107300000D01*
X112765684Y-107300000D02*
X111100000Y-105634316D01*
X146300000Y-100400000D02*
X146000000Y-100700000D01*
D26*
%TO.N,/AO5*%
X116406250Y-14506250D02*
X116406250Y-39587747D01*
X86251041Y-12048959D02*
X113948959Y-12048959D01*
X113948959Y-12048959D02*
X116406250Y-14506250D01*
X85000000Y-10797918D02*
X86251041Y-12048959D01*
X85000000Y-8000000D02*
X85000000Y-10797918D01*
X116406250Y-39587747D02*
X113900000Y-42093997D01*
X113900000Y-42093997D02*
X113900000Y-52962500D01*
D29*
%TO.N,/AI7*%
X145600000Y-104851474D02*
X143551474Y-106900000D01*
X145600000Y-97400000D02*
X145600000Y-104851474D01*
X143551474Y-106900000D02*
X113271752Y-106900000D01*
X113271752Y-106900000D02*
X112354626Y-105982874D01*
X145800000Y-97200000D02*
X145600000Y-97400000D01*
D26*
%TO.N,/AO7*%
X119700000Y-32600000D02*
X119400000Y-32900000D01*
X90000000Y-9600000D02*
X90748959Y-10348959D01*
X119400000Y-32900000D02*
X119400000Y-40697918D01*
X119450000Y-67689582D02*
X118700000Y-68439582D01*
X119700000Y-15343503D02*
X119700000Y-32600000D01*
X114705456Y-10348959D02*
X119700000Y-15343503D01*
X90748959Y-10348959D02*
X114705456Y-10348959D01*
X118700000Y-88100000D02*
X115800000Y-91000000D01*
X90000000Y-8000000D02*
X90000000Y-9600000D01*
X119400000Y-40697918D02*
X119450000Y-40747918D01*
X115800000Y-91000000D02*
X113937500Y-91000000D01*
X118700000Y-68439582D02*
X118700000Y-88100000D01*
X119450000Y-40747918D02*
X119450000Y-67689582D01*
D29*
%TO.N,/AI8*%
X120775061Y-66424939D02*
X123000000Y-64200000D01*
X123000000Y-60300000D02*
X123000000Y-64200000D01*
X120775061Y-72175061D02*
X124500000Y-75900000D01*
X121900000Y-92600000D02*
X141700000Y-92600000D01*
X121100000Y-58400000D02*
X123000000Y-60300000D01*
X141700000Y-92600000D02*
X142800000Y-93700000D01*
X142800000Y-94900000D02*
X142500000Y-95200000D01*
X121000000Y-91700000D02*
X121900000Y-92600000D01*
X121100000Y-47300000D02*
X121100000Y-58400000D01*
X120650000Y-46850000D02*
X121100000Y-47300000D01*
X120775061Y-66424939D02*
X120775061Y-72175061D01*
X142500000Y-95200000D02*
X142000000Y-95200000D01*
X120650000Y-30100000D02*
X120650000Y-46850000D01*
X121000000Y-90500000D02*
X121000000Y-91700000D01*
X121000000Y-90500000D02*
X124500000Y-87000000D01*
X124500000Y-75900000D02*
X124500000Y-87000000D01*
X142800000Y-93700000D02*
X142800000Y-94900000D01*
%TO.N,/AI6*%
X145800000Y-104934316D02*
X145800000Y-98700000D01*
X112848526Y-107100000D02*
X143634316Y-107100000D01*
X112237500Y-87100000D02*
X111300000Y-88037500D01*
X145800000Y-98700000D02*
X146100000Y-98400000D01*
X143634316Y-107100000D02*
X145800000Y-104934316D01*
X111300000Y-88037500D02*
X111300000Y-105551474D01*
X111300000Y-105551474D02*
X112848526Y-107100000D01*
D26*
%TO.N,/AO6*%
X117256250Y-32000000D02*
X117256250Y-38400000D01*
X118600000Y-67337500D02*
X113937500Y-72000000D01*
X118850000Y-15747918D02*
X118850000Y-30406250D01*
X118400000Y-40900000D02*
X118600000Y-41100000D01*
X113596878Y-11198958D02*
X114301040Y-11198958D01*
X87500000Y-9998959D02*
X88700000Y-11198959D01*
X87500000Y-8000000D02*
X87500000Y-9998959D01*
X88700000Y-11198959D02*
X113596877Y-11198959D01*
X114301040Y-11198958D02*
X118850000Y-15747918D01*
X118600000Y-41100000D02*
X118600000Y-67337500D01*
X113596877Y-11198959D02*
X113596878Y-11198958D01*
X117256250Y-38400000D02*
X118400000Y-39543750D01*
X118400000Y-39543750D02*
X118400000Y-40900000D01*
X118850000Y-30406250D02*
X117256250Y-32000000D01*
D29*
%TO.N,/AI9*%
X121817157Y-92800000D02*
X140300000Y-92800000D01*
X120481292Y-49281292D02*
X120900000Y-49700000D01*
X120800000Y-91782843D02*
X121817157Y-92800000D01*
X123350000Y-80350000D02*
X123350000Y-87867158D01*
X144600000Y-86682843D02*
X144600000Y-84600000D01*
X120900000Y-58500000D02*
X122800000Y-60400000D01*
X144400000Y-86882842D02*
X144400001Y-86882842D01*
X124300000Y-76000000D02*
X124300000Y-79400000D01*
X120575061Y-66342096D02*
X122800000Y-64117158D01*
X120575061Y-66342096D02*
X120575061Y-72275061D01*
X140600000Y-90682842D02*
X144400000Y-86882842D01*
X140300000Y-92800000D02*
X140700000Y-93200000D01*
X122800000Y-60400000D02*
X122800000Y-64117158D01*
X120800000Y-90417157D02*
X123350000Y-87867158D01*
X120450000Y-49281292D02*
X120481292Y-49281292D01*
X149264868Y-79935132D02*
X149374999Y-79935132D01*
X120900000Y-49700000D02*
X120900000Y-58500000D01*
X140600000Y-91900000D02*
X140600000Y-90682842D01*
X124300000Y-79400000D02*
X123350000Y-80350000D01*
X144600000Y-84600000D02*
X149264868Y-79935132D01*
X120575061Y-72275061D02*
X124300000Y-76000000D01*
X120800000Y-90417157D02*
X120800000Y-91782843D01*
X144400001Y-86882842D02*
X144600000Y-86682843D01*
D26*
%TO.N,/AO9*%
X121800000Y-29400000D02*
X120600000Y-28200000D01*
X121800000Y-34026683D02*
X121800000Y-29400000D01*
X120600000Y-28200000D02*
X120600000Y-16272787D01*
X120600000Y-16272787D02*
X120694236Y-16178551D01*
D29*
%TO.N,/AI11*%
X120237500Y-87100000D02*
X120237500Y-91537500D01*
X144000000Y-86400000D02*
X144000000Y-84200000D01*
X139900000Y-90500000D02*
X144000000Y-86400000D01*
X139300000Y-93000000D02*
X139600000Y-93300000D01*
X120237500Y-91537500D02*
X121700000Y-93000000D01*
X147800000Y-80400000D02*
X147800000Y-79799999D01*
X139300000Y-90500000D02*
X139900000Y-90500000D01*
X144000000Y-84200000D02*
X147800000Y-80400000D01*
X121700000Y-93000000D02*
X139300000Y-93000000D01*
X148699999Y-78900000D02*
X151800000Y-78900000D01*
X147800000Y-79799999D02*
X148699999Y-78900000D01*
D26*
%TO.N,/AO11*%
X122500000Y-65900000D02*
X122500000Y-71437500D01*
X124694101Y-14264359D02*
X123549999Y-15408461D01*
X123549999Y-15408461D02*
X123549999Y-28052081D01*
X123549999Y-28052081D02*
X125150000Y-29652082D01*
X125150000Y-38350000D02*
X124500000Y-39000000D01*
X124800000Y-48637088D02*
X124800000Y-49800000D01*
X123825000Y-64575000D02*
X122500000Y-65900000D01*
X125150000Y-29652082D02*
X125150000Y-38350000D01*
X122500000Y-71437500D02*
X121937500Y-72000000D01*
X124500000Y-48337088D02*
X124800000Y-48637088D01*
X124800000Y-49800000D02*
X123825000Y-50775000D01*
X124500000Y-39000000D02*
X124500000Y-48337088D01*
X123825000Y-50775000D02*
X123825000Y-64575000D01*
D29*
%TO.N,/AI12*%
X127300000Y-104200000D02*
X125400000Y-106100000D01*
X136900000Y-86700000D02*
X135900000Y-86700000D01*
X151800000Y-77600000D02*
X150900000Y-78500000D01*
X125400000Y-106100000D02*
X120964748Y-106100000D01*
X148500000Y-78500000D02*
X150900000Y-78500000D01*
X147400000Y-79600000D02*
X147400000Y-80200000D01*
X143600000Y-84000000D02*
X143600000Y-86234316D01*
X143600000Y-84000000D02*
X147400000Y-80200000D01*
X142734316Y-87100000D02*
X143600000Y-86234316D01*
X132900000Y-89700000D02*
X132900000Y-90900000D01*
X127300000Y-94600000D02*
X127300000Y-104200000D01*
X137300000Y-87100000D02*
X136900000Y-86700000D01*
X135900000Y-86700000D02*
X132900000Y-89700000D01*
X137300000Y-87100000D02*
X142734316Y-87100000D01*
X147400000Y-79600000D02*
X148500000Y-78500000D01*
X120964748Y-106100000D02*
X120583994Y-105719246D01*
D26*
%TO.N,/AO12*%
X126400000Y-39700000D02*
X126000000Y-39300000D01*
X121937500Y-91000000D02*
X126400000Y-86537500D01*
X124400000Y-16075591D02*
X124778255Y-15697336D01*
X124400000Y-27700000D02*
X124400000Y-16075591D01*
X126400000Y-86537500D02*
X126400000Y-39700000D01*
X126000000Y-29300000D02*
X124400000Y-27700000D01*
X126000000Y-39300000D02*
X126000000Y-29300000D01*
%TO.N,/AI10*%
X145500000Y-77000000D02*
X140200000Y-77000000D01*
X140200000Y-77000000D02*
X133000000Y-69800000D01*
%TO.N,/AO10*%
X123500000Y-31042643D02*
X123500000Y-42700000D01*
X121227503Y-15117634D02*
X121349129Y-14996008D01*
X122688762Y-15552505D02*
X122688762Y-16711238D01*
X121349129Y-14996008D02*
X122132265Y-14996008D01*
X122671539Y-30214182D02*
X123500000Y-31042643D01*
X123500000Y-42700000D02*
X122018476Y-44181524D01*
X122018476Y-53003145D02*
X122025000Y-53009669D01*
X122132265Y-14996008D02*
X122688762Y-15552505D01*
X121500000Y-27700000D02*
X122671539Y-28871539D01*
X122018476Y-44181524D02*
X122018476Y-53003145D01*
X122688762Y-16711238D02*
X121500000Y-17900000D01*
X121500000Y-17900000D02*
X121500000Y-27700000D01*
X122671539Y-28871539D02*
X122671539Y-30214182D01*
D29*
%TO.N,/AI13*%
X134400000Y-70100000D02*
X140300000Y-76000000D01*
X129900000Y-32500000D02*
X134400000Y-37000000D01*
X140300000Y-76000000D02*
X151600000Y-76000000D01*
X134400000Y-37000000D02*
X134400000Y-70100000D01*
X129900000Y-31600000D02*
X129900000Y-32500000D01*
%TO.N,/AI15*%
X151200000Y-67982843D02*
X154041668Y-70824511D01*
X142200000Y-36100000D02*
X142200000Y-50600000D01*
X142200000Y-50600000D02*
X151200000Y-59600000D01*
X151200000Y-59600000D02*
X151200000Y-67982843D01*
X136200000Y-30100000D02*
X142200000Y-36100000D01*
X154041668Y-70824511D02*
X154041668Y-73451008D01*
%TO.N,/AI16*%
X144068632Y-106100000D02*
X143800000Y-105831368D01*
X149849999Y-79750001D02*
X149900000Y-79700000D01*
X128237500Y-106100000D02*
X144068632Y-106100000D01*
X149900000Y-79700000D02*
X153900000Y-79700000D01*
X143800000Y-105831368D02*
X143800000Y-87800000D01*
X149189868Y-80410132D02*
X149571751Y-80410132D01*
X153900000Y-79700000D02*
X154500000Y-80300000D01*
X144800000Y-84800000D02*
X149189868Y-80410132D01*
X149849999Y-80131884D02*
X149849999Y-79750001D01*
X143800000Y-87800000D02*
X144800000Y-86800000D01*
X144800000Y-86800000D02*
X144800000Y-84800000D01*
X149571751Y-80410132D02*
X149849999Y-80131884D01*
D26*
%TO.N,/AO16*%
X127700000Y-28800000D02*
X128100002Y-29200002D01*
X130900000Y-80535582D02*
X130900000Y-90453414D01*
X127700000Y-18096563D02*
X127700000Y-28800000D01*
X128100002Y-66618999D02*
X131025000Y-69543997D01*
X128100002Y-29200002D02*
X128100002Y-66618999D01*
X131025000Y-80410582D02*
X130900000Y-80535582D01*
X127212500Y-17609063D02*
X127700000Y-18096563D01*
X130900000Y-90453414D02*
X130225000Y-91128414D01*
X131025000Y-69543997D02*
X131025000Y-80410582D01*
D29*
%TO.N,/AI14*%
X140200000Y-76200000D02*
X147800000Y-76200000D01*
X148800000Y-77200000D02*
X150900000Y-77200000D01*
X147800000Y-76200000D02*
X148800000Y-77200000D01*
X134200000Y-70200000D02*
X140200000Y-76200000D01*
X129050000Y-54250000D02*
X132500000Y-57700000D01*
X132500000Y-66700000D02*
X134200000Y-68400000D01*
X132500000Y-57700000D02*
X132500000Y-66700000D01*
X134200000Y-68400000D02*
X134200000Y-70200000D01*
X129050000Y-50400000D02*
X129050000Y-54250000D01*
D26*
%TO.N,/AO14*%
X124895836Y-13100000D02*
X123200000Y-13100000D01*
X122200000Y-14100000D02*
X120011894Y-14100000D01*
X125820467Y-14024631D02*
X124895836Y-13100000D01*
X123200000Y-13100000D02*
X122200000Y-14100000D01*
X120011894Y-14100000D02*
X119911894Y-14200000D01*
X125820467Y-15825000D02*
X125820467Y-14024631D01*
D29*
%TO.N,/AI17*%
X144200000Y-86517158D02*
X144200000Y-84382842D01*
X144200000Y-84382842D02*
X148000000Y-80582842D01*
X157100000Y-79300000D02*
X157800000Y-78600000D01*
X148000000Y-80582842D02*
X148000000Y-79882842D01*
X129550000Y-88550000D02*
X129800000Y-88300000D01*
X129550000Y-88950000D02*
X129300000Y-89200000D01*
X138517158Y-92200000D02*
X144200000Y-86517158D01*
X129700000Y-92200000D02*
X138517158Y-92200000D01*
X129300000Y-89200000D02*
X129300000Y-91800000D01*
X148000000Y-79882842D02*
X148582842Y-79300000D01*
X129300000Y-91800000D02*
X129700000Y-92200000D01*
X148582842Y-79300000D02*
X157100000Y-79300000D01*
X129550000Y-88950000D02*
X129550000Y-88550000D01*
D26*
%TO.N,/AO17*%
X120702082Y-12250000D02*
X125247918Y-12250000D01*
X126500000Y-22200000D02*
X126827792Y-22527792D01*
X115750000Y-10150000D02*
X118300000Y-12700000D01*
X126850000Y-32450000D02*
X127250001Y-32850001D01*
X125247918Y-12250000D02*
X126770467Y-13772549D01*
X127250001Y-32850001D02*
X127250001Y-70050001D01*
X126770467Y-13772549D02*
X126770467Y-16529533D01*
X126500000Y-20200000D02*
X126500000Y-22200000D01*
X118300000Y-12700000D02*
X120252082Y-12700000D01*
X126000000Y-19700000D02*
X126500000Y-20200000D01*
X115750000Y-8750000D02*
X115750000Y-10150000D01*
X126770467Y-16529533D02*
X126000000Y-17300000D01*
X126850000Y-28194416D02*
X126850000Y-32450000D01*
X126827792Y-22527792D02*
X126827792Y-28172208D01*
X129275000Y-72075000D02*
X129275000Y-72481884D01*
X120252082Y-12700000D02*
X120702082Y-12250000D01*
X115000000Y-8000000D02*
X115750000Y-8750000D01*
X126000000Y-17300000D02*
X126000000Y-19700000D01*
X127250001Y-70050001D02*
X129275000Y-72075000D01*
X126827792Y-28172208D02*
X126850000Y-28194416D01*
D29*
%TO.N,/AI19*%
X152300000Y-33300000D02*
X152300000Y-50100000D01*
X149100000Y-30100000D02*
X152300000Y-33300000D01*
X161000000Y-54300000D02*
X161000000Y-64117158D01*
X157900000Y-51200000D02*
X161000000Y-54300000D01*
X152300000Y-50100000D02*
X153400000Y-51200000D01*
X158800000Y-78300000D02*
X158800000Y-69681932D01*
X158800000Y-69681932D02*
X158093068Y-68975000D01*
X158400000Y-66717158D02*
X158400000Y-67300000D01*
X158400000Y-66717158D02*
X161000000Y-64117158D01*
X144237500Y-30100000D02*
X149100000Y-30100000D01*
X158400000Y-78700000D02*
X158800000Y-78300000D01*
X153400000Y-51200000D02*
X157900000Y-51200000D01*
D26*
%TO.N,/AO19*%
X128302082Y-12900000D02*
X130500000Y-12900000D01*
X120000000Y-9900000D02*
X120600000Y-10500000D01*
X125902082Y-10500000D02*
X128302082Y-12900000D01*
X120600000Y-10500000D02*
X125902082Y-10500000D01*
X120000000Y-8000000D02*
X120000000Y-9900000D01*
X130500000Y-12900000D02*
X130700000Y-12700000D01*
D29*
%TO.N,/AI20*%
X143800000Y-84100000D02*
X147600000Y-80300000D01*
X147600000Y-80300000D02*
X147600000Y-79700000D01*
X151328248Y-78700000D02*
X151603248Y-78425000D01*
X158234314Y-77600000D02*
X158300000Y-77600000D01*
X151603248Y-78425000D02*
X157409314Y-78425000D01*
X147600000Y-79700000D02*
X148600000Y-78700000D01*
X136300000Y-87300000D02*
X142817158Y-87300000D01*
X157409314Y-78425000D02*
X158234314Y-77600000D01*
X142817158Y-87300000D02*
X143800000Y-86317158D01*
X136200000Y-87200000D02*
X136300000Y-87300000D01*
X148600000Y-78700000D02*
X151328248Y-78700000D01*
X143800000Y-86317158D02*
X143800000Y-84100000D01*
D26*
%TO.N,/AO20*%
X135225000Y-69425000D02*
X137900000Y-72100000D01*
X130900000Y-32102082D02*
X135225000Y-36427082D01*
X130900000Y-19800000D02*
X130900000Y-32102082D01*
X135225000Y-36427082D02*
X135225000Y-69425000D01*
D29*
%TO.N,/AI18*%
X144400000Y-84500000D02*
X148200000Y-80700000D01*
X138600000Y-92400000D02*
X144400000Y-86600000D01*
X129600000Y-92400000D02*
X138600000Y-92400000D01*
X159800000Y-79500000D02*
X160100000Y-79800000D01*
X130200000Y-78400000D02*
X129100000Y-79500000D01*
X144400000Y-86600000D02*
X144400000Y-84500000D01*
X148200000Y-80700000D02*
X148200000Y-80000000D01*
X148700000Y-79500000D02*
X159800000Y-79500000D01*
X130200000Y-70062500D02*
X130200000Y-78400000D01*
X129100000Y-91900000D02*
X129600000Y-92400000D01*
X148200000Y-80000000D02*
X148700000Y-79500000D01*
X128237500Y-68100000D02*
X130200000Y-70062500D01*
X129100000Y-79500000D02*
X129100000Y-91900000D01*
D26*
%TO.N,/AO18*%
X128950003Y-17950003D02*
X128950003Y-48050003D01*
X128700000Y-17700000D02*
X128950003Y-17950003D01*
X118500000Y-10600000D02*
X119497918Y-10600000D01*
X117500000Y-9600000D02*
X118500000Y-10600000D01*
X128700000Y-14500000D02*
X128700000Y-17700000D01*
X130000000Y-49300000D02*
X130000000Y-52986934D01*
X120297918Y-11400000D02*
X125600000Y-11400000D01*
X128950003Y-48050003D02*
X129900000Y-49000000D01*
X129900000Y-49000000D02*
X129900000Y-49200000D01*
X117500000Y-8000000D02*
X117500000Y-9600000D01*
X129900000Y-49200000D02*
X130000000Y-49300000D01*
X119497918Y-10600000D02*
X120297918Y-11400000D01*
X125600000Y-11400000D02*
X128700000Y-14500000D01*
X130000000Y-52986934D02*
X129975000Y-53011934D01*
D29*
%TO.N,/AI21*%
X158590000Y-74790000D02*
X158590000Y-75635000D01*
X151044644Y-71550000D02*
X153794644Y-74300000D01*
X158300000Y-74500000D02*
X158590000Y-74790000D01*
X158590000Y-75635000D02*
X158200000Y-76025000D01*
X136575000Y-68434501D02*
X139690499Y-71550000D01*
X153794644Y-74300000D02*
X154182842Y-74300000D01*
X154382842Y-74500000D02*
X158300000Y-74500000D01*
X139690499Y-71550000D02*
X151044644Y-71550000D01*
X154182842Y-74300000D02*
X154382842Y-74500000D01*
D26*
%TO.N,/AO21*%
X136100000Y-36100000D02*
X136100000Y-46200000D01*
X133200000Y-29100000D02*
X133200000Y-33200000D01*
X133200000Y-33200000D02*
X136100000Y-36100000D01*
X137900000Y-48000000D02*
X137900000Y-53100000D01*
X136100000Y-46200000D02*
X137900000Y-48000000D01*
X132787500Y-18012500D02*
X132000000Y-18800000D01*
X132000000Y-18800000D02*
X132000000Y-27900000D01*
X132000000Y-27900000D02*
X133200000Y-29100000D01*
X132787500Y-15300000D02*
X132787500Y-18012500D01*
D29*
%TO.N,/AI23*%
X153566668Y-73254256D02*
X153566668Y-73647760D01*
X144237500Y-68100000D02*
X149682843Y-68100000D01*
X153600000Y-72017157D02*
X153600000Y-73220924D01*
X149682843Y-68100000D02*
X153600000Y-72017157D01*
X154207842Y-74025000D02*
X158037291Y-74025000D01*
X154108850Y-73926008D02*
X154207842Y-74025000D01*
X153844916Y-73926008D02*
X154108850Y-73926008D01*
X153600000Y-73220924D02*
X153566668Y-73254256D01*
X153566668Y-73647760D02*
X153844916Y-73926008D01*
D26*
%TO.N,/AO23*%
X130000000Y-9300000D02*
X135400000Y-14700000D01*
X135400000Y-14700000D02*
X135400000Y-27702082D01*
X143125000Y-35427082D02*
X143125000Y-50187500D01*
X135400000Y-27702082D02*
X143125000Y-35427082D01*
X143125000Y-50187500D02*
X145937500Y-53000000D01*
D29*
%TO.N,/AI24*%
X158200000Y-68500000D02*
X160300000Y-70600000D01*
X152300000Y-66800000D02*
X151900000Y-67200000D01*
X160300000Y-70600000D02*
X160300000Y-72300000D01*
X151900000Y-67200000D02*
X151900000Y-68000000D01*
X148462500Y-49062500D02*
X158800000Y-59400000D01*
X157900000Y-66800000D02*
X152300000Y-66800000D01*
X151900000Y-68000000D02*
X152400000Y-68500000D01*
X158800000Y-59400000D02*
X158800000Y-65900000D01*
X158800000Y-65900000D02*
X157900000Y-66800000D01*
X144200000Y-49062500D02*
X148462500Y-49062500D01*
X152400000Y-68500000D02*
X158200000Y-68500000D01*
D26*
%TO.N,/AO24*%
X136300000Y-14302082D02*
X136300000Y-16200000D01*
X132500000Y-8000000D02*
X132500000Y-10502082D01*
X143050000Y-33950000D02*
X145953002Y-33950000D01*
X132500000Y-10502082D02*
X136300000Y-14302082D01*
X136300000Y-16200000D02*
X136250000Y-16250000D01*
X136250000Y-16250000D02*
X136250000Y-27150000D01*
X136250000Y-27150000D02*
X143050000Y-33950000D01*
D29*
%TO.N,/AI22*%
X142002324Y-74802324D02*
X155599383Y-74802324D01*
X136237500Y-50162500D02*
X136100000Y-50300000D01*
X157839927Y-74900000D02*
X157914927Y-74975000D01*
X136100000Y-50300000D02*
X136100000Y-68900000D01*
X155599383Y-74802324D02*
X155697059Y-74900000D01*
X136237500Y-49100000D02*
X136237500Y-50162500D01*
X136100000Y-68900000D02*
X142002324Y-74802324D01*
X155697059Y-74900000D02*
X157839927Y-74900000D01*
D26*
%TO.N,/AO22*%
X127500000Y-10200000D02*
X128700000Y-11400000D01*
X130897918Y-11400000D02*
X134500000Y-15002082D01*
X127500000Y-8000000D02*
X127500000Y-10200000D01*
X134500000Y-30562500D02*
X137937500Y-34000000D01*
X134500000Y-15002082D02*
X134500000Y-30562500D01*
X128700000Y-11400000D02*
X130897918Y-11400000D01*
D29*
%TO.N,/AI25*%
X170300000Y-91500000D02*
X166600000Y-87800000D01*
X169700000Y-102200000D02*
X170300000Y-101600000D01*
X166600000Y-87800000D02*
X166600000Y-70200000D01*
X166900000Y-102200000D02*
X169700000Y-102200000D01*
X158117158Y-68100000D02*
X152671752Y-68100000D01*
X170300000Y-101600000D02*
X170300000Y-91500000D01*
X166600000Y-70200000D02*
X166300000Y-69900000D01*
X166300000Y-69900000D02*
X159917158Y-69900000D01*
X152671752Y-68100000D02*
X152531062Y-67959310D01*
X159917158Y-69900000D02*
X158117158Y-68100000D01*
D26*
%TO.N,/AO25*%
X139800000Y-19000000D02*
X139800000Y-27600000D01*
X137400000Y-16600000D02*
X139800000Y-19000000D01*
X135000000Y-11800000D02*
X137400000Y-14200000D01*
X137400000Y-14200000D02*
X137400000Y-16600000D01*
X151475000Y-34675000D02*
X151475000Y-50537500D01*
X135000000Y-8000000D02*
X135000000Y-11800000D01*
X149800000Y-33000000D02*
X151475000Y-34675000D01*
X151475000Y-50537500D02*
X153937500Y-53000000D01*
X145200000Y-33000000D02*
X149800000Y-33000000D01*
X139800000Y-27600000D02*
X145200000Y-33000000D01*
D29*
%TO.N,/AI27*%
X167100000Y-87582842D02*
X170700000Y-91182842D01*
X166500000Y-69500000D02*
X167100000Y-70100000D01*
X161475000Y-61275000D02*
X161500000Y-61300000D01*
X162700000Y-59141852D02*
X161475000Y-60366852D01*
X158400000Y-51000000D02*
X162700000Y-55300000D01*
X170700000Y-91182842D02*
X170700000Y-101000000D01*
X154500000Y-30100000D02*
X158425000Y-34025000D01*
X167100000Y-70100000D02*
X167100000Y-87582842D01*
X159200000Y-68600000D02*
X160100000Y-69500000D01*
X160100000Y-69500000D02*
X166500000Y-69500000D01*
X152237500Y-30100000D02*
X154500000Y-30100000D01*
X162700000Y-55300000D02*
X162700000Y-59141852D01*
X161500000Y-64200000D02*
X159200000Y-66500000D01*
X158425000Y-34025000D02*
X158425000Y-34400000D01*
X158400000Y-34425000D02*
X158400000Y-51000000D01*
X159200000Y-66500000D02*
X159200000Y-68600000D01*
X161500000Y-61300000D02*
X161500000Y-64200000D01*
X158425000Y-34400000D02*
X158400000Y-34425000D01*
X170700000Y-101000000D02*
X171800000Y-102100000D01*
X161475000Y-60366852D02*
X161475000Y-61275000D01*
%TO.N,/AI28*%
X160237500Y-68100000D02*
X161137500Y-69000000D01*
X166300000Y-69000000D02*
X167300000Y-70000000D01*
X161137500Y-69000000D02*
X166300000Y-69000000D01*
X170900000Y-91100000D02*
X170900000Y-100000000D01*
X167300000Y-87500000D02*
X170900000Y-91100000D01*
X167300000Y-70000000D02*
X167300000Y-87500000D01*
X170900000Y-100000000D02*
X171800000Y-100900000D01*
D26*
%TO.N,/AO28*%
X159250000Y-50312500D02*
X161937500Y-53000000D01*
X159250000Y-26250000D02*
X159250000Y-50312500D01*
X142500000Y-9500000D02*
X159250000Y-26250000D01*
X142500000Y-8000000D02*
X142500000Y-9500000D01*
D29*
%TO.N,/AI26*%
X166382842Y-69700000D02*
X160000000Y-69700000D01*
X161200000Y-64200000D02*
X161200000Y-54100000D01*
X170500000Y-102000000D02*
X170500000Y-91300000D01*
X156278691Y-49178691D02*
X152775000Y-49178691D01*
X171800000Y-103300000D02*
X170500000Y-102000000D01*
X166800000Y-70117158D02*
X166382842Y-69700000D01*
X166800000Y-87600000D02*
X166800000Y-70117158D01*
X159000000Y-68700000D02*
X159000000Y-66400000D01*
X159000000Y-66400000D02*
X161200000Y-64200000D01*
X161200000Y-54100000D02*
X156278691Y-49178691D01*
X170500000Y-91300000D02*
X166800000Y-87600000D01*
X160000000Y-69700000D02*
X159000000Y-68700000D01*
D26*
%TO.N,/AO26*%
X137500000Y-9700000D02*
X143700000Y-15900000D01*
X143700000Y-15900000D02*
X143700000Y-23500000D01*
X153937500Y-33737500D02*
X153937500Y-34000000D01*
X143700000Y-23500000D02*
X153937500Y-33737500D01*
X137500000Y-8000000D02*
X137500000Y-9700000D01*
D29*
%TO.N,/AI29*%
X172300000Y-98000000D02*
X172300000Y-98600000D01*
X164300000Y-66417158D02*
X167700000Y-69817158D01*
X163200000Y-59717158D02*
X163600000Y-60117158D01*
X172000000Y-97700000D02*
X172300000Y-98000000D01*
X171300000Y-97600000D02*
X171400000Y-97700000D01*
X160800000Y-49100000D02*
X160800000Y-50400000D01*
X163200000Y-52200000D02*
X163200000Y-59717158D01*
X163600000Y-60117158D02*
X163600000Y-65700000D01*
X163600000Y-65700000D02*
X164300000Y-66400000D01*
X167700000Y-69817158D02*
X167700000Y-87300000D01*
X160800000Y-50400000D02*
X162300000Y-51900000D01*
X162300000Y-51900000D02*
X162900000Y-51900000D01*
X164300000Y-66400000D02*
X164300000Y-66417158D01*
X171800000Y-99100000D02*
X171800000Y-99500000D01*
X172300000Y-98600000D02*
X171800000Y-99100000D01*
X171400000Y-97700000D02*
X172000000Y-97700000D01*
X167700000Y-87300000D02*
X171300000Y-90900000D01*
X162900000Y-51900000D02*
X163200000Y-52200000D01*
X171300000Y-90900000D02*
X171300000Y-97600000D01*
D26*
%TO.N,/AO29*%
X145000000Y-9500000D02*
X148700000Y-13200000D01*
X145000000Y-8000000D02*
X145000000Y-9500000D01*
X153800000Y-13200000D02*
X153799999Y-13204163D01*
X153799999Y-13204163D02*
X159295836Y-18700000D01*
X148700000Y-13200000D02*
X153800000Y-13200000D01*
X161300000Y-33362500D02*
X161937500Y-34000000D01*
X159295836Y-18700000D02*
X159300000Y-18700000D01*
X159300000Y-18700000D02*
X161300000Y-20700000D01*
X161300000Y-20700000D02*
X161300000Y-33362500D01*
D29*
%TO.N,/AI31*%
X171500000Y-90800000D02*
X171500000Y-96700000D01*
X171500000Y-96700000D02*
X171800000Y-97000000D01*
X168200000Y-87200000D02*
X168200000Y-87500000D01*
X168200000Y-87500000D02*
X171500000Y-90800000D01*
D26*
%TO.N,/AO31*%
X153997918Y-12200000D02*
X154147918Y-12350000D01*
X169900000Y-70833274D02*
X169900000Y-72100000D01*
X154147918Y-12350000D02*
X154152082Y-12350000D01*
X154650000Y-12847918D02*
X154650000Y-12852082D01*
X154650000Y-12852082D02*
X159397918Y-17600000D01*
X150000000Y-9500000D02*
X152700000Y-12200000D01*
X154152082Y-12350000D02*
X154650000Y-12847918D01*
X167125000Y-20725000D02*
X167125000Y-68058274D01*
X159397918Y-17600000D02*
X164000000Y-17600000D01*
X152700000Y-12200000D02*
X153997918Y-12200000D01*
X150000000Y-8000000D02*
X150000000Y-9500000D01*
X167125000Y-68058274D02*
X169900000Y-70833274D01*
X164000000Y-17600000D02*
X167125000Y-20725000D01*
%TO.N,/AO32*%
X159556246Y-16552082D02*
X164647918Y-16552082D01*
X171600000Y-39300000D02*
X171600000Y-43900000D01*
X170871111Y-52066389D02*
X169937500Y-53000000D01*
X169450000Y-33143997D02*
X168987500Y-33606497D01*
X168987500Y-36687500D02*
X171600000Y-39300000D01*
X152500000Y-8000000D02*
X152500000Y-9495836D01*
X152500000Y-9495836D02*
X159556246Y-16552082D01*
X169450000Y-21354164D02*
X169450000Y-33143997D01*
X168987500Y-33606497D02*
X168987500Y-36687500D01*
X171600000Y-43900000D02*
X170871111Y-44628889D01*
X170871111Y-44628889D02*
X170871111Y-52066389D01*
X164647918Y-16552082D02*
X169450000Y-21354164D01*
D29*
%TO.N,/AI30*%
X162204226Y-52100000D02*
X162800000Y-52100000D01*
X162800000Y-52100000D02*
X163000000Y-52300000D01*
X160100000Y-30250000D02*
X160100000Y-49995774D01*
X160250000Y-30100000D02*
X160100000Y-30250000D01*
X160100000Y-49995774D02*
X162204226Y-52100000D01*
X167500000Y-69900000D02*
X167500000Y-87417158D01*
X171100000Y-91017158D02*
X171100000Y-97700000D01*
X163000000Y-52300000D02*
X163000000Y-59800000D01*
X167500000Y-87417158D02*
X171100000Y-91017158D01*
X163000000Y-59800000D02*
X163400000Y-60200000D01*
X163400000Y-65800000D02*
X167500000Y-69900000D01*
X163400000Y-60200000D02*
X163400000Y-65800000D01*
X171100000Y-97700000D02*
X171825000Y-98425000D01*
X171825000Y-98425000D02*
X171900000Y-98425000D01*
D26*
%TO.N,/AO33*%
X171350000Y-24250000D02*
X170871111Y-24728889D01*
X158700000Y-13200000D02*
X162497918Y-13200000D01*
X155000000Y-9500000D02*
X158700000Y-13200000D01*
X170871111Y-24728889D02*
X170871111Y-33066389D01*
X162497918Y-13200000D02*
X171350000Y-22052082D01*
X170871111Y-33066389D02*
X169937500Y-34000000D01*
X155000000Y-8000000D02*
X155000000Y-9500000D01*
X171350000Y-22052082D02*
X171350000Y-24250000D01*
D29*
%TO.N,/AI35*%
X176200000Y-87100000D02*
X178200000Y-89100000D01*
X178200000Y-100600000D02*
X179700000Y-102100000D01*
X178200000Y-89100000D02*
X178200000Y-100600000D01*
D26*
%TO.N,/AO35*%
X160000000Y-9500000D02*
X174900000Y-24400000D01*
X174900000Y-69900000D02*
X177000000Y-72000000D01*
X177000000Y-72000000D02*
X177900000Y-72000000D01*
X160000000Y-8000000D02*
X160000000Y-9500000D01*
X174900000Y-24400000D02*
X174900000Y-69900000D01*
D29*
%TO.N,/AI36*%
X180000000Y-97500000D02*
X180400000Y-97900000D01*
X180400000Y-99900000D02*
X179600000Y-100700000D01*
X178800000Y-97317158D02*
X178982842Y-97500000D01*
X176712500Y-68466449D02*
X176712500Y-69487500D01*
X179100000Y-69800000D02*
X180000000Y-70700000D01*
X180400000Y-97900000D02*
X180400000Y-99900000D01*
X178982842Y-97500000D02*
X180000000Y-97500000D01*
X176712500Y-69487500D02*
X176700000Y-69500000D01*
X177000000Y-69800000D02*
X179100000Y-69800000D01*
X180000000Y-70700000D02*
X180000000Y-85200000D01*
X178800000Y-86400000D02*
X178800000Y-97317158D01*
X178800000Y-86400000D02*
X180000000Y-85200000D01*
X176700000Y-69500000D02*
X177000000Y-69800000D01*
D26*
%TO.N,/AO36*%
X162500000Y-9600000D02*
X170251041Y-17351041D01*
X179600000Y-39400000D02*
X179600000Y-44200000D01*
X176987500Y-36787500D02*
X179600000Y-39400000D01*
X177300000Y-31300000D02*
X176987500Y-31612500D01*
X170251041Y-17351041D02*
X172448959Y-17351041D01*
X176987500Y-31612500D02*
X176987500Y-36787500D01*
X172448959Y-17351041D02*
X177300000Y-22202082D01*
X162500000Y-8000000D02*
X162500000Y-9600000D01*
X179600000Y-44200000D02*
X177900000Y-45900000D01*
X177300000Y-22202082D02*
X177300000Y-31300000D01*
X177900000Y-45900000D02*
X177900000Y-53000000D01*
D29*
%TO.N,/AI37*%
X180200000Y-99000000D02*
X179600000Y-99600000D01*
X180200000Y-98000000D02*
X180200000Y-99000000D01*
X178600000Y-86300000D02*
X178600000Y-97400000D01*
X176237500Y-49100000D02*
X176237500Y-69320342D01*
X179800000Y-85100000D02*
X178600000Y-86300000D01*
X179800000Y-70800000D02*
X179800000Y-85100000D01*
X176237500Y-69320342D02*
X176917158Y-70000000D01*
X176917158Y-70000000D02*
X179000000Y-70000000D01*
X179900000Y-97700000D02*
X180200000Y-98000000D01*
X179000000Y-70000000D02*
X179800000Y-70800000D01*
X178900000Y-97700000D02*
X179900000Y-97700000D01*
X178600000Y-97400000D02*
X178900000Y-97700000D01*
D26*
%TO.N,/AO37*%
X178871111Y-33066389D02*
X177937500Y-34000000D01*
X178100000Y-21800000D02*
X178793503Y-21800000D01*
X179700000Y-24400000D02*
X178871111Y-25228889D01*
X165000000Y-8700000D02*
X178100000Y-21800000D01*
X178871111Y-25228889D02*
X178871111Y-33066389D01*
X178793503Y-21800000D02*
X179700000Y-22706497D01*
X179700000Y-22706497D02*
X179700000Y-24400000D01*
D29*
%TO.N,/AI39*%
X184200000Y-90285784D02*
X179785784Y-94700000D01*
X179632016Y-94700000D02*
X179353768Y-94978248D01*
X179400000Y-95571752D02*
X179400000Y-96877331D01*
X179353768Y-95525520D02*
X179400000Y-95571752D01*
X179353768Y-94978248D02*
X179353768Y-95525520D01*
X184200000Y-87100000D02*
X184200000Y-90285784D01*
X179785784Y-94700000D02*
X179632016Y-94700000D01*
D26*
%TO.N,/AO39*%
X182437500Y-20437500D02*
X182437500Y-68537500D01*
X178781003Y-19000000D02*
X181000000Y-19000000D01*
X170000000Y-10218997D02*
X178781003Y-19000000D01*
X182437500Y-68537500D02*
X185900000Y-72000000D01*
X181000000Y-19000000D02*
X182437500Y-20437500D01*
X170000000Y-8000000D02*
X170000000Y-10218997D01*
D29*
%TO.N,/AI40*%
X188200000Y-83217158D02*
X185700000Y-85717158D01*
X184200000Y-68800000D02*
X188200000Y-72800000D01*
X185700000Y-92051471D02*
X182151471Y-95600000D01*
X188200000Y-72800000D02*
X188200000Y-83217158D01*
X185700000Y-85717158D02*
X185700000Y-92051471D01*
X182151471Y-95600000D02*
X180253768Y-95600000D01*
X184200000Y-68100000D02*
X184200000Y-68800000D01*
X180253768Y-95600000D02*
X179828768Y-95175000D01*
D26*
%TO.N,/AO40*%
X172500000Y-9500000D02*
X177001041Y-14001041D01*
X185450000Y-40550000D02*
X185450000Y-53037141D01*
X185450000Y-53037141D02*
X185575000Y-53162141D01*
X172500000Y-8000000D02*
X172500000Y-9500000D01*
X183287500Y-18889582D02*
X183287500Y-38387500D01*
X177001041Y-14001041D02*
X178398959Y-14001041D01*
X178398959Y-14001041D02*
X183287500Y-18889582D01*
X183287500Y-38387500D02*
X185450000Y-40550000D01*
D29*
%TO.N,/AI38*%
X175837500Y-69320342D02*
X175837500Y-69337500D01*
X176237500Y-30100000D02*
X175800000Y-30537500D01*
X178400000Y-97900000D02*
X178925000Y-98425000D01*
X178925000Y-98425000D02*
X179628768Y-98425000D01*
X176700000Y-70200000D02*
X178917158Y-70200000D01*
X179600000Y-70882842D02*
X179600000Y-85017158D01*
X178917158Y-70200000D02*
X179600000Y-70882842D01*
X175837500Y-69337500D02*
X176700000Y-70200000D01*
X175800000Y-69282842D02*
X175837500Y-69320342D01*
X175800000Y-30537500D02*
X175800000Y-69282842D01*
X178400000Y-86217158D02*
X178400000Y-97900000D01*
X179600000Y-85017158D02*
X178400000Y-86217158D01*
%TO.N,/AI41*%
X184237500Y-49100000D02*
X184237500Y-66337500D01*
X184237500Y-66337500D02*
X185200000Y-67300000D01*
X184600000Y-102200000D02*
X182700000Y-102200000D01*
X188400000Y-72600000D02*
X188400000Y-83300000D01*
X186200000Y-100600000D02*
X184600000Y-102200000D01*
X185200000Y-67300000D02*
X185200000Y-69400000D01*
X185200000Y-69400000D02*
X188400000Y-72600000D01*
X186200000Y-85500000D02*
X186200000Y-100600000D01*
X186200000Y-85500000D02*
X188400000Y-83300000D01*
D26*
%TO.N,/AO41*%
X175000000Y-9400000D02*
X187350000Y-21750000D01*
X187350000Y-21750000D02*
X187350000Y-24450000D01*
D28*
X185937500Y-34000000D02*
X185937500Y-25862500D01*
D26*
X187350000Y-24450000D02*
X187200000Y-24600000D01*
D28*
X185937500Y-25862500D02*
X187200000Y-24600000D01*
D29*
%TO.N,/AI43*%
X190200000Y-95200000D02*
X189900000Y-95200000D01*
X186800000Y-98300000D02*
X189900000Y-95200000D01*
X192237500Y-87100000D02*
X192237500Y-93162500D01*
X186800000Y-98300000D02*
X186800000Y-101500000D01*
X190200000Y-95200000D02*
X192237500Y-93162500D01*
X187500000Y-102200000D02*
X187600000Y-102200000D01*
X186800000Y-101500000D02*
X187500000Y-102200000D01*
D26*
%TO.N,/AO43*%
X188300000Y-47200000D02*
X190350000Y-49250000D01*
X189200000Y-29215878D02*
X189200000Y-37900000D01*
X190350000Y-70250000D02*
X192100000Y-72000000D01*
X188300000Y-38800000D02*
X188300000Y-47200000D01*
X192100000Y-72000000D02*
X193937500Y-72000000D01*
X189200000Y-37900000D02*
X188300000Y-38800000D01*
X188487500Y-28503378D02*
X189200000Y-29215878D01*
X180000000Y-8000000D02*
X180000000Y-13100000D01*
X190350000Y-49250000D02*
X190350000Y-70250000D01*
X180000000Y-13100000D02*
X188487500Y-21587500D01*
X188487500Y-21587500D02*
X188487500Y-28503378D01*
D29*
%TO.N,/AI44*%
X188300000Y-97500000D02*
X187500000Y-98300000D01*
X188200000Y-99400000D02*
X188200000Y-100300000D01*
X192237500Y-68100000D02*
X192237500Y-70437500D01*
X195100000Y-71500000D02*
X195100000Y-94000000D01*
X187500000Y-98300000D02*
X187500000Y-98700000D01*
X195100000Y-94000000D02*
X191600000Y-97500000D01*
X188200000Y-100300000D02*
X187600000Y-100900000D01*
X187500000Y-98700000D02*
X188200000Y-99400000D01*
X191600000Y-97500000D02*
X188300000Y-97500000D01*
X192237500Y-70437500D02*
X192600000Y-70800000D01*
X194400000Y-70800000D02*
X195100000Y-71500000D01*
X192600000Y-70800000D02*
X194400000Y-70800000D01*
D26*
%TO.N,/AO44*%
X190200000Y-39518997D02*
X193937500Y-43256497D01*
X188252082Y-20150000D02*
X189831003Y-20150000D01*
X182500000Y-14397918D02*
X188252082Y-20150000D01*
X190387500Y-28193503D02*
X190200000Y-28381003D01*
X190200000Y-28381003D02*
X190200000Y-39518997D01*
X190387500Y-20706497D02*
X190387500Y-28193503D01*
X182500000Y-8000000D02*
X182500000Y-14397918D01*
X193937500Y-43256497D02*
X193937500Y-53000000D01*
X189831003Y-20150000D02*
X190387500Y-20706497D01*
D29*
%TO.N,/AI42*%
X188600000Y-83400000D02*
X186400000Y-85600000D01*
X186500000Y-46400000D02*
X186500000Y-69568630D01*
X186400000Y-85600000D02*
X186400000Y-102100000D01*
X184237500Y-30100000D02*
X184237500Y-37137500D01*
X188600000Y-71668630D02*
X188600000Y-83400000D01*
X187400000Y-40300000D02*
X187400000Y-45500000D01*
X184237500Y-37137500D02*
X187400000Y-40300000D01*
X186400000Y-102100000D02*
X187800000Y-103500000D01*
X186500000Y-69568630D02*
X188600000Y-71668630D01*
X187400000Y-45500000D02*
X186500000Y-46400000D01*
%TO.N,/AI45*%
X192237500Y-49100000D02*
X192237500Y-66962500D01*
X187200000Y-98234314D02*
X187200000Y-99100000D01*
X191500000Y-70200000D02*
X192300000Y-71000000D01*
X192237500Y-66962500D02*
X191500000Y-67700000D01*
X188134314Y-97300000D02*
X187200000Y-98234314D01*
X192300000Y-71000000D02*
X194317158Y-71000000D01*
X194317158Y-71000000D02*
X194900000Y-71582842D01*
X191500000Y-67700000D02*
X191500000Y-70200000D01*
X194900000Y-71582842D02*
X194900000Y-93917158D01*
X194900000Y-93917158D02*
X191517158Y-97300000D01*
X191517158Y-97300000D02*
X188134314Y-97300000D01*
X187200000Y-99100000D02*
X187700000Y-99600000D01*
D26*
%TO.N,/AO45*%
X191300000Y-29400000D02*
X191300000Y-29600000D01*
X191300000Y-29400000D02*
X191300000Y-29693997D01*
X191300000Y-15800000D02*
X191300000Y-29400000D01*
X185000000Y-9500000D02*
X191300000Y-15800000D01*
X185000000Y-8000000D02*
X185000000Y-9500000D01*
X191300000Y-29600000D02*
X191287500Y-29612500D01*
X191287500Y-29612500D02*
X191287500Y-31350000D01*
X191287500Y-31350000D02*
X193937500Y-34000000D01*
D29*
%TO.N,/AI47*%
X200200000Y-87200000D02*
X200200000Y-87600000D01*
X199500000Y-88300000D02*
X199500000Y-90800000D01*
X199975000Y-91275000D02*
X199975000Y-91675000D01*
X199500000Y-90800000D02*
X199975000Y-91275000D01*
X200200000Y-87600000D02*
X199500000Y-88300000D01*
X199975000Y-91675000D02*
X200100000Y-91800000D01*
D26*
%TO.N,/AO47*%
X190000000Y-8000000D02*
X190000000Y-9500000D01*
X190000000Y-9500000D02*
X198172000Y-17672000D01*
X198172000Y-17672000D02*
X198172000Y-68513423D01*
X198172000Y-68513423D02*
X201846683Y-72188106D01*
D29*
%TO.N,/AI48*%
X199300000Y-82200000D02*
X199300000Y-91325000D01*
X200200000Y-68200000D02*
X200200000Y-68667590D01*
X203600000Y-77882843D02*
X203599999Y-77882843D01*
X200600000Y-81000000D02*
X200500000Y-81100000D01*
X200400000Y-81100000D02*
X199300000Y-82200000D01*
X203599999Y-77882843D02*
X200600000Y-80882842D01*
X200500000Y-81100000D02*
X200400000Y-81100000D01*
X203600000Y-72067590D02*
X203600000Y-77882843D01*
X199300000Y-91325000D02*
X199500000Y-91525000D01*
X200600000Y-80882842D02*
X200600000Y-81000000D01*
X200200000Y-68667590D02*
X203600000Y-72067590D01*
D26*
%TO.N,/AO48*%
X192500000Y-8000000D02*
X192500000Y-10797918D01*
X192500000Y-10797918D02*
X199100000Y-17397918D01*
X199100000Y-50508149D02*
X201829032Y-53237181D01*
X199100000Y-17397918D02*
X199100000Y-50508149D01*
D29*
%TO.N,/AI46*%
X191700000Y-97800000D02*
X188600000Y-97800000D01*
X192237500Y-30100000D02*
X195400000Y-33262500D01*
X188600000Y-97800000D02*
X188000000Y-98400000D01*
X195400000Y-94100000D02*
X191700000Y-97800000D01*
X195400000Y-33262500D02*
X195400000Y-94100000D01*
%TO.N,/AI49*%
X195482842Y-94600000D02*
X197100000Y-94600000D01*
X194600000Y-102100000D02*
X195300000Y-102800000D01*
X203100000Y-52900000D02*
X203100000Y-58500000D01*
X197100000Y-94600000D02*
X199100000Y-92600000D01*
X199300000Y-68050432D02*
X203400000Y-72150432D01*
X199100000Y-82100000D02*
X199100000Y-92600000D01*
X203400000Y-72150432D02*
X203400000Y-77800000D01*
X200475000Y-50275000D02*
X203100000Y-52900000D01*
X194600000Y-95482842D02*
X195482842Y-94600000D01*
X199100000Y-82100000D02*
X203400000Y-77800000D01*
X199300000Y-62300000D02*
X199300000Y-68050432D01*
X200475000Y-49200000D02*
X200475000Y-50275000D01*
X194600000Y-95482842D02*
X194600000Y-102100000D01*
X203100000Y-58500000D02*
X199300000Y-62300000D01*
X195300000Y-102800000D02*
X195700000Y-102800000D01*
D26*
%TO.N,/AO49*%
X200000000Y-20000000D02*
X201150000Y-21150000D01*
X201150000Y-33350000D02*
X201900000Y-34100000D01*
X195000000Y-8000000D02*
X195000000Y-12095836D01*
X200000000Y-17095836D02*
X200000000Y-20000000D01*
X195000000Y-12095836D02*
X200000000Y-17095836D01*
X201150000Y-21150000D02*
X201150000Y-33350000D01*
D29*
%TO.N,/AI51*%
X195800000Y-101503016D02*
X200496984Y-106200000D01*
X200496984Y-106200000D02*
X208200000Y-106200000D01*
X195800000Y-101200000D02*
X195800000Y-101503016D01*
D26*
%TO.N,/AO51*%
X200000000Y-8000000D02*
X200000000Y-12002000D01*
X206375000Y-87575000D02*
X209900000Y-91100000D01*
X206375000Y-18377000D02*
X206375000Y-87575000D01*
X200000000Y-12002000D02*
X206375000Y-18377000D01*
D29*
%TO.N,/AI52*%
X195700000Y-99282842D02*
X195700000Y-100600000D01*
X208700000Y-87700000D02*
X211600000Y-90600000D01*
X196841421Y-98141422D02*
X196841420Y-98141422D01*
X211600000Y-90600000D02*
X211600000Y-92100000D01*
X200182842Y-93100000D02*
X210600000Y-93100000D01*
X195700000Y-99282842D02*
X196841420Y-98141422D01*
X196900000Y-96382842D02*
X200182842Y-93100000D01*
X196900000Y-98082843D02*
X196841421Y-98141422D01*
X208700000Y-86900010D02*
X208700000Y-87700000D01*
X196900000Y-96382842D02*
X196900000Y-98082843D01*
X210600000Y-93100000D02*
X211600000Y-92100000D01*
D26*
%TO.N,/AO52*%
X209094000Y-57418000D02*
X211380000Y-59704000D01*
X202500000Y-12978000D02*
X209094000Y-19572000D01*
X211380000Y-66308000D02*
X209900000Y-67788000D01*
X208490579Y-46400579D02*
X209094000Y-47004000D01*
X208490579Y-32376147D02*
X208490579Y-46400579D01*
X209094000Y-31772726D02*
X208490579Y-32376147D01*
X211380000Y-59704000D02*
X211380000Y-66308000D01*
X209094000Y-19572000D02*
X209094000Y-31772726D01*
X202500000Y-8000000D02*
X202500000Y-12978000D01*
X209094000Y-47004000D02*
X209094000Y-57418000D01*
X209900000Y-67788000D02*
X209900000Y-72100000D01*
D29*
%TO.N,/AI50*%
X197000000Y-94400000D02*
X195400000Y-94400000D01*
X200200000Y-30200000D02*
X200000000Y-30400000D01*
X194300000Y-95500000D02*
X194300000Y-102100000D01*
X199000000Y-68033274D02*
X203200000Y-72233274D01*
X203200000Y-72233274D02*
X203200000Y-77717158D01*
X200000000Y-30400000D02*
X200000000Y-50100000D01*
X198900000Y-92500000D02*
X197000000Y-94400000D01*
X199000000Y-62317158D02*
X199000000Y-68033274D01*
X202900000Y-53000000D02*
X202900000Y-58417158D01*
X203200000Y-77717158D02*
X198900000Y-82017158D01*
X198900000Y-82017158D02*
X198900000Y-92500000D01*
X194300000Y-102100000D02*
X195700000Y-103500000D01*
X195400000Y-94400000D02*
X194300000Y-95500000D01*
X200000000Y-50100000D02*
X202900000Y-53000000D01*
X202900000Y-58417158D02*
X199000000Y-62317158D01*
%TO.N,/AI53*%
X211400000Y-92000000D02*
X210500000Y-92900000D01*
X211400000Y-90700000D02*
X211400000Y-92000000D01*
X210500000Y-92900000D02*
X200100000Y-92900000D01*
X200100000Y-92900000D02*
X196700000Y-96300000D01*
X207700000Y-68637500D02*
X207700000Y-87000000D01*
X196700000Y-96300000D02*
X196700000Y-97635585D01*
X208237500Y-68100000D02*
X207700000Y-68637500D01*
X196700000Y-97635585D02*
X195286498Y-99049087D01*
X207700000Y-87000000D02*
X211400000Y-90700000D01*
D26*
%TO.N,/AO53*%
X210110000Y-32258808D02*
X209340579Y-33028229D01*
X210110000Y-29986000D02*
X210110000Y-32258808D01*
X211126000Y-28970000D02*
X210110000Y-29986000D01*
X211634000Y-38622000D02*
X211634000Y-47004000D01*
X210028553Y-53001177D02*
X210044000Y-53016624D01*
X211126000Y-20334000D02*
X211126000Y-28970000D01*
X209340579Y-33028229D02*
X209340579Y-36328579D01*
X210028553Y-48609447D02*
X210028553Y-53001177D01*
X205000000Y-14208000D02*
X211126000Y-20334000D01*
X205000000Y-8000000D02*
X205000000Y-14208000D01*
X211634000Y-47004000D02*
X210028553Y-48609447D01*
X209340579Y-36328579D02*
X211634000Y-38622000D01*
D29*
%TO.N,/AI55*%
X207300000Y-48400000D02*
X207665579Y-48034421D01*
X207300000Y-87200000D02*
X207800000Y-87700000D01*
X211000000Y-90891852D02*
X211000000Y-91800000D01*
X207800000Y-87700000D02*
X207808148Y-87700000D01*
X200000000Y-92400000D02*
X210400000Y-92400000D01*
X211000000Y-91800000D02*
X210400000Y-92400000D01*
X207300000Y-48400000D02*
X207300000Y-87200000D01*
X200000000Y-92400000D02*
X196000000Y-96400000D01*
X207665579Y-30685578D02*
X207665579Y-48034421D01*
X207808148Y-87700000D02*
X211000000Y-90891852D01*
X208144000Y-30207157D02*
X207665579Y-30685578D01*
%TO.N,/AI56*%
X194800000Y-96000000D02*
X195700000Y-95100000D01*
X216200000Y-106200000D02*
X212900000Y-106200000D01*
X212900000Y-106200000D02*
X211800000Y-107300000D01*
X194800000Y-100800000D02*
X194800000Y-96000000D01*
X211800000Y-107300000D02*
X201300000Y-107300000D01*
X194800000Y-100800000D02*
X201300000Y-107300000D01*
D26*
%TO.N,/AO56*%
X217842172Y-91098669D02*
X217842172Y-91183595D01*
X214600000Y-71466726D02*
X214600000Y-87856497D01*
X212500000Y-8000000D02*
X212500000Y-13300000D01*
X214075000Y-50441726D02*
X214075000Y-70941726D01*
X212500000Y-13300000D02*
X215000000Y-15800000D01*
X214600000Y-87856497D02*
X217842172Y-91098669D01*
X215000000Y-31124082D02*
X213975000Y-32149082D01*
X214075000Y-70941726D02*
X214600000Y-71466726D01*
X213975000Y-32149082D02*
X213975000Y-50341726D01*
X213975000Y-50341726D02*
X214075000Y-50441726D01*
X215000000Y-15800000D02*
X215000000Y-31124082D01*
D29*
%TO.N,/AI54*%
X207500000Y-87100000D02*
X211200000Y-90800000D01*
X210582843Y-92500000D02*
X210482843Y-92600000D01*
X196500000Y-96200000D02*
X196500000Y-96600000D01*
X196500000Y-96200000D02*
X200100000Y-92600000D01*
X211200000Y-90800000D02*
X211200000Y-91900000D01*
X207500000Y-50200000D02*
X207500000Y-87100000D01*
X207500000Y-50200000D02*
X208018473Y-49681527D01*
X195500000Y-97600000D02*
X196500000Y-96600000D01*
X210600000Y-92500000D02*
X210582843Y-92500000D01*
X200100000Y-92600000D02*
X210482843Y-92600000D01*
X208018473Y-49259068D02*
X208018473Y-49681527D01*
X211200000Y-91900000D02*
X210600000Y-92500000D01*
X195500000Y-97600000D02*
X195500000Y-97800000D01*
D26*
%TO.N,/AO54*%
X212956827Y-30980673D02*
X210290579Y-33646921D01*
X207500000Y-15438000D02*
X212142000Y-20080000D01*
X210290579Y-33646921D02*
X210290579Y-34000000D01*
X212142000Y-28462000D02*
X212904000Y-29224000D01*
X212956827Y-29289174D02*
X212956827Y-30980673D01*
X212142000Y-20080000D02*
X212142000Y-28462000D01*
X212904000Y-29236347D02*
X212956827Y-29289174D01*
X207500000Y-8000000D02*
X207500000Y-15438000D01*
X212904000Y-29224000D02*
X212904000Y-29236347D01*
D29*
%TO.N,/AI57*%
X199700000Y-95300000D02*
X200600000Y-94400000D01*
X214700000Y-89300000D02*
X209600000Y-94400000D01*
X199300000Y-102200000D02*
X198700000Y-102200000D01*
X199700000Y-95300000D02*
X199700000Y-101800000D01*
X200600000Y-94400000D02*
X209600000Y-94400000D01*
X199700000Y-101800000D02*
X199300000Y-102200000D01*
D26*
%TO.N,/AO57*%
X216607116Y-17892884D02*
X216607116Y-29930872D01*
X215000000Y-8000000D02*
X215000000Y-14200000D01*
X215000000Y-14200000D02*
X217650000Y-16850000D01*
X216899847Y-30223603D02*
X216899847Y-32066879D01*
X215900000Y-33066726D02*
X215900000Y-48600000D01*
X216899847Y-32066879D02*
X215900000Y-33066726D01*
X218000000Y-71937500D02*
X217937500Y-72000000D01*
X218000000Y-67100000D02*
X218000000Y-71937500D01*
X216800000Y-65900000D02*
X218000000Y-67100000D01*
X216607116Y-29930872D02*
X216899847Y-30223603D01*
X215900000Y-48600000D02*
X216800000Y-49500000D01*
X217650000Y-16850000D02*
X216607116Y-17892884D01*
X216800000Y-49500000D02*
X216800000Y-65900000D01*
D29*
%TO.N,/AI59*%
X217582842Y-94800000D02*
X200800000Y-94800000D01*
X200800000Y-94800000D02*
X200100000Y-95500000D01*
X219500000Y-92882842D02*
X217582842Y-94800000D01*
X219500000Y-91200000D02*
X219500000Y-92882842D01*
X200100000Y-95500000D02*
X200100000Y-99200000D01*
X215850000Y-49975808D02*
X215700000Y-50125808D01*
X215700000Y-50125808D02*
X215700000Y-87400000D01*
X200100000Y-99200000D02*
X200700000Y-99800000D01*
X215700000Y-87400000D02*
X219500000Y-91200000D01*
D26*
%TO.N,/AO59*%
X219000000Y-29300000D02*
X219000000Y-33100202D01*
X219000000Y-33100202D02*
X218050000Y-34050202D01*
X219400000Y-28900000D02*
X219000000Y-29300000D01*
X219400000Y-8600000D02*
X219400000Y-28900000D01*
D29*
%TO.N,/AI60*%
X218700000Y-93400000D02*
X217500000Y-94600000D01*
X200682842Y-94600000D02*
X199900000Y-95382842D01*
X215949847Y-31850153D02*
X214900000Y-32900000D01*
X214900000Y-32900000D02*
X214900000Y-70600000D01*
X214900000Y-70600000D02*
X215500000Y-71200000D01*
X215500000Y-71200000D02*
X215500000Y-87533274D01*
X215949847Y-30617106D02*
X215949847Y-31850153D01*
X199900000Y-99900000D02*
X200900000Y-100900000D01*
X218700000Y-92468629D02*
X218700000Y-93400000D01*
X199900000Y-95382842D02*
X199900000Y-99900000D01*
X219300000Y-91333274D02*
X219300000Y-91868629D01*
X215500000Y-87533274D02*
X219300000Y-91333274D01*
X217500000Y-94600000D02*
X200682842Y-94600000D01*
X219300000Y-91868629D02*
X218700000Y-92468629D01*
%TO.N,/AI58*%
X219700000Y-93000000D02*
X217700000Y-95000000D01*
X219700000Y-91000000D02*
X219700000Y-93000000D01*
X201000000Y-95000000D02*
X217700000Y-95000000D01*
X200500000Y-95500000D02*
X200500000Y-99000000D01*
X215900000Y-85300000D02*
X215900000Y-87200000D01*
X200500000Y-99000000D02*
X200600000Y-99100000D01*
X216312500Y-84887500D02*
X215900000Y-85300000D01*
X201000000Y-95000000D02*
X200500000Y-95500000D01*
X215900000Y-87200000D02*
X219700000Y-91000000D01*
X216312500Y-68100000D02*
X216312500Y-84887500D01*
D26*
%TO.N,/AO58*%
X217500000Y-23200000D02*
X217500000Y-28897918D01*
X218050001Y-49247919D02*
X218050001Y-50052081D01*
X218050001Y-50052081D02*
X217846998Y-50255084D01*
X217100000Y-48297918D02*
X218050001Y-49247919D01*
X217100000Y-33200000D02*
X217100000Y-48297918D01*
X218550001Y-16547919D02*
X218550001Y-22149999D01*
X217850001Y-29247919D02*
X217850001Y-32449999D01*
X217846998Y-50255084D02*
X217846998Y-53090502D01*
X217500000Y-28897918D02*
X217850001Y-29247919D01*
X217850001Y-32449999D02*
X217100000Y-33200000D01*
X217500000Y-8000000D02*
X217500000Y-15497918D01*
X218550001Y-22149999D02*
X217500000Y-23200000D01*
X217500000Y-15497918D02*
X218550001Y-16547919D01*
D29*
%TO.N,/AI61*%
X203600000Y-97800000D02*
X203600000Y-99700000D01*
X205200000Y-96200000D02*
X203600000Y-97800000D01*
X224200000Y-97700000D02*
X222700000Y-96200000D01*
X222700000Y-96200000D02*
X205200000Y-96200000D01*
X224200000Y-106200000D02*
X224200000Y-97700000D01*
D28*
%TO.N,/AO61*%
X225000000Y-11685786D02*
X220325000Y-16360786D01*
X223400000Y-88761511D02*
X225765170Y-91126681D01*
X220100000Y-39700000D02*
X220100000Y-46939101D01*
X221600000Y-38200000D02*
X220100000Y-39700000D01*
X222600000Y-30600000D02*
X221600000Y-31600000D01*
X220325000Y-16360786D02*
X220325000Y-24725000D01*
X222600000Y-27000000D02*
X222600000Y-30600000D01*
X220475000Y-59337564D02*
X220475000Y-61362436D01*
X220300000Y-61537436D02*
X220300000Y-66500000D01*
X220100000Y-46939101D02*
X221200000Y-48039101D01*
X220300000Y-66500000D02*
X223400000Y-69600000D01*
X223400000Y-69600000D02*
X223400000Y-88761511D01*
X225000000Y-8000000D02*
X225000000Y-11685786D01*
X220325000Y-24725000D02*
X222600000Y-27000000D01*
X221200000Y-58612564D02*
X220475000Y-59337564D01*
X221200000Y-48039101D02*
X221200000Y-58612564D01*
X221600000Y-31600000D02*
X221600000Y-38200000D01*
X220475000Y-61362436D02*
X220300000Y-61537436D01*
D29*
%TO.N,/AI63*%
X224800000Y-85100000D02*
X226900000Y-87200000D01*
X224200000Y-68600000D02*
X224800000Y-69200000D01*
X226900000Y-91600000D02*
X222900000Y-95600000D01*
X219800000Y-95600000D02*
X219700000Y-95500000D01*
X222900000Y-95600000D02*
X219800000Y-95600000D01*
X224200000Y-68200000D02*
X224200000Y-68600000D01*
X201000000Y-96700000D02*
X201400000Y-97100000D01*
X201300000Y-95500000D02*
X201000000Y-95800000D01*
X201000000Y-95800000D02*
X201000000Y-96700000D01*
X219700000Y-95500000D02*
X201300000Y-95500000D01*
X226900000Y-87200000D02*
X226900000Y-91600000D01*
X224800000Y-69200000D02*
X224800000Y-85100000D01*
D28*
%TO.N,/AO63*%
X225800000Y-52700000D02*
X225800000Y-53000000D01*
X230000000Y-8000000D02*
X230000000Y-10300000D01*
X231700000Y-12000000D02*
X231700000Y-26600000D01*
X231700000Y-26600000D02*
X225000000Y-33300000D01*
X225000000Y-33300000D02*
X225000000Y-51900000D01*
X225800000Y-53000000D02*
X225900000Y-53100000D01*
X225000000Y-51900000D02*
X225800000Y-52700000D01*
X230000000Y-10300000D02*
X231700000Y-12000000D01*
D29*
%TO.N,/AI64*%
X223925000Y-55725000D02*
X227600000Y-59400000D01*
X227600000Y-65900000D02*
X227100000Y-66400000D01*
X227600000Y-59400000D02*
X227600000Y-65900000D01*
X227100000Y-66400000D02*
X227100000Y-94100000D01*
X223925000Y-49118315D02*
X223925000Y-55725000D01*
X227100000Y-94100000D02*
X225264124Y-95935876D01*
X225264124Y-95935876D02*
X203464124Y-95935876D01*
D28*
%TO.N,/AO64*%
X233250000Y-26787500D02*
X226075000Y-33962500D01*
X233250000Y-8750000D02*
X233250000Y-26787500D01*
X232500000Y-8000000D02*
X233250000Y-8750000D01*
D29*
%TO.N,/AI62*%
X200800000Y-97800000D02*
X201300000Y-98300000D01*
X200800000Y-95600000D02*
X200800000Y-97800000D01*
X222900000Y-95300000D02*
X201100000Y-95300000D01*
X224851056Y-87151056D02*
X226700000Y-89000000D01*
X201100000Y-95300000D02*
X200800000Y-95600000D01*
X226700000Y-89000000D02*
X226700000Y-91500000D01*
X226700000Y-91500000D02*
X222900000Y-95300000D01*
X224475000Y-87151056D02*
X224851056Y-87151056D01*
D28*
%TO.N,/AO62*%
X225937500Y-62004758D02*
X225937500Y-72000000D01*
X222850000Y-31764214D02*
X222850000Y-58917258D01*
X222850000Y-58917258D02*
X225937500Y-62004758D01*
X223600001Y-31014213D02*
X222850000Y-31764214D01*
X227500000Y-10600000D02*
X223600001Y-14499999D01*
X223600001Y-14499999D02*
X223600001Y-31014213D01*
X227500000Y-8000000D02*
X227500000Y-10600000D01*
D26*
%TO.N,/SR_SHCP*%
X204600000Y-152500000D02*
X198331371Y-152500000D01*
X197731371Y-151900000D02*
X197601803Y-151900000D01*
X198331371Y-152500000D02*
X197731371Y-151900000D01*
X170200000Y-105800000D02*
X174900000Y-105800000D01*
X197601803Y-151900000D02*
X196801803Y-151100000D01*
X196801803Y-151100000D02*
X187000000Y-151100000D01*
X167800000Y-108200000D02*
X170200000Y-105800000D01*
X187000000Y-151100000D02*
X167800000Y-131900000D01*
X208700000Y-156600000D02*
X204600000Y-152500000D01*
X174900000Y-105800000D02*
X175300000Y-106200000D01*
X167800000Y-131900000D02*
X167800000Y-108200000D01*
X210400000Y-156600000D02*
X208700000Y-156600000D01*
%TO.N,/SR_D1*%
X161875736Y-155100000D02*
X203125305Y-155100000D01*
X210769149Y-162474645D02*
X210769149Y-162522974D01*
X210100000Y-162074695D02*
X210100000Y-162226038D01*
X210100000Y-162226038D02*
X210333116Y-162459154D01*
X203125305Y-155100000D02*
X210100000Y-162074695D01*
X210753658Y-162459154D02*
X210769149Y-162474645D01*
X133800000Y-109300000D02*
X133800000Y-127024264D01*
X210333116Y-162459154D02*
X210753658Y-162459154D01*
X133800000Y-127024264D02*
X161875736Y-155100000D01*
D28*
%TO.N,Net-(U12-DI(IO0))*%
X206195288Y-166945288D02*
X204995676Y-166945288D01*
X207000000Y-167750000D02*
X206195288Y-166945288D01*
%TO.N,Net-(U12-CLK)*%
X206029442Y-167750000D02*
X206104442Y-167675000D01*
X204350000Y-167750000D02*
X206029442Y-167750000D01*
%TO.N,Net-(U12-DO(IO1))*%
X208750000Y-166700000D02*
X208750000Y-168475000D01*
D30*
%TO.N,/BAT_MID*%
X184100000Y-138900000D02*
X187800000Y-138900000D01*
D32*
%TO.N,Net-(BT3-+)*%
X179900000Y-123500000D02*
X186300000Y-117100000D01*
X173000000Y-123500000D02*
X179900000Y-123500000D01*
D26*
%TO.N,/SD_DAT3*%
X201393859Y-159936912D02*
X201424920Y-159967973D01*
X104850000Y-158100000D02*
X106686912Y-159936912D01*
X106686912Y-159936912D02*
X201393859Y-159936912D01*
%TO.N,/SD_DAT1*%
X107051472Y-157900000D02*
X200225265Y-157900000D01*
X200225265Y-157900000D02*
X200599848Y-158274583D01*
X99100000Y-157350000D02*
X106501472Y-157350000D01*
X200599848Y-158274583D02*
X201015060Y-158274583D01*
X98500000Y-157950000D02*
X99100000Y-157350000D01*
X106501472Y-157350000D02*
X107051472Y-157900000D01*
%TO.N,/SD_CLK*%
X114616852Y-162175000D02*
X114516854Y-162274998D01*
X201379863Y-160680015D02*
X199884878Y-162175000D01*
X199884878Y-162175000D02*
X114616852Y-162175000D01*
X114516854Y-162274998D02*
X105974998Y-162274998D01*
X105974998Y-162274998D02*
X101900000Y-158200000D01*
%TO.N,/SD_DAT2*%
X201337913Y-159436912D02*
X201418338Y-159436912D01*
X200101001Y-158200000D02*
X201337913Y-159436912D01*
X106200000Y-158000000D02*
X106400000Y-158200000D01*
X106400000Y-158200000D02*
X200101001Y-158200000D01*
%TO.N,/K_CLK*%
X204775736Y-152200000D02*
X206875736Y-154300000D01*
X193900000Y-149900000D02*
X198600000Y-149900000D01*
X200900000Y-152200000D02*
X204775736Y-152200000D01*
X206875736Y-154300000D02*
X207975736Y-154300000D01*
X208363564Y-154687828D02*
X208363564Y-154947249D01*
X207975736Y-154300000D02*
X208363564Y-154687828D01*
X192400000Y-148400000D02*
X193900000Y-149900000D01*
X192400000Y-114800000D02*
X192400000Y-148400000D01*
X198600000Y-149900000D02*
X200900000Y-152200000D01*
%TO.N,/K_RST*%
X208896446Y-154796446D02*
X208100000Y-154000000D01*
X201200000Y-151900000D02*
X198900000Y-149600000D01*
X208896446Y-154996446D02*
X208896446Y-154796446D01*
X194075736Y-149600000D02*
X192700000Y-148224264D01*
X204900000Y-151900000D02*
X201200000Y-151900000D01*
X207000000Y-154000000D02*
X204900000Y-151900000D01*
X198900000Y-149600000D02*
X194075736Y-149600000D01*
X192700000Y-115200000D02*
X193051237Y-114848763D01*
X208100000Y-154000000D02*
X207000000Y-154000000D01*
X192700000Y-148224264D02*
X192700000Y-115200000D01*
X193051237Y-114848763D02*
X194640615Y-114848763D01*
D29*
%TO.N,/Kathode/LAST_COUNT_RESET*%
X106500000Y-108900000D02*
X106500000Y-76500000D01*
X104700000Y-74700000D02*
X104700000Y-64400000D01*
X106700000Y-109100000D02*
X106500000Y-108900000D01*
X104700000Y-64400000D02*
X107600000Y-61500000D01*
X106500000Y-76500000D02*
X104700000Y-74700000D01*
D28*
%TO.N,/Kathode/OUT_K0*%
X80947056Y-158750000D02*
X76450000Y-163247056D01*
X76450000Y-165550000D02*
X72750000Y-169250000D01*
X86250000Y-158750000D02*
X80947056Y-158750000D01*
X76450000Y-163247056D02*
X76450000Y-165550000D01*
X72750000Y-169250000D02*
X71850000Y-169250000D01*
%TO.N,/Kathode/OUT_K8*%
X73766870Y-147784160D02*
X74250000Y-147301030D01*
X72335966Y-149250000D02*
X73766870Y-147819096D01*
X74250000Y-147301030D02*
X74250000Y-146750000D01*
X73766870Y-147819096D02*
X73766870Y-147784160D01*
X74250000Y-146750000D02*
X77236902Y-143763098D01*
X77236902Y-143763098D02*
X77236902Y-143741605D01*
%TO.N,/Kathode/OUT_K16*%
X75957478Y-129250000D02*
X77250000Y-127957478D01*
X71850000Y-129250000D02*
X75957478Y-129250000D01*
%TO.N,/Kathode/OUT_K24*%
X74723159Y-109250000D02*
X71850000Y-109250000D01*
X76570476Y-111097317D02*
X74723159Y-109250000D01*
%TO.N,/Kathode/OUT_K32*%
X76425000Y-92622056D02*
X73052944Y-89250000D01*
X76425000Y-93929847D02*
X76425000Y-92622056D01*
X73052944Y-89250000D02*
X71850000Y-89250000D01*
%TO.N,/Kathode/OUT_K40*%
X77084042Y-71421804D02*
X74912238Y-69250000D01*
X74912238Y-69250000D02*
X71850000Y-69250000D01*
%TO.N,/Kathode/OUT_K48*%
X76555768Y-54850304D02*
X76555768Y-53469802D01*
X76555768Y-53469802D02*
X72335966Y-49250000D01*
%TO.N,/Kathode/OUT_K56*%
X72052587Y-29250000D02*
X76500000Y-33697413D01*
X76500000Y-33697413D02*
X76500000Y-34390910D01*
X76500000Y-34390910D02*
X79037865Y-36928775D01*
X79037865Y-36928775D02*
X80962405Y-36928775D01*
X80962405Y-36928775D02*
X86083630Y-42050000D01*
%TO.N,/Kathode/OUT_K1*%
X86250000Y-154750000D02*
X85720172Y-155279828D01*
X85720172Y-155279828D02*
X82720172Y-155279828D01*
X82720172Y-155279828D02*
X75250000Y-162750000D01*
X75250000Y-162750000D02*
X75250000Y-164750000D01*
X75250000Y-164750000D02*
X73250000Y-166750000D01*
X73250000Y-166750000D02*
X71850000Y-166750000D01*
%TO.N,/Kathode/OUT_K9*%
X78269276Y-139974784D02*
X75886902Y-142357158D01*
X82722272Y-139974784D02*
X78269276Y-139974784D01*
X86250000Y-138750000D02*
X83947056Y-138750000D01*
X75886902Y-142357158D02*
X75886902Y-143203909D01*
X75886902Y-143203909D02*
X72340811Y-146750000D01*
X83947056Y-138750000D02*
X82722272Y-139974784D01*
%TO.N,/Kathode/OUT_K17*%
X86250000Y-122750000D02*
X84425000Y-124575000D01*
X84425000Y-124978984D02*
X83171363Y-126232621D01*
X84425000Y-124575000D02*
X84425000Y-124978984D01*
X83171363Y-126232621D02*
X72367379Y-126232621D01*
%TO.N,/Kathode/OUT_K25*%
X77250000Y-108250000D02*
X78625960Y-106874040D01*
X76250000Y-108250000D02*
X77250000Y-108250000D01*
X87840174Y-106874040D02*
X88310761Y-106403453D01*
X71850000Y-106750000D02*
X74750000Y-106750000D01*
X74750000Y-106750000D02*
X76250000Y-108250000D01*
X78625960Y-106874040D02*
X87840174Y-106874040D01*
%TO.N,/Kathode/OUT_K33*%
X72801235Y-86750000D02*
X71850000Y-86750000D01*
X76347780Y-90296545D02*
X72801235Y-86750000D01*
%TO.N,/Kathode/OUT_K41*%
X85250815Y-70600000D02*
X86150815Y-69700000D01*
X83780673Y-70600000D02*
X85250815Y-70600000D01*
X71850000Y-66750000D02*
X74109294Y-66750000D01*
X83647793Y-70732880D02*
X83780673Y-70600000D01*
X78092174Y-70732880D02*
X83647793Y-70732880D01*
X74109294Y-66750000D02*
X78092174Y-70732880D01*
%TO.N,/Kathode/OUT_K49*%
X80309189Y-51900000D02*
X80309190Y-51900001D01*
X84832358Y-51900001D02*
X86085001Y-53152644D01*
X77485966Y-51900000D02*
X80309189Y-51900000D01*
X72335966Y-46750000D02*
X77485966Y-51900000D01*
X80309190Y-51900001D02*
X84832358Y-51900001D01*
%TO.N,/Kathode/OUT_K57*%
X77700000Y-33200357D02*
X77700000Y-33893854D01*
X74150000Y-29650357D02*
X77700000Y-33200357D01*
X72404156Y-26750000D02*
X74150000Y-28495844D01*
X79684428Y-35428775D02*
X79834428Y-35578775D01*
X74150000Y-28495844D02*
X74150000Y-29650357D01*
X79234921Y-35428775D02*
X79684428Y-35428775D01*
X77700000Y-33893854D02*
X79234921Y-35428775D01*
%TO.N,/Kathode/OUT_K2*%
X74050000Y-162252944D02*
X76650000Y-159652944D01*
X72447056Y-164250000D02*
X74050000Y-162647056D01*
X76650000Y-157739267D02*
X77417978Y-156971289D01*
X76650000Y-159652944D02*
X76650000Y-157739267D01*
X74050000Y-162647056D02*
X74050000Y-162252944D01*
%TO.N,/Kathode/OUT_K10*%
X73850000Y-142735966D02*
X73850000Y-142404312D01*
X76654312Y-139600000D02*
X76734871Y-139600000D01*
X73850000Y-142404312D02*
X76654312Y-139600000D01*
X72335966Y-144250000D02*
X73850000Y-142735966D01*
%TO.N,/Kathode/OUT_K18*%
X77250000Y-123750000D02*
X71850000Y-123750000D01*
%TO.N,/Kathode/OUT_K26*%
X74159190Y-104250000D02*
X71850000Y-104250000D01*
X76242950Y-106333760D02*
X74159190Y-104250000D01*
%TO.N,/Kathode/OUT_K34*%
X77180165Y-87383651D02*
X74046514Y-84250000D01*
X74046514Y-84250000D02*
X71850000Y-84250000D01*
%TO.N,/Kathode/OUT_K42*%
X77075000Y-67575000D02*
X73750000Y-64250000D01*
X77250000Y-67575000D02*
X77075000Y-67575000D01*
X73750000Y-64250000D02*
X71850000Y-64250000D01*
%TO.N,/Kathode/OUT_K50*%
X76250000Y-48750000D02*
X76250000Y-48542902D01*
X73832922Y-45746956D02*
X72335966Y-44250000D01*
X73832922Y-46125824D02*
X73832922Y-45746956D01*
X76250000Y-48542902D02*
X73832922Y-46125824D01*
%TO.N,/Kathode/OUT_K3*%
X75450000Y-157030078D02*
X75450000Y-159155888D01*
X77330078Y-155150000D02*
X75450000Y-157030078D01*
X83231161Y-150750000D02*
X78831161Y-155150000D01*
X75450000Y-159155888D02*
X72855888Y-161750000D01*
X72855888Y-161750000D02*
X71850000Y-161750000D01*
X86250000Y-150750000D02*
X83231161Y-150750000D01*
X78831161Y-155150000D02*
X77330078Y-155150000D01*
%TO.N,/Kathode/OUT_K11*%
X77666022Y-138250000D02*
X75835966Y-138250000D01*
X82237567Y-138762433D02*
X78178455Y-138762433D01*
X78178455Y-138762433D02*
X77666022Y-138250000D01*
X86250000Y-134750000D02*
X82237567Y-138762433D01*
X75835966Y-138250000D02*
X72335966Y-141750000D01*
%TO.N,/Kathode/OUT_K19*%
X88226431Y-118450000D02*
X79531880Y-118450000D01*
X88293561Y-118382870D02*
X88226431Y-118450000D01*
X79531880Y-118450000D02*
X76231880Y-121750000D01*
X76231880Y-121750000D02*
X71850000Y-121750000D01*
%TO.N,/Kathode/OUT_K27*%
X73431621Y-101750000D02*
X75642091Y-103960470D01*
X71850000Y-101750000D02*
X73431621Y-101750000D01*
X88251025Y-102450001D02*
X88304167Y-102396859D01*
X86733763Y-102450001D02*
X88251025Y-102450001D01*
X85223294Y-103960470D02*
X86733763Y-102450001D01*
X75642091Y-103960470D02*
X85223294Y-103960470D01*
%TO.N,/Kathode/OUT_K35*%
X75750000Y-81750000D02*
X71850000Y-81750000D01*
X77750000Y-83750000D02*
X75750000Y-81750000D01*
%TO.N,/Kathode/OUT_K43*%
X71850000Y-61750000D02*
X73499828Y-61750000D01*
X78429104Y-66679276D02*
X85010659Y-66679276D01*
X73499828Y-61750000D02*
X78429104Y-66679276D01*
X85010659Y-66679276D02*
X86186156Y-65503779D01*
%TO.N,/Kathode/OUT_K51*%
X75032922Y-45628768D02*
X76135027Y-46730873D01*
X86108086Y-49150000D02*
X86158086Y-49200000D01*
X72335966Y-41750000D02*
X75032922Y-44446956D01*
X85815075Y-49150000D02*
X86108086Y-49150000D01*
X75032922Y-44446956D02*
X75032922Y-45628768D01*
X83395948Y-46730873D02*
X85815075Y-49150000D01*
X76135027Y-46730873D02*
X83395948Y-46730873D01*
%TO.N,/Kathode/OUT_K59*%
X77700000Y-28651732D02*
X77700000Y-29806245D01*
X79343755Y-31450000D02*
X79834428Y-31450000D01*
X75850000Y-25253761D02*
X75850000Y-26801732D01*
X75850000Y-26801732D02*
X77700000Y-28651732D01*
X72346239Y-21750000D02*
X75850000Y-25253761D01*
X77700000Y-29806245D02*
X79343755Y-31450000D01*
%TO.N,/Kathode/OUT_K4*%
X76837729Y-152795101D02*
X77417978Y-152214852D01*
X77417978Y-152214852D02*
X77417978Y-152125000D01*
X74250000Y-157750000D02*
X74250000Y-156533022D01*
X76837729Y-153945293D02*
X76837729Y-152795101D01*
X71850000Y-159250000D02*
X72750000Y-159250000D01*
X72750000Y-159250000D02*
X74250000Y-157750000D01*
X74250000Y-156533022D02*
X76837729Y-153945293D01*
%TO.N,/Kathode/OUT_K12*%
X73850000Y-137735966D02*
X72335966Y-139250000D01*
X75405033Y-136094967D02*
X73850000Y-137650000D01*
X77199928Y-136094967D02*
X75405033Y-136094967D01*
X73850000Y-137650000D02*
X73850000Y-137735966D01*
%TO.N,/Kathode/OUT_K20*%
X76356269Y-119716422D02*
X71850000Y-119716422D01*
%TO.N,/Kathode/OUT_K28*%
X76295405Y-102492461D02*
X76295405Y-102704595D01*
X73052944Y-99250000D02*
X76295405Y-102492461D01*
X71850000Y-99250000D02*
X73052944Y-99250000D01*
%TO.N,/Kathode/OUT_K36*%
X76750000Y-79250000D02*
X71850000Y-79250000D01*
X77250000Y-79750000D02*
X76750000Y-79250000D01*
%TO.N,/Kathode/OUT_K44*%
X77245493Y-63586476D02*
X72909017Y-59250000D01*
X72909017Y-59250000D02*
X71850000Y-59250000D01*
%TO.N,/Kathode/OUT_K52*%
X76382922Y-43882922D02*
X73850000Y-41350000D01*
X72740848Y-39250000D02*
X71850000Y-39250000D01*
X73850000Y-40359152D02*
X72740848Y-39250000D01*
X76382922Y-45069579D02*
X76382922Y-43882922D01*
X73850000Y-41350000D02*
X73850000Y-40359152D01*
%TO.N,/Kathode/OUT_K60*%
X73850000Y-21556705D02*
X73850000Y-20744112D01*
X79940811Y-30350000D02*
X78900000Y-29309189D01*
X85150000Y-34063834D02*
X86459241Y-35373075D01*
X82950000Y-30350000D02*
X79940811Y-30350000D01*
X78900000Y-29309189D02*
X78900000Y-27951217D01*
X85150000Y-32550000D02*
X85150000Y-34063834D01*
X73850000Y-20744112D02*
X72355888Y-19250000D01*
X77050000Y-26101217D02*
X77050000Y-24756705D01*
X82950000Y-30350000D02*
X85150000Y-32550000D01*
X78900000Y-27951217D02*
X77050000Y-26101217D01*
X77050000Y-24756705D02*
X73850000Y-21556705D01*
%TO.N,/Kathode/OUT_K5*%
X76705078Y-150775000D02*
X79908291Y-150775000D01*
X75050000Y-152430078D02*
X76705078Y-150775000D01*
X79908291Y-150775000D02*
X83992010Y-146691281D01*
X83992010Y-146691281D02*
X86198580Y-146691281D01*
X73850000Y-154433022D02*
X75050000Y-153233022D01*
X73850000Y-155235966D02*
X73850000Y-154433022D01*
X75050000Y-153233022D02*
X75050000Y-152430078D01*
X72335966Y-156750000D02*
X73850000Y-155235966D01*
%TO.N,/Kathode/OUT_K13*%
X81193693Y-134744967D02*
X73855033Y-134744967D01*
X73855033Y-134744967D02*
X71850000Y-136750000D01*
X86250000Y-130750000D02*
X85188660Y-130750000D01*
X85188660Y-130750000D02*
X81193693Y-134744967D01*
%TO.N,/Kathode/OUT_K21*%
X77413502Y-116750000D02*
X71850000Y-116750000D01*
X79524493Y-114639009D02*
X77413502Y-116750000D01*
X88269648Y-114305415D02*
X87936054Y-114639009D01*
X87936054Y-114639009D02*
X79524493Y-114639009D01*
%TO.N,/Kathode/OUT_K29*%
X76104004Y-101004004D02*
X71850000Y-96750000D01*
X88125063Y-98450000D02*
X79558009Y-98450000D01*
X88269648Y-98305415D02*
X88125063Y-98450000D01*
X77004005Y-101004004D02*
X76104004Y-101004004D01*
X79558009Y-98450000D02*
X77004005Y-101004004D01*
%TO.N,/Kathode/OUT_K37*%
X86250000Y-77750000D02*
X84575830Y-76075830D01*
X78473927Y-76075830D02*
X77799757Y-76750000D01*
X77799757Y-76750000D02*
X71850000Y-76750000D01*
X84575830Y-76075830D02*
X78473927Y-76075830D01*
%TO.N,/Kathode/OUT_K45*%
X77518197Y-62356495D02*
X85390356Y-62356495D01*
X85390356Y-62356495D02*
X86146851Y-61600000D01*
X71911702Y-56750000D02*
X77518197Y-62356495D01*
%TO.N,/Kathode/OUT_K53*%
X76300000Y-41247654D02*
X74488781Y-39436435D01*
X76300000Y-41565748D02*
X76300000Y-41247654D01*
X74488781Y-39436435D02*
X74488781Y-38902815D01*
X74488781Y-38902815D02*
X72335966Y-36750000D01*
%TO.N,/Kathode/OUT_K61*%
X78405029Y-25759190D02*
X78405029Y-24414678D01*
X79949665Y-26929675D02*
X79575514Y-26929675D01*
X75050000Y-19050000D02*
X72750000Y-16750000D01*
X78405029Y-24414678D02*
X75050000Y-21059649D01*
X79575514Y-26929675D02*
X78405029Y-25759190D01*
X72750000Y-16750000D02*
X71850000Y-16750000D01*
X75050000Y-21059649D02*
X75050000Y-19050000D01*
%TO.N,/Kathode/OUT_K6*%
X73850000Y-151933022D02*
X76166870Y-149616152D01*
X76166870Y-148778272D02*
X77136703Y-147808439D01*
X76166870Y-149616152D02*
X76166870Y-148778272D01*
X77136703Y-147808439D02*
X77595842Y-147808439D01*
X73850000Y-152735966D02*
X73850000Y-151933022D01*
X72335966Y-154250000D02*
X73850000Y-152735966D01*
%TO.N,/Kathode/OUT_K14*%
X74413292Y-132172674D02*
X72335966Y-134250000D01*
X77222850Y-132172674D02*
X74413292Y-132172674D01*
%TO.N,/Kathode/OUT_K22*%
X75750000Y-114250000D02*
X71850000Y-114250000D01*
X76750000Y-115250000D02*
X75750000Y-114250000D01*
%TO.N,/Kathode/OUT_K38*%
X74340811Y-74250000D02*
X71850000Y-74250000D01*
X75394153Y-75303342D02*
X74340811Y-74250000D01*
X77225303Y-75303342D02*
X75394153Y-75303342D01*
%TO.N,/Kathode/OUT_K46*%
X77749488Y-59599733D02*
X77698952Y-59599733D01*
X77698952Y-59599733D02*
X72349219Y-54250000D01*
%TO.N,/Kathode/OUT_K54*%
X83592358Y-44490276D02*
X84995547Y-45893465D01*
X75688781Y-38027079D02*
X75688781Y-39284797D01*
X84995547Y-45893465D02*
X86002513Y-45893465D01*
X75688781Y-39284797D02*
X80894260Y-44490276D01*
X80894260Y-44490276D02*
X83592358Y-44490276D01*
X71911702Y-34250000D02*
X75688781Y-38027079D01*
%TO.N,/Kathode/OUT_K7*%
X78373473Y-144874613D02*
X74966870Y-148281216D01*
X74966870Y-149119096D02*
X72335966Y-151750000D01*
X74966870Y-148281216D02*
X74966870Y-149119096D01*
X86250000Y-142750000D02*
X80093575Y-142750000D01*
X80093575Y-142750000D02*
X78373473Y-144470102D01*
X78373473Y-144470102D02*
X78373473Y-144874613D01*
%TO.N,/Kathode/OUT_K15*%
X83678957Y-127018099D02*
X80097056Y-130600000D01*
X72750000Y-131750000D02*
X71850000Y-131750000D01*
X86176376Y-127018099D02*
X83678957Y-127018099D01*
X73900000Y-130600000D02*
X72750000Y-131750000D01*
X80097056Y-130600000D02*
X73900000Y-130600000D01*
%TO.N,/Kathode/OUT_K23*%
X83521232Y-111974784D02*
X78025216Y-111974784D01*
X73033283Y-112447317D02*
X72335966Y-111750000D01*
X78025216Y-111974784D02*
X77552683Y-112447317D01*
X77552683Y-112447317D02*
X73033283Y-112447317D01*
X88269648Y-110305415D02*
X85190601Y-110305415D01*
X85190601Y-110305415D02*
X83521232Y-111974784D01*
%TO.N,/Kathode/OUT_K31*%
X76250000Y-95750000D02*
X79250000Y-95750000D01*
X72335966Y-91750000D02*
X76250000Y-95664034D01*
X76250000Y-95664034D02*
X76250000Y-95750000D01*
X80603863Y-94396137D02*
X88158154Y-94396137D01*
X88158154Y-94396137D02*
X88254291Y-94300000D01*
X79250000Y-95750000D02*
X80603863Y-94396137D01*
%TO.N,/Kathode/OUT_K39*%
X79696141Y-72425000D02*
X85211156Y-72425000D01*
X79596141Y-72525000D02*
X79696141Y-72425000D01*
X72625000Y-72525000D02*
X79596141Y-72525000D01*
X71850000Y-71750000D02*
X72625000Y-72525000D01*
X85211156Y-72425000D02*
X86186156Y-73400000D01*
%TO.N,/Kathode/OUT_K47*%
X72335966Y-51750000D02*
X74969548Y-54383582D01*
X85591633Y-58500141D02*
X85991774Y-58100000D01*
X78646275Y-58850000D02*
X83522793Y-58850000D01*
X74969548Y-54383582D02*
X74969548Y-55173273D01*
X83872652Y-58500141D02*
X85591633Y-58500141D01*
X74969548Y-55173273D02*
X78646275Y-58850000D01*
X83522793Y-58850000D02*
X83872652Y-58500141D01*
%TO.N,/Kathode/OUT_K55*%
X76888781Y-36302815D02*
X72335966Y-31750000D01*
X76888781Y-38442323D02*
X76888781Y-36302815D01*
X79750000Y-39250000D02*
X77696458Y-39250000D01*
X77696458Y-39250000D02*
X76888781Y-38442323D01*
D29*
%TO.N,/Kathode/K0*%
X96900000Y-124200000D02*
X96600000Y-124500000D01*
X96600000Y-124500000D02*
X96600000Y-133700000D01*
X96600000Y-133700000D02*
X96200000Y-134100000D01*
%TO.N,/Kathode/K8*%
X85400000Y-141200000D02*
X87700000Y-138900000D01*
X87700000Y-138900000D02*
X89500000Y-138900000D01*
X89500000Y-138900000D02*
X90500000Y-139900000D01*
X90500000Y-139900000D02*
X94525000Y-139900000D01*
%TO.N,/Kathode/K16*%
X87600000Y-123400000D02*
X94675000Y-123400000D01*
X85500000Y-125500000D02*
X87600000Y-123400000D01*
%TO.N,/Kathode/K24*%
X88300000Y-109100000D02*
X88238135Y-109161865D01*
X97100000Y-101700000D02*
X95400000Y-101700000D01*
X99700000Y-107900000D02*
X97600000Y-105800000D01*
X88300000Y-108800000D02*
X95400000Y-101700000D01*
X97600000Y-102200000D02*
X97100000Y-101700000D01*
X97600000Y-105800000D02*
X97600000Y-102200000D01*
X85061865Y-109161865D02*
X85000000Y-109100000D01*
X88238135Y-109161865D02*
X85061865Y-109161865D01*
X88300000Y-108800000D02*
X88300000Y-109100000D01*
%TO.N,/Kathode/K32*%
X84900000Y-93200000D02*
X85000000Y-93300000D01*
X85000000Y-93300000D02*
X98600000Y-93300000D01*
X98600000Y-93300000D02*
X102525000Y-97225000D01*
%TO.N,/Kathode/K40*%
X93400000Y-68700000D02*
X85200000Y-68700000D01*
X96900000Y-72200000D02*
X97600000Y-72200000D01*
X93400000Y-68700000D02*
X96900000Y-72200000D01*
X103300000Y-86400000D02*
X101000000Y-84100000D01*
X101000000Y-75600000D02*
X97600000Y-72200000D01*
X101000000Y-84100000D02*
X101000000Y-75600000D01*
%TO.N,/Kathode/K48*%
X102925000Y-75255858D02*
X102925000Y-75445000D01*
X94610000Y-57810000D02*
X94610000Y-66940858D01*
X84900000Y-54200000D02*
X87100000Y-54200000D01*
X93100000Y-56300000D02*
X94610000Y-57810000D01*
X90100000Y-56300000D02*
X93100000Y-56300000D01*
X90000000Y-56200000D02*
X90100000Y-56300000D01*
X89100000Y-56200000D02*
X90000000Y-56200000D01*
X87100000Y-54200000D02*
X89100000Y-56200000D01*
X94610000Y-66940858D02*
X102925000Y-75255858D01*
%TO.N,/Kathode/K56*%
X103600000Y-63616906D02*
X102725000Y-64491906D01*
X95317157Y-54100000D02*
X95500001Y-54100000D01*
X103600000Y-62900000D02*
X103600000Y-63616906D01*
X95500001Y-54100000D02*
X102100000Y-60699999D01*
X102100000Y-61400000D02*
X103600000Y-62900000D01*
X102100000Y-60699999D02*
X102100000Y-61400000D01*
X93100000Y-51882843D02*
X95317157Y-54100000D01*
X94100000Y-42900000D02*
X93100000Y-43900000D01*
X93100000Y-43900000D02*
X93100000Y-51882843D01*
%TO.N,/Kathode/K1*%
X96400000Y-133100000D02*
X96400000Y-123400000D01*
X96000000Y-133500000D02*
X96400000Y-133100000D01*
X96400000Y-123400000D02*
X96900000Y-122900000D01*
%TO.N,/Kathode/K9*%
X95900000Y-115100000D02*
X95900000Y-115600000D01*
X96000000Y-117600000D02*
X96000000Y-119651472D01*
X96600000Y-120251472D02*
X96600000Y-121200000D01*
X96200000Y-126900000D02*
X94300000Y-128800000D01*
X96200000Y-117400000D02*
X96000000Y-117600000D01*
X95900000Y-115600000D02*
X96200000Y-115900000D01*
X96200000Y-121600000D02*
X96200000Y-126900000D01*
X96000000Y-119651472D02*
X96600000Y-120251472D01*
X94300000Y-128800000D02*
X94600000Y-128800000D01*
X96600000Y-121200000D02*
X96200000Y-121600000D01*
X96200000Y-115900000D02*
X96200000Y-117400000D01*
%TO.N,/Kathode/K17*%
X94650000Y-118103248D02*
X94650000Y-118496752D01*
X96800000Y-102300000D02*
X94800000Y-104300000D01*
X94800000Y-104300000D02*
X94800000Y-117953248D01*
X94800000Y-118800000D02*
X93600000Y-120000000D01*
X94800000Y-118646752D02*
X94800000Y-118800000D01*
X94650000Y-118496752D02*
X94800000Y-118646752D01*
X94800000Y-117953248D02*
X94650000Y-118103248D01*
%TO.N,/Kathode/K25*%
X99400000Y-89700000D02*
X98700000Y-89700000D01*
X98700000Y-89700000D02*
X95600000Y-92800000D01*
%TO.N,/Kathode/K33*%
X86465684Y-79500000D02*
X92400000Y-79500000D01*
X94200000Y-81300000D02*
X92400000Y-79500000D01*
X85632842Y-80332842D02*
X85632842Y-88867158D01*
X85632842Y-88867158D02*
X85000000Y-89500000D01*
X86465684Y-79500000D02*
X85632842Y-80332842D01*
%TO.N,/Kathode/K57*%
X95700000Y-39700000D02*
X95700000Y-45100000D01*
X95700000Y-45100000D02*
X95500000Y-45300000D01*
X95900000Y-38000000D02*
X95300000Y-38600000D01*
X84100000Y-33400000D02*
X84100000Y-34428048D01*
X95300000Y-38600000D02*
X95300000Y-39300000D01*
X95300000Y-36400000D02*
X95900000Y-37000000D01*
X86071952Y-36400000D02*
X95300000Y-36400000D01*
X84100000Y-34428048D02*
X86071952Y-36400000D01*
X95300000Y-39300000D02*
X95700000Y-39700000D01*
X95900000Y-37000000D02*
X95900000Y-38000000D01*
%TO.N,/Kathode/K2*%
X90301188Y-151998812D02*
X95600000Y-146700000D01*
X90301188Y-151998812D02*
X85201188Y-151998812D01*
X95600000Y-128200000D02*
X95600000Y-146700000D01*
X85201188Y-151998812D02*
X84500000Y-152700000D01*
%TO.N,/Kathode/K10*%
X95800000Y-116400000D02*
X95800000Y-119734314D01*
X96000000Y-121500000D02*
X96000000Y-126800000D01*
X95700000Y-116300000D02*
X95800000Y-116400000D01*
X95800000Y-119734314D02*
X96400000Y-120334314D01*
X96000000Y-126800000D02*
X85400000Y-137400000D01*
X96400000Y-121100000D02*
X96000000Y-121500000D01*
X96400000Y-120334314D02*
X96400000Y-121100000D01*
%TO.N,/Kathode/K18*%
X94400000Y-106600000D02*
X94400000Y-118300000D01*
X91300000Y-121400000D02*
X84700000Y-121400000D01*
X94400000Y-118300000D02*
X91300000Y-121400000D01*
%TO.N,/Kathode/K26*%
X99800000Y-100500000D02*
X92800000Y-100500000D01*
X84200000Y-105500000D02*
X84200000Y-105400000D01*
X87300000Y-106000000D02*
X84700000Y-106000000D01*
X84700000Y-106000000D02*
X84200000Y-105500000D01*
X92800000Y-100500000D02*
X87300000Y-106000000D01*
%TO.N,/Kathode/K34*%
X85200000Y-85400000D02*
X85000000Y-85600000D01*
X85200000Y-80482842D02*
X86482842Y-79200000D01*
X85200000Y-80482842D02*
X85200000Y-85400000D01*
X86482842Y-79200000D02*
X93100000Y-79200000D01*
X95600000Y-81700000D02*
X93100000Y-79200000D01*
%TO.N,/Kathode/K42*%
X96300000Y-70000000D02*
X96200000Y-69900000D01*
X93900000Y-67200000D02*
X93900000Y-65200000D01*
X93900000Y-65200000D02*
X93300000Y-64600000D01*
X90803779Y-64503779D02*
X85096221Y-64503779D01*
X93300000Y-64600000D02*
X90900000Y-64600000D01*
X93900000Y-67200000D02*
X96200000Y-69500000D01*
X85096221Y-64503779D02*
X84600000Y-65000000D01*
X96200000Y-69900000D02*
X96200000Y-69500000D01*
X90900000Y-64600000D02*
X90803779Y-64503779D01*
%TO.N,/Kathode/K50*%
X94400000Y-55400000D02*
X94700000Y-55400000D01*
X84900000Y-50200000D02*
X89200000Y-50200000D01*
X94700000Y-55400000D02*
X95055350Y-55755350D01*
X95055350Y-58921472D02*
X95285000Y-59151122D01*
X95055350Y-55755350D02*
X95055350Y-58921472D01*
X89200000Y-50200000D02*
X94400000Y-55400000D01*
%TO.N,/Kathode/K58*%
X95700000Y-38925000D02*
X95700000Y-39000000D01*
X95700000Y-39000000D02*
X95900000Y-39200000D01*
X95800000Y-48000000D02*
X95700000Y-48000000D01*
X95900000Y-47900000D02*
X95800000Y-48000000D01*
X95900000Y-39200000D02*
X95900000Y-47900000D01*
%TO.N,/Kathode/K3*%
X98500000Y-129900000D02*
X99200000Y-129200000D01*
X98500000Y-131800000D02*
X98500000Y-129900000D01*
%TO.N,/Kathode/K35*%
X96000000Y-81400000D02*
X93600000Y-79000000D01*
X96000000Y-84100000D02*
X96000000Y-81400000D01*
X86400000Y-79000000D02*
X84400000Y-81000000D01*
X93600000Y-79000000D02*
X86400000Y-79000000D01*
X96700000Y-84800000D02*
X96000000Y-84100000D01*
%TO.N,/Kathode/K51*%
X94200000Y-48600000D02*
X94200000Y-52400000D01*
X95400000Y-63100000D02*
X95400000Y-59707874D01*
X95530350Y-55691226D02*
X94114124Y-54275000D01*
X95760000Y-59347874D02*
X95760000Y-58954370D01*
X95530350Y-58724720D02*
X95530350Y-55691226D01*
X95760000Y-58954370D02*
X95530350Y-58724720D01*
X93900000Y-48300000D02*
X94200000Y-48600000D01*
X95400000Y-59707874D02*
X95760000Y-59347874D01*
%TO.N,/Kathode/K59*%
X96100000Y-31182842D02*
X96100000Y-51300000D01*
X96100000Y-51300000D02*
X96700000Y-51900000D01*
X85300000Y-28800000D02*
X93700000Y-28800000D01*
X93700000Y-28800000D02*
X94500000Y-29600000D01*
X94517158Y-29600000D02*
X96100000Y-31182842D01*
X94500000Y-29600000D02*
X94517158Y-29600000D01*
%TO.N,/Kathode/K4*%
X86850000Y-147450000D02*
X85000000Y-149300000D01*
X93850000Y-147450000D02*
X86850000Y-147450000D01*
%TO.N,/Kathode/K12*%
X95800000Y-120700000D02*
X95800000Y-126717158D01*
X91517158Y-131000000D02*
X87414214Y-131000000D01*
X95800000Y-126717158D02*
X91517158Y-131000000D01*
X96000000Y-120500000D02*
X95800000Y-120700000D01*
X85314214Y-133100000D02*
X84900000Y-133100000D01*
X87414214Y-131000000D02*
X85314214Y-133100000D01*
%TO.N,/Kathode/K20*%
X86400000Y-115600000D02*
X85100000Y-116900000D01*
X93600000Y-115600000D02*
X86400000Y-115600000D01*
%TO.N,/Kathode/K28*%
X100286827Y-100100000D02*
X103025000Y-97361827D01*
X103025000Y-97361827D02*
X103025000Y-96661827D01*
X103025000Y-96661827D02*
X102731055Y-96367882D01*
X102731055Y-96367882D02*
X102731055Y-96262427D01*
X89200000Y-100100000D02*
X100286827Y-100100000D01*
X87700000Y-101600000D02*
X89200000Y-100100000D01*
X84900000Y-101600000D02*
X87700000Y-101600000D01*
X84600000Y-101300000D02*
X84900000Y-101600000D01*
%TO.N,/Kathode/K36*%
X96200000Y-82200000D02*
X96200000Y-80700000D01*
X102100000Y-85900000D02*
X99834314Y-85900000D01*
X96200000Y-80700000D02*
X94300000Y-78800000D01*
X96300000Y-82365686D02*
X96300000Y-82300000D01*
X99834314Y-85900000D02*
X96300000Y-82365686D01*
X85125000Y-78800000D02*
X84250000Y-77925000D01*
X96300000Y-82300000D02*
X96200000Y-82200000D01*
X94300000Y-78800000D02*
X85125000Y-78800000D01*
%TO.N,/Kathode/K44*%
X94200000Y-67200000D02*
X94200000Y-61800000D01*
X85100000Y-60600000D02*
X93000000Y-60600000D01*
X97034314Y-72000000D02*
X99100000Y-72000000D01*
X85100000Y-60600000D02*
X84700000Y-61000000D01*
X96700000Y-71665686D02*
X96700000Y-69700000D01*
X99100000Y-72000000D02*
X102000000Y-74900000D01*
X102000000Y-75200000D02*
X102000000Y-74900000D01*
X94200000Y-61800000D02*
X93000000Y-60600000D01*
X94200000Y-67200000D02*
X96700000Y-69700000D01*
X97034314Y-72000000D02*
X96700000Y-71665686D01*
%TO.N,/Kathode/K52*%
X97500000Y-57820149D02*
X102725000Y-63045149D01*
X96700000Y-55800000D02*
X96917158Y-55800000D01*
X89500000Y-46900000D02*
X92900000Y-50300000D01*
X92900000Y-50300000D02*
X92900000Y-52000000D01*
X85500000Y-46900000D02*
X89500000Y-46900000D01*
X96917158Y-55800000D02*
X97500000Y-56382842D01*
X97500000Y-56382842D02*
X97500000Y-57820149D01*
X92900000Y-52000000D02*
X96700000Y-55800000D01*
X102725000Y-63045149D02*
X102725000Y-63145149D01*
%TO.N,/Kathode/K60*%
X103444241Y-52044241D02*
X103672936Y-52044241D01*
X98500000Y-47100000D02*
X103444241Y-52044241D01*
X98500000Y-43300000D02*
X98500000Y-47100000D01*
%TO.N,/Kathode/K5*%
X95200000Y-143264241D02*
X93625000Y-144839241D01*
X95100000Y-128600000D02*
X95200000Y-128700000D01*
X95200000Y-128700000D02*
X95200000Y-143264241D01*
%TO.N,/Kathode/K13*%
X95300000Y-117000000D02*
X95600000Y-117300000D01*
X95600000Y-117300000D02*
X95600000Y-124200000D01*
X94500000Y-125300000D02*
X94500000Y-127100000D01*
X94500000Y-127100000D02*
X93600000Y-128000000D01*
X95600000Y-124200000D02*
X94500000Y-125300000D01*
%TO.N,/Kathode/K21*%
X96700000Y-106500000D02*
X96700000Y-104500830D01*
X96700000Y-104500830D02*
X96063709Y-103864539D01*
%TO.N,/Kathode/K37*%
X95700000Y-77600000D02*
X93900000Y-75800000D01*
%TO.N,/Kathode/K53*%
X84800000Y-42600000D02*
X85300000Y-43100000D01*
X85300000Y-43100000D02*
X93228248Y-43100000D01*
X94196752Y-42425000D02*
X94900000Y-43128248D01*
X94900000Y-52528248D02*
X97184954Y-54813202D01*
X93903248Y-42425000D02*
X94196752Y-42425000D01*
X94900000Y-43128248D02*
X94900000Y-52528248D01*
X93228248Y-43100000D02*
X93903248Y-42425000D01*
%TO.N,/Kathode/K61*%
X86500000Y-27600000D02*
X93100000Y-27600000D01*
X96500000Y-44000000D02*
X96800000Y-44300000D01*
X96500000Y-31000000D02*
X96500000Y-44000000D01*
X93100000Y-27600000D02*
X96500000Y-31000000D01*
X85400000Y-26500000D02*
X86500000Y-27600000D01*
%TO.N,/Kathode/K6*%
X95000000Y-141600000D02*
X92800000Y-143800000D01*
X94800000Y-129700000D02*
X94800000Y-139300000D01*
X92800000Y-143800000D02*
X85900000Y-143800000D01*
X95000000Y-139500000D02*
X95000000Y-141600000D01*
X94800000Y-139300000D02*
X95000000Y-139500000D01*
X85900000Y-143800000D02*
X84600000Y-145100000D01*
%TO.N,/Kathode/K14*%
X95300000Y-124100000D02*
X95300000Y-118475000D01*
X89700000Y-129700000D02*
X95300000Y-124100000D01*
X84700000Y-129300000D02*
X84900000Y-129300000D01*
X85300000Y-129700000D02*
X89700000Y-129700000D01*
X84900000Y-129300000D02*
X85300000Y-129700000D01*
X95300000Y-118475000D02*
X95125000Y-118300000D01*
%TO.N,/Kathode/K22*%
X93800000Y-107800000D02*
X90300000Y-107800000D01*
X89300000Y-112100000D02*
X88100000Y-113300000D01*
X89300000Y-108800000D02*
X89300000Y-112100000D01*
X90300000Y-107800000D02*
X89300000Y-108800000D01*
X85500000Y-113300000D02*
X85200000Y-113000000D01*
X88100000Y-113300000D02*
X85500000Y-113300000D01*
%TO.N,/Kathode/K30*%
X86300000Y-95500000D02*
X84900000Y-96900000D01*
X96700000Y-93800000D02*
X95000000Y-95500000D01*
X86300000Y-95500000D02*
X95000000Y-95500000D01*
%TO.N,/Kathode/K38*%
X96800000Y-82300000D02*
X96500000Y-82000000D01*
X95800000Y-74400000D02*
X85000000Y-74400000D01*
X96500000Y-75100000D02*
X95800000Y-74400000D01*
X96500000Y-82000000D02*
X96500000Y-75100000D01*
%TO.N,/Kathode/K46*%
X93100000Y-57100000D02*
X94400000Y-58400000D01*
X94400000Y-67027842D02*
X94400000Y-58400000D01*
X84400000Y-57100000D02*
X93100000Y-57100000D01*
X97200000Y-71600000D02*
X97200000Y-69827842D01*
X94400000Y-67027842D02*
X97200000Y-69827842D01*
%TO.N,/Kathode/K54*%
X95300000Y-53617157D02*
X100182843Y-58500000D01*
X95300000Y-53600000D02*
X95300000Y-53617157D01*
X94700000Y-45700000D02*
X94700000Y-53000000D01*
X94700000Y-53000000D02*
X95300000Y-53600000D01*
X94000000Y-45000000D02*
X94700000Y-45700000D01*
X100182843Y-58500000D02*
X102075000Y-58500000D01*
%TO.N,/Kathode/K62*%
X95100000Y-39400000D02*
X95500000Y-39800000D01*
X95100000Y-37000000D02*
X95100000Y-39400000D01*
X95800000Y-49000000D02*
X95500000Y-49300000D01*
X95100000Y-45000000D02*
X95100000Y-48000000D01*
X95100000Y-45000000D02*
X95500000Y-44600000D01*
X95100000Y-48000000D02*
X95800000Y-48700000D01*
X95500000Y-39800000D02*
X95500000Y-44600000D01*
X95800000Y-48700000D02*
X95800000Y-49000000D01*
%TO.N,/Kathode/K47*%
X94820000Y-56920000D02*
X94200000Y-56300000D01*
X94100000Y-56300000D02*
X93900000Y-56100000D01*
X99600000Y-71600000D02*
X94820000Y-66820000D01*
X100200000Y-71800000D02*
X100000000Y-71600000D01*
X100000000Y-71600000D02*
X99600000Y-71600000D01*
X94200000Y-56300000D02*
X94100000Y-56300000D01*
X94820000Y-66820000D02*
X94820000Y-56920000D01*
%TO.N,/Kathode/K55*%
X82100000Y-41400000D02*
X83000000Y-40500000D01*
X91000000Y-50700000D02*
X91000000Y-50981473D01*
X93818527Y-53800000D02*
X94400000Y-53800000D01*
X91000000Y-50981473D02*
X93818527Y-53800000D01*
X96035876Y-55435876D02*
X96035876Y-61764124D01*
X82100000Y-41900000D02*
X82100000Y-41400000D01*
X83800000Y-43600000D02*
X86900000Y-43600000D01*
X91900000Y-48600000D02*
X86900000Y-43600000D01*
X83800000Y-43600000D02*
X82100000Y-41900000D01*
X94400000Y-53800000D02*
X96035876Y-55435876D01*
%TO.N,/Kathode/K63*%
X87000000Y-28100000D02*
X93300000Y-28100000D01*
X96300000Y-31100000D02*
X96300000Y-49900000D01*
X93300000Y-28100000D02*
X96300000Y-31100000D01*
X96300000Y-49900000D02*
X97100000Y-50700000D01*
%TO.N,Net-(U1002-Reset)*%
X103600000Y-123000000D02*
X103500000Y-122900000D01*
X111600000Y-125800000D02*
X106400000Y-125800000D01*
X111600000Y-125800000D02*
X112700000Y-124700000D01*
X103500000Y-122900000D02*
X103100000Y-122900000D01*
X112700000Y-118200000D02*
X112700000Y-124700000D01*
X106400000Y-125800000D02*
X103600000Y-123000000D01*
%TO.N,Net-(U1007-CKEN)*%
X105000000Y-94451472D02*
X103452566Y-92904038D01*
X103452566Y-92904038D02*
X103452566Y-92700000D01*
X105000000Y-118500000D02*
X105000000Y-94451472D01*
X106700000Y-120200000D02*
X105000000Y-118500000D01*
%TO.N,Net-(U1007-CLK)*%
X104400000Y-121551470D02*
X104400000Y-95586827D01*
X104375000Y-95461827D02*
X102852566Y-93939393D01*
X104400000Y-95586827D02*
X104375000Y-95561827D01*
X106406803Y-123558273D02*
X104400000Y-121551470D01*
X102852566Y-93939393D02*
X102852566Y-93844418D01*
X104375000Y-95561827D02*
X104375000Y-95461827D01*
X106706803Y-123558273D02*
X106406803Y-123558273D01*
%TO.N,Net-(U1005-CLK)*%
X110700000Y-124519084D02*
X112000000Y-123219084D01*
X112000000Y-120900000D02*
X105600000Y-114500000D01*
X112000000Y-123219084D02*
X112000000Y-120900000D01*
X110700000Y-124700000D02*
X110700000Y-124519084D01*
X105600000Y-114500000D02*
X105600000Y-113500000D01*
%TO.N,/Kathode/CLK*%
X111600000Y-117600000D02*
X110000000Y-116000000D01*
X110000000Y-116000000D02*
X110000000Y-77983650D01*
X105563150Y-73546801D02*
X109908175Y-77891825D01*
X110000000Y-77983650D02*
X109908175Y-77891825D01*
X109908175Y-77891825D02*
X110000000Y-77983651D01*
%TO.N,Net-(U1008-CLK)*%
X102400000Y-88700000D02*
X103900000Y-87200000D01*
X103900000Y-87200000D02*
X103900000Y-80900000D01*
X102400000Y-92543323D02*
X102400000Y-88700000D01*
X106300000Y-122600000D02*
X104700000Y-121000000D01*
X103900000Y-80900000D02*
X103200000Y-80200000D01*
X104700000Y-94843323D02*
X102400000Y-92543323D01*
X104700000Y-121000000D02*
X104700000Y-94843323D01*
%TO.N,Net-(U1006-CKEN)*%
X104100000Y-122600000D02*
X104100000Y-105000000D01*
X106400000Y-124900000D02*
X104100000Y-122600000D01*
X104100000Y-105000000D02*
X102900000Y-103800000D01*
%TO.N,Net-(U1005-CKEN)*%
X108816694Y-122416694D02*
X111100000Y-122416694D01*
X107700000Y-118400000D02*
X107700000Y-121300000D01*
X106200000Y-116900000D02*
X107700000Y-118400000D01*
X105800000Y-116900000D02*
X106200000Y-116900000D01*
X107700000Y-121300000D02*
X108816694Y-122416694D01*
%TO.N,Net-(U1006-CLK)*%
X105848529Y-102348529D02*
X105848529Y-112900000D01*
X105600000Y-102100000D02*
X105848529Y-102348529D01*
X112300000Y-119351471D02*
X112300000Y-123524264D01*
X112300000Y-123524264D02*
X112200000Y-123624264D01*
X112200000Y-123867613D02*
X112100000Y-123967613D01*
X105848529Y-112900000D02*
X112300000Y-119351471D01*
X112200000Y-123624264D02*
X112200000Y-123867613D01*
%TO.N,Net-(U1008-CKEN)*%
X102400000Y-46300000D02*
X104072936Y-47972936D01*
X101800000Y-81500000D02*
X101600000Y-81300000D01*
X104300000Y-37900000D02*
X105600000Y-37900000D01*
X104072936Y-64427064D02*
X104072936Y-47972936D01*
X103800000Y-64700000D02*
X104072936Y-64427064D01*
X102400000Y-39800000D02*
X104300000Y-37900000D01*
X103400000Y-72800000D02*
X102200000Y-71600000D01*
X102200000Y-71600000D02*
X103800000Y-70000000D01*
X103400000Y-76100000D02*
X103400000Y-72800000D01*
X101600000Y-77900000D02*
X103400000Y-76100000D01*
X101600000Y-81300000D02*
X101600000Y-77900000D01*
X102400000Y-46300000D02*
X102400000Y-39800000D01*
X103800000Y-70000000D02*
X103800000Y-64700000D01*
D26*
%TO.N,/HV_GEN/FB*%
X155500000Y-126300000D02*
X155532632Y-126332632D01*
X156000000Y-125800000D02*
X155500000Y-126300000D01*
X155532632Y-126332632D02*
X155532632Y-126567368D01*
X156000000Y-122600000D02*
X156000000Y-125800000D01*
X155532632Y-126567368D02*
X155500000Y-126600000D01*
D31*
%TO.N,+BATT*%
X195400000Y-114500000D02*
X195400000Y-116500000D01*
X178400000Y-109500000D02*
X179900000Y-111000000D01*
X186700000Y-111000000D02*
X188100000Y-109600000D01*
X188100000Y-109600000D02*
X190500000Y-109600000D01*
X178400000Y-109300000D02*
X178400000Y-109500000D01*
X190500000Y-109600000D02*
X195400000Y-114500000D01*
X179900000Y-111000000D02*
X186700000Y-111000000D01*
D26*
%TO.N,Net-(J6-D--PadA7)*%
X100800000Y-138607107D02*
X101131819Y-138275288D01*
X100800000Y-139300000D02*
X100800000Y-138607107D01*
X99000000Y-138300000D02*
X99024712Y-138275288D01*
X99024712Y-138275288D02*
X101131819Y-138275288D01*
%TO.N,/SCL*%
X209500000Y-152100000D02*
X209500000Y-149975736D01*
X208800000Y-149275736D02*
X208800000Y-149200000D01*
X209500000Y-149975736D02*
X208800000Y-149275736D01*
X197000000Y-163600000D02*
X96400000Y-163600000D01*
X213200000Y-167500000D02*
X210300000Y-170400000D01*
X199900000Y-168800000D02*
X199900000Y-166500000D01*
X214700000Y-161700000D02*
X213200000Y-163200000D01*
X209600000Y-152200000D02*
X209500000Y-152100000D01*
X213200000Y-163200000D02*
X213200000Y-167500000D01*
X214700000Y-157700000D02*
X214700000Y-161700000D01*
X196600000Y-137000000D02*
X196600000Y-132100000D01*
X212700000Y-153100000D02*
X212700000Y-155700000D01*
X210300000Y-170400000D02*
X201500000Y-170400000D01*
X212700000Y-155700000D02*
X214700000Y-157700000D01*
X208800000Y-149200000D02*
X196600000Y-137000000D01*
X96400000Y-163600000D02*
X91250000Y-168750000D01*
X201500000Y-170400000D02*
X199900000Y-168800000D01*
X199900000Y-166500000D02*
X197000000Y-163600000D01*
%TO.N,/SDA*%
X196300000Y-133000000D02*
X196300000Y-137200000D01*
X209175000Y-151725000D02*
X209175000Y-152675000D01*
X92975000Y-166565380D02*
X96340380Y-163200000D01*
X200300000Y-166200000D02*
X200300000Y-168740380D01*
X209200000Y-151700000D02*
X209175000Y-151725000D01*
X212375000Y-155834620D02*
X212375000Y-154940357D01*
X200300000Y-168740380D02*
X201634620Y-170075000D01*
X212775000Y-167384620D02*
X212775000Y-163125000D01*
X209200000Y-150100000D02*
X209200000Y-151700000D01*
X214300000Y-157759620D02*
X212375000Y-155834620D01*
X210084620Y-170075000D02*
X212775000Y-167384620D01*
X96340380Y-163200000D02*
X197300000Y-163200000D01*
X214300000Y-161600000D02*
X214300000Y-157759620D01*
X209175000Y-152675000D02*
X209200000Y-152700000D01*
X197300000Y-163200000D02*
X200300000Y-166200000D01*
X88750000Y-169525000D02*
X91709620Y-166565380D01*
X212775000Y-163125000D02*
X214300000Y-161600000D01*
X195400000Y-132100000D02*
X196300000Y-133000000D01*
X91709620Y-166565380D02*
X92975000Y-166565380D01*
X201634620Y-170075000D02*
X210084620Y-170075000D01*
X212375000Y-154940357D02*
X212200000Y-154765357D01*
X196300000Y-137200000D02*
X209200000Y-150100000D01*
%TO.N,/5V_EN*%
X218400000Y-137000000D02*
X223800000Y-137000000D01*
X215600000Y-134400000D02*
X215700000Y-134300000D01*
X223800000Y-137000000D02*
X224750000Y-136050000D01*
X215700000Y-134300000D02*
X218400000Y-137000000D01*
X215600000Y-141500000D02*
X215600000Y-134400000D01*
X207300000Y-125900000D02*
X215700000Y-134300000D01*
X207300000Y-125100000D02*
X207300000Y-125900000D01*
D30*
%TO.N,/BatteryManagement/V_OUT*%
X125324999Y-121124999D02*
X134500000Y-130300000D01*
X134500000Y-130300000D02*
X135800000Y-130300000D01*
X121200000Y-121124999D02*
X125324999Y-121124999D01*
X185900000Y-109000000D02*
X181100000Y-109000000D01*
X181100000Y-109000000D02*
X180800000Y-109300000D01*
D26*
%TO.N,Net-(U18-VSENSE)*%
X232500000Y-146500000D02*
X232400000Y-146400000D01*
X232400000Y-146400000D02*
X227000000Y-146400000D01*
%TO.N,/ANA_SW*%
X210600000Y-155500000D02*
X210600000Y-148200000D01*
X213200000Y-158100000D02*
X210600000Y-155500000D01*
X213200000Y-161200000D02*
X213200000Y-158100000D01*
X210900000Y-136900000D02*
X212700000Y-135100000D01*
X210900000Y-147900000D02*
X210900000Y-136900000D01*
X210600000Y-148200000D02*
X210900000Y-147900000D01*
X207500000Y-168300000D02*
X208300000Y-169100000D01*
X211800000Y-167051472D02*
X211800000Y-162600000D01*
X211800000Y-162600000D02*
X213200000Y-161200000D01*
X201400000Y-168300000D02*
X207500000Y-168300000D01*
X209751472Y-169100000D02*
X211800000Y-167051472D01*
X208300000Y-169100000D02*
X209751472Y-169100000D01*
%TO.N,Net-(R291-Pad2)*%
X226600000Y-122900000D02*
X226600000Y-124100000D01*
X226600000Y-124100000D02*
X226000000Y-124700000D01*
%TO.N,/HV_EN*%
X152500000Y-120800000D02*
X152600000Y-120700000D01*
X152500000Y-130700000D02*
X152500000Y-120800000D01*
X175900000Y-154100000D02*
X152500000Y-130700000D01*
X198800000Y-160500000D02*
X183400000Y-160500000D01*
%TO.N,/RX*%
X205700000Y-165700000D02*
X208100000Y-163300000D01*
X114741116Y-162475000D02*
X197499264Y-162475000D01*
X197499264Y-162475000D02*
X200724264Y-165700000D01*
X94803678Y-161800000D02*
X95578678Y-162575000D01*
X114641116Y-162575000D02*
X114741116Y-162475000D01*
X208100000Y-163300000D02*
X208100000Y-162075000D01*
X200724264Y-165700000D02*
X205700000Y-165700000D01*
X89000000Y-163000000D02*
X90200000Y-161800000D01*
X95578678Y-162575000D02*
X114641116Y-162575000D01*
X90200000Y-161800000D02*
X94803678Y-161800000D01*
D27*
%TO.N,/BMS_USB_D+*%
X122600000Y-112200000D02*
X122440500Y-112359500D01*
X113809500Y-127921092D02*
X110209500Y-131521092D01*
X113809500Y-127694606D02*
X113809500Y-127921092D01*
X116809500Y-113921092D02*
X116809500Y-124694606D01*
X109430592Y-135100000D02*
X108400000Y-135100000D01*
X110209500Y-134321092D02*
X109430592Y-135100000D01*
X110209500Y-131521092D02*
X110209500Y-134321092D01*
X118371092Y-112359500D02*
X116809500Y-113921092D01*
X116809500Y-124694606D02*
X113809500Y-127694606D01*
X122440500Y-112359500D02*
X118371092Y-112359500D01*
%TO.N,/BMS_USB_D-*%
X110590500Y-131678908D02*
X110590500Y-134478908D01*
X117190500Y-124849027D02*
X114190500Y-127849027D01*
X114190500Y-127849027D02*
X114190500Y-128078908D01*
X109684704Y-135384704D02*
X109378908Y-135690500D01*
X117190500Y-114078908D02*
X117190500Y-124849027D01*
X114190500Y-128078908D02*
X110590500Y-131678908D01*
X107909500Y-135690500D02*
X109378908Y-135690500D01*
X122600000Y-112900000D02*
X122440500Y-112740500D01*
X110590500Y-134478908D02*
X109684704Y-135384704D01*
X118528908Y-112740500D02*
X117190500Y-114078908D01*
X122440500Y-112740500D02*
X118528908Y-112740500D01*
X109684704Y-135884704D02*
X109700000Y-135900000D01*
X107909500Y-135690500D02*
X107900000Y-135700000D01*
X109684704Y-135384704D02*
X109684704Y-135884704D01*
D26*
%TO.N,/LED*%
X206000000Y-166000000D02*
X200600000Y-166000000D01*
X92700000Y-164200000D02*
X91500000Y-163000000D01*
X208600000Y-161600000D02*
X208600000Y-163400000D01*
X96128678Y-162875000D02*
X94803678Y-164200000D01*
X94803678Y-164200000D02*
X92700000Y-164200000D01*
X208600000Y-163400000D02*
X206000000Y-166000000D01*
X200600000Y-166000000D02*
X197475000Y-162875000D01*
X197475000Y-162875000D02*
X96128678Y-162875000D01*
%TO.N,/ACCEL_INT*%
X208401041Y-160800000D02*
X207700000Y-160800000D01*
X206900000Y-161600000D02*
X206900000Y-163100000D01*
X194200000Y-149300000D02*
X199100000Y-149300000D01*
X209800000Y-162600000D02*
X209800000Y-162198959D01*
X202100000Y-122700000D02*
X202000000Y-122800000D01*
X200800000Y-163400000D02*
X200800000Y-162200000D01*
X212900000Y-161075736D02*
X210975736Y-163000000D01*
X206900000Y-163100000D02*
X204800000Y-165200000D01*
X193000000Y-148100000D02*
X194200000Y-149300000D01*
X201400000Y-151600000D02*
X205100000Y-151600000D01*
X199100000Y-149300000D02*
X201400000Y-151600000D01*
X205100000Y-151600000D02*
X207200000Y-153700000D01*
X202600000Y-165200000D02*
X200800000Y-163400000D01*
X204800000Y-165200000D02*
X202600000Y-165200000D01*
X210200000Y-163000000D02*
X209800000Y-162600000D01*
X202000000Y-122800000D02*
X194700000Y-122800000D01*
X210975736Y-163000000D02*
X210200000Y-163000000D01*
X208300000Y-153700000D02*
X212900000Y-158300000D01*
X212900000Y-158300000D02*
X212900000Y-161075736D01*
X193000000Y-124500000D02*
X193000000Y-148100000D01*
X194700000Y-122800000D02*
X193000000Y-124500000D01*
X207200000Y-153700000D02*
X208300000Y-153700000D01*
X209800000Y-162198959D02*
X208401041Y-160800000D01*
X207700000Y-160800000D02*
X206900000Y-161600000D01*
%TO.N,Net-(Q129-G)*%
X145300000Y-115200000D02*
X144000000Y-113900000D01*
X145300000Y-119800000D02*
X145300000Y-115200000D01*
%TD*%
M02*
