%TF.GenerationSoftware,KiCad,Pcbnew,8.0.2*%
%TF.CreationDate,2024-06-03T23:57:49-04:00*%
%TF.ProjectId,IGGDriver,49474744-7269-4766-9572-2e6b69636164,rev?*%
%TF.SameCoordinates,Original*%
%TF.FileFunction,Soldermask,Bot*%
%TF.FilePolarity,Negative*%
%FSLAX46Y46*%
G04 Gerber Fmt 4.6, Leading zero omitted, Abs format (unit mm)*
G04 Created by KiCad (PCBNEW 8.0.2) date 2024-06-03 23:57:49*
%MOMM*%
%LPD*%
G01*
G04 APERTURE LIST*
G04 Aperture macros list*
%AMRoundRect*
0 Rectangle with rounded corners*
0 $1 Rounding radius*
0 $2 $3 $4 $5 $6 $7 $8 $9 X,Y pos of 4 corners*
0 Add a 4 corners polygon primitive as box body*
4,1,4,$2,$3,$4,$5,$6,$7,$8,$9,$2,$3,0*
0 Add four circle primitives for the rounded corners*
1,1,$1+$1,$2,$3*
1,1,$1+$1,$4,$5*
1,1,$1+$1,$6,$7*
1,1,$1+$1,$8,$9*
0 Add four rect primitives between the rounded corners*
20,1,$1+$1,$2,$3,$4,$5,0*
20,1,$1+$1,$4,$5,$6,$7,0*
20,1,$1+$1,$6,$7,$8,$9,0*
20,1,$1+$1,$8,$9,$2,$3,0*%
G04 Aperture macros list end*
%ADD10C,1.200000*%
%ADD11RoundRect,0.250000X-0.600000X-0.725000X0.600000X-0.725000X0.600000X0.725000X-0.600000X0.725000X0*%
%ADD12O,1.700000X1.950000*%
%ADD13C,0.990600*%
%ADD14C,4.300000*%
%ADD15C,2.390000*%
%ADD16C,3.450000*%
%ADD17RoundRect,0.250000X0.750000X-0.600000X0.750000X0.600000X-0.750000X0.600000X-0.750000X-0.600000X0*%
%ADD18O,2.000000X1.700000*%
%ADD19RoundRect,0.250000X0.600000X0.725000X-0.600000X0.725000X-0.600000X-0.725000X0.600000X-0.725000X0*%
%ADD20C,2.000000*%
%ADD21C,7.000000*%
%ADD22C,0.660000*%
%ADD23O,0.580000X1.000000*%
%ADD24C,1.100000*%
%ADD25C,2.400000*%
G04 APERTURE END LIST*
D10*
%TO.C,J3*%
X127250000Y-138450000D03*
D11*
X128850000Y-136450000D03*
D12*
X131350000Y-136450000D03*
X133850000Y-136450000D03*
%TD*%
D13*
%TO.C,J5*%
X196365000Y-152270000D03*
X195349000Y-147190000D03*
X197381000Y-147190000D03*
%TD*%
D14*
%TO.C,H5*%
X90000000Y-21000000D03*
%TD*%
D15*
%TO.C,BT1*%
X189630000Y-145900000D03*
D16*
X181300000Y-129900000D03*
X126100000Y-145900000D03*
%TD*%
D14*
%TO.C,H2*%
X109000000Y-167000000D03*
%TD*%
D10*
%TO.C,J1002*%
X90625000Y-85700000D03*
D17*
X88625000Y-84100000D03*
D18*
X88625000Y-81600000D03*
%TD*%
D14*
%TO.C,H4*%
X195500000Y-167000000D03*
%TD*%
D10*
%TO.C,J1*%
X95600000Y-161000000D03*
D19*
X94000000Y-163000000D03*
D12*
X91500000Y-163000000D03*
X89000000Y-163000000D03*
X86500000Y-163000000D03*
%TD*%
D10*
%TO.C,J7*%
X95350000Y-167525000D03*
D19*
X93750000Y-169525000D03*
D12*
X91250000Y-169525000D03*
X88750000Y-169525000D03*
X86250000Y-169525000D03*
%TD*%
D20*
%TO.C,TP1001*%
X108000000Y-51200000D03*
%TD*%
D21*
%TO.C,U13*%
X79750000Y-16500000D03*
X79750000Y-164500000D03*
X227750000Y-16500000D03*
X227750000Y-164500000D03*
%TD*%
D22*
%TO.C,J6*%
X99000000Y-135250001D03*
D23*
X99000000Y-142749999D03*
D24*
X101150000Y-136600000D03*
X96850000Y-136600000D03*
X101150000Y-141400000D03*
X96850000Y-141400000D03*
%TD*%
D14*
%TO.C,H6*%
X127000000Y-112000000D03*
%TD*%
%TO.C,H1*%
X189000000Y-123500000D03*
%TD*%
D20*
%TO.C,TP1002*%
X108000000Y-48500000D03*
%TD*%
D15*
%TO.C,BT2*%
X117770000Y-151900000D03*
D16*
X126100000Y-167900000D03*
X181300000Y-151900000D03*
%TD*%
D14*
%TO.C,H3*%
X227700000Y-24600000D03*
%TD*%
D25*
%TO.C,C106*%
X173000000Y-123500000D03*
X173000000Y-108500000D03*
%TD*%
M02*
