M48
; DRILL file {KiCad 8.0.2} date 2024-05-31T12:09:55-0400
; FORMAT={-:-/ absolute / inch / decimal}
; #@! TF.CreationDate,2024-05-31T12:09:55-04:00
; #@! TF.GenerationSoftware,Kicad,Pcbnew,8.0.2
; #@! TF.FileFunction,Plated,1,4,PTH
FMAT,2
INCH
; #@! TA.AperFunction,Plated,PTH,ViaDrill
T1C0.0079
; #@! TA.AperFunction,Plated,PTH,ViaDrill
T2C0.0118
; #@! TA.AperFunction,Plated,PTH,ComponentDrill
T3C0.0374
; #@! TA.AperFunction,Plated,PTH,ComponentDrill
T4C0.0394
%
G90
G05
T1
X3.5039Y-2.6772
X3.574Y-2.3294
X3.5906Y-2.9803
X3.6614Y-2.6772
X3.7008Y-2.6181
X3.7648Y-2.3294
X3.7717Y-2.9646
X3.8071Y-3.0551
X3.8189Y-2.6772
X3.8504Y-3.0787
X3.8583Y-2.6181
X3.8898Y-3.0551
X3.9213Y-3.2402
X3.9347Y-2.3365
X3.9606Y-3.0551
X3.9764Y-2.6772
X3.9961Y-3.1929
X4.0079Y-3.0354
X4.0157Y-2.6181
X4.0472Y-2.9843
X4.0948Y-2.3223
X4.1339Y-2.6772
X4.1496Y-3.0591
X4.1732Y-2.6181
X4.1883Y-2.3833
X4.2579Y-2.3026
X4.2913Y-2.6772
X4.3307Y-2.6181
X4.344Y-2.3814
X4.3745Y-2.7311
X4.3937Y-2.9567
X4.3959Y-2.3209
X4.4094Y-3.0906
X4.4488Y-2.6772
X4.4646Y-3.0787
X4.4803Y-3.2386
X4.4882Y-2.6181
X4.4961Y-3.3346
X4.5079Y-2.3819
X4.5472Y-2.7362
X4.5503Y-2.3218
X4.5787Y-3.1142
X4.6063Y-2.6772
X4.6457Y-2.6181
X4.6496Y-3.0551
X4.6654Y-2.3819
X4.6732Y-2.9843
X4.6983Y-2.7357
X4.7047Y-3.0551
X4.7162Y-2.3228
X4.7532Y-2.6743
X4.8071Y-2.622
X4.8228Y-2.3819
X4.8593Y-2.7361
X4.8819Y-2.3228
X4.9213Y-2.6772
X4.9606Y-2.6181
X4.9803Y-2.3819
X4.9921Y-3.1024
X5.0167Y-2.7361
X5.0315Y-2.9567
X5.0407Y-2.2876
X5.0827Y-3.1024
X5.0932Y-2.7576
X5.122Y-3.2638
X5.1349Y-2.3818
X5.1378Y-2.626
X5.1772Y-2.7362
X5.2165Y-2.3031
X5.2537Y-2.7567
X5.2717Y-3.0591
X5.2756Y-2.626
X5.2923Y-2.3818
X5.3071Y-2.9803
X5.3071Y-3.0551
X5.3346Y-2.7362
X5.38Y-2.2961
X5.4112Y-2.7567
X5.4252Y-3.0315
X5.437Y-2.3818
X5.4409Y-2.622
X5.4921Y-2.7362
X5.5656Y-2.7576
X5.5669Y-3.0787
X5.5676Y-2.2832
X5.5827Y-2.6339
X5.5994Y-2.3798
X5.6223Y-2.6732
X5.6378Y-2.9843
X5.6378Y-3.0984
X5.7104Y-2.2853
X5.7231Y-2.7576
X5.7441Y-3.2638
X5.748Y-2.626
X5.7702Y-2.4008
X5.8071Y-2.7362
X5.8425Y-3.0551
X5.8427Y-2.323
X5.8661Y-3.0787
X5.8836Y-2.7567
X5.9173Y-2.622
X5.9237Y-2.3818
X5.9449Y-2.9882
X5.9616Y-2.7361
X6.0381Y-2.7576
X6.0559Y-2.2904
X6.0709Y-2.6339
X6.0787Y-3.0157
X6.0827Y-2.3819
X6.122Y-2.7362
X6.199Y-2.2873
X6.2283Y-3.0945
X6.2323Y-2.622
X6.2367Y-2.3818
X6.248Y-3.0315
X6.311Y-2.7795
X6.3136Y-2.3201
X6.3785Y-2.6147
X6.3907Y-2.3807
X6.4567Y-2.3425
X6.5551Y-2.4016
X6.6142Y-2.3228
X6.6929Y-2.6339
X6.6929Y-2.6772
X6.7047Y-3.0433
X6.7057Y-2.3958
X6.752Y-2.9803
X6.7598Y-3.0236
X6.7845Y-2.6967
X6.7892Y-2.3219
X6.8071Y-3.0236
X6.8465Y-2.6339
X6.8613Y-2.6747
X6.8701Y-2.2441
X6.9291Y-2.6969
X6.9421Y-2.3163
X6.9764Y-3.0906
X7.0146Y-2.6733
X7.0236Y-2.622
X7.0236Y-3.0079
X7.0276Y-2.4213
X7.0866Y-2.6772
X7.0935Y-2.3228
X7.0984Y-2.9528
X7.1762Y-2.6747
X7.1772Y-2.626
X7.189Y-3.0276
X7.1969Y-3.0669
X7.1991Y-2.4278
X7.2441Y-2.6772
X7.2505Y-2.3227
X7.3337Y-2.6747
X7.3346Y-2.626
X7.3576Y-2.426
X7.3976Y-2.9764
X7.4016Y-2.6772
X7.4055Y-3.0276
X7.4075Y-2.3425
X7.4912Y-2.6747
X7.5039Y-2.4214
X7.529Y-3.0065
X7.5748Y-2.676
X7.5945Y-2.2955
X7.6063Y-2.9606
X7.6339Y-2.622
X7.6575Y-2.4235
X7.6613Y-2.6707
X7.7126Y-2.9803
X7.7126Y-3.0433
X7.7362Y-2.6772
X7.8071Y-2.622
X7.8089Y-2.6762
X7.815Y-3.0354
X7.83Y-2.426
X7.8346Y-2.2835
X7.8622Y-2.6772
X7.9252Y-2.622
X7.937Y-2.6693
X7.9567Y-3.0551
X7.9724Y-2.4213
X7.9795Y-2.2887
X7.9852Y-2.9503
X8.027Y-2.6848
X8.0303Y-3.0089
X8.0866Y-2.6063
X8.0906Y-3.0089
X8.0984Y-2.6706
X8.0984Y-2.9882
X8.1102Y-2.4016
X8.1175Y-2.2854
X8.1535Y-2.685
X8.1575Y-3.0591
X8.1772Y-3.0512
X8.2008Y-3.0394
X8.2087Y-2.4213
X8.2205Y-2.685
X8.2402Y-2.5984
X8.2625Y-2.3618
X8.2737Y-2.6791
X8.2874Y-3.0394
X8.3189Y-3.0039
X8.3532Y-2.4246
X8.3613Y-2.6854
X8.4331Y-2.689
X8.4331Y-2.9724
X8.4549Y-2.6033
X8.4595Y-2.4426
X8.4988Y-2.7375
X8.5157Y-2.4246
X8.5782Y-2.7001
X8.622Y-2.4409
X8.626Y-2.7283
X8.6457Y-2.7126
X8.6937Y-2.4291
X8.7205Y-2.6299
X8.7618Y-2.4215
X8.8917Y-2.3444
T2
X3.5854Y-2.6762
X3.5984Y-2.8976
X3.6063Y-3.1024
X3.7156Y-2.377
X3.7244Y-2.5472
X3.7421Y-2.677
X3.7559Y-2.8976
X3.8661Y-2.5433
X3.8858Y-2.4174
X3.9055Y-2.8937
X3.9124Y-2.7359
X3.9685Y-3.3583
X4.0276Y-2.4764
X4.0433Y-2.4222
X4.0433Y-3.3189
X4.0609Y-2.7297
X4.0669Y-2.9055
X4.1811Y-2.4764
X4.1969Y-3.1063
X4.2165Y-2.8976
X4.2402Y-2.7765
X4.3277Y-2.4931
X4.3819Y-2.9016
X4.4808Y-2.56
X4.4961Y-2.4724
X4.5157Y-3.2087
X4.5315Y-2.9094
X4.5512Y-3.3425
X4.6575Y-2.5551
X4.6732Y-3.3465
X4.685Y-2.8543
X4.6929Y-3.4843
X4.7874Y-3.5
X4.7992Y-3.1063
X4.8236Y-3.5256
X4.8386Y-2.5433
X4.8425Y-2.8465
X4.8425Y-3.6102
X4.8701Y-3.7087
X4.9252Y-3.7992
X4.9291Y-3.311
X4.9488Y-3.6339
X4.9606Y-2.56
X4.9709Y-3.7106
X5.0079Y-2.8543
X5.0138Y-3.6024
X5.0157Y-3.6654
X5.0394Y-3.3425
X5.0669Y-3.6693
X5.0787Y-3.7047
X5.126Y-2.5551
X5.1457Y-3.3465
X5.1496Y-3.2008
X5.1693Y-2.8425
X5.1929Y-3.626
X5.2402Y-3.3189
X5.2835Y-2.56
X5.2953Y-3.7746
X5.3228Y-2.8386
X5.3346Y-3.1063
X5.3543Y-3.6693
X5.4409Y-3.3386
X5.4409Y-3.5039
X5.4507Y-2.5656
X5.4803Y-2.8504
X5.5472Y-3.3031
X5.5866Y-3.1929
X5.5984Y-2.563
X5.6299Y-2.8465
X5.6929Y-3.3504
X5.7598Y-2.563
X5.7677Y-3.2953
X5.7756Y-3.8346
X5.7874Y-2.8583
X5.9134Y-2.5551
X5.937Y-3.1063
X5.9567Y-2.9094
X6.0394Y-3.4331
X6.0752Y-2.5622
X6.1024Y-3.5
X6.1053Y-2.9008
X6.2244Y-3.2018
X6.2244Y-3.3248
X6.2323Y-2.5591
X6.2638Y-3.374
X6.3228Y-2.8937
X6.374Y-3.3031
X6.3913Y-2.5502
X6.4449Y-3.5787
X6.5433Y-3.5118
X6.5477Y-2.5604
X6.5669Y-3.1024
X6.6654Y-3.4409
X6.685Y-2.5
X6.752Y-3.4882
X6.752Y-3.6063
X6.7795Y-2.9094
X6.7953Y-3.8346
X6.7969Y-3.6929
X6.8071Y-3.1024
X6.8504Y-3.7047
X6.8543Y-3.3228
X6.8561Y-2.56
X6.9134Y-3.3465
X6.9252Y-2.9094
X6.9433Y-3.6362
X6.9882Y-3.3189
X7.0046Y-2.56
X7.0798Y-2.9115
X7.1535Y-3.0866
X7.1642Y-2.56
X7.2441Y-2.9055
X7.2835Y-3.2835
X7.3344Y-2.5603
X7.3976Y-3.1929
X7.4055Y-2.9055
X7.4321Y-3.4951
X7.4724Y-2.5551
X7.4921Y-2.6181
X7.4961Y-3.3504
X7.563Y-2.9144
X7.5787Y-3.2913
X7.6213Y-2.5613
X7.6457Y-3.126
X7.6614Y-3.4252
X7.7265Y-2.915
X7.7596Y-3.3893
X7.8028Y-2.56
X7.811Y-3.4213
X7.8307Y-3.2638
X7.8543Y-3.3465
X7.878Y-2.9173
X7.9496Y-2.56
X8.0118Y-3.3465
X8.0197Y-2.8465
X8.1102Y-3.1969
X8.1262Y-2.5626
X8.1535Y-2.8465
X8.2913Y-2.8465
X8.2992Y-2.594
X8.4331Y-2.8425
X8.4539Y-2.5591
X8.5709Y-2.8071
X8.5945Y-2.5551
X8.7171Y-2.5163
X8.8914Y-2.56
T3
X5.9232Y-3.7037
X6.0217Y-3.7037
X6.1201Y-3.7037
X6.2185Y-3.7037
T4
X3.0906Y-2.0866
X3.189Y-2.0866
X3.2874Y-2.0866
X3.3858Y-2.0866
X3.4843Y-2.0866
X3.5827Y-2.0866
X3.6811Y-2.0866
X3.7795Y-2.0866
X3.878Y-2.0866
X3.9764Y-2.0866
X4.0748Y-2.0866
X4.1732Y-2.0866
X4.2717Y-2.0866
X4.3701Y-2.0866
X4.4685Y-2.0866
X4.5669Y-2.0866
X4.6654Y-2.0866
X4.7638Y-2.0866
X4.8622Y-2.0866
X4.9606Y-2.0866
X5.0591Y-2.0866
X5.1575Y-2.0866
X5.2559Y-2.0866
X5.3543Y-2.0866
X5.4528Y-2.0866
X5.5512Y-2.0866
X5.6496Y-2.0866
X5.748Y-2.0866
X5.8465Y-2.0866
X5.9449Y-2.0866
X6.0433Y-2.0866
X6.1417Y-2.0866
X6.2402Y-2.0866
X6.3386Y-2.0866
X6.437Y-2.0866
X6.4429Y-2.7707
X6.5354Y-2.0866
X6.5413Y-2.7707
X6.6339Y-2.0866
X6.7323Y-2.0866
X6.8307Y-2.0866
X6.9291Y-2.0866
X7.0276Y-2.0866
X7.126Y-2.0866
X7.2244Y-2.0866
X7.3228Y-2.0866
X7.4213Y-2.0866
X7.5197Y-2.0866
X7.5945Y-3.5551
X7.6181Y-2.0866
X7.7165Y-2.0866
X7.7559Y-3.5551
X7.815Y-2.0866
X7.9134Y-2.0866
X8.0118Y-2.0866
X8.1102Y-2.0866
X8.2087Y-2.0866
X8.3071Y-2.0866
X8.4055Y-2.0866
X8.5039Y-2.0866
X8.6024Y-2.0866
X8.7008Y-2.0866
X8.7992Y-2.0866
X8.8976Y-2.0866
X8.9961Y-2.0866
X9.0945Y-2.0866
X9.1929Y-2.0866
X9.2913Y-2.0866
M30
