%TF.GenerationSoftware,KiCad,Pcbnew,8.0.2*%
%TF.CreationDate,2024-05-31T12:09:55-04:00*%
%TF.ProjectId,kathodeDriver,6b617468-6f64-4654-9472-697665722e6b,rev?*%
%TF.SameCoordinates,Original*%
%TF.FileFunction,Soldermask,Top*%
%TF.FilePolarity,Negative*%
%FSLAX46Y46*%
G04 Gerber Fmt 4.6, Leading zero omitted, Abs format (unit mm)*
G04 Created by KiCad (PCBNEW 8.0.2) date 2024-05-31 12:09:55*
%MOMM*%
%LPD*%
G01*
G04 APERTURE LIST*
G04 Aperture macros list*
%AMRoundRect*
0 Rectangle with rounded corners*
0 $1 Rounding radius*
0 $2 $3 $4 $5 $6 $7 $8 $9 X,Y pos of 4 corners*
0 Add a 4 corners polygon primitive as box body*
4,1,4,$2,$3,$4,$5,$6,$7,$8,$9,$2,$3,0*
0 Add four circle primitives for the rounded corners*
1,1,$1+$1,$2,$3*
1,1,$1+$1,$4,$5*
1,1,$1+$1,$6,$7*
1,1,$1+$1,$8,$9*
0 Add four rect primitives between the rounded corners*
20,1,$1+$1,$2,$3,$4,$5,0*
20,1,$1+$1,$4,$5,$6,$7,0*
20,1,$1+$1,$6,$7,$8,$9,0*
20,1,$1+$1,$8,$9,$2,$3,0*%
%AMFreePoly0*
4,1,19,0.500000,-0.750000,0.000000,-0.750000,0.000000,-0.744911,-0.071157,-0.744911,-0.207708,-0.704816,-0.327430,-0.627875,-0.420627,-0.520320,-0.479746,-0.390866,-0.500000,-0.250000,-0.500000,0.250000,-0.479746,0.390866,-0.420627,0.520320,-0.327430,0.627875,-0.207708,0.704816,-0.071157,0.744911,0.000000,0.744911,0.000000,0.750000,0.500000,0.750000,0.500000,-0.750000,0.500000,-0.750000,
$1*%
%AMFreePoly1*
4,1,19,0.000000,0.744911,0.071157,0.744911,0.207708,0.704816,0.327430,0.627875,0.420627,0.520320,0.479746,0.390866,0.500000,0.250000,0.500000,-0.250000,0.479746,-0.390866,0.420627,-0.520320,0.327430,-0.627875,0.207708,-0.704816,0.071157,-0.744911,0.000000,-0.744911,0.000000,-0.750000,-0.500000,-0.750000,-0.500000,0.750000,0.000000,0.750000,0.000000,0.744911,0.000000,0.744911,
$1*%
%AMFreePoly2*
4,1,111,-2.563245,3.679731,-2.180727,3.619146,-1.806637,3.518909,-1.445074,3.380118,-1.100000,3.204294,-0.775195,2.993363,-0.474217,2.749636,-0.200364,2.475783,0.043363,2.174805,0.254294,1.850000,0.430118,1.504926,0.568909,1.143363,0.669146,0.769273,0.729731,0.386755,0.750000,0.000000,0.729731,-0.386755,0.669146,-0.769273,0.568909,-1.143363,0.430118,-1.504926,0.254294,-1.850000,
0.043363,-2.174805,-0.200364,-2.475783,-0.474217,-2.749636,-0.775195,-2.993363,-1.100000,-3.204294,-1.445074,-3.380118,-1.806637,-3.518909,-2.180727,-3.619146,-2.563245,-3.679731,-2.950000,-3.700000,-3.336755,-3.679731,-3.719273,-3.619146,-4.093363,-3.518909,-4.454926,-3.380118,-4.800000,-3.204294,-5.124805,-2.993363,-5.425783,-2.749636,-5.699636,-2.475783,-5.943363,-2.174805,-6.154294,-1.850000,
-6.330118,-1.504926,-6.468909,-1.143363,-6.569146,-0.769273,-6.629731,-0.386755,-6.650000,0.000000,-5.154720,0.000000,-5.135858,-0.287774,-5.079596,-0.570624,-4.986896,-0.843710,-4.859344,-1.102360,-4.699122,-1.342148,-4.508972,-1.558972,-4.292148,-1.749122,-4.052360,-1.909344,-3.793710,-2.036896,-3.520624,-2.129596,-3.237774,-2.185858,-2.950000,-2.204720,-2.662226,-2.185858,-2.379376,-2.129596,
-2.106290,-2.036896,-1.847640,-1.909344,-1.607852,-1.749122,-1.391028,-1.558972,-1.200878,-1.342148,-1.040656,-1.102360,-0.913104,-0.843710,-0.820404,-0.570624,-0.764142,-0.287774,-0.745280,0.000000,-0.764142,0.287774,-0.820404,0.570624,-0.913104,0.843710,-1.040656,1.102360,-1.200878,1.342148,-1.391028,1.558972,-1.607852,1.749122,-1.847640,1.909344,-2.106290,2.036896,-2.379376,2.129596,
-2.662226,2.185858,-2.950000,2.204720,-3.237774,2.185858,-3.520624,2.129596,-3.793710,2.036896,-4.052360,1.909344,-4.292148,1.749122,-4.508972,1.558972,-4.699122,1.342148,-4.859344,1.102360,-4.986896,0.843710,-5.079596,0.570624,-5.135858,0.287774,-5.154720,0.000000,-6.650000,0.000000,-6.629731,0.386755,-6.569146,0.769273,-6.468909,1.143363,-6.330118,1.504926,-6.154294,1.850000,
-5.943363,2.174805,-5.699636,2.475783,-5.425783,2.749636,-5.124805,2.993363,-4.800000,3.204294,-4.454926,3.380118,-4.093363,3.518909,-3.719273,3.619146,-3.336755,3.679731,-2.950000,3.700000,-2.563245,3.679731,-2.563245,3.679731,$1*%
G04 Aperture macros list end*
%ADD10RoundRect,0.150000X0.150000X-0.587500X0.150000X0.587500X-0.150000X0.587500X-0.150000X-0.587500X0*%
%ADD11RoundRect,0.250000X0.262500X0.450000X-0.262500X0.450000X-0.262500X-0.450000X0.262500X-0.450000X0*%
%ADD12RoundRect,0.200000X0.200000X0.275000X-0.200000X0.275000X-0.200000X-0.275000X0.200000X-0.275000X0*%
%ADD13RoundRect,0.200000X-0.200000X-0.275000X0.200000X-0.275000X0.200000X0.275000X-0.200000X0.275000X0*%
%ADD14RoundRect,0.150000X0.150000X-0.825000X0.150000X0.825000X-0.150000X0.825000X-0.150000X-0.825000X0*%
%ADD15RoundRect,0.225000X0.250000X-0.225000X0.250000X0.225000X-0.250000X0.225000X-0.250000X-0.225000X0*%
%ADD16RoundRect,0.150000X-0.150000X0.512500X-0.150000X-0.512500X0.150000X-0.512500X0.150000X0.512500X0*%
%ADD17RoundRect,0.162500X-0.162500X0.750000X-0.162500X-0.750000X0.162500X-0.750000X0.162500X0.750000X0*%
%ADD18FreePoly0,180.000000*%
%ADD19FreePoly1,180.000000*%
%ADD20C,1.200000*%
%ADD21RoundRect,0.250000X-0.600000X-0.750000X0.600000X-0.750000X0.600000X0.750000X-0.600000X0.750000X0*%
%ADD22O,1.700000X2.000000*%
%ADD23RoundRect,0.218750X0.218750X0.256250X-0.218750X0.256250X-0.218750X-0.256250X0.218750X-0.256250X0*%
%ADD24RoundRect,0.250000X-0.600000X-0.725000X0.600000X-0.725000X0.600000X0.725000X-0.600000X0.725000X0*%
%ADD25O,1.700000X1.950000*%
%ADD26C,2.000000*%
%ADD27C,7.000000*%
%ADD28RoundRect,0.375000X0.375000X-1.125000X0.375000X1.125000X-0.375000X1.125000X-0.375000X-1.125000X0*%
%ADD29RoundRect,0.225000X-0.250000X0.225000X-0.250000X-0.225000X0.250000X-0.225000X0.250000X0.225000X0*%
%ADD30C,4.400000*%
%ADD31FreePoly2,0.000000*%
G04 APERTURE END LIST*
D10*
%TO.C,Q10*%
X109150000Y-72937500D03*
X111050000Y-72937500D03*
X110100000Y-71062500D03*
%TD*%
D11*
%TO.C,R62*%
X147012500Y-69000000D03*
X145187500Y-69000000D03*
%TD*%
D12*
%TO.C,R1*%
X159225000Y-70600000D03*
X157575000Y-70600000D03*
%TD*%
D10*
%TO.C,Q29*%
X164050000Y-64000000D03*
X165950000Y-64000000D03*
X165000000Y-62125000D03*
%TD*%
D13*
%TO.C,R41*%
X196350000Y-66000000D03*
X198000000Y-66000000D03*
%TD*%
D11*
%TO.C,R32*%
X179825000Y-68926519D03*
X178000000Y-68926519D03*
%TD*%
D13*
%TO.C,R90*%
X220075000Y-66000000D03*
X221725000Y-66000000D03*
%TD*%
D11*
%TO.C,R77*%
X130100000Y-60000000D03*
X128275000Y-60000000D03*
%TD*%
%TO.C,R17*%
X194000000Y-60000000D03*
X192175000Y-60000000D03*
%TD*%
D13*
%TO.C,R56*%
X182075000Y-75000000D03*
X183725000Y-75000000D03*
%TD*%
D11*
%TO.C,R27*%
X95100000Y-69000000D03*
X93275000Y-69000000D03*
%TD*%
D14*
%TO.C,U4*%
X166290000Y-95275000D03*
X167560000Y-95275000D03*
X168830000Y-95275000D03*
X170100000Y-95275000D03*
X171370000Y-95275000D03*
X172640000Y-95275000D03*
X173910000Y-95275000D03*
X173910000Y-90325000D03*
X172640000Y-90325000D03*
X171370000Y-90325000D03*
X170100000Y-90325000D03*
X168830000Y-90325000D03*
X167560000Y-90325000D03*
X166290000Y-90325000D03*
%TD*%
D13*
%TO.C,R19*%
X93450000Y-75000000D03*
X95100000Y-75000000D03*
%TD*%
D11*
%TO.C,R125*%
X139100000Y-69000000D03*
X137275000Y-69000000D03*
%TD*%
D10*
%TO.C,Q38*%
X184000000Y-64000000D03*
X185900000Y-64000000D03*
X184950000Y-62125000D03*
%TD*%
D11*
%TO.C,R28*%
X111012500Y-69000000D03*
X109187500Y-69000000D03*
%TD*%
D15*
%TO.C,C3*%
X119300000Y-90875000D03*
X119300000Y-89325000D03*
%TD*%
D16*
%TO.C,U1*%
X133712500Y-93412500D03*
X132762500Y-93412500D03*
X131812500Y-93412500D03*
X131812500Y-95687500D03*
X133712500Y-95687500D03*
%TD*%
D13*
%TO.C,R68*%
X112175000Y-66000000D03*
X113825000Y-66000000D03*
%TD*%
D10*
%TO.C,Q47*%
X204050000Y-63937500D03*
X205950000Y-63937500D03*
X205000000Y-62062500D03*
%TD*%
%TO.C,Q57*%
X105150000Y-72937500D03*
X107050000Y-72937500D03*
X106100000Y-71062500D03*
%TD*%
D11*
%TO.C,R97*%
X205912500Y-60000000D03*
X204087500Y-60000000D03*
%TD*%
D13*
%TO.C,R86*%
X149350000Y-75000000D03*
X151000000Y-75000000D03*
%TD*%
D10*
%TO.C,Q58*%
X121100000Y-73000000D03*
X123000000Y-73000000D03*
X122050000Y-71125000D03*
%TD*%
D11*
%TO.C,R124*%
X122925000Y-69000000D03*
X121100000Y-69000000D03*
%TD*%
D13*
%TO.C,R25*%
X194250000Y-75000000D03*
X195900000Y-75000000D03*
%TD*%
D11*
%TO.C,R128*%
X191912500Y-69000000D03*
X190087500Y-69000000D03*
%TD*%
%TO.C,R113*%
X203412500Y-69000000D03*
X201587500Y-69000000D03*
%TD*%
%TO.C,R95*%
X172000000Y-69000000D03*
X170175000Y-69000000D03*
%TD*%
%TO.C,R76*%
X113925000Y-60000000D03*
X112100000Y-60000000D03*
%TD*%
D10*
%TO.C,Q55*%
X201550000Y-72937500D03*
X203450000Y-72937500D03*
X202500000Y-71062500D03*
%TD*%
D17*
%TO.C,U11*%
X203445000Y-79912500D03*
X202175000Y-79912500D03*
X200905000Y-79912500D03*
X199635000Y-79912500D03*
X198365000Y-79912500D03*
X197095000Y-79912500D03*
X195825000Y-79912500D03*
X194555000Y-79912500D03*
X194555000Y-86087500D03*
X195825000Y-86087500D03*
X197095000Y-86087500D03*
X198365000Y-86087500D03*
X199635000Y-86087500D03*
X200905000Y-86087500D03*
X202175000Y-86087500D03*
X203445000Y-86087500D03*
%TD*%
D10*
%TO.C,Q34*%
X112150000Y-63937500D03*
X114050000Y-63937500D03*
X113100000Y-62062500D03*
%TD*%
D11*
%TO.C,R75*%
X98012500Y-60000000D03*
X96187500Y-60000000D03*
%TD*%
D10*
%TO.C,Q1*%
X89375000Y-72937500D03*
X91275000Y-72937500D03*
X90325000Y-71062500D03*
%TD*%
%TO.C,Q62*%
X190050000Y-72937500D03*
X191950000Y-72937500D03*
X191000000Y-71062500D03*
%TD*%
D11*
%TO.C,R13*%
X122100000Y-60000000D03*
X120275000Y-60000000D03*
%TD*%
D10*
%TO.C,Q46*%
X186050000Y-72937500D03*
X187950000Y-72937500D03*
X187000000Y-71062500D03*
%TD*%
D13*
%TO.C,R102*%
X148350000Y-66000000D03*
X150000000Y-66000000D03*
%TD*%
D10*
%TO.C,Q22*%
X180100000Y-64000000D03*
X182000000Y-64000000D03*
X181050000Y-62125000D03*
%TD*%
D13*
%TO.C,R35*%
X92175000Y-66000000D03*
X93825000Y-66000000D03*
%TD*%
%TO.C,R100*%
X116350000Y-66000000D03*
X118000000Y-66000000D03*
%TD*%
D10*
%TO.C,Q21*%
X160050000Y-63937500D03*
X161950000Y-63937500D03*
X161000000Y-62062500D03*
%TD*%
D11*
%TO.C,R61*%
X131012500Y-69000000D03*
X129187500Y-69000000D03*
%TD*%
%TO.C,R78*%
X146012500Y-60000000D03*
X144187500Y-60000000D03*
%TD*%
D13*
%TO.C,R55*%
X164350000Y-66000000D03*
X166000000Y-66000000D03*
%TD*%
D15*
%TO.C,C1*%
X117600000Y-86475000D03*
X117600000Y-84925000D03*
%TD*%
D13*
%TO.C,R84*%
X117175000Y-75000000D03*
X118825000Y-75000000D03*
%TD*%
D12*
%TO.C,R122*%
X221325000Y-68000000D03*
X219675000Y-68000000D03*
%TD*%
D10*
%TO.C,Q30*%
X182050000Y-72937500D03*
X183950000Y-72937500D03*
X183000000Y-71062500D03*
%TD*%
D13*
%TO.C,R101*%
X132350000Y-66000000D03*
X134000000Y-66000000D03*
%TD*%
D11*
%TO.C,R94*%
X151100000Y-69000000D03*
X149275000Y-69000000D03*
%TD*%
D13*
%TO.C,R38*%
X140000000Y-66000000D03*
X141650000Y-66000000D03*
%TD*%
%TO.C,R24*%
X178075000Y-74926519D03*
X179725000Y-74926519D03*
%TD*%
D11*
%TO.C,R15*%
X154050000Y-60125000D03*
X152225000Y-60125000D03*
%TD*%
D13*
%TO.C,R54*%
X145350000Y-75000000D03*
X147000000Y-75000000D03*
%TD*%
D11*
%TO.C,R44*%
X110012500Y-60000000D03*
X108187500Y-60000000D03*
%TD*%
D10*
%TO.C,Q37*%
X168000000Y-64000000D03*
X169900000Y-64000000D03*
X168950000Y-62125000D03*
%TD*%
D17*
%TO.C,U6*%
X130445000Y-79912500D03*
X129175000Y-79912500D03*
X127905000Y-79912500D03*
X126635000Y-79912500D03*
X125365000Y-79912500D03*
X124095000Y-79912500D03*
X122825000Y-79912500D03*
X121555000Y-79912500D03*
X121555000Y-86087500D03*
X122825000Y-86087500D03*
X124095000Y-86087500D03*
X125365000Y-86087500D03*
X126635000Y-86087500D03*
X127905000Y-86087500D03*
X129175000Y-86087500D03*
X130445000Y-86087500D03*
%TD*%
D10*
%TO.C,Q51*%
X132200000Y-64000000D03*
X134100000Y-64000000D03*
X133150000Y-62125000D03*
%TD*%
%TO.C,Q33*%
X96150000Y-63937500D03*
X98050000Y-63937500D03*
X97100000Y-62062500D03*
%TD*%
%TO.C,Q12*%
X141150000Y-72937500D03*
X143050000Y-72937500D03*
X142100000Y-71062500D03*
%TD*%
D13*
%TO.C,R99*%
X100350000Y-66000000D03*
X102000000Y-66000000D03*
%TD*%
%TO.C,R23*%
X156350000Y-66000000D03*
X158000000Y-66000000D03*
%TD*%
D10*
%TO.C,Q42*%
X117200000Y-73000000D03*
X119100000Y-73000000D03*
X118150000Y-71125000D03*
%TD*%
D11*
%TO.C,R60*%
X115012500Y-69000000D03*
X113187500Y-69000000D03*
%TD*%
D17*
%TO.C,U5*%
X115445000Y-79912500D03*
X114175000Y-79912500D03*
X112905000Y-79912500D03*
X111635000Y-79912500D03*
X110365000Y-79912500D03*
X109095000Y-79912500D03*
X107825000Y-79912500D03*
X106555000Y-79912500D03*
X106555000Y-86087500D03*
X107825000Y-86087500D03*
X109095000Y-86087500D03*
X110365000Y-86087500D03*
X111635000Y-86087500D03*
X112905000Y-86087500D03*
X114175000Y-86087500D03*
X115445000Y-86087500D03*
%TD*%
D10*
%TO.C,Q48*%
X220050000Y-63875000D03*
X221950000Y-63875000D03*
X221000000Y-62000000D03*
%TD*%
%TO.C,Q5*%
X152100000Y-64000000D03*
X154000000Y-64000000D03*
X153050000Y-62125000D03*
%TD*%
D13*
%TO.C,R71*%
X168175000Y-66000000D03*
X169825000Y-66000000D03*
%TD*%
%TO.C,R105*%
X201175000Y-74937500D03*
X202825000Y-74937500D03*
%TD*%
%TO.C,R67*%
X96175000Y-66000000D03*
X97825000Y-66000000D03*
%TD*%
D18*
%TO.C,JP1*%
X188150000Y-89400000D03*
D19*
X186850000Y-89400000D03*
%TD*%
D10*
%TO.C,Q19*%
X124200000Y-64000000D03*
X126100000Y-64000000D03*
X125150000Y-62125000D03*
%TD*%
%TO.C,Q17*%
X92325000Y-63937500D03*
X94225000Y-63937500D03*
X93275000Y-62062500D03*
%TD*%
D11*
%TO.C,R45*%
X126100000Y-60000000D03*
X124275000Y-60000000D03*
%TD*%
%TO.C,R63*%
X165912500Y-60125000D03*
X164087500Y-60125000D03*
%TD*%
D17*
%TO.C,U7*%
X144445000Y-79912500D03*
X143175000Y-79912500D03*
X141905000Y-79912500D03*
X140635000Y-79912500D03*
X139365000Y-79912500D03*
X138095000Y-79912500D03*
X136825000Y-79912500D03*
X135555000Y-79912500D03*
X135555000Y-86087500D03*
X136825000Y-86087500D03*
X138095000Y-86087500D03*
X139365000Y-86087500D03*
X140635000Y-86087500D03*
X141905000Y-86087500D03*
X143175000Y-86087500D03*
X144445000Y-86087500D03*
%TD*%
D10*
%TO.C,Q54*%
X188100000Y-64000000D03*
X190000000Y-64000000D03*
X189050000Y-62125000D03*
%TD*%
D11*
%TO.C,R107*%
X102012500Y-60000000D03*
X100187500Y-60000000D03*
%TD*%
%TO.C,R91*%
X103012500Y-69000000D03*
X101187500Y-69000000D03*
%TD*%
%TO.C,R31*%
X158100000Y-60000000D03*
X156275000Y-60000000D03*
%TD*%
D13*
%TO.C,R121*%
X208250000Y-66000000D03*
X209900000Y-66000000D03*
%TD*%
D11*
%TO.C,R127*%
X175912500Y-69000000D03*
X174087500Y-69000000D03*
%TD*%
D17*
%TO.C,U8*%
X159445000Y-79912500D03*
X158175000Y-79912500D03*
X156905000Y-79912500D03*
X155635000Y-79912500D03*
X154365000Y-79912500D03*
X153095000Y-79912500D03*
X151825000Y-79912500D03*
X150555000Y-79912500D03*
X150555000Y-86087500D03*
X151825000Y-86087500D03*
X153095000Y-86087500D03*
X154365000Y-86087500D03*
X155635000Y-86087500D03*
X156905000Y-86087500D03*
X158175000Y-86087500D03*
X159445000Y-86087500D03*
%TD*%
D11*
%TO.C,R48*%
X181912500Y-60000000D03*
X180087500Y-60000000D03*
%TD*%
%TO.C,R49*%
X197825000Y-60000000D03*
X196000000Y-60000000D03*
%TD*%
D10*
%TO.C,Q35*%
X128100000Y-64000000D03*
X130000000Y-64000000D03*
X129050000Y-62125000D03*
%TD*%
D13*
%TO.C,R117*%
X137175000Y-75000000D03*
X138825000Y-75000000D03*
%TD*%
D11*
%TO.C,R46*%
X142012500Y-60000000D03*
X140187500Y-60000000D03*
%TD*%
D10*
%TO.C,Q8*%
X205050000Y-72937500D03*
X206950000Y-72937500D03*
X206000000Y-71062500D03*
%TD*%
D20*
%TO.C,J2*%
X162050000Y-72375000D03*
D21*
X163650000Y-70375000D03*
D22*
X166150000Y-70375000D03*
%TD*%
D11*
%TO.C,R29*%
X127012500Y-69000000D03*
X125187500Y-69000000D03*
%TD*%
D10*
%TO.C,Q26*%
X113200000Y-73000000D03*
X115100000Y-73000000D03*
X114150000Y-71125000D03*
%TD*%
D13*
%TO.C,R116*%
X121350000Y-75000000D03*
X123000000Y-75000000D03*
%TD*%
D11*
%TO.C,R92*%
X119100000Y-69000000D03*
X117275000Y-69000000D03*
%TD*%
D10*
%TO.C,Q45*%
X170100000Y-73000000D03*
X172000000Y-73000000D03*
X171050000Y-71125000D03*
%TD*%
D13*
%TO.C,R5*%
X120350000Y-66000000D03*
X122000000Y-66000000D03*
%TD*%
D23*
%TO.C,D2*%
X145987500Y-97000000D03*
X144412500Y-97000000D03*
%TD*%
D10*
%TO.C,Q59*%
X137100000Y-73000000D03*
X139000000Y-73000000D03*
X138050000Y-71125000D03*
%TD*%
%TO.C,Q49*%
X100150000Y-63937500D03*
X102050000Y-63937500D03*
X101100000Y-62062500D03*
%TD*%
D13*
%TO.C,R74*%
X210175000Y-74937500D03*
X211825000Y-74937500D03*
%TD*%
%TO.C,R73*%
X200350000Y-66000000D03*
X202000000Y-66000000D03*
%TD*%
D10*
%TO.C,Q31*%
X198050000Y-73000000D03*
X199950000Y-73000000D03*
X199000000Y-71125000D03*
%TD*%
D13*
%TO.C,R4*%
X104175000Y-66000000D03*
X105825000Y-66000000D03*
%TD*%
D11*
%TO.C,R114*%
X217412500Y-68100000D03*
X215587500Y-68100000D03*
%TD*%
D10*
%TO.C,Q6*%
X175912500Y-64000000D03*
X177812500Y-64000000D03*
X176862500Y-62125000D03*
%TD*%
%TO.C,Q18*%
X108150000Y-63937500D03*
X110050000Y-63937500D03*
X109100000Y-62062500D03*
%TD*%
D11*
%TO.C,R33*%
X196000000Y-69000000D03*
X194175000Y-69000000D03*
%TD*%
%TO.C,R43*%
X93825000Y-60000000D03*
X92000000Y-60000000D03*
%TD*%
D10*
%TO.C,Q32*%
X216050000Y-63937500D03*
X217950000Y-63937500D03*
X217000000Y-62062500D03*
%TD*%
D13*
%TO.C,R103*%
X172350000Y-66000000D03*
X174000000Y-66000000D03*
%TD*%
D11*
%TO.C,R18*%
X206912500Y-69000000D03*
X205087500Y-69000000D03*
%TD*%
D13*
%TO.C,R6*%
X136175000Y-66000000D03*
X137825000Y-66000000D03*
%TD*%
D15*
%TO.C,C4*%
X132700000Y-86575000D03*
X132700000Y-85025000D03*
%TD*%
D13*
%TO.C,R89*%
X204250000Y-66000000D03*
X205900000Y-66000000D03*
%TD*%
D17*
%TO.C,U9*%
X175445000Y-79912500D03*
X174175000Y-79912500D03*
X172905000Y-79912500D03*
X171635000Y-79912500D03*
X170365000Y-79912500D03*
X169095000Y-79912500D03*
X167825000Y-79912500D03*
X166555000Y-79912500D03*
X166555000Y-86087500D03*
X167825000Y-86087500D03*
X169095000Y-86087500D03*
X170365000Y-86087500D03*
X171635000Y-86087500D03*
X172905000Y-86087500D03*
X174175000Y-86087500D03*
X175445000Y-86087500D03*
%TD*%
D13*
%TO.C,R22*%
X141350000Y-75000000D03*
X143000000Y-75000000D03*
%TD*%
D10*
%TO.C,Q15*%
X194000000Y-73000000D03*
X195900000Y-73000000D03*
X194950000Y-71125000D03*
%TD*%
%TO.C,Q25*%
X97200000Y-73000000D03*
X99100000Y-73000000D03*
X98150000Y-71125000D03*
%TD*%
%TO.C,Q39*%
X200000000Y-64000000D03*
X201900000Y-64000000D03*
X200950000Y-62125000D03*
%TD*%
%TO.C,Q61*%
X174000000Y-73000000D03*
X175900000Y-73000000D03*
X174950000Y-71125000D03*
%TD*%
D13*
%TO.C,R119*%
X174075000Y-75000000D03*
X175725000Y-75000000D03*
%TD*%
D15*
%TO.C,C6*%
X146500000Y-86575000D03*
X146500000Y-85025000D03*
%TD*%
%TO.C,C2*%
X205800000Y-83575000D03*
X205800000Y-82025000D03*
%TD*%
D10*
%TO.C,Q27*%
X129150000Y-72937500D03*
X131050000Y-72937500D03*
X130100000Y-71062500D03*
%TD*%
D15*
%TO.C,C10*%
X192600000Y-86575000D03*
X192600000Y-85025000D03*
%TD*%
D13*
%TO.C,R37*%
X124175000Y-66000000D03*
X125825000Y-66000000D03*
%TD*%
D11*
%TO.C,R16*%
X177912500Y-60000000D03*
X176087500Y-60000000D03*
%TD*%
D13*
%TO.C,R58*%
X216250000Y-66000000D03*
X217900000Y-66000000D03*
%TD*%
D10*
%TO.C,Q50*%
X116150000Y-63937500D03*
X118050000Y-63937500D03*
X117100000Y-62062500D03*
%TD*%
D13*
%TO.C,R36*%
X108175000Y-66000000D03*
X109825000Y-66000000D03*
%TD*%
D11*
%TO.C,R126*%
X155012500Y-69000000D03*
X153187500Y-69000000D03*
%TD*%
D20*
%TO.C,J1*%
X148850000Y-96075000D03*
D24*
X150450000Y-94075000D03*
D25*
X152950000Y-94075000D03*
X155450000Y-94075000D03*
X157950000Y-94075000D03*
%TD*%
D11*
%TO.C,R65*%
X200000000Y-69000000D03*
X198175000Y-69000000D03*
%TD*%
%TO.C,R111*%
X174100000Y-60000000D03*
X172275000Y-60000000D03*
%TD*%
%TO.C,R11*%
X91187500Y-69000000D03*
X89362500Y-69000000D03*
%TD*%
D13*
%TO.C,R70*%
X144075000Y-66000000D03*
X145725000Y-66000000D03*
%TD*%
%TO.C,R87*%
X170350000Y-75000000D03*
X172000000Y-75000000D03*
%TD*%
%TO.C,R88*%
X186250000Y-75000000D03*
X187900000Y-75000000D03*
%TD*%
D15*
%TO.C,C7*%
X161500000Y-86475000D03*
X161500000Y-84925000D03*
%TD*%
D23*
%TO.C,D1*%
X159212500Y-72200000D03*
X157637500Y-72200000D03*
%TD*%
D10*
%TO.C,Q13*%
X156100000Y-64000000D03*
X158000000Y-64000000D03*
X157050000Y-62125000D03*
%TD*%
D13*
%TO.C,R39*%
X160350000Y-66000000D03*
X162000000Y-66000000D03*
%TD*%
D14*
%TO.C,U3*%
X121190000Y-95285000D03*
X122460000Y-95285000D03*
X123730000Y-95285000D03*
X125000000Y-95285000D03*
X126270000Y-95285000D03*
X127540000Y-95285000D03*
X128810000Y-95285000D03*
X128810000Y-90335000D03*
X127540000Y-90335000D03*
X126270000Y-90335000D03*
X125000000Y-90335000D03*
X123730000Y-90335000D03*
X122460000Y-90335000D03*
X121190000Y-90335000D03*
%TD*%
D10*
%TO.C,Q40*%
X212050000Y-72937500D03*
X213950000Y-72937500D03*
X213000000Y-71062500D03*
%TD*%
D13*
%TO.C,R118*%
X153350000Y-75000000D03*
X155000000Y-75000000D03*
%TD*%
D11*
%TO.C,R96*%
X187912500Y-69000000D03*
X186087500Y-69000000D03*
%TD*%
%TO.C,R80*%
X185825000Y-60000000D03*
X184000000Y-60000000D03*
%TD*%
%TO.C,R98*%
X221912500Y-60000000D03*
X220087500Y-60000000D03*
%TD*%
%TO.C,R109*%
X134012500Y-60000000D03*
X132187500Y-60000000D03*
%TD*%
%TO.C,R47*%
X162000000Y-60000000D03*
X160175000Y-60000000D03*
%TD*%
D10*
%TO.C,Q28*%
X145200000Y-73000000D03*
X147100000Y-73000000D03*
X146150000Y-71125000D03*
%TD*%
D13*
%TO.C,R120*%
X190250000Y-75000000D03*
X191900000Y-75000000D03*
%TD*%
%TO.C,R26*%
X212250000Y-66000000D03*
X213900000Y-66000000D03*
%TD*%
D10*
%TO.C,Q44*%
X149200000Y-73000000D03*
X151100000Y-73000000D03*
X150150000Y-71125000D03*
%TD*%
D13*
%TO.C,R52*%
X113350000Y-75000000D03*
X115000000Y-75000000D03*
%TD*%
D11*
%TO.C,R108*%
X118100000Y-60000000D03*
X116275000Y-60000000D03*
%TD*%
%TO.C,R66*%
X217912500Y-60000000D03*
X216087500Y-60000000D03*
%TD*%
D13*
%TO.C,R10*%
X204175000Y-74937500D03*
X205825000Y-74937500D03*
%TD*%
D11*
%TO.C,R59*%
X99062500Y-69062500D03*
X97237500Y-69062500D03*
%TD*%
D13*
%TO.C,R106*%
X213175000Y-74937500D03*
X214825000Y-74937500D03*
%TD*%
D15*
%TO.C,C9*%
X177700000Y-86475000D03*
X177700000Y-84925000D03*
%TD*%
D13*
%TO.C,R69*%
X128350000Y-66000000D03*
X130000000Y-66000000D03*
%TD*%
%TO.C,R8*%
X176262500Y-66000000D03*
X177912500Y-66000000D03*
%TD*%
%TO.C,R85*%
X133175000Y-75000000D03*
X134825000Y-75000000D03*
%TD*%
D26*
%TO.C,TP2*%
X197000000Y-90300000D03*
%TD*%
D11*
%TO.C,R50*%
X210412500Y-68937500D03*
X208587500Y-68937500D03*
%TD*%
D13*
%TO.C,R21*%
X125175000Y-75000000D03*
X126825000Y-75000000D03*
%TD*%
D10*
%TO.C,Q41*%
X101150000Y-72937500D03*
X103050000Y-72937500D03*
X102100000Y-71062500D03*
%TD*%
D11*
%TO.C,R112*%
X189912500Y-60000000D03*
X188087500Y-60000000D03*
%TD*%
D13*
%TO.C,R3*%
X89450000Y-75000000D03*
X91100000Y-75000000D03*
%TD*%
D10*
%TO.C,Q20*%
X140150000Y-63937500D03*
X142050000Y-63937500D03*
X141100000Y-62062500D03*
%TD*%
D12*
%TO.C,R2*%
X146025000Y-95100000D03*
X144375000Y-95100000D03*
%TD*%
D10*
%TO.C,Q7*%
X192000000Y-64000000D03*
X193900000Y-64000000D03*
X192950000Y-62125000D03*
%TD*%
D13*
%TO.C,R40*%
X180525000Y-66000000D03*
X182175000Y-66000000D03*
%TD*%
%TO.C,R115*%
X105175000Y-75000000D03*
X106825000Y-75000000D03*
%TD*%
D11*
%TO.C,R30*%
X143012500Y-69000000D03*
X141187500Y-69000000D03*
%TD*%
D17*
%TO.C,U2*%
X100445000Y-79912500D03*
X99175000Y-79912500D03*
X97905000Y-79912500D03*
X96635000Y-79912500D03*
X95365000Y-79912500D03*
X94095000Y-79912500D03*
X92825000Y-79912500D03*
X91555000Y-79912500D03*
X91555000Y-86087500D03*
X92825000Y-86087500D03*
X94095000Y-86087500D03*
X95365000Y-86087500D03*
X96635000Y-86087500D03*
X97905000Y-86087500D03*
X99175000Y-86087500D03*
X100445000Y-86087500D03*
%TD*%
D10*
%TO.C,Q36*%
X144150000Y-63937500D03*
X146050000Y-63937500D03*
X145100000Y-62062500D03*
%TD*%
D11*
%TO.C,R79*%
X170000000Y-60000000D03*
X168175000Y-60000000D03*
%TD*%
%TO.C,R81*%
X201912500Y-60000000D03*
X200087500Y-60000000D03*
%TD*%
D10*
%TO.C,Q53*%
X172100000Y-64000000D03*
X174000000Y-64000000D03*
X173050000Y-62125000D03*
%TD*%
D27*
%TO.C,U12*%
X83250000Y-61500000D03*
X231250000Y-61500000D03*
D28*
X78500000Y-53000000D03*
X81000000Y-53000000D03*
X83500000Y-53000000D03*
X86000000Y-53000000D03*
X88500000Y-53000000D03*
X91000000Y-53000000D03*
X93500000Y-53000000D03*
X96000000Y-53000000D03*
X98500000Y-53000000D03*
X101000000Y-53000000D03*
X103500000Y-53000000D03*
X106000000Y-53000000D03*
X108500000Y-53000000D03*
X111000000Y-53000000D03*
X113500000Y-53000000D03*
X116000000Y-53000000D03*
X118500000Y-53000000D03*
X121000000Y-53000000D03*
X123500000Y-53000000D03*
X126000000Y-53000000D03*
X128500000Y-53000000D03*
X131000000Y-53000000D03*
X133500000Y-53000000D03*
X136000000Y-53000000D03*
X138500000Y-53000000D03*
X141000000Y-53000000D03*
X143500000Y-53000000D03*
X146000000Y-53000000D03*
X148500000Y-53000000D03*
X151000000Y-53000000D03*
X153500000Y-53000000D03*
X156000000Y-53000000D03*
X158500000Y-53000000D03*
X161000000Y-53000000D03*
X163500000Y-53000000D03*
X166000000Y-53000000D03*
X168500000Y-53000000D03*
X171000000Y-53000000D03*
X173500000Y-53000000D03*
X176000000Y-53000000D03*
X178500000Y-53000000D03*
X181000000Y-53000000D03*
X183500000Y-53000000D03*
X186000000Y-53000000D03*
X188500000Y-53000000D03*
X191000000Y-53000000D03*
X193500000Y-53000000D03*
X196000000Y-53000000D03*
X198500000Y-53000000D03*
X201000000Y-53000000D03*
X203500000Y-53000000D03*
X206000000Y-53000000D03*
X208500000Y-53000000D03*
X211000000Y-53000000D03*
X213500000Y-53000000D03*
X216000000Y-53000000D03*
X218500000Y-53000000D03*
X221000000Y-53000000D03*
X223500000Y-53000000D03*
X226000000Y-53000000D03*
X228500000Y-53000000D03*
X231000000Y-53000000D03*
X233500000Y-53000000D03*
X236000000Y-53000000D03*
%TD*%
D11*
%TO.C,R12*%
X106012500Y-60000000D03*
X104187500Y-60000000D03*
%TD*%
D13*
%TO.C,R104*%
X188350000Y-66000000D03*
X190000000Y-66000000D03*
%TD*%
%TO.C,R72*%
X184350000Y-66000000D03*
X186000000Y-66000000D03*
%TD*%
D11*
%TO.C,R123*%
X107012500Y-69000000D03*
X105187500Y-69000000D03*
%TD*%
D26*
%TO.C,TP1*%
X192900000Y-90300000D03*
%TD*%
D10*
%TO.C,Q43*%
X133150000Y-72937500D03*
X135050000Y-72937500D03*
X134100000Y-71062500D03*
%TD*%
%TO.C,Q2*%
X104150000Y-63937500D03*
X106050000Y-63937500D03*
X105100000Y-62062500D03*
%TD*%
D11*
%TO.C,R130*%
X225912500Y-60000000D03*
X224087500Y-60000000D03*
%TD*%
D13*
%TO.C,R51*%
X97350000Y-75000000D03*
X99000000Y-75000000D03*
%TD*%
D10*
%TO.C,Q64*%
X224000000Y-64000000D03*
X225900000Y-64000000D03*
X224950000Y-62125000D03*
%TD*%
D13*
%TO.C,R53*%
X129350000Y-75000000D03*
X131000000Y-75000000D03*
%TD*%
D10*
%TO.C,Q11*%
X125200000Y-73000000D03*
X127100000Y-73000000D03*
X126150000Y-71125000D03*
%TD*%
D29*
%TO.C,C8*%
X164400000Y-89825000D03*
X164400000Y-91375000D03*
%TD*%
D13*
%TO.C,R57*%
X197900000Y-75000000D03*
X199550000Y-75000000D03*
%TD*%
D10*
%TO.C,Q23*%
X196100000Y-64000000D03*
X198000000Y-64000000D03*
X197050000Y-62125000D03*
%TD*%
%TO.C,Q63*%
X208100000Y-64000000D03*
X210000000Y-64000000D03*
X209050000Y-62125000D03*
%TD*%
%TO.C,Q52*%
X148100000Y-64000000D03*
X150000000Y-64000000D03*
X149050000Y-62125000D03*
%TD*%
D30*
%TO.C,H2*%
X187000000Y-95000000D03*
D31*
X189950000Y-95000000D03*
%TD*%
D10*
%TO.C,Q9*%
X93325000Y-72937500D03*
X95225000Y-72937500D03*
X94275000Y-71062500D03*
%TD*%
%TO.C,Q24*%
X208550000Y-72937500D03*
X210450000Y-72937500D03*
X209500000Y-71062500D03*
%TD*%
D15*
%TO.C,C5*%
X102400000Y-86475000D03*
X102400000Y-84925000D03*
%TD*%
D13*
%TO.C,R7*%
X152175000Y-66000000D03*
X153825000Y-66000000D03*
%TD*%
%TO.C,R42*%
X207175000Y-74937500D03*
X208825000Y-74937500D03*
%TD*%
D11*
%TO.C,R110*%
X150100000Y-60000000D03*
X148275000Y-60000000D03*
%TD*%
%TO.C,R14*%
X137775000Y-60000000D03*
X135950000Y-60000000D03*
%TD*%
D10*
%TO.C,Q60*%
X153100000Y-73000000D03*
X155000000Y-73000000D03*
X154050000Y-71125000D03*
%TD*%
%TO.C,Q4*%
X135825000Y-63937500D03*
X137725000Y-63937500D03*
X136775000Y-62062500D03*
%TD*%
D30*
%TO.C,H1*%
X111000000Y-95000000D03*
D31*
X113950000Y-95000000D03*
%TD*%
D13*
%TO.C,R83*%
X101175000Y-75000000D03*
X102825000Y-75000000D03*
%TD*%
D15*
%TO.C,C11*%
X135700000Y-95875000D03*
X135700000Y-94325000D03*
%TD*%
D11*
%TO.C,R34*%
X213912500Y-60000000D03*
X212087500Y-60000000D03*
%TD*%
D13*
%TO.C,R20*%
X109175000Y-75000000D03*
X110825000Y-75000000D03*
%TD*%
D10*
%TO.C,Q16*%
X212000000Y-64000000D03*
X213900000Y-64000000D03*
X212950000Y-62125000D03*
%TD*%
D17*
%TO.C,U10*%
X190445000Y-79912500D03*
X189175000Y-79912500D03*
X187905000Y-79912500D03*
X186635000Y-79912500D03*
X185365000Y-79912500D03*
X184095000Y-79912500D03*
X182825000Y-79912500D03*
X181555000Y-79912500D03*
X181555000Y-86087500D03*
X182825000Y-86087500D03*
X184095000Y-86087500D03*
X185365000Y-86087500D03*
X186635000Y-86087500D03*
X187905000Y-86087500D03*
X189175000Y-86087500D03*
X190445000Y-86087500D03*
%TD*%
D11*
%TO.C,R93*%
X135100000Y-69000000D03*
X133275000Y-69000000D03*
%TD*%
D10*
%TO.C,Q3*%
X120100000Y-64000000D03*
X122000000Y-64000000D03*
X121050000Y-62125000D03*
%TD*%
D11*
%TO.C,R64*%
X183912500Y-69000000D03*
X182087500Y-69000000D03*
%TD*%
D10*
%TO.C,Q56*%
X215550000Y-72037500D03*
X217450000Y-72037500D03*
X216500000Y-70162500D03*
%TD*%
%TO.C,Q14*%
X177825000Y-72926519D03*
X179725000Y-72926519D03*
X178775000Y-71051519D03*
%TD*%
D11*
%TO.C,R129*%
X209912500Y-60000000D03*
X208087500Y-60000000D03*
%TD*%
%TO.C,R82*%
X213912500Y-68937500D03*
X212087500Y-68937500D03*
%TD*%
D13*
%TO.C,R9*%
X192350000Y-66000000D03*
X194000000Y-66000000D03*
%TD*%
M02*
