%TF.GenerationSoftware,KiCad,Pcbnew,8.0.2*%
%TF.CreationDate,2024-05-31T12:09:55-04:00*%
%TF.ProjectId,kathodeDriver,6b617468-6f64-4654-9472-697665722e6b,rev?*%
%TF.SameCoordinates,Original*%
%TF.FileFunction,Copper,L3,Inr*%
%TF.FilePolarity,Positive*%
%FSLAX46Y46*%
G04 Gerber Fmt 4.6, Leading zero omitted, Abs format (unit mm)*
G04 Created by KiCad (PCBNEW 8.0.2) date 2024-05-31 12:09:55*
%MOMM*%
%LPD*%
G01*
G04 APERTURE LIST*
G04 Aperture macros list*
%AMRoundRect*
0 Rectangle with rounded corners*
0 $1 Rounding radius*
0 $2 $3 $4 $5 $6 $7 $8 $9 X,Y pos of 4 corners*
0 Add a 4 corners polygon primitive as box body*
4,1,4,$2,$3,$4,$5,$6,$7,$8,$9,$2,$3,0*
0 Add four circle primitives for the rounded corners*
1,1,$1+$1,$2,$3*
1,1,$1+$1,$4,$5*
1,1,$1+$1,$6,$7*
1,1,$1+$1,$8,$9*
0 Add four rect primitives between the rounded corners*
20,1,$1+$1,$2,$3,$4,$5,0*
20,1,$1+$1,$4,$5,$6,$7,0*
20,1,$1+$1,$6,$7,$8,$9,0*
20,1,$1+$1,$8,$9,$2,$3,0*%
G04 Aperture macros list end*
%TA.AperFunction,ComponentPad*%
%ADD10RoundRect,0.250000X-0.600000X-0.750000X0.600000X-0.750000X0.600000X0.750000X-0.600000X0.750000X0*%
%TD*%
%TA.AperFunction,ComponentPad*%
%ADD11O,1.700000X2.000000*%
%TD*%
%TA.AperFunction,ComponentPad*%
%ADD12RoundRect,0.250000X-0.600000X-0.725000X0.600000X-0.725000X0.600000X0.725000X-0.600000X0.725000X0*%
%TD*%
%TA.AperFunction,ComponentPad*%
%ADD13O,1.700000X1.950000*%
%TD*%
%TA.AperFunction,ComponentPad*%
%ADD14C,2.000000*%
%TD*%
%TA.AperFunction,ComponentPad*%
%ADD15RoundRect,0.375000X0.375000X-1.125000X0.375000X1.125000X-0.375000X1.125000X-0.375000X-1.125000X0*%
%TD*%
%TA.AperFunction,ViaPad*%
%ADD16C,0.600000*%
%TD*%
%TA.AperFunction,ViaPad*%
%ADD17C,0.500000*%
%TD*%
%TA.AperFunction,ViaPad*%
%ADD18C,0.350000*%
%TD*%
%TA.AperFunction,Conductor*%
%ADD19C,0.200000*%
%TD*%
%TA.AperFunction,Conductor*%
%ADD20C,0.100000*%
%TD*%
G04 APERTURE END LIST*
D10*
%TO.N,HT*%
%TO.C,J2*%
X163650000Y-70375000D03*
D11*
%TO.N,GND*%
X166150000Y-70375000D03*
%TD*%
D12*
%TO.N,VCC*%
%TO.C,J1*%
X150450000Y-94075000D03*
D13*
%TO.N,/INPUT_CLK*%
X152950000Y-94075000D03*
%TO.N,/RESET_COUNT*%
X155450000Y-94075000D03*
%TO.N,GND*%
X157950000Y-94075000D03*
%TD*%
D14*
%TO.N,Net-(U11-Cout)*%
%TO.C,TP2*%
X197000000Y-90300000D03*
%TD*%
D15*
%TO.N,/OUT_K0*%
%TO.C,U12*%
X78500000Y-53000000D03*
%TO.N,/OUT_K1*%
X81000000Y-53000000D03*
%TO.N,/OUT_K2*%
X83500000Y-53000000D03*
%TO.N,/OUT_K3*%
X86000000Y-53000000D03*
%TO.N,/OUT_K4*%
X88500000Y-53000000D03*
%TO.N,/OUT_K5*%
X91000000Y-53000000D03*
%TO.N,/OUT_K6*%
X93500000Y-53000000D03*
%TO.N,/OUT_K7*%
X96000000Y-53000000D03*
%TO.N,/OUT_K8*%
X98500000Y-53000000D03*
%TO.N,/OUT_K9*%
X101000000Y-53000000D03*
%TO.N,/OUT_K10*%
X103500000Y-53000000D03*
%TO.N,/OUT_K11*%
X106000000Y-53000000D03*
%TO.N,/OUT_K12*%
X108500000Y-53000000D03*
%TO.N,/OUT_K13*%
X111000000Y-53000000D03*
%TO.N,/OUT_K14*%
X113500000Y-53000000D03*
%TO.N,/OUT_K15*%
X116000000Y-53000000D03*
%TO.N,/OUT_K16*%
X118500000Y-53000000D03*
%TO.N,/OUT_K17*%
X121000000Y-53000000D03*
%TO.N,/OUT_K18*%
X123500000Y-53000000D03*
%TO.N,/OUT_K19*%
X126000000Y-53000000D03*
%TO.N,/OUT_K20*%
X128500000Y-53000000D03*
%TO.N,/OUT_K21*%
X131000000Y-53000000D03*
%TO.N,/OUT_K22*%
X133500000Y-53000000D03*
%TO.N,/OUT_K23*%
X136000000Y-53000000D03*
%TO.N,/OUT_K24*%
X138500000Y-53000000D03*
%TO.N,/OUT_K25*%
X141000000Y-53000000D03*
%TO.N,/OUT_K26*%
X143500000Y-53000000D03*
%TO.N,/OUT_K27*%
X146000000Y-53000000D03*
%TO.N,/OUT_K28*%
X148500000Y-53000000D03*
%TO.N,/OUT_K29*%
X151000000Y-53000000D03*
%TO.N,/OUT_K30*%
X153500000Y-53000000D03*
%TO.N,/OUT_K31*%
X156000000Y-53000000D03*
%TO.N,/OUT_K32*%
X158500000Y-53000000D03*
%TO.N,/OUT_K33*%
X161000000Y-53000000D03*
%TO.N,/OUT_K34*%
X163500000Y-53000000D03*
%TO.N,/OUT_K35*%
X166000000Y-53000000D03*
%TO.N,/OUT_K36*%
X168500000Y-53000000D03*
%TO.N,/OUT_K37*%
X171000000Y-53000000D03*
%TO.N,/OUT_K38*%
X173500000Y-53000000D03*
%TO.N,/OUT_K39*%
X176000000Y-53000000D03*
%TO.N,/OUT_K40*%
X178500000Y-53000000D03*
%TO.N,/OUT_K41*%
X181000000Y-53000000D03*
%TO.N,/OUT_K42*%
X183500000Y-53000000D03*
%TO.N,/OUT_K43*%
X186000000Y-53000000D03*
%TO.N,/OUT_K44*%
X188500000Y-53000000D03*
%TO.N,/OUT_K45*%
X191000000Y-53000000D03*
%TO.N,/OUT_K46*%
X193500000Y-53000000D03*
%TO.N,/OUT_K47*%
X196000000Y-53000000D03*
%TO.N,/OUT_K48*%
X198500000Y-53000000D03*
%TO.N,/OUT_K49*%
X201000000Y-53000000D03*
%TO.N,/OUT_K50*%
X203500000Y-53000000D03*
%TO.N,/OUT_K51*%
X206000000Y-53000000D03*
%TO.N,/OUT_K52*%
X208500000Y-53000000D03*
%TO.N,/OUT_K53*%
X211000000Y-53000000D03*
%TO.N,/OUT_K54*%
X213500000Y-53000000D03*
%TO.N,/OUT_K55*%
X216000000Y-53000000D03*
%TO.N,/OUT_K56*%
X218500000Y-53000000D03*
%TO.N,/OUT_K57*%
X221000000Y-53000000D03*
%TO.N,/OUT_K58*%
X223500000Y-53000000D03*
%TO.N,/OUT_K59*%
X226000000Y-53000000D03*
%TO.N,/OUT_K60*%
X228500000Y-53000000D03*
%TO.N,/OUT_K61*%
X231000000Y-53000000D03*
%TO.N,/OUT_K62*%
X233500000Y-53000000D03*
%TO.N,/OUT_K63*%
X236000000Y-53000000D03*
%TD*%
D14*
%TO.N,Net-(U11-Q9)*%
%TO.C,TP1*%
X192900000Y-90300000D03*
%TD*%
D16*
%TO.N,GND*%
X109922757Y-63324901D03*
X114200000Y-62800000D03*
X94600000Y-64700000D03*
X135500000Y-78900000D03*
X131300000Y-72200000D03*
X115100000Y-73900000D03*
X181700000Y-78400000D03*
X91400000Y-73600000D03*
X99200000Y-73500000D03*
X201919127Y-65025000D03*
X181970724Y-65025000D03*
X210800000Y-65888239D03*
X106600000Y-78900000D03*
X218300000Y-64900000D03*
X102700000Y-84300000D03*
X162339736Y-64775000D03*
X189800000Y-64900000D03*
X193582134Y-65056554D03*
X118300000Y-64900000D03*
X221413603Y-63913603D03*
X139200000Y-72400000D03*
X118700000Y-85000000D03*
X163700000Y-90900000D03*
X174145404Y-65025000D03*
X123000000Y-72300000D03*
X111300000Y-73700000D03*
X200100000Y-74100000D03*
X134200000Y-65025000D03*
X166800000Y-78800000D03*
X146700000Y-97400000D03*
X129000000Y-94100000D03*
X160600000Y-73500000D03*
X198191068Y-65025000D03*
X121900000Y-78900000D03*
X206404629Y-65090895D03*
X150200000Y-64900000D03*
X106200000Y-62900000D03*
X103300000Y-73800000D03*
X142200000Y-65100000D03*
X127200000Y-72500000D03*
X95400000Y-73600000D03*
X147000000Y-72600000D03*
X155073583Y-73679958D03*
X169800000Y-63500000D03*
X119000000Y-72500000D03*
X214200000Y-72200000D03*
X119200000Y-88500000D03*
X186293505Y-65030477D03*
X172200000Y-73900000D03*
X188100000Y-73800000D03*
X146500000Y-83700000D03*
X177917120Y-65025000D03*
X166312529Y-65033692D03*
X206000000Y-81200000D03*
X203700000Y-72300000D03*
X158300000Y-65000000D03*
X194200000Y-79400000D03*
X207100000Y-72300000D03*
X199500000Y-85000000D03*
X143000000Y-72300000D03*
X98200000Y-64600000D03*
X177500000Y-84300000D03*
X113813547Y-65025000D03*
X175900000Y-73900000D03*
X130200000Y-64900000D03*
X192100000Y-74025000D03*
X210600000Y-72300000D03*
X225842728Y-65025000D03*
X174000000Y-94100000D03*
X150800000Y-78900000D03*
X126000000Y-65025000D03*
X214729335Y-65000000D03*
X192500000Y-83600000D03*
X146300000Y-65100000D03*
X131900000Y-92100000D03*
X133100000Y-84300000D03*
X138448713Y-65166238D03*
X179826014Y-73951519D03*
X107100000Y-73600000D03*
X135200000Y-72100000D03*
X196254356Y-74041989D03*
X217700000Y-71300000D03*
X91600000Y-78800000D03*
X161900000Y-83900000D03*
X136000000Y-93200006D03*
X102300000Y-62900000D03*
X154309111Y-65081045D03*
X184000000Y-73800000D03*
X151300000Y-73900000D03*
X122900000Y-64600000D03*
%TO.N,VCC*%
X100800000Y-85300000D03*
X115600000Y-84900000D03*
X190400000Y-85100000D03*
X159100000Y-85700000D03*
X134500000Y-95875000D03*
X121600000Y-88900000D03*
X144600000Y-85100000D03*
X203500000Y-85000000D03*
X175600000Y-85000000D03*
X130700000Y-85000000D03*
X166200000Y-89200000D03*
D17*
%TO.N,HT*%
X222549999Y-61505029D03*
X192400000Y-67971458D03*
D16*
X107699999Y-70523473D03*
D17*
X110337567Y-60487644D03*
X131500000Y-69500000D03*
X214871225Y-62041166D03*
D16*
X94375000Y-60376262D03*
D17*
X151425216Y-69497907D03*
X225849189Y-59548729D03*
D16*
X98698699Y-61402091D03*
D17*
X139500000Y-69500000D03*
X182856202Y-61665141D03*
X210152579Y-68049504D03*
X203885251Y-68194528D03*
X202500000Y-61500000D03*
X214200000Y-68300000D03*
X134425216Y-60497907D03*
X172325348Y-68495877D03*
X130425216Y-60497907D03*
X154500000Y-60500000D03*
X158412693Y-60496621D03*
X147500000Y-69500000D03*
X190599859Y-61503997D03*
X199700000Y-68000000D03*
X188000000Y-68000000D03*
X119337567Y-69487644D03*
X122500000Y-60500000D03*
X209866866Y-59988781D03*
D16*
X99375123Y-69492576D03*
D17*
X194499999Y-61557066D03*
X186883247Y-61621501D03*
D18*
X206000000Y-61000000D03*
D17*
X111113563Y-69370943D03*
D16*
X103146954Y-69333521D03*
D17*
X196500000Y-68000000D03*
X115500000Y-69500000D03*
X150462500Y-60496624D03*
D16*
X91070172Y-67976344D03*
D17*
X184000000Y-68000000D03*
X135500000Y-69500000D03*
X142225960Y-60446456D03*
D16*
X102699999Y-61523473D03*
D17*
X160300000Y-70600000D03*
X198883247Y-61621501D03*
X126500000Y-60500000D03*
X219000000Y-62000000D03*
D16*
X95050000Y-67994570D03*
D17*
X176000000Y-68500000D03*
X178500000Y-61500000D03*
X207100000Y-68200000D03*
X123425216Y-69497907D03*
X166500000Y-61000000D03*
X114500000Y-60500000D03*
X170324170Y-60854562D03*
X142806534Y-67899487D03*
X174500000Y-57000000D03*
X127425216Y-69497907D03*
X146562509Y-60979707D03*
X162325000Y-60469494D03*
X217885529Y-68583099D03*
X106383247Y-60536496D03*
X155500000Y-69500000D03*
X180000000Y-68000000D03*
X118500000Y-60500000D03*
X138100216Y-60497907D03*
D16*
%TO.N,Net-(JP1-A)*%
X194600000Y-87000000D03*
X188775000Y-88775000D03*
D18*
%TO.N,/K0*%
X114200000Y-84700000D03*
X97800000Y-78200000D03*
X101500000Y-81100000D03*
X91200000Y-75700000D03*
%TO.N,/K8*%
X105400000Y-77700000D03*
X106000000Y-66500000D03*
%TO.N,/K16*%
X119500000Y-77600000D03*
X122100000Y-66600000D03*
%TO.N,/K24*%
X138200000Y-66600000D03*
X137800000Y-77000000D03*
%TO.N,/K32*%
X154400000Y-76600000D03*
X154200000Y-66900000D03*
%TO.N,/K40*%
X178400000Y-76400000D03*
X178400000Y-66600000D03*
%TO.N,/K48*%
X193900000Y-66600000D03*
X193200000Y-75200000D03*
D17*
%TO.N,/OUT_K0*%
X89000000Y-68000000D03*
%TO.N,/OUT_K8*%
X104008395Y-58986902D03*
%TO.N,/OUT_K16*%
X119792522Y-59000000D03*
%TO.N,/OUT_K24*%
X136652683Y-58320476D03*
%TO.N,/OUT_K32*%
X153820153Y-58175000D03*
%TO.N,/OUT_K40*%
X176328196Y-58834042D03*
%TO.N,/OUT_K48*%
X192899696Y-58305768D03*
%TO.N,/OUT_K56*%
X205700000Y-67833630D03*
D18*
%TO.N,/K1*%
X95800000Y-75300000D03*
X98800000Y-77600000D03*
%TO.N,/K9*%
X113400000Y-78200000D03*
X111600000Y-75100000D03*
%TO.N,/K17*%
X127800000Y-75100000D03*
X129100000Y-78800000D03*
%TO.N,/K25*%
X143200000Y-78700000D03*
X143200000Y-75800000D03*
%TO.N,/K33*%
X158200000Y-78600000D03*
X158300000Y-66600000D03*
%TO.N,/K41*%
X180300000Y-75000000D03*
X177200000Y-78500000D03*
%TO.N,/K49*%
X195900000Y-75700000D03*
X195900000Y-77300000D03*
%TO.N,/K57*%
X210500000Y-77200000D03*
X214753984Y-66125000D03*
D17*
%TO.N,/OUT_K1*%
X93000000Y-68000000D03*
%TO.N,/OUT_K9*%
X109000000Y-68000000D03*
%TO.N,/OUT_K17*%
X125000000Y-68000000D03*
%TO.N,/OUT_K25*%
X141367130Y-70043561D03*
%TO.N,/OUT_K33*%
X157453455Y-58097780D03*
%TO.N,/OUT_K41*%
X178171658Y-67901822D03*
%TO.N,/OUT_K49*%
X194597356Y-67835001D03*
%TO.N,/OUT_K57*%
X212171225Y-61584428D03*
D18*
%TO.N,/K2*%
X94000000Y-66500000D03*
X96700000Y-77600000D03*
%TO.N,/K10*%
X110000000Y-66500000D03*
X112000000Y-78500000D03*
%TO.N,/K18*%
X126800000Y-78800000D03*
X126000000Y-66500000D03*
%TO.N,/K26*%
X141400000Y-78200000D03*
X141800000Y-66900000D03*
%TO.N,/K34*%
X158700004Y-77000000D03*
X162014124Y-66414124D03*
%TO.N,/K42*%
X182300000Y-66700000D03*
X182600000Y-76900000D03*
%TO.N,/K50*%
X198500000Y-77100000D03*
X198300000Y-66600000D03*
D17*
%TO.N,/OUT_K2*%
X90778711Y-59167978D03*
%TO.N,/OUT_K10*%
X108150000Y-58484871D03*
%TO.N,/OUT_K18*%
X124000000Y-59000000D03*
%TO.N,/OUT_K26*%
X141416240Y-57992950D03*
%TO.N,/OUT_K34*%
X160366349Y-58930165D03*
%TO.N,/OUT_K42*%
X180175000Y-59000000D03*
%TO.N,/OUT_K50*%
X199000000Y-58000000D03*
%TO.N,/OUT_K58*%
X208800000Y-68200000D03*
D18*
%TO.N,/K59*%
X219100000Y-69300000D03*
X207200000Y-77700000D03*
D17*
%TO.N,/OUT_K3*%
X97000000Y-68000000D03*
%TO.N,/OUT_K11*%
X113000000Y-68000000D03*
%TO.N,/OUT_K19*%
X129367130Y-70043561D03*
%TO.N,/OUT_K27*%
X145367130Y-70043561D03*
%TO.N,/OUT_K35*%
X164000000Y-59500000D03*
%TO.N,/OUT_K43*%
X182276113Y-67936156D03*
%TO.N,/OUT_K51*%
X198346658Y-67975303D03*
%TO.N,/OUT_K59*%
X216300000Y-61584428D03*
D18*
%TO.N,/K4*%
X99600000Y-82300000D03*
X98000000Y-66500000D03*
%TO.N,/K12*%
X113800000Y-82259544D03*
X114000000Y-66500000D03*
%TO.N,/K20*%
X130100000Y-82900000D03*
X130500000Y-66700000D03*
%TO.N,/K28*%
X146000000Y-66700000D03*
X145900000Y-82900000D03*
%TO.N,/K36*%
X170300000Y-77300000D03*
X170000000Y-66900000D03*
%TO.N,/K44*%
X186300000Y-66700000D03*
X182800000Y-77900000D03*
%TO.N,/K52*%
X201300000Y-66600000D03*
X202100000Y-77600000D03*
D17*
%TO.N,/OUT_K4*%
X95625000Y-59167978D03*
%TO.N,/OUT_K12*%
X111655033Y-58949928D03*
%TO.N,/OUT_K20*%
X128033578Y-58106269D03*
%TO.N,/OUT_K28*%
X145045405Y-58045405D03*
%TO.N,/OUT_K36*%
X168000000Y-59000000D03*
%TO.N,/OUT_K44*%
X184163524Y-58995493D03*
%TO.N,/OUT_K52*%
X202680421Y-58132922D03*
%TO.N,/OUT_K60*%
X212376925Y-68209241D03*
D18*
%TO.N,/K5*%
X102800000Y-75800000D03*
X100600000Y-77600000D03*
%TO.N,/K13*%
X118700000Y-75800000D03*
X116300000Y-79100000D03*
%TO.N,/K21*%
X134800000Y-75700000D03*
X134800000Y-77600000D03*
%TO.N,/K29*%
X149000000Y-78200000D03*
X151000000Y-75900000D03*
%TO.N,/K37*%
X171500000Y-75700000D03*
X171700000Y-76800000D03*
%TO.N,/K45*%
X188100000Y-76900000D03*
X187900000Y-75600000D03*
%TO.N,/K53*%
X205500000Y-76425000D03*
X205400000Y-66200000D03*
%TO.N,/K61*%
X211300000Y-76300000D03*
X221500000Y-66800000D03*
D17*
%TO.N,/OUT_K5*%
X101000000Y-68000000D03*
%TO.N,/OUT_K13*%
X117000000Y-68000000D03*
%TO.N,/OUT_K21*%
X133444585Y-70019648D03*
%TO.N,/OUT_K29*%
X149444585Y-70019648D03*
%TO.N,/OUT_K37*%
X170000000Y-68000000D03*
%TO.N,/OUT_K45*%
X186276113Y-67936156D03*
%TO.N,/OUT_K53*%
X206184252Y-58050000D03*
%TO.N,/OUT_K61*%
X220820325Y-61699665D03*
D18*
%TO.N,/K6*%
X101800000Y-77100000D03*
X102000000Y-66500000D03*
%TO.N,/K14*%
X118100000Y-77600000D03*
X118000000Y-66500000D03*
%TO.N,/K22*%
X133900000Y-77700000D03*
X134000000Y-66700000D03*
%TO.N,/K30*%
X148400000Y-77600000D03*
X150300000Y-66600000D03*
%TO.N,/K38*%
X172900000Y-76800000D03*
X173900000Y-66900000D03*
%TO.N,/K54*%
X203968826Y-76425000D03*
X202825000Y-74937500D03*
%TO.N,/K62*%
X214200000Y-75500000D03*
X208300000Y-77200000D03*
D17*
%TO.N,/OUT_K6*%
X99941561Y-59345842D03*
%TO.N,/OUT_K14*%
X115577326Y-58972850D03*
%TO.N,/OUT_K22*%
X132500000Y-58500000D03*
%TO.N,/OUT_K30*%
X148405185Y-59004005D03*
%TO.N,/OUT_K38*%
X172446658Y-58975303D03*
%TO.N,/OUT_K46*%
X188150267Y-59499488D03*
%TO.N,/OUT_K54*%
X201600000Y-67800000D03*
%TO.N,/OUT_K62*%
X215868750Y-69531250D03*
D18*
%TO.N,/K55*%
X209300000Y-66000000D03*
X205700000Y-75900000D03*
%TO.N,/K63*%
X219600000Y-68900000D03*
X207700000Y-77500000D03*
D17*
%TO.N,/OUT_K7*%
X105000000Y-68000000D03*
%TO.N,/OUT_K15*%
X120731901Y-67926376D03*
%TO.N,/OUT_K23*%
X137444585Y-70019648D03*
%TO.N,/OUT_K31*%
X153367130Y-70043561D03*
%TO.N,/OUT_K39*%
X174276113Y-67936156D03*
%TO.N,/OUT_K55*%
X208500000Y-61500000D03*
D16*
%TO.N,Net-(U11-Q9)*%
X197095000Y-86087500D03*
%TO.N,Net-(U11-Cout)*%
X198400000Y-86900000D03*
%TO.N,Net-(U2-Reset)*%
X127400000Y-93100000D03*
X128700000Y-93200000D03*
%TO.N,Net-(U5-CLK)*%
X123000000Y-91700000D03*
X123700000Y-94200000D03*
%TO.N,/CLK*%
X122519683Y-89550000D03*
X172600000Y-97400000D03*
X127350000Y-91500000D03*
X172640000Y-93800000D03*
%TO.N,Net-(U7-CKEN)*%
X138200000Y-84800000D03*
X138200000Y-89000000D03*
%TO.N,Net-(U5-CKEN)*%
X125700000Y-92300000D03*
X126259620Y-94250000D03*
%TO.N,Net-(U6-CLK)*%
X125100000Y-96500000D03*
X128000000Y-84900000D03*
%TO.N,Net-(U9-CKEN)*%
X171500000Y-88600000D03*
X169300000Y-87400000D03*
%TO.N,Net-(U8-CKEN)*%
X155000000Y-88900000D03*
X153400000Y-87200000D03*
%TO.N,Net-(U11-CLK)*%
X176359620Y-92359620D03*
X171500000Y-91600000D03*
%TO.N,Net-(U5-Q0)*%
X125200000Y-84100000D03*
X114700000Y-81500000D03*
%TO.N,Net-(U6-Q0)*%
X130800000Y-81300000D03*
X140900000Y-83900000D03*
%TO.N,Net-(U7-Q0)*%
X141900000Y-81100000D03*
X158100544Y-84450000D03*
%TO.N,Net-(U8-Q0)*%
X158100000Y-81325000D03*
X174100000Y-84400000D03*
D18*
%TO.N,/K46*%
X191235876Y-76364124D03*
D16*
X190300000Y-66500000D03*
%TO.N,Net-(U10-Reset)*%
X172900000Y-78800000D03*
X185000000Y-83400000D03*
%TO.N,Net-(U10-Q0)*%
X187900000Y-81100000D03*
X198900000Y-82900000D03*
D17*
%TO.N,/OUT_K47*%
X190276113Y-67936156D03*
%TD*%
D19*
%TO.N,VCC*%
X161600000Y-88200000D02*
X159100000Y-85700000D01*
X123000000Y-88900000D02*
X128000000Y-83900000D01*
X130700000Y-85000000D02*
X132200000Y-83500000D01*
X121600000Y-88900000D02*
X123000000Y-88900000D01*
X191919239Y-85100000D02*
X190400000Y-85100000D01*
X117600000Y-84900000D02*
X115600000Y-84900000D01*
X168700000Y-85900000D02*
X174700000Y-85900000D01*
X139132231Y-83500000D02*
X140832231Y-85200000D01*
X121600000Y-88900000D02*
X117600000Y-84900000D01*
X166200000Y-88200000D02*
X161600000Y-88200000D01*
X132200000Y-83500000D02*
X139132231Y-83500000D01*
X166400000Y-88200000D02*
X168700000Y-85900000D01*
X150450000Y-85150000D02*
X150500000Y-85100000D01*
X174700000Y-85900000D02*
X175600000Y-85000000D01*
X100800000Y-85300000D02*
X115200000Y-85300000D01*
X144500000Y-85200000D02*
X144600000Y-85100000D01*
X134500000Y-88800000D02*
X130700000Y-85000000D01*
X166400000Y-88200000D02*
X166200000Y-88200000D01*
X192919239Y-84100000D02*
X191919239Y-85100000D01*
X144600000Y-85100000D02*
X150500000Y-85100000D01*
X150500000Y-85100000D02*
X158500000Y-85100000D01*
X158500000Y-85100000D02*
X159100000Y-85700000D01*
X203500000Y-85000000D02*
X202600000Y-84100000D01*
X166200000Y-89200000D02*
X166200000Y-88200000D01*
X140832231Y-85200000D02*
X144500000Y-85200000D01*
X190300000Y-85000000D02*
X190400000Y-85100000D01*
X128000000Y-83900000D02*
X129600000Y-83900000D01*
X134500000Y-95875000D02*
X134500000Y-88800000D01*
X129600000Y-83900000D02*
X130700000Y-85000000D01*
X175600000Y-85000000D02*
X190300000Y-85000000D01*
X202600000Y-84100000D02*
X192919239Y-84100000D01*
X150450000Y-94075000D02*
X150450000Y-85150000D01*
X115200000Y-85300000D02*
X115600000Y-84900000D01*
%TO.N,HT*%
X160525000Y-70375000D02*
X163650000Y-70375000D01*
X160300000Y-70600000D02*
X160525000Y-70375000D01*
%TO.N,Net-(JP1-A)*%
X192900000Y-88700000D02*
X188850000Y-88700000D01*
X188850000Y-88700000D02*
X188775000Y-88775000D01*
X194600000Y-87000000D02*
X192900000Y-88700000D01*
D20*
%TO.N,/K0*%
X94000000Y-78200000D02*
X91500000Y-75700000D01*
X97800000Y-78200000D02*
X94000000Y-78200000D01*
X101500000Y-81100000D02*
X110600000Y-81100000D01*
X91500000Y-75700000D02*
X91200000Y-75700000D01*
X110600000Y-81100000D02*
X114200000Y-84700000D01*
%TO.N,/K8*%
X106000000Y-69200000D02*
X106000000Y-66500000D01*
X105400000Y-77700000D02*
X105400000Y-69800000D01*
X105400000Y-69800000D02*
X106000000Y-69200000D01*
%TO.N,/K16*%
X119500000Y-72848529D02*
X122100000Y-70248529D01*
X122100000Y-70248529D02*
X122100000Y-66600000D01*
X119500000Y-77600000D02*
X119500000Y-72848529D01*
%TO.N,/K24*%
X138600000Y-67000000D02*
X138200000Y-66600000D01*
X137800000Y-77000000D02*
X137800000Y-72700000D01*
X138600000Y-71900000D02*
X138600000Y-67000000D01*
X137800000Y-72700000D02*
X138600000Y-71900000D01*
%TO.N,/K32*%
X154400000Y-67100000D02*
X154200000Y-66900000D01*
X154400000Y-76600000D02*
X154400000Y-67100000D01*
%TO.N,/K40*%
X178400000Y-76400000D02*
X178400000Y-70000000D01*
X178400000Y-70000000D02*
X179000000Y-69400000D01*
X179000000Y-67200000D02*
X178400000Y-66600000D01*
X179000000Y-69400000D02*
X179000000Y-67200000D01*
%TO.N,/K48*%
X193200000Y-75200000D02*
X193200000Y-67300000D01*
X193200000Y-67300000D02*
X193900000Y-66600000D01*
D19*
%TO.N,/OUT_K0*%
X89000000Y-68000000D02*
X89000000Y-62697056D01*
X82200000Y-58200000D02*
X78500000Y-54500000D01*
X84502944Y-58200000D02*
X82200000Y-58200000D01*
X78500000Y-54500000D02*
X78500000Y-53600000D01*
X89000000Y-62697056D02*
X84502944Y-58200000D01*
%TO.N,/OUT_K8*%
X103986902Y-58986902D02*
X104008395Y-58986902D01*
X99965840Y-55516870D02*
X100448970Y-56000000D01*
X99930904Y-55516870D02*
X99965840Y-55516870D01*
X98500000Y-53600000D02*
X98500000Y-54085966D01*
X101000000Y-56000000D02*
X103986902Y-58986902D01*
X98500000Y-54085966D02*
X99930904Y-55516870D01*
X100448970Y-56000000D02*
X101000000Y-56000000D01*
%TO.N,/OUT_K16*%
X118500000Y-57707478D02*
X119792522Y-59000000D01*
X118500000Y-53600000D02*
X118500000Y-57707478D01*
%TO.N,/OUT_K24*%
X138500000Y-56473159D02*
X138500000Y-53600000D01*
X136652683Y-58320476D02*
X138500000Y-56473159D01*
%TO.N,/OUT_K32*%
X155127944Y-58175000D02*
X158500000Y-54802944D01*
X158500000Y-54802944D02*
X158500000Y-53600000D01*
X153820153Y-58175000D02*
X155127944Y-58175000D01*
%TO.N,/OUT_K40*%
X176328196Y-58834042D02*
X178500000Y-56662238D01*
X178500000Y-56662238D02*
X178500000Y-53600000D01*
%TO.N,/OUT_K48*%
X192899696Y-58305768D02*
X194280198Y-58305768D01*
X198500000Y-54085966D02*
X198500000Y-53600000D01*
X194280198Y-58305768D02*
X198500000Y-54085966D01*
%TO.N,/OUT_K56*%
X218500000Y-53600000D02*
X218500000Y-53802587D01*
X218500000Y-53802587D02*
X214052587Y-58250000D01*
X210821225Y-60787865D02*
X210821225Y-62712405D01*
X210821225Y-62712405D02*
X205700000Y-67833630D01*
X213359090Y-58250000D02*
X210821225Y-60787865D01*
X214052587Y-58250000D02*
X213359090Y-58250000D01*
D20*
%TO.N,/K1*%
X96500000Y-75300000D02*
X95800000Y-75300000D01*
X98800000Y-77600000D02*
X96500000Y-75300000D01*
%TO.N,/K9*%
X113400000Y-78200000D02*
X113400000Y-76900000D01*
X113400000Y-76900000D02*
X111600000Y-75100000D01*
%TO.N,/K17*%
X129100000Y-76400000D02*
X127800000Y-75100000D01*
X129100000Y-78800000D02*
X129100000Y-76400000D01*
%TO.N,/K25*%
X143200000Y-78700000D02*
X143200000Y-75800000D01*
%TO.N,/K33*%
X158200000Y-66700000D02*
X158300000Y-66600000D01*
X158200000Y-78600000D02*
X158200000Y-66700000D01*
%TO.N,/K41*%
X180300000Y-75400000D02*
X180300000Y-75000000D01*
X177200000Y-78500000D02*
X180300000Y-75400000D01*
%TO.N,/K49*%
X195900000Y-77300000D02*
X195900000Y-75700000D01*
X195800000Y-75600000D02*
X195900000Y-75700000D01*
%TO.N,/K57*%
X211200000Y-68133454D02*
X211200000Y-72548529D01*
X211200000Y-72548529D02*
X210500000Y-73248529D01*
X214753984Y-66125000D02*
X213208454Y-66125000D01*
X210500000Y-73248529D02*
X210500000Y-77200000D01*
X213208454Y-66125000D02*
X211200000Y-68133454D01*
D19*
%TO.N,/OUT_K1*%
X83000000Y-57000000D02*
X81000000Y-55000000D01*
X93000000Y-68000000D02*
X92470172Y-67470172D01*
X81000000Y-55000000D02*
X81000000Y-53600000D01*
X92470172Y-64470172D02*
X85000000Y-57000000D01*
X92470172Y-67470172D02*
X92470172Y-64470172D01*
X85000000Y-57000000D02*
X83000000Y-57000000D01*
%TO.N,/OUT_K9*%
X109000000Y-65697056D02*
X107775216Y-64472272D01*
X109000000Y-68000000D02*
X109000000Y-65697056D01*
X104546091Y-57636902D02*
X101000000Y-54090811D01*
X101000000Y-54090811D02*
X101000000Y-53600000D01*
X105392842Y-57636902D02*
X104546091Y-57636902D01*
X107775216Y-64472272D02*
X107775216Y-60019276D01*
X107775216Y-60019276D02*
X105392842Y-57636902D01*
%TO.N,/OUT_K17*%
X124596016Y-68000000D02*
X121517379Y-64921363D01*
X125000000Y-68000000D02*
X124596016Y-68000000D01*
X121517379Y-64921363D02*
X121517379Y-54117379D01*
X121517379Y-54117379D02*
X121000000Y-53600000D01*
%TO.N,/OUT_K25*%
X141000000Y-56500000D02*
X141000000Y-53600000D01*
X139500000Y-58000000D02*
X141000000Y-56500000D01*
X140875960Y-69552391D02*
X140875960Y-60375960D01*
X141367130Y-70043561D02*
X140875960Y-69552391D01*
X139500000Y-59000000D02*
X139500000Y-58000000D01*
X140875960Y-60375960D02*
X139500000Y-59000000D01*
%TO.N,/OUT_K33*%
X157453455Y-58097780D02*
X161000000Y-54551235D01*
X161000000Y-54551235D02*
X161000000Y-53600000D01*
%TO.N,/OUT_K41*%
X177150000Y-65530673D02*
X177017120Y-65397793D01*
X177017120Y-65397793D02*
X177017120Y-59842174D01*
X177017120Y-59842174D02*
X181000000Y-55859294D01*
X181000000Y-55859294D02*
X181000000Y-53600000D01*
X177150000Y-66880164D02*
X177150000Y-65530673D01*
X178171658Y-67901822D02*
X177150000Y-66880164D01*
%TO.N,/OUT_K49*%
X195849999Y-62059190D02*
X195849999Y-66582358D01*
X201000000Y-54085966D02*
X195850000Y-59235966D01*
X195850000Y-62059189D02*
X195849999Y-62059190D01*
X195850000Y-59235966D02*
X195850000Y-62059189D01*
X195849999Y-66582358D02*
X194597356Y-67835001D01*
X201000000Y-53600000D02*
X201000000Y-54085966D01*
%TO.N,/OUT_K57*%
X218099643Y-55900000D02*
X214549643Y-59450000D01*
X221000000Y-54154156D02*
X219254156Y-55900000D01*
X212321225Y-61434428D02*
X212171225Y-61584428D01*
X219254156Y-55900000D02*
X218099643Y-55900000D01*
X214549643Y-59450000D02*
X213856146Y-59450000D01*
X212321225Y-60984921D02*
X212321225Y-61434428D01*
X213856146Y-59450000D02*
X212321225Y-60984921D01*
X221000000Y-53600000D02*
X221000000Y-54154156D01*
D20*
%TO.N,/K2*%
X96700000Y-77600000D02*
X96100000Y-77600000D01*
X94200000Y-66700000D02*
X94000000Y-66500000D01*
X96100000Y-77600000D02*
X94200000Y-75700000D01*
X94200000Y-75700000D02*
X94200000Y-66700000D01*
%TO.N,/K10*%
X112000000Y-76800000D02*
X110000000Y-74800000D01*
X112000000Y-78500000D02*
X112000000Y-76800000D01*
X110000000Y-74800000D02*
X110000000Y-66500000D01*
%TO.N,/K18*%
X126800000Y-72948529D02*
X126200000Y-72348529D01*
X126800000Y-78800000D02*
X126800000Y-72948529D01*
X126200000Y-66700000D02*
X126000000Y-66500000D01*
X126200000Y-72348529D02*
X126200000Y-66700000D01*
%TO.N,/K26*%
X142400000Y-69000000D02*
X141800000Y-68400000D01*
X141400000Y-78200000D02*
X141400000Y-72500000D01*
X142400000Y-71500000D02*
X142400000Y-69000000D01*
X141800000Y-68400000D02*
X141800000Y-66900000D01*
X141400000Y-72500000D02*
X142400000Y-71500000D01*
%TO.N,/K34*%
X162014124Y-66414124D02*
X159500000Y-68928248D01*
X159500000Y-68928248D02*
X159500000Y-76200004D01*
X159500000Y-76200004D02*
X158700004Y-77000000D01*
%TO.N,/K42*%
X183100000Y-69200000D02*
X183100000Y-67500000D01*
X182600000Y-76900000D02*
X182600000Y-69700000D01*
X182600000Y-69700000D02*
X183100000Y-69200000D01*
X183100000Y-67500000D02*
X182300000Y-66700000D01*
%TO.N,/K50*%
X198500000Y-77100000D02*
X198500000Y-69500000D01*
X198500000Y-69500000D02*
X197500000Y-68500000D01*
X197500000Y-68500000D02*
X197500000Y-67100000D01*
X198000000Y-66600000D02*
X198300000Y-66600000D01*
X197500000Y-67100000D02*
X198000000Y-66600000D01*
D19*
%TO.N,/OUT_K2*%
X83500000Y-54197056D02*
X85102944Y-55800000D01*
X85497056Y-55800000D02*
X88097056Y-58400000D01*
X83500000Y-53600000D02*
X83500000Y-54197056D01*
X85102944Y-55800000D02*
X85497056Y-55800000D01*
X90010733Y-58400000D02*
X90778711Y-59167978D01*
X88097056Y-58400000D02*
X90010733Y-58400000D01*
%TO.N,/OUT_K10*%
X103500000Y-53600000D02*
X103500000Y-54085966D01*
X105014034Y-55600000D02*
X105345688Y-55600000D01*
X103500000Y-54085966D02*
X105014034Y-55600000D01*
X108150000Y-58404312D02*
X108150000Y-58484871D01*
X105345688Y-55600000D02*
X108150000Y-58404312D01*
%TO.N,/OUT_K18*%
X124000000Y-59000000D02*
X124000000Y-53600000D01*
X124000000Y-53600000D02*
X123500000Y-53600000D01*
%TO.N,/OUT_K26*%
X143500000Y-55909190D02*
X143500000Y-53600000D01*
X141416240Y-57992950D02*
X143500000Y-55909190D01*
%TO.N,/OUT_K34*%
X163500000Y-55796514D02*
X163500000Y-53600000D01*
X160366349Y-58930165D02*
X163500000Y-55796514D01*
%TO.N,/OUT_K42*%
X183500000Y-55500000D02*
X183500000Y-53600000D01*
X180175000Y-58825000D02*
X183500000Y-55500000D01*
X180175000Y-59000000D02*
X180175000Y-58825000D01*
%TO.N,/OUT_K50*%
X203500000Y-54085966D02*
X203500000Y-53600000D01*
X199207098Y-58000000D02*
X201624176Y-55582922D01*
X202003044Y-55582922D02*
X203500000Y-54085966D01*
X201624176Y-55582922D02*
X202003044Y-55582922D01*
X199000000Y-58000000D02*
X199207098Y-58000000D01*
%TO.N,/OUT_K58*%
X210582949Y-67239835D02*
X210580776Y-67237662D01*
X209743982Y-67256018D02*
X208800000Y-68200000D01*
X215005533Y-60691166D02*
X214312036Y-60691166D01*
X210517681Y-67212524D02*
X210496569Y-67191412D01*
X213521225Y-64439807D02*
X210721197Y-67239835D01*
X210551885Y-67237662D02*
X210526747Y-67212524D01*
X210721197Y-67239835D02*
X210582949Y-67239835D01*
X222099183Y-56300000D02*
X220551212Y-56300000D01*
X214312036Y-60691166D02*
X213521225Y-61481977D01*
X210526747Y-67212524D02*
X210517681Y-67212524D01*
X209792405Y-67191412D02*
X209743982Y-67239835D01*
X210496569Y-67191412D02*
X209792405Y-67191412D01*
X217446699Y-58250000D02*
X215005533Y-60691166D01*
X213521225Y-61481977D02*
X213521225Y-64439807D01*
X223500000Y-53600000D02*
X223500000Y-54899183D01*
X209743982Y-67239835D02*
X209743982Y-67256018D01*
X220551212Y-56300000D02*
X218601212Y-58250000D01*
X223500000Y-54899183D02*
X222099183Y-56300000D01*
X218601212Y-58250000D02*
X217446699Y-58250000D01*
X210580776Y-67237662D02*
X210551885Y-67237662D01*
D20*
%TO.N,/K59*%
X207834314Y-76800000D02*
X209100000Y-76800000D01*
X217100000Y-71400000D02*
X217100000Y-71051471D01*
X207200000Y-77700000D02*
X207200000Y-77434314D01*
X209100000Y-76800000D02*
X210000000Y-77700000D01*
X207200000Y-77434314D02*
X207834314Y-76800000D01*
X210000000Y-77700000D02*
X210800000Y-77700000D01*
X218851471Y-69300000D02*
X219100000Y-69300000D01*
X210800000Y-77700000D02*
X217100000Y-71400000D01*
X217100000Y-71051471D02*
X218851471Y-69300000D01*
D19*
%TO.N,/OUT_K3*%
X97000000Y-68000000D02*
X97000000Y-64981161D01*
X92600000Y-60581161D02*
X92600000Y-59080078D01*
X88594112Y-57200000D02*
X86000000Y-54605888D01*
X90719922Y-57200000D02*
X88594112Y-57200000D01*
X92600000Y-59080078D02*
X90719922Y-57200000D01*
X97000000Y-64981161D02*
X92600000Y-60581161D01*
X86000000Y-54605888D02*
X86000000Y-53600000D01*
%TO.N,/OUT_K11*%
X108987567Y-63987567D02*
X108987567Y-59928455D01*
X106000000Y-54085966D02*
X106000000Y-53600000D01*
X109500000Y-59416022D02*
X109500000Y-57585966D01*
X108987567Y-59928455D02*
X109500000Y-59416022D01*
X109500000Y-57585966D02*
X106000000Y-54085966D01*
X113000000Y-68000000D02*
X108987567Y-63987567D01*
%TO.N,/OUT_K19*%
X129300000Y-61281880D02*
X126000000Y-57981880D01*
X129300000Y-69976431D02*
X129300000Y-61281880D01*
X129367130Y-70043561D02*
X129300000Y-69976431D01*
X126000000Y-57981880D02*
X126000000Y-53600000D01*
%TO.N,/OUT_K27*%
X145367130Y-70043561D02*
X145367130Y-68550894D01*
X143695405Y-57486216D02*
X146000000Y-55181621D01*
X146000000Y-55181621D02*
X146000000Y-53600000D01*
X145367130Y-68550894D02*
X143695405Y-66879169D01*
X143695405Y-66879169D02*
X143695405Y-57486216D01*
%TO.N,/OUT_K35*%
X164000000Y-59500000D02*
X166000000Y-57500000D01*
X166000000Y-57500000D02*
X166000000Y-53600000D01*
%TO.N,/OUT_K43*%
X181070724Y-60179104D02*
X186000000Y-55249828D01*
X186000000Y-55249828D02*
X186000000Y-53600000D01*
X182276113Y-67936156D02*
X181070724Y-66730767D01*
X181070724Y-66730767D02*
X181070724Y-60179104D01*
%TO.N,/OUT_K51*%
X206000000Y-54085966D02*
X206000000Y-53600000D01*
X201019127Y-57885027D02*
X202121232Y-56782922D01*
X198346658Y-67975303D02*
X201019127Y-65302834D01*
X203303044Y-56782922D02*
X206000000Y-54085966D01*
X201019127Y-65302834D02*
X201019127Y-57885027D01*
X202121232Y-56782922D02*
X203303044Y-56782922D01*
%TO.N,/OUT_K59*%
X217943755Y-59450000D02*
X216300000Y-61093755D01*
X226000000Y-54096239D02*
X222496239Y-57600000D01*
X220948268Y-57600000D02*
X219098268Y-59450000D01*
X219098268Y-59450000D02*
X217943755Y-59450000D01*
X226000000Y-53600000D02*
X226000000Y-54096239D01*
X222496239Y-57600000D02*
X220948268Y-57600000D01*
X216300000Y-61093755D02*
X216300000Y-61584428D01*
D20*
%TO.N,/K4*%
X98400000Y-74400000D02*
X98000000Y-74000000D01*
X99600000Y-75800000D02*
X98400000Y-74600000D01*
X98000000Y-74000000D02*
X98000000Y-66500000D01*
X98400000Y-74600000D02*
X98400000Y-74400000D01*
X99600000Y-82300000D02*
X99600000Y-75800000D01*
%TO.N,/K12*%
X113800000Y-66700000D02*
X113800000Y-82259544D01*
X114000000Y-66500000D02*
X113800000Y-66700000D01*
%TO.N,/K20*%
X130100000Y-82900000D02*
X130100000Y-72200000D01*
X130600000Y-66800000D02*
X130500000Y-66700000D01*
X130600000Y-71700000D02*
X130600000Y-66800000D01*
X130100000Y-72200000D02*
X130600000Y-71700000D01*
%TO.N,/K28*%
X146400000Y-67100000D02*
X146000000Y-66700000D01*
X146400000Y-71300000D02*
X146400000Y-67100000D01*
X145900000Y-82900000D02*
X145900000Y-71800000D01*
X145900000Y-71800000D02*
X146400000Y-71300000D01*
%TO.N,/K36*%
X169200000Y-67300000D02*
X169600000Y-66900000D01*
X169200000Y-69400000D02*
X169200000Y-67300000D01*
X170300000Y-70500000D02*
X169200000Y-69400000D01*
X170300000Y-77300000D02*
X170300000Y-70500000D01*
X169600000Y-66900000D02*
X170000000Y-66900000D01*
%TO.N,/K44*%
X187100000Y-73600000D02*
X187100000Y-67500000D01*
X182800000Y-77900000D02*
X187100000Y-73600000D01*
X187100000Y-67500000D02*
X186300000Y-66700000D01*
%TO.N,/K52*%
X202100000Y-69800000D02*
X201000000Y-68700000D01*
X201000000Y-68700000D02*
X200600000Y-68300000D01*
X202100000Y-77600000D02*
X202100000Y-69800000D01*
X200600000Y-67300000D02*
X201300000Y-66600000D01*
X200600000Y-68300000D02*
X200600000Y-67300000D01*
D19*
%TO.N,/OUT_K4*%
X94954899Y-58587729D02*
X95535148Y-59167978D01*
X93804707Y-58587729D02*
X94954899Y-58587729D01*
X90000000Y-56000000D02*
X91216978Y-56000000D01*
X88500000Y-53600000D02*
X88500000Y-54500000D01*
X95535148Y-59167978D02*
X95625000Y-59167978D01*
X91216978Y-56000000D02*
X93804707Y-58587729D01*
X88500000Y-54500000D02*
X90000000Y-56000000D01*
%TO.N,/OUT_K12*%
X110100000Y-55600000D02*
X110014034Y-55600000D01*
X111655033Y-57155033D02*
X110100000Y-55600000D01*
X108500000Y-54085966D02*
X108500000Y-53600000D01*
X111655033Y-58949928D02*
X111655033Y-57155033D01*
X110014034Y-55600000D02*
X108500000Y-54085966D01*
%TO.N,/OUT_K20*%
X128033578Y-58106269D02*
X128033578Y-53600000D01*
X128033578Y-53600000D02*
X128500000Y-53600000D01*
%TO.N,/OUT_K28*%
X148500000Y-53600000D02*
X148500000Y-54802944D01*
X145257539Y-58045405D02*
X145045405Y-58045405D01*
X148500000Y-54802944D02*
X145257539Y-58045405D01*
%TO.N,/OUT_K36*%
X168500000Y-58500000D02*
X168500000Y-53600000D01*
X168000000Y-59000000D02*
X168500000Y-58500000D01*
%TO.N,/OUT_K44*%
X188500000Y-54659017D02*
X188500000Y-53600000D01*
X184163524Y-58995493D02*
X188500000Y-54659017D01*
%TO.N,/OUT_K52*%
X206400000Y-55600000D02*
X207390848Y-55600000D01*
X202680421Y-58132922D02*
X203867078Y-58132922D01*
X207390848Y-55600000D02*
X208500000Y-54490848D01*
X208500000Y-54490848D02*
X208500000Y-53600000D01*
X203867078Y-58132922D02*
X206400000Y-55600000D01*
%TO.N,/OUT_K60*%
X217400000Y-64700000D02*
X215200000Y-66900000D01*
X217400000Y-61690811D02*
X218440811Y-60650000D01*
X217400000Y-64700000D02*
X217400000Y-61690811D01*
X215200000Y-66900000D02*
X213686166Y-66900000D01*
X221648783Y-58800000D02*
X222993295Y-58800000D01*
X213686166Y-66900000D02*
X212376925Y-68209241D01*
X218440811Y-60650000D02*
X219798783Y-60650000D01*
X226193295Y-55600000D02*
X227005888Y-55600000D01*
X227005888Y-55600000D02*
X228500000Y-54105888D01*
X222993295Y-58800000D02*
X226193295Y-55600000D01*
X228500000Y-54105888D02*
X228500000Y-53600000D01*
X219798783Y-60650000D02*
X221648783Y-58800000D01*
D20*
%TO.N,/K5*%
X100600000Y-77600000D02*
X102400000Y-77600000D01*
X102400000Y-77600000D02*
X102800000Y-77200000D01*
X102800000Y-77200000D02*
X102800000Y-75800000D01*
%TO.N,/K13*%
X118400000Y-78300000D02*
X118700000Y-78000000D01*
X118700000Y-78000000D02*
X118700000Y-75800000D01*
X116300000Y-79100000D02*
X117600000Y-79100000D01*
X117600000Y-79100000D02*
X118400000Y-78300000D01*
%TO.N,/K21*%
X134800000Y-77600000D02*
X134800000Y-75700000D01*
%TO.N,/K29*%
X149000000Y-77900000D02*
X151000000Y-75900000D01*
X149000000Y-78200000D02*
X149000000Y-77900000D01*
%TO.N,/K37*%
X171700000Y-75700000D02*
X171500000Y-75700000D01*
X171700000Y-76800000D02*
X171700000Y-75700000D01*
%TO.N,/K45*%
X188100000Y-75500000D02*
X188000000Y-75500000D01*
X188100000Y-76900000D02*
X188100000Y-75500000D01*
X188000000Y-75500000D02*
X187900000Y-75600000D01*
%TO.N,/K53*%
X205500000Y-76425000D02*
X205500000Y-76371752D01*
X204700000Y-66900000D02*
X205400000Y-66200000D01*
X204700000Y-75571752D02*
X204700000Y-66900000D01*
X205500000Y-76371752D02*
X204700000Y-75571752D01*
%TO.N,/K61*%
X220800000Y-66800000D02*
X221500000Y-66800000D01*
X211300000Y-76300000D02*
X220800000Y-66800000D01*
D19*
%TO.N,/OUT_K5*%
X94516978Y-56800000D02*
X93316978Y-55600000D01*
X101000000Y-68000000D02*
X101000000Y-65683291D01*
X93316978Y-55600000D02*
X92514034Y-55600000D01*
X101000000Y-65683291D02*
X96975000Y-61658291D01*
X95319922Y-56800000D02*
X94516978Y-56800000D01*
X96975000Y-61658291D02*
X96975000Y-58455078D01*
X91000000Y-54085966D02*
X91000000Y-53600000D01*
X96975000Y-58455078D02*
X95319922Y-56800000D01*
X92514034Y-55600000D02*
X91000000Y-54085966D01*
%TO.N,/OUT_K13*%
X117000000Y-66938660D02*
X113005033Y-62943693D01*
X113005033Y-62943693D02*
X113005033Y-55605033D01*
X117000000Y-68000000D02*
X117000000Y-66938660D01*
X113005033Y-55605033D02*
X111000000Y-53600000D01*
%TO.N,/OUT_K21*%
X131000000Y-59163502D02*
X131000000Y-53600000D01*
X133225000Y-69800063D02*
X133225000Y-61388502D01*
X133225000Y-61388502D02*
X131000000Y-59163502D01*
X133444585Y-70019648D02*
X133225000Y-69800063D01*
%TO.N,/OUT_K29*%
X146745996Y-57854004D02*
X151000000Y-53600000D01*
X149300000Y-61308009D02*
X146745996Y-58754005D01*
X149300000Y-69875063D02*
X149300000Y-61308009D01*
X146745996Y-58754005D02*
X146745996Y-57854004D01*
X149444585Y-70019648D02*
X149300000Y-69875063D01*
%TO.N,/OUT_K37*%
X171000000Y-59549757D02*
X171000000Y-53600000D01*
X171674170Y-60223927D02*
X171000000Y-59549757D01*
X171674170Y-66325830D02*
X171674170Y-60223927D01*
X170000000Y-68000000D02*
X171674170Y-66325830D01*
%TO.N,/OUT_K45*%
X185393505Y-59206495D02*
X191000000Y-53600000D01*
X186276113Y-67936156D02*
X186276113Y-67772129D01*
X186276113Y-67772129D02*
X185393505Y-66889521D01*
X185393505Y-66889521D02*
X185393505Y-59206495D01*
%TO.N,/OUT_K53*%
X208313565Y-56238781D02*
X208847185Y-56238781D01*
X206184252Y-58050000D02*
X206502346Y-58050000D01*
X208847185Y-56238781D02*
X211000000Y-54085966D01*
X211000000Y-54085966D02*
X211000000Y-53600000D01*
X206502346Y-58050000D02*
X208313565Y-56238781D01*
%TO.N,/OUT_K61*%
X231000000Y-54500000D02*
X231000000Y-53600000D01*
X228700000Y-56800000D02*
X231000000Y-54500000D01*
X226690351Y-56800000D02*
X228700000Y-56800000D01*
X220820325Y-61325514D02*
X221990810Y-60155029D01*
X223335322Y-60155029D02*
X226690351Y-56800000D01*
X221990810Y-60155029D02*
X223335322Y-60155029D01*
X220820325Y-61699665D02*
X220820325Y-61325514D01*
D20*
%TO.N,/K6*%
X101800000Y-77100000D02*
X102000000Y-76900000D01*
X102000000Y-76900000D02*
X102000000Y-66500000D01*
%TO.N,/K14*%
X118000000Y-77500000D02*
X118000000Y-66500000D01*
X118100000Y-77600000D02*
X118000000Y-77500000D01*
%TO.N,/K22*%
X133900000Y-77700000D02*
X133900000Y-71400000D01*
X133900000Y-71400000D02*
X134500000Y-70800000D01*
X134500000Y-67200000D02*
X134000000Y-66700000D01*
X134500000Y-70800000D02*
X134500000Y-67200000D01*
%TO.N,/K30*%
X148400000Y-77600000D02*
X150400000Y-75600000D01*
X150400000Y-75600000D02*
X150400000Y-66700000D01*
X150400000Y-66700000D02*
X150300000Y-66600000D01*
%TO.N,/K38*%
X172900000Y-76800000D02*
X173200000Y-76500000D01*
X173200000Y-67600000D02*
X173900000Y-66900000D01*
X173200000Y-76500000D02*
X173200000Y-67600000D01*
%TO.N,/K54*%
X202800000Y-75156174D02*
X202800000Y-74962500D01*
X203043826Y-75500000D02*
X203043826Y-75400000D01*
X202800000Y-74962500D02*
X202825000Y-74937500D01*
X204000000Y-76393826D02*
X203968826Y-76425000D01*
X203968826Y-76425000D02*
X203043826Y-75500000D01*
X203043826Y-75400000D02*
X202800000Y-75156174D01*
%TO.N,/K62*%
X208300000Y-77200000D02*
X209200000Y-78100000D01*
X209200000Y-78100000D02*
X211317158Y-78100000D01*
X213917158Y-75500000D02*
X214200000Y-75500000D01*
X211317158Y-78100000D02*
X213917158Y-75500000D01*
D19*
%TO.N,/OUT_K6*%
X93500000Y-53600000D02*
X93500000Y-54085966D01*
X95816978Y-55600000D02*
X98133848Y-57916870D01*
X98971728Y-57916870D02*
X99941561Y-58886703D01*
X98133848Y-57916870D02*
X98971728Y-57916870D01*
X95014034Y-55600000D02*
X95816978Y-55600000D01*
X93500000Y-54085966D02*
X95014034Y-55600000D01*
X99941561Y-58886703D02*
X99941561Y-59345842D01*
%TO.N,/OUT_K14*%
X115577326Y-56163292D02*
X113500000Y-54085966D01*
X115577326Y-58972850D02*
X115577326Y-56163292D01*
X113500000Y-54085966D02*
X113500000Y-53600000D01*
%TO.N,/OUT_K22*%
X132500000Y-58500000D02*
X133500000Y-57500000D01*
X133500000Y-57500000D02*
X133500000Y-53600000D01*
%TO.N,/OUT_K30*%
X153500000Y-54085966D02*
X148581961Y-59004005D01*
X148581961Y-59004005D02*
X148405185Y-59004005D01*
X153500000Y-53600000D02*
X153500000Y-54085966D01*
%TO.N,/OUT_K38*%
X173500000Y-56090811D02*
X173500000Y-53600000D01*
X172446658Y-58975303D02*
X172446658Y-57144153D01*
X172446658Y-57144153D02*
X173500000Y-56090811D01*
%TO.N,/OUT_K46*%
X188150267Y-59448952D02*
X193500000Y-54099219D01*
X188150267Y-59499488D02*
X188150267Y-59448952D01*
X193500000Y-54099219D02*
X193500000Y-53600000D01*
%TO.N,/OUT_K54*%
X205225000Y-60678984D02*
X208465203Y-57438781D01*
X208465203Y-57438781D02*
X209661219Y-57438781D01*
X205225000Y-64175000D02*
X205225000Y-60678984D01*
X201600000Y-67800000D02*
X205225000Y-64175000D01*
X209661219Y-57438781D02*
X213500000Y-53600000D01*
%TO.N,/OUT_K62*%
X222027207Y-64572793D02*
X222027207Y-65800000D01*
X215868750Y-68331250D02*
X215868750Y-69531250D01*
X221802207Y-66025000D02*
X218175000Y-66025000D01*
X233500000Y-53600000D02*
X231985966Y-55114034D01*
X222027207Y-65800000D02*
X221802207Y-66025000D01*
X231985966Y-55114034D02*
X231485966Y-55114034D01*
X218175000Y-66025000D02*
X215868750Y-68331250D01*
X231485966Y-55114034D02*
X222027207Y-64572793D01*
D20*
%TO.N,/K55*%
X205700000Y-75900000D02*
X205700000Y-71900000D01*
X205700000Y-71900000D02*
X207900000Y-69700000D01*
X207900000Y-69700000D02*
X207900000Y-66900000D01*
X208800000Y-66000000D02*
X209300000Y-66000000D01*
X207900000Y-66900000D02*
X208800000Y-66000000D01*
%TO.N,/K63*%
X214300000Y-75900000D02*
X214365686Y-75900000D01*
X208600000Y-78400000D02*
X209900000Y-78400000D01*
X213800000Y-75900000D02*
X214300000Y-75900000D01*
X212800000Y-76900000D02*
X213800000Y-75900000D01*
X219600000Y-70665686D02*
X219600000Y-68900000D01*
X211300000Y-78400000D02*
X212800000Y-76900000D01*
X209900000Y-78400000D02*
X211300000Y-78400000D01*
X214365686Y-75900000D02*
X219600000Y-70665686D01*
X207700000Y-77500000D02*
X208600000Y-78400000D01*
D19*
%TO.N,/OUT_K7*%
X103279898Y-60123473D02*
X102875387Y-60123473D01*
X105000000Y-61843575D02*
X103279898Y-60123473D01*
X102875387Y-60123473D02*
X99468784Y-56716870D01*
X98630904Y-56716870D02*
X96000000Y-54085966D01*
X96000000Y-54085966D02*
X96000000Y-53600000D01*
X99468784Y-56716870D02*
X98630904Y-56716870D01*
X105000000Y-68000000D02*
X105000000Y-61843575D01*
%TO.N,/OUT_K15*%
X117150000Y-55650000D02*
X116000000Y-54500000D01*
X120731901Y-67926376D02*
X120731901Y-65428957D01*
X120731901Y-65428957D02*
X117150000Y-61847056D01*
X117150000Y-61847056D02*
X117150000Y-55650000D01*
X116000000Y-54500000D02*
X116000000Y-53600000D01*
%TO.N,/OUT_K23*%
X137444585Y-66940601D02*
X135775216Y-65271232D01*
X136000000Y-54085966D02*
X136000000Y-53600000D01*
X135302683Y-54783283D02*
X136000000Y-54085966D01*
X135775216Y-65271232D02*
X135775216Y-59775216D01*
X137444585Y-70019648D02*
X137444585Y-66940601D01*
X135302683Y-59302683D02*
X135302683Y-54783283D01*
X135775216Y-59775216D02*
X135302683Y-59302683D01*
%TO.N,/OUT_K31*%
X152000000Y-58000000D02*
X152085966Y-58000000D01*
X156000000Y-54085966D02*
X156000000Y-53600000D01*
X152000000Y-61000000D02*
X152000000Y-58000000D01*
X153367130Y-70043561D02*
X153367130Y-62367130D01*
X153367130Y-62367130D02*
X152000000Y-61000000D01*
X152085966Y-58000000D02*
X156000000Y-54085966D01*
%TO.N,/OUT_K39*%
X176000000Y-57412772D02*
X176000000Y-53600000D01*
X175045404Y-67166865D02*
X175045404Y-58367368D01*
X175045404Y-58367368D02*
X176000000Y-57412772D01*
X174276113Y-67936156D02*
X175045404Y-67166865D01*
%TO.N,/OUT_K55*%
X208500000Y-59446458D02*
X209307677Y-58638781D01*
X208500000Y-61500000D02*
X208500000Y-59446458D01*
X209307677Y-58638781D02*
X211447185Y-58638781D01*
X211447185Y-58638781D02*
X216000000Y-54085966D01*
X216000000Y-54085966D02*
X216000000Y-53600000D01*
%TO.N,Net-(U11-Q9)*%
X194000000Y-90300000D02*
X197095000Y-87205000D01*
X192900000Y-90300000D02*
X194000000Y-90300000D01*
X197095000Y-87205000D02*
X197095000Y-86087500D01*
%TO.N,Net-(U11-Cout)*%
X198400000Y-86900000D02*
X197000000Y-88300000D01*
X197000000Y-88300000D02*
X197000000Y-90300000D01*
%TO.N,Net-(U2-Reset)*%
X127500000Y-93200000D02*
X127400000Y-93100000D01*
X128700000Y-93200000D02*
X127500000Y-93200000D01*
%TO.N,Net-(U5-CLK)*%
X123000000Y-93500000D02*
X123700000Y-94200000D01*
X123000000Y-91700000D02*
X123000000Y-93500000D01*
%TO.N,/CLK*%
X127350000Y-91500000D02*
X125400000Y-89550000D01*
X172600000Y-93840000D02*
X172640000Y-93800000D01*
X172600000Y-97400000D02*
X172600000Y-93840000D01*
X125400000Y-89550000D02*
X122519683Y-89550000D01*
%TO.N,Net-(U7-CKEN)*%
X138200000Y-89000000D02*
X138200000Y-84800000D01*
%TO.N,Net-(U5-CKEN)*%
X125700000Y-92300000D02*
X125700000Y-93690380D01*
X125700000Y-93690380D02*
X126259620Y-94250000D01*
%TO.N,Net-(U6-CLK)*%
X126100000Y-95500000D02*
X129200000Y-95500000D01*
X128000000Y-87400000D02*
X128000000Y-84900000D01*
X125100000Y-96500000D02*
X126100000Y-95500000D01*
X129900000Y-94800000D02*
X129900000Y-89300000D01*
X129900000Y-89300000D02*
X128000000Y-87400000D01*
X129200000Y-95500000D02*
X129900000Y-94800000D01*
%TO.N,Net-(U9-CKEN)*%
X170500000Y-88600000D02*
X169300000Y-87400000D01*
X171500000Y-88600000D02*
X170500000Y-88600000D01*
%TO.N,Net-(U8-CKEN)*%
X153400000Y-87200000D02*
X155000000Y-88800000D01*
X155000000Y-88800000D02*
X155000000Y-88900000D01*
%TO.N,Net-(U11-CLK)*%
X175600000Y-91600000D02*
X176359620Y-92359620D01*
X171500000Y-91600000D02*
X175600000Y-91600000D01*
%TO.N,Net-(U5-Q0)*%
X117300000Y-84100000D02*
X125200000Y-84100000D01*
X114700000Y-81500000D02*
X117300000Y-84100000D01*
%TO.N,Net-(U6-Q0)*%
X138300000Y-81300000D02*
X140900000Y-83900000D01*
X130800000Y-81300000D02*
X138300000Y-81300000D01*
%TO.N,Net-(U7-Q0)*%
X141900000Y-81100000D02*
X142100000Y-81300000D01*
X142100000Y-81300000D02*
X142100000Y-81680761D01*
X142100000Y-81680761D02*
X144869239Y-84450000D01*
X144869239Y-84450000D02*
X158100544Y-84450000D01*
%TO.N,Net-(U8-Q0)*%
X158100000Y-81325000D02*
X161325000Y-84550000D01*
X173950000Y-84550000D02*
X174100000Y-84400000D01*
X161325000Y-84550000D02*
X173950000Y-84550000D01*
D20*
%TO.N,/K46*%
X190300000Y-66500000D02*
X191235876Y-67435876D01*
X191235876Y-67435876D02*
X191235876Y-76364124D01*
D19*
%TO.N,Net-(U10-Reset)*%
X177500000Y-83400000D02*
X172900000Y-78800000D01*
X185000000Y-83400000D02*
X177500000Y-83400000D01*
%TO.N,Net-(U10-Q0)*%
X189700000Y-82900000D02*
X187900000Y-81100000D01*
X198900000Y-82900000D02*
X189700000Y-82900000D01*
%TO.N,/OUT_K47*%
X193366418Y-56719548D02*
X196000000Y-54085966D01*
X196000000Y-54085966D02*
X196000000Y-53600000D01*
X189249859Y-66909902D02*
X189249859Y-65622652D01*
X188900000Y-60396275D02*
X192576727Y-56719548D01*
X190276113Y-67936156D02*
X189249859Y-66909902D01*
X188900000Y-65272793D02*
X188900000Y-60396275D01*
X192576727Y-56719548D02*
X193366418Y-56719548D01*
X189249859Y-65622652D02*
X188900000Y-65272793D01*
%TD*%
M02*
