%TF.GenerationSoftware,KiCad,Pcbnew,8.0.2*%
%TF.CreationDate,2024-05-31T12:09:55-04:00*%
%TF.ProjectId,kathodeDriver,6b617468-6f64-4654-9472-697665722e6b,rev?*%
%TF.SameCoordinates,Original*%
%TF.FileFunction,Copper,L1,Top*%
%TF.FilePolarity,Positive*%
%FSLAX46Y46*%
G04 Gerber Fmt 4.6, Leading zero omitted, Abs format (unit mm)*
G04 Created by KiCad (PCBNEW 8.0.2) date 2024-05-31 12:09:55*
%MOMM*%
%LPD*%
G01*
G04 APERTURE LIST*
G04 Aperture macros list*
%AMRoundRect*
0 Rectangle with rounded corners*
0 $1 Rounding radius*
0 $2 $3 $4 $5 $6 $7 $8 $9 X,Y pos of 4 corners*
0 Add a 4 corners polygon primitive as box body*
4,1,4,$2,$3,$4,$5,$6,$7,$8,$9,$2,$3,0*
0 Add four circle primitives for the rounded corners*
1,1,$1+$1,$2,$3*
1,1,$1+$1,$4,$5*
1,1,$1+$1,$6,$7*
1,1,$1+$1,$8,$9*
0 Add four rect primitives between the rounded corners*
20,1,$1+$1,$2,$3,$4,$5,0*
20,1,$1+$1,$4,$5,$6,$7,0*
20,1,$1+$1,$6,$7,$8,$9,0*
20,1,$1+$1,$8,$9,$2,$3,0*%
%AMFreePoly0*
4,1,19,0.500000,-0.750000,0.000000,-0.750000,0.000000,-0.744911,-0.071157,-0.744911,-0.207708,-0.704816,-0.327430,-0.627875,-0.420627,-0.520320,-0.479746,-0.390866,-0.500000,-0.250000,-0.500000,0.250000,-0.479746,0.390866,-0.420627,0.520320,-0.327430,0.627875,-0.207708,0.704816,-0.071157,0.744911,0.000000,0.744911,0.000000,0.750000,0.500000,0.750000,0.500000,-0.750000,0.500000,-0.750000,
$1*%
%AMFreePoly1*
4,1,19,0.000000,0.744911,0.071157,0.744911,0.207708,0.704816,0.327430,0.627875,0.420627,0.520320,0.479746,0.390866,0.500000,0.250000,0.500000,-0.250000,0.479746,-0.390866,0.420627,-0.520320,0.327430,-0.627875,0.207708,-0.704816,0.071157,-0.744911,0.000000,-0.744911,0.000000,-0.750000,-0.500000,-0.750000,-0.500000,0.750000,0.000000,0.750000,0.000000,0.744911,0.000000,0.744911,
$1*%
%AMFreePoly2*
4,1,111,-2.563245,3.679731,-2.180727,3.619146,-1.806637,3.518909,-1.445074,3.380118,-1.100000,3.204294,-0.775195,2.993363,-0.474217,2.749636,-0.200364,2.475783,0.043363,2.174805,0.254294,1.850000,0.430118,1.504926,0.568909,1.143363,0.669146,0.769273,0.729731,0.386755,0.750000,0.000000,0.729731,-0.386755,0.669146,-0.769273,0.568909,-1.143363,0.430118,-1.504926,0.254294,-1.850000,
0.043363,-2.174805,-0.200364,-2.475783,-0.474217,-2.749636,-0.775195,-2.993363,-1.100000,-3.204294,-1.445074,-3.380118,-1.806637,-3.518909,-2.180727,-3.619146,-2.563245,-3.679731,-2.950000,-3.700000,-3.336755,-3.679731,-3.719273,-3.619146,-4.093363,-3.518909,-4.454926,-3.380118,-4.800000,-3.204294,-5.124805,-2.993363,-5.425783,-2.749636,-5.699636,-2.475783,-5.943363,-2.174805,-6.154294,-1.850000,
-6.330118,-1.504926,-6.468909,-1.143363,-6.569146,-0.769273,-6.629731,-0.386755,-6.650000,0.000000,-5.154720,0.000000,-5.135858,-0.287774,-5.079596,-0.570624,-4.986896,-0.843710,-4.859344,-1.102360,-4.699122,-1.342148,-4.508972,-1.558972,-4.292148,-1.749122,-4.052360,-1.909344,-3.793710,-2.036896,-3.520624,-2.129596,-3.237774,-2.185858,-2.950000,-2.204720,-2.662226,-2.185858,-2.379376,-2.129596,
-2.106290,-2.036896,-1.847640,-1.909344,-1.607852,-1.749122,-1.391028,-1.558972,-1.200878,-1.342148,-1.040656,-1.102360,-0.913104,-0.843710,-0.820404,-0.570624,-0.764142,-0.287774,-0.745280,0.000000,-0.764142,0.287774,-0.820404,0.570624,-0.913104,0.843710,-1.040656,1.102360,-1.200878,1.342148,-1.391028,1.558972,-1.607852,1.749122,-1.847640,1.909344,-2.106290,2.036896,-2.379376,2.129596,
-2.662226,2.185858,-2.950000,2.204720,-3.237774,2.185858,-3.520624,2.129596,-3.793710,2.036896,-4.052360,1.909344,-4.292148,1.749122,-4.508972,1.558972,-4.699122,1.342148,-4.859344,1.102360,-4.986896,0.843710,-5.079596,0.570624,-5.135858,0.287774,-5.154720,0.000000,-6.650000,0.000000,-6.629731,0.386755,-6.569146,0.769273,-6.468909,1.143363,-6.330118,1.504926,-6.154294,1.850000,
-5.943363,2.174805,-5.699636,2.475783,-5.425783,2.749636,-5.124805,2.993363,-4.800000,3.204294,-4.454926,3.380118,-4.093363,3.518909,-3.719273,3.619146,-3.336755,3.679731,-2.950000,3.700000,-2.563245,3.679731,-2.563245,3.679731,$1*%
G04 Aperture macros list end*
%TA.AperFunction,EtchedComponent*%
%ADD10C,0.000000*%
%TD*%
%TA.AperFunction,SMDPad,CuDef*%
%ADD11RoundRect,0.150000X0.150000X-0.587500X0.150000X0.587500X-0.150000X0.587500X-0.150000X-0.587500X0*%
%TD*%
%TA.AperFunction,SMDPad,CuDef*%
%ADD12RoundRect,0.250000X0.262500X0.450000X-0.262500X0.450000X-0.262500X-0.450000X0.262500X-0.450000X0*%
%TD*%
%TA.AperFunction,SMDPad,CuDef*%
%ADD13RoundRect,0.200000X0.200000X0.275000X-0.200000X0.275000X-0.200000X-0.275000X0.200000X-0.275000X0*%
%TD*%
%TA.AperFunction,SMDPad,CuDef*%
%ADD14RoundRect,0.200000X-0.200000X-0.275000X0.200000X-0.275000X0.200000X0.275000X-0.200000X0.275000X0*%
%TD*%
%TA.AperFunction,SMDPad,CuDef*%
%ADD15RoundRect,0.150000X0.150000X-0.825000X0.150000X0.825000X-0.150000X0.825000X-0.150000X-0.825000X0*%
%TD*%
%TA.AperFunction,SMDPad,CuDef*%
%ADD16RoundRect,0.225000X0.250000X-0.225000X0.250000X0.225000X-0.250000X0.225000X-0.250000X-0.225000X0*%
%TD*%
%TA.AperFunction,SMDPad,CuDef*%
%ADD17RoundRect,0.150000X-0.150000X0.512500X-0.150000X-0.512500X0.150000X-0.512500X0.150000X0.512500X0*%
%TD*%
%TA.AperFunction,SMDPad,CuDef*%
%ADD18RoundRect,0.162500X-0.162500X0.750000X-0.162500X-0.750000X0.162500X-0.750000X0.162500X0.750000X0*%
%TD*%
%TA.AperFunction,SMDPad,CuDef*%
%ADD19FreePoly0,180.000000*%
%TD*%
%TA.AperFunction,SMDPad,CuDef*%
%ADD20FreePoly1,180.000000*%
%TD*%
%TA.AperFunction,ComponentPad*%
%ADD21RoundRect,0.250000X-0.600000X-0.750000X0.600000X-0.750000X0.600000X0.750000X-0.600000X0.750000X0*%
%TD*%
%TA.AperFunction,ComponentPad*%
%ADD22O,1.700000X2.000000*%
%TD*%
%TA.AperFunction,SMDPad,CuDef*%
%ADD23RoundRect,0.218750X0.218750X0.256250X-0.218750X0.256250X-0.218750X-0.256250X0.218750X-0.256250X0*%
%TD*%
%TA.AperFunction,ComponentPad*%
%ADD24RoundRect,0.250000X-0.600000X-0.725000X0.600000X-0.725000X0.600000X0.725000X-0.600000X0.725000X0*%
%TD*%
%TA.AperFunction,ComponentPad*%
%ADD25O,1.700000X1.950000*%
%TD*%
%TA.AperFunction,ComponentPad*%
%ADD26C,2.000000*%
%TD*%
%TA.AperFunction,ComponentPad*%
%ADD27RoundRect,0.375000X0.375000X-1.125000X0.375000X1.125000X-0.375000X1.125000X-0.375000X-1.125000X0*%
%TD*%
%TA.AperFunction,SMDPad,CuDef*%
%ADD28RoundRect,0.225000X-0.250000X0.225000X-0.250000X-0.225000X0.250000X-0.225000X0.250000X0.225000X0*%
%TD*%
%TA.AperFunction,SMDPad,CuDef*%
%ADD29C,1.100000*%
%TD*%
%TA.AperFunction,SMDPad,CuDef*%
%ADD30FreePoly2,0.000000*%
%TD*%
%TA.AperFunction,ViaPad*%
%ADD31C,0.600000*%
%TD*%
%TA.AperFunction,ViaPad*%
%ADD32C,0.500000*%
%TD*%
%TA.AperFunction,ViaPad*%
%ADD33C,0.350000*%
%TD*%
%TA.AperFunction,Conductor*%
%ADD34C,0.200000*%
%TD*%
%TA.AperFunction,Conductor*%
%ADD35C,0.100000*%
%TD*%
G04 APERTURE END LIST*
D10*
%TA.AperFunction,EtchedComponent*%
%TO.C,JP1*%
G36*
X187750000Y-89700000D02*
G01*
X187250000Y-89700000D01*
X187250000Y-89100000D01*
X187750000Y-89100000D01*
X187750000Y-89700000D01*
G37*
%TD.AperFunction*%
%TD*%
D11*
%TO.P,Q10,1,B*%
%TO.N,Net-(Q10-B)*%
X109150000Y-72937500D03*
%TO.P,Q10,2,E*%
%TO.N,GND*%
X111050000Y-72937500D03*
%TO.P,Q10,3,C*%
%TO.N,/OUT_K9*%
X110100000Y-71062500D03*
%TD*%
D12*
%TO.P,R62,1*%
%TO.N,HT*%
X147012500Y-69000000D03*
%TO.P,R62,2*%
%TO.N,/OUT_K27*%
X145187500Y-69000000D03*
%TD*%
D13*
%TO.P,R1,1*%
%TO.N,HT*%
X159225000Y-70600000D03*
%TO.P,R1,2*%
%TO.N,Net-(D1-A)*%
X157575000Y-70600000D03*
%TD*%
D11*
%TO.P,Q29,1,B*%
%TO.N,Net-(Q29-B)*%
X164050000Y-64000000D03*
%TO.P,Q29,2,E*%
%TO.N,GND*%
X165950000Y-64000000D03*
%TO.P,Q29,3,C*%
%TO.N,/OUT_K35*%
X165000000Y-62125000D03*
%TD*%
D14*
%TO.P,R41,1*%
%TO.N,Net-(Q23-B)*%
X196350000Y-66000000D03*
%TO.P,R41,2*%
%TO.N,/K50*%
X198000000Y-66000000D03*
%TD*%
D12*
%TO.P,R32,1*%
%TO.N,HT*%
X179825000Y-68926519D03*
%TO.P,R32,2*%
%TO.N,/OUT_K41*%
X178000000Y-68926519D03*
%TD*%
D14*
%TO.P,R90,1*%
%TO.N,Net-(Q48-B)*%
X220075000Y-66000000D03*
%TO.P,R90,2*%
%TO.N,/K61*%
X221725000Y-66000000D03*
%TD*%
D12*
%TO.P,R77,1*%
%TO.N,HT*%
X130100000Y-60000000D03*
%TO.P,R77,2*%
%TO.N,/OUT_K20*%
X128275000Y-60000000D03*
%TD*%
%TO.P,R17,1*%
%TO.N,HT*%
X194000000Y-60000000D03*
%TO.P,R17,2*%
%TO.N,/OUT_K48*%
X192175000Y-60000000D03*
%TD*%
D14*
%TO.P,R56,1*%
%TO.N,Net-(Q30-B)*%
X182075000Y-75000000D03*
%TO.P,R56,2*%
%TO.N,/K43*%
X183725000Y-75000000D03*
%TD*%
D12*
%TO.P,R27,1*%
%TO.N,HT*%
X95100000Y-69000000D03*
%TO.P,R27,2*%
%TO.N,/OUT_K1*%
X93275000Y-69000000D03*
%TD*%
D15*
%TO.P,U4,1*%
%TO.N,Net-(U8-CKEN)*%
X166290000Y-95275000D03*
%TO.P,U4,2*%
%TO.N,/CLK*%
X167560000Y-95275000D03*
%TO.P,U4,3*%
%TO.N,Net-(U9-CLK)*%
X168830000Y-95275000D03*
%TO.P,U4,4*%
%TO.N,Net-(U10-CLK)*%
X170100000Y-95275000D03*
%TO.P,U4,5*%
%TO.N,Net-(U9-CKEN)*%
X171370000Y-95275000D03*
%TO.P,U4,6*%
%TO.N,/CLK*%
X172640000Y-95275000D03*
%TO.P,U4,7,VSS*%
%TO.N,GND*%
X173910000Y-95275000D03*
%TO.P,U4,8*%
%TO.N,Net-(U10-CKEN)*%
X173910000Y-90325000D03*
%TO.P,U4,9*%
%TO.N,/CLK*%
X172640000Y-90325000D03*
%TO.P,U4,10*%
%TO.N,Net-(U11-CLK)*%
X171370000Y-90325000D03*
%TO.P,U4,11*%
%TO.N,N/C*%
X170100000Y-90325000D03*
%TO.P,U4,12*%
X168830000Y-90325000D03*
%TO.P,U4,13*%
X167560000Y-90325000D03*
%TO.P,U4,14,VDD*%
%TO.N,VCC*%
X166290000Y-90325000D03*
%TD*%
D14*
%TO.P,R19,1*%
%TO.N,Net-(Q9-B)*%
X93450000Y-75000000D03*
%TO.P,R19,2*%
%TO.N,/K1*%
X95100000Y-75000000D03*
%TD*%
D12*
%TO.P,R125,1*%
%TO.N,HT*%
X139100000Y-69000000D03*
%TO.P,R125,2*%
%TO.N,/OUT_K23*%
X137275000Y-69000000D03*
%TD*%
D11*
%TO.P,Q38,1,B*%
%TO.N,Net-(Q38-B)*%
X184000000Y-64000000D03*
%TO.P,Q38,2,E*%
%TO.N,GND*%
X185900000Y-64000000D03*
%TO.P,Q38,3,C*%
%TO.N,/OUT_K44*%
X184950000Y-62125000D03*
%TD*%
D12*
%TO.P,R28,1*%
%TO.N,HT*%
X111012500Y-69000000D03*
%TO.P,R28,2*%
%TO.N,/OUT_K9*%
X109187500Y-69000000D03*
%TD*%
D16*
%TO.P,C3,1*%
%TO.N,VCC*%
X119300000Y-90875000D03*
%TO.P,C3,2*%
%TO.N,GND*%
X119300000Y-89325000D03*
%TD*%
D17*
%TO.P,U1,1*%
%TO.N,/RESET_COUNT*%
X133712500Y-93412500D03*
%TO.P,U1,2*%
%TO.N,/LAST_COUNT_RESET*%
X132762500Y-93412500D03*
%TO.P,U1,3,GND*%
%TO.N,GND*%
X131812500Y-93412500D03*
%TO.P,U1,4*%
%TO.N,Net-(U2-Reset)*%
X131812500Y-95687500D03*
%TO.P,U1,5,VCC*%
%TO.N,VCC*%
X133712500Y-95687500D03*
%TD*%
D14*
%TO.P,R68,1*%
%TO.N,Net-(Q34-B)*%
X112175000Y-66000000D03*
%TO.P,R68,2*%
%TO.N,/K12*%
X113825000Y-66000000D03*
%TD*%
D11*
%TO.P,Q47,1,B*%
%TO.N,Net-(Q47-B)*%
X204050000Y-63937500D03*
%TO.P,Q47,2,E*%
%TO.N,GND*%
X205950000Y-63937500D03*
%TO.P,Q47,3,C*%
%TO.N,/OUT_K53*%
X205000000Y-62062500D03*
%TD*%
%TO.P,Q57,1,B*%
%TO.N,Net-(Q57-B)*%
X105150000Y-72937500D03*
%TO.P,Q57,2,E*%
%TO.N,GND*%
X107050000Y-72937500D03*
%TO.P,Q57,3,C*%
%TO.N,/OUT_K7*%
X106100000Y-71062500D03*
%TD*%
D12*
%TO.P,R97,1*%
%TO.N,HT*%
X205912500Y-60000000D03*
%TO.P,R97,2*%
%TO.N,/OUT_K53*%
X204087500Y-60000000D03*
%TD*%
D14*
%TO.P,R86,1*%
%TO.N,Net-(Q44-B)*%
X149350000Y-75000000D03*
%TO.P,R86,2*%
%TO.N,/K29*%
X151000000Y-75000000D03*
%TD*%
D11*
%TO.P,Q58,1,B*%
%TO.N,Net-(Q58-B)*%
X121100000Y-73000000D03*
%TO.P,Q58,2,E*%
%TO.N,GND*%
X123000000Y-73000000D03*
%TO.P,Q58,3,C*%
%TO.N,/OUT_K15*%
X122050000Y-71125000D03*
%TD*%
D12*
%TO.P,R124,1*%
%TO.N,HT*%
X122925000Y-69000000D03*
%TO.P,R124,2*%
%TO.N,/OUT_K15*%
X121100000Y-69000000D03*
%TD*%
D14*
%TO.P,R25,1*%
%TO.N,Net-(Q15-B)*%
X194250000Y-75000000D03*
%TO.P,R25,2*%
%TO.N,/K49*%
X195900000Y-75000000D03*
%TD*%
D12*
%TO.P,R128,1*%
%TO.N,HT*%
X191912500Y-69000000D03*
%TO.P,R128,2*%
%TO.N,/OUT_K47*%
X190087500Y-69000000D03*
%TD*%
%TO.P,R113,1*%
%TO.N,HT*%
X203412500Y-69000000D03*
%TO.P,R113,2*%
%TO.N,/OUT_K54*%
X201587500Y-69000000D03*
%TD*%
%TO.P,R95,1*%
%TO.N,HT*%
X172000000Y-69000000D03*
%TO.P,R95,2*%
%TO.N,/OUT_K37*%
X170175000Y-69000000D03*
%TD*%
%TO.P,R76,1*%
%TO.N,HT*%
X113925000Y-60000000D03*
%TO.P,R76,2*%
%TO.N,/OUT_K12*%
X112100000Y-60000000D03*
%TD*%
D11*
%TO.P,Q55,1,B*%
%TO.N,Net-(Q55-B)*%
X201550000Y-72937500D03*
%TO.P,Q55,2,E*%
%TO.N,GND*%
X203450000Y-72937500D03*
%TO.P,Q55,3,C*%
%TO.N,/OUT_K54*%
X202500000Y-71062500D03*
%TD*%
D18*
%TO.P,U11,1,Q5*%
%TO.N,/K61*%
X203445000Y-79912500D03*
%TO.P,U11,2,Q1*%
%TO.N,/K57*%
X202175000Y-79912500D03*
%TO.P,U11,3,Q0*%
%TO.N,unconnected-(U11-Q0-Pad3)*%
X200905000Y-79912500D03*
%TO.P,U11,4,Q2*%
%TO.N,/K58*%
X199635000Y-79912500D03*
%TO.P,U11,5,Q6*%
%TO.N,/K62*%
X198365000Y-79912500D03*
%TO.P,U11,6,Q7*%
%TO.N,/K63*%
X197095000Y-79912500D03*
%TO.P,U11,7,Q3*%
%TO.N,/K59*%
X195825000Y-79912500D03*
%TO.P,U11,8,VSS*%
%TO.N,GND*%
X194555000Y-79912500D03*
%TO.P,U11,9,Q8*%
%TO.N,Net-(JP1-A)*%
X194555000Y-86087500D03*
%TO.P,U11,10,Q4*%
%TO.N,/K60*%
X195825000Y-86087500D03*
%TO.P,U11,11,Q9*%
%TO.N,Net-(U11-Q9)*%
X197095000Y-86087500D03*
%TO.P,U11,12,Cout*%
%TO.N,Net-(U11-Cout)*%
X198365000Y-86087500D03*
%TO.P,U11,13,CKEN*%
%TO.N,GND*%
X199635000Y-86087500D03*
%TO.P,U11,14,CLK*%
%TO.N,Net-(U11-CLK)*%
X200905000Y-86087500D03*
%TO.P,U11,15,Reset*%
%TO.N,Net-(U10-Q0)*%
X202175000Y-86087500D03*
%TO.P,U11,16,VDD*%
%TO.N,VCC*%
X203445000Y-86087500D03*
%TD*%
D11*
%TO.P,Q34,1,B*%
%TO.N,Net-(Q34-B)*%
X112150000Y-63937500D03*
%TO.P,Q34,2,E*%
%TO.N,GND*%
X114050000Y-63937500D03*
%TO.P,Q34,3,C*%
%TO.N,/OUT_K12*%
X113100000Y-62062500D03*
%TD*%
D12*
%TO.P,R75,1*%
%TO.N,HT*%
X98012500Y-60000000D03*
%TO.P,R75,2*%
%TO.N,/OUT_K4*%
X96187500Y-60000000D03*
%TD*%
D11*
%TO.P,Q1,1,B*%
%TO.N,Net-(Q1-B)*%
X89375000Y-72937500D03*
%TO.P,Q1,2,E*%
%TO.N,GND*%
X91275000Y-72937500D03*
%TO.P,Q1,3,C*%
%TO.N,/OUT_K0*%
X90325000Y-71062500D03*
%TD*%
%TO.P,Q62,1,B*%
%TO.N,Net-(Q62-B)*%
X190050000Y-72937500D03*
%TO.P,Q62,2,E*%
%TO.N,GND*%
X191950000Y-72937500D03*
%TO.P,Q62,3,C*%
%TO.N,/OUT_K47*%
X191000000Y-71062500D03*
%TD*%
D12*
%TO.P,R13,1*%
%TO.N,HT*%
X122100000Y-60000000D03*
%TO.P,R13,2*%
%TO.N,/OUT_K16*%
X120275000Y-60000000D03*
%TD*%
D11*
%TO.P,Q46,1,B*%
%TO.N,Net-(Q46-B)*%
X186050000Y-72937500D03*
%TO.P,Q46,2,E*%
%TO.N,GND*%
X187950000Y-72937500D03*
%TO.P,Q46,3,C*%
%TO.N,/OUT_K45*%
X187000000Y-71062500D03*
%TD*%
D14*
%TO.P,R102,1*%
%TO.N,Net-(Q52-B)*%
X148350000Y-66000000D03*
%TO.P,R102,2*%
%TO.N,/K30*%
X150000000Y-66000000D03*
%TD*%
D11*
%TO.P,Q22,1,B*%
%TO.N,Net-(Q22-B)*%
X180100000Y-64000000D03*
%TO.P,Q22,2,E*%
%TO.N,GND*%
X182000000Y-64000000D03*
%TO.P,Q22,3,C*%
%TO.N,/OUT_K42*%
X181050000Y-62125000D03*
%TD*%
D14*
%TO.P,R35,1*%
%TO.N,Net-(Q17-B)*%
X92175000Y-66000000D03*
%TO.P,R35,2*%
%TO.N,/K2*%
X93825000Y-66000000D03*
%TD*%
%TO.P,R100,1*%
%TO.N,Net-(Q50-B)*%
X116350000Y-66000000D03*
%TO.P,R100,2*%
%TO.N,/K14*%
X118000000Y-66000000D03*
%TD*%
D11*
%TO.P,Q21,1,B*%
%TO.N,Net-(Q21-B)*%
X160050000Y-63937500D03*
%TO.P,Q21,2,E*%
%TO.N,GND*%
X161950000Y-63937500D03*
%TO.P,Q21,3,C*%
%TO.N,/OUT_K34*%
X161000000Y-62062500D03*
%TD*%
D12*
%TO.P,R61,1*%
%TO.N,HT*%
X131012500Y-69000000D03*
%TO.P,R61,2*%
%TO.N,/OUT_K19*%
X129187500Y-69000000D03*
%TD*%
%TO.P,R78,1*%
%TO.N,HT*%
X146012500Y-60000000D03*
%TO.P,R78,2*%
%TO.N,/OUT_K28*%
X144187500Y-60000000D03*
%TD*%
D14*
%TO.P,R55,1*%
%TO.N,Net-(Q29-B)*%
X164350000Y-66000000D03*
%TO.P,R55,2*%
%TO.N,/K35*%
X166000000Y-66000000D03*
%TD*%
D16*
%TO.P,C1,1*%
%TO.N,VCC*%
X117600000Y-86475000D03*
%TO.P,C1,2*%
%TO.N,GND*%
X117600000Y-84925000D03*
%TD*%
D14*
%TO.P,R84,1*%
%TO.N,Net-(Q42-B)*%
X117175000Y-75000000D03*
%TO.P,R84,2*%
%TO.N,/K13*%
X118825000Y-75000000D03*
%TD*%
D13*
%TO.P,R122,1*%
%TO.N,Net-(Q64-B)*%
X221325000Y-68000000D03*
%TO.P,R122,2*%
%TO.N,/K63*%
X219675000Y-68000000D03*
%TD*%
D11*
%TO.P,Q30,1,B*%
%TO.N,Net-(Q30-B)*%
X182050000Y-72937500D03*
%TO.P,Q30,2,E*%
%TO.N,GND*%
X183950000Y-72937500D03*
%TO.P,Q30,3,C*%
%TO.N,/OUT_K43*%
X183000000Y-71062500D03*
%TD*%
D14*
%TO.P,R101,1*%
%TO.N,Net-(Q51-B)*%
X132350000Y-66000000D03*
%TO.P,R101,2*%
%TO.N,/K22*%
X134000000Y-66000000D03*
%TD*%
D12*
%TO.P,R94,1*%
%TO.N,HT*%
X151100000Y-69000000D03*
%TO.P,R94,2*%
%TO.N,/OUT_K29*%
X149275000Y-69000000D03*
%TD*%
D14*
%TO.P,R38,1*%
%TO.N,Net-(Q20-B)*%
X140000000Y-66000000D03*
%TO.P,R38,2*%
%TO.N,/K26*%
X141650000Y-66000000D03*
%TD*%
%TO.P,R24,1*%
%TO.N,Net-(Q14-B)*%
X178075000Y-74926519D03*
%TO.P,R24,2*%
%TO.N,/K41*%
X179725000Y-74926519D03*
%TD*%
D12*
%TO.P,R15,1*%
%TO.N,HT*%
X154050000Y-60125000D03*
%TO.P,R15,2*%
%TO.N,/OUT_K32*%
X152225000Y-60125000D03*
%TD*%
D14*
%TO.P,R54,1*%
%TO.N,Net-(Q28-B)*%
X145350000Y-75000000D03*
%TO.P,R54,2*%
%TO.N,/K27*%
X147000000Y-75000000D03*
%TD*%
D12*
%TO.P,R44,1*%
%TO.N,HT*%
X110012500Y-60000000D03*
%TO.P,R44,2*%
%TO.N,/OUT_K10*%
X108187500Y-60000000D03*
%TD*%
D11*
%TO.P,Q37,1,B*%
%TO.N,Net-(Q37-B)*%
X168000000Y-64000000D03*
%TO.P,Q37,2,E*%
%TO.N,GND*%
X169900000Y-64000000D03*
%TO.P,Q37,3,C*%
%TO.N,/OUT_K36*%
X168950000Y-62125000D03*
%TD*%
D18*
%TO.P,U6,1,Q5*%
%TO.N,/K21*%
X130445000Y-79912500D03*
%TO.P,U6,2,Q1*%
%TO.N,/K17*%
X129175000Y-79912500D03*
%TO.P,U6,3,Q0*%
%TO.N,Net-(U6-Q0)*%
X127905000Y-79912500D03*
%TO.P,U6,4,Q2*%
%TO.N,/K18*%
X126635000Y-79912500D03*
%TO.P,U6,5,Q6*%
%TO.N,/K22*%
X125365000Y-79912500D03*
%TO.P,U6,6,Q7*%
%TO.N,/K23*%
X124095000Y-79912500D03*
%TO.P,U6,7,Q3*%
%TO.N,/K19*%
X122825000Y-79912500D03*
%TO.P,U6,8,VSS*%
%TO.N,GND*%
X121555000Y-79912500D03*
%TO.P,U6,9,Q8*%
%TO.N,/K24*%
X121555000Y-86087500D03*
%TO.P,U6,10,Q4*%
%TO.N,/K20*%
X122825000Y-86087500D03*
%TO.P,U6,11,Q9*%
%TO.N,Net-(U6-CKEN)*%
X124095000Y-86087500D03*
%TO.P,U6,12,Cout*%
%TO.N,unconnected-(U6-Cout-Pad12)*%
X125365000Y-86087500D03*
%TO.P,U6,13,CKEN*%
%TO.N,Net-(U6-CKEN)*%
X126635000Y-86087500D03*
%TO.P,U6,14,CLK*%
%TO.N,Net-(U6-CLK)*%
X127905000Y-86087500D03*
%TO.P,U6,15,Reset*%
%TO.N,Net-(U5-Q0)*%
X129175000Y-86087500D03*
%TO.P,U6,16,VDD*%
%TO.N,VCC*%
X130445000Y-86087500D03*
%TD*%
D11*
%TO.P,Q51,1,B*%
%TO.N,Net-(Q51-B)*%
X132200000Y-64000000D03*
%TO.P,Q51,2,E*%
%TO.N,GND*%
X134100000Y-64000000D03*
%TO.P,Q51,3,C*%
%TO.N,/OUT_K22*%
X133150000Y-62125000D03*
%TD*%
%TO.P,Q33,1,B*%
%TO.N,Net-(Q33-B)*%
X96150000Y-63937500D03*
%TO.P,Q33,2,E*%
%TO.N,GND*%
X98050000Y-63937500D03*
%TO.P,Q33,3,C*%
%TO.N,/OUT_K4*%
X97100000Y-62062500D03*
%TD*%
%TO.P,Q12,1,B*%
%TO.N,Net-(Q12-B)*%
X141150000Y-72937500D03*
%TO.P,Q12,2,E*%
%TO.N,GND*%
X143050000Y-72937500D03*
%TO.P,Q12,3,C*%
%TO.N,/OUT_K25*%
X142100000Y-71062500D03*
%TD*%
D14*
%TO.P,R99,1*%
%TO.N,Net-(Q49-B)*%
X100350000Y-66000000D03*
%TO.P,R99,2*%
%TO.N,/K6*%
X102000000Y-66000000D03*
%TD*%
%TO.P,R23,1*%
%TO.N,Net-(Q13-B)*%
X156350000Y-66000000D03*
%TO.P,R23,2*%
%TO.N,/K33*%
X158000000Y-66000000D03*
%TD*%
D11*
%TO.P,Q42,1,B*%
%TO.N,Net-(Q42-B)*%
X117200000Y-73000000D03*
%TO.P,Q42,2,E*%
%TO.N,GND*%
X119100000Y-73000000D03*
%TO.P,Q42,3,C*%
%TO.N,/OUT_K13*%
X118150000Y-71125000D03*
%TD*%
D12*
%TO.P,R60,1*%
%TO.N,HT*%
X115012500Y-69000000D03*
%TO.P,R60,2*%
%TO.N,/OUT_K11*%
X113187500Y-69000000D03*
%TD*%
D18*
%TO.P,U5,1,Q5*%
%TO.N,/K13*%
X115445000Y-79912500D03*
%TO.P,U5,2,Q1*%
%TO.N,/K9*%
X114175000Y-79912500D03*
%TO.P,U5,3,Q0*%
%TO.N,Net-(U5-Q0)*%
X112905000Y-79912500D03*
%TO.P,U5,4,Q2*%
%TO.N,/K10*%
X111635000Y-79912500D03*
%TO.P,U5,5,Q6*%
%TO.N,/K14*%
X110365000Y-79912500D03*
%TO.P,U5,6,Q7*%
%TO.N,/K15*%
X109095000Y-79912500D03*
%TO.P,U5,7,Q3*%
%TO.N,/K11*%
X107825000Y-79912500D03*
%TO.P,U5,8,VSS*%
%TO.N,GND*%
X106555000Y-79912500D03*
%TO.P,U5,9,Q8*%
%TO.N,/K16*%
X106555000Y-86087500D03*
%TO.P,U5,10,Q4*%
%TO.N,/K12*%
X107825000Y-86087500D03*
%TO.P,U5,11,Q9*%
%TO.N,Net-(U5-CKEN)*%
X109095000Y-86087500D03*
%TO.P,U5,12,Cout*%
%TO.N,unconnected-(U5-Cout-Pad12)*%
X110365000Y-86087500D03*
%TO.P,U5,13,CKEN*%
%TO.N,Net-(U5-CKEN)*%
X111635000Y-86087500D03*
%TO.P,U5,14,CLK*%
%TO.N,Net-(U5-CLK)*%
X112905000Y-86087500D03*
%TO.P,U5,15,Reset*%
%TO.N,/K0*%
X114175000Y-86087500D03*
%TO.P,U5,16,VDD*%
%TO.N,VCC*%
X115445000Y-86087500D03*
%TD*%
D11*
%TO.P,Q48,1,B*%
%TO.N,Net-(Q48-B)*%
X220050000Y-63875000D03*
%TO.P,Q48,2,E*%
%TO.N,GND*%
X221950000Y-63875000D03*
%TO.P,Q48,3,C*%
%TO.N,/OUT_K61*%
X221000000Y-62000000D03*
%TD*%
%TO.P,Q5,1,B*%
%TO.N,Net-(Q5-B)*%
X152100000Y-64000000D03*
%TO.P,Q5,2,E*%
%TO.N,GND*%
X154000000Y-64000000D03*
%TO.P,Q5,3,C*%
%TO.N,/OUT_K32*%
X153050000Y-62125000D03*
%TD*%
D14*
%TO.P,R71,1*%
%TO.N,Net-(Q37-B)*%
X168175000Y-66000000D03*
%TO.P,R71,2*%
%TO.N,/K36*%
X169825000Y-66000000D03*
%TD*%
%TO.P,R105,1*%
%TO.N,Net-(Q55-B)*%
X201175000Y-74937500D03*
%TO.P,R105,2*%
%TO.N,/K54*%
X202825000Y-74937500D03*
%TD*%
%TO.P,R67,1*%
%TO.N,Net-(Q33-B)*%
X96175000Y-66000000D03*
%TO.P,R67,2*%
%TO.N,/K4*%
X97825000Y-66000000D03*
%TD*%
D19*
%TO.P,JP1,1,A*%
%TO.N,Net-(JP1-A)*%
X188150000Y-89400000D03*
D20*
%TO.P,JP1,2,B*%
%TO.N,/LAST_COUNT_RESET*%
X186850000Y-89400000D03*
%TD*%
D11*
%TO.P,Q19,1,B*%
%TO.N,Net-(Q19-B)*%
X124200000Y-64000000D03*
%TO.P,Q19,2,E*%
%TO.N,GND*%
X126100000Y-64000000D03*
%TO.P,Q19,3,C*%
%TO.N,/OUT_K18*%
X125150000Y-62125000D03*
%TD*%
%TO.P,Q17,1,B*%
%TO.N,Net-(Q17-B)*%
X92325000Y-63937500D03*
%TO.P,Q17,2,E*%
%TO.N,GND*%
X94225000Y-63937500D03*
%TO.P,Q17,3,C*%
%TO.N,/OUT_K2*%
X93275000Y-62062500D03*
%TD*%
D12*
%TO.P,R45,1*%
%TO.N,HT*%
X126100000Y-60000000D03*
%TO.P,R45,2*%
%TO.N,/OUT_K18*%
X124275000Y-60000000D03*
%TD*%
%TO.P,R63,1*%
%TO.N,HT*%
X165912500Y-60125000D03*
%TO.P,R63,2*%
%TO.N,/OUT_K35*%
X164087500Y-60125000D03*
%TD*%
D18*
%TO.P,U7,1,Q5*%
%TO.N,/K29*%
X144445000Y-79912500D03*
%TO.P,U7,2,Q1*%
%TO.N,/K25*%
X143175000Y-79912500D03*
%TO.P,U7,3,Q0*%
%TO.N,Net-(U7-Q0)*%
X141905000Y-79912500D03*
%TO.P,U7,4,Q2*%
%TO.N,/K26*%
X140635000Y-79912500D03*
%TO.P,U7,5,Q6*%
%TO.N,/K30*%
X139365000Y-79912500D03*
%TO.P,U7,6,Q7*%
%TO.N,/K31*%
X138095000Y-79912500D03*
%TO.P,U7,7,Q3*%
%TO.N,/K27*%
X136825000Y-79912500D03*
%TO.P,U7,8,VSS*%
%TO.N,GND*%
X135555000Y-79912500D03*
%TO.P,U7,9,Q8*%
%TO.N,/K32*%
X135555000Y-86087500D03*
%TO.P,U7,10,Q4*%
%TO.N,/K28*%
X136825000Y-86087500D03*
%TO.P,U7,11,Q9*%
%TO.N,Net-(U7-CKEN)*%
X138095000Y-86087500D03*
%TO.P,U7,12,Cout*%
%TO.N,unconnected-(U7-Cout-Pad12)*%
X139365000Y-86087500D03*
%TO.P,U7,13,CKEN*%
%TO.N,Net-(U7-CKEN)*%
X140635000Y-86087500D03*
%TO.P,U7,14,CLK*%
%TO.N,Net-(U7-CLK)*%
X141905000Y-86087500D03*
%TO.P,U7,15,Reset*%
%TO.N,Net-(U6-Q0)*%
X143175000Y-86087500D03*
%TO.P,U7,16,VDD*%
%TO.N,VCC*%
X144445000Y-86087500D03*
%TD*%
D11*
%TO.P,Q54,1,B*%
%TO.N,Net-(Q54-B)*%
X188100000Y-64000000D03*
%TO.P,Q54,2,E*%
%TO.N,GND*%
X190000000Y-64000000D03*
%TO.P,Q54,3,C*%
%TO.N,/OUT_K46*%
X189050000Y-62125000D03*
%TD*%
D12*
%TO.P,R107,1*%
%TO.N,HT*%
X102012500Y-60000000D03*
%TO.P,R107,2*%
%TO.N,/OUT_K6*%
X100187500Y-60000000D03*
%TD*%
%TO.P,R91,1*%
%TO.N,HT*%
X103012500Y-69000000D03*
%TO.P,R91,2*%
%TO.N,/OUT_K5*%
X101187500Y-69000000D03*
%TD*%
%TO.P,R31,1*%
%TO.N,HT*%
X158100000Y-60000000D03*
%TO.P,R31,2*%
%TO.N,/OUT_K33*%
X156275000Y-60000000D03*
%TD*%
D14*
%TO.P,R121,1*%
%TO.N,Net-(Q63-B)*%
X208250000Y-66000000D03*
%TO.P,R121,2*%
%TO.N,/K55*%
X209900000Y-66000000D03*
%TD*%
D12*
%TO.P,R127,1*%
%TO.N,HT*%
X175912500Y-69000000D03*
%TO.P,R127,2*%
%TO.N,/OUT_K39*%
X174087500Y-69000000D03*
%TD*%
D18*
%TO.P,U8,1,Q5*%
%TO.N,/K37*%
X159445000Y-79912500D03*
%TO.P,U8,2,Q1*%
%TO.N,/K33*%
X158175000Y-79912500D03*
%TO.P,U8,3,Q0*%
%TO.N,Net-(U8-Q0)*%
X156905000Y-79912500D03*
%TO.P,U8,4,Q2*%
%TO.N,/K34*%
X155635000Y-79912500D03*
%TO.P,U8,5,Q6*%
%TO.N,/K38*%
X154365000Y-79912500D03*
%TO.P,U8,6,Q7*%
%TO.N,/K39*%
X153095000Y-79912500D03*
%TO.P,U8,7,Q3*%
%TO.N,/K35*%
X151825000Y-79912500D03*
%TO.P,U8,8,VSS*%
%TO.N,GND*%
X150555000Y-79912500D03*
%TO.P,U8,9,Q8*%
%TO.N,/K40*%
X150555000Y-86087500D03*
%TO.P,U8,10,Q4*%
%TO.N,/K36*%
X151825000Y-86087500D03*
%TO.P,U8,11,Q9*%
%TO.N,Net-(U8-CKEN)*%
X153095000Y-86087500D03*
%TO.P,U8,12,Cout*%
%TO.N,unconnected-(U8-Cout-Pad12)*%
X154365000Y-86087500D03*
%TO.P,U8,13,CKEN*%
%TO.N,Net-(U8-CKEN)*%
X155635000Y-86087500D03*
%TO.P,U8,14,CLK*%
%TO.N,Net-(U8-CLK)*%
X156905000Y-86087500D03*
%TO.P,U8,15,Reset*%
%TO.N,Net-(U7-Q0)*%
X158175000Y-86087500D03*
%TO.P,U8,16,VDD*%
%TO.N,VCC*%
X159445000Y-86087500D03*
%TD*%
D12*
%TO.P,R48,1*%
%TO.N,HT*%
X181912500Y-60000000D03*
%TO.P,R48,2*%
%TO.N,/OUT_K42*%
X180087500Y-60000000D03*
%TD*%
%TO.P,R49,1*%
%TO.N,HT*%
X197825000Y-60000000D03*
%TO.P,R49,2*%
%TO.N,/OUT_K50*%
X196000000Y-60000000D03*
%TD*%
D11*
%TO.P,Q35,1,B*%
%TO.N,Net-(Q35-B)*%
X128100000Y-64000000D03*
%TO.P,Q35,2,E*%
%TO.N,GND*%
X130000000Y-64000000D03*
%TO.P,Q35,3,C*%
%TO.N,/OUT_K20*%
X129050000Y-62125000D03*
%TD*%
D14*
%TO.P,R117,1*%
%TO.N,Net-(Q59-B)*%
X137175000Y-75000000D03*
%TO.P,R117,2*%
%TO.N,/K23*%
X138825000Y-75000000D03*
%TD*%
D12*
%TO.P,R46,1*%
%TO.N,HT*%
X142012500Y-60000000D03*
%TO.P,R46,2*%
%TO.N,/OUT_K26*%
X140187500Y-60000000D03*
%TD*%
D11*
%TO.P,Q8,1,B*%
%TO.N,Net-(Q8-B)*%
X205050000Y-72937500D03*
%TO.P,Q8,2,E*%
%TO.N,GND*%
X206950000Y-72937500D03*
%TO.P,Q8,3,C*%
%TO.N,/OUT_K56*%
X206000000Y-71062500D03*
%TD*%
D21*
%TO.P,J2,1,Pin_1*%
%TO.N,HT*%
X163650000Y-70375000D03*
D22*
%TO.P,J2,2,Pin_2*%
%TO.N,GND*%
X166150000Y-70375000D03*
%TD*%
D12*
%TO.P,R29,1*%
%TO.N,HT*%
X127012500Y-69000000D03*
%TO.P,R29,2*%
%TO.N,/OUT_K17*%
X125187500Y-69000000D03*
%TD*%
D11*
%TO.P,Q26,1,B*%
%TO.N,Net-(Q26-B)*%
X113200000Y-73000000D03*
%TO.P,Q26,2,E*%
%TO.N,GND*%
X115100000Y-73000000D03*
%TO.P,Q26,3,C*%
%TO.N,/OUT_K11*%
X114150000Y-71125000D03*
%TD*%
D14*
%TO.P,R116,1*%
%TO.N,Net-(Q58-B)*%
X121350000Y-75000000D03*
%TO.P,R116,2*%
%TO.N,/K15*%
X123000000Y-75000000D03*
%TD*%
D12*
%TO.P,R92,1*%
%TO.N,HT*%
X119100000Y-69000000D03*
%TO.P,R92,2*%
%TO.N,/OUT_K13*%
X117275000Y-69000000D03*
%TD*%
D11*
%TO.P,Q45,1,B*%
%TO.N,Net-(Q45-B)*%
X170100000Y-73000000D03*
%TO.P,Q45,2,E*%
%TO.N,GND*%
X172000000Y-73000000D03*
%TO.P,Q45,3,C*%
%TO.N,/OUT_K37*%
X171050000Y-71125000D03*
%TD*%
D14*
%TO.P,R5,1*%
%TO.N,Net-(Q3-B)*%
X120350000Y-66000000D03*
%TO.P,R5,2*%
%TO.N,/K16*%
X122000000Y-66000000D03*
%TD*%
D23*
%TO.P,D2,1,K*%
%TO.N,GND*%
X145987500Y-97000000D03*
%TO.P,D2,2,A*%
%TO.N,Net-(D2-A)*%
X144412500Y-97000000D03*
%TD*%
D11*
%TO.P,Q59,1,B*%
%TO.N,Net-(Q59-B)*%
X137100000Y-73000000D03*
%TO.P,Q59,2,E*%
%TO.N,GND*%
X139000000Y-73000000D03*
%TO.P,Q59,3,C*%
%TO.N,/OUT_K23*%
X138050000Y-71125000D03*
%TD*%
%TO.P,Q49,1,B*%
%TO.N,Net-(Q49-B)*%
X100150000Y-63937500D03*
%TO.P,Q49,2,E*%
%TO.N,GND*%
X102050000Y-63937500D03*
%TO.P,Q49,3,C*%
%TO.N,/OUT_K6*%
X101100000Y-62062500D03*
%TD*%
D14*
%TO.P,R74,1*%
%TO.N,Net-(Q40-B)*%
X210175000Y-74937500D03*
%TO.P,R74,2*%
%TO.N,/K60*%
X211825000Y-74937500D03*
%TD*%
%TO.P,R73,1*%
%TO.N,Net-(Q39-B)*%
X200350000Y-66000000D03*
%TO.P,R73,2*%
%TO.N,/K52*%
X202000000Y-66000000D03*
%TD*%
D11*
%TO.P,Q31,1,B*%
%TO.N,Net-(Q31-B)*%
X198050000Y-73000000D03*
%TO.P,Q31,2,E*%
%TO.N,GND*%
X199950000Y-73000000D03*
%TO.P,Q31,3,C*%
%TO.N,/OUT_K51*%
X199000000Y-71125000D03*
%TD*%
D14*
%TO.P,R4,1*%
%TO.N,Net-(Q2-B)*%
X104175000Y-66000000D03*
%TO.P,R4,2*%
%TO.N,/K8*%
X105825000Y-66000000D03*
%TD*%
D12*
%TO.P,R114,1*%
%TO.N,HT*%
X217412500Y-68100000D03*
%TO.P,R114,2*%
%TO.N,/OUT_K62*%
X215587500Y-68100000D03*
%TD*%
D11*
%TO.P,Q6,1,B*%
%TO.N,Net-(Q6-B)*%
X175912500Y-64000000D03*
%TO.P,Q6,2,E*%
%TO.N,GND*%
X177812500Y-64000000D03*
%TO.P,Q6,3,C*%
%TO.N,/OUT_K40*%
X176862500Y-62125000D03*
%TD*%
%TO.P,Q18,1,B*%
%TO.N,Net-(Q18-B)*%
X108150000Y-63937500D03*
%TO.P,Q18,2,E*%
%TO.N,GND*%
X110050000Y-63937500D03*
%TO.P,Q18,3,C*%
%TO.N,/OUT_K10*%
X109100000Y-62062500D03*
%TD*%
D12*
%TO.P,R33,1*%
%TO.N,HT*%
X196000000Y-69000000D03*
%TO.P,R33,2*%
%TO.N,/OUT_K49*%
X194175000Y-69000000D03*
%TD*%
%TO.P,R43,1*%
%TO.N,HT*%
X93825000Y-60000000D03*
%TO.P,R43,2*%
%TO.N,/OUT_K2*%
X92000000Y-60000000D03*
%TD*%
D11*
%TO.P,Q32,1,B*%
%TO.N,Net-(Q32-B)*%
X216050000Y-63937500D03*
%TO.P,Q32,2,E*%
%TO.N,GND*%
X217950000Y-63937500D03*
%TO.P,Q32,3,C*%
%TO.N,/OUT_K59*%
X217000000Y-62062500D03*
%TD*%
D14*
%TO.P,R103,1*%
%TO.N,Net-(Q53-B)*%
X172350000Y-66000000D03*
%TO.P,R103,2*%
%TO.N,/K38*%
X174000000Y-66000000D03*
%TD*%
D12*
%TO.P,R18,1*%
%TO.N,HT*%
X206912500Y-69000000D03*
%TO.P,R18,2*%
%TO.N,/OUT_K56*%
X205087500Y-69000000D03*
%TD*%
D14*
%TO.P,R6,1*%
%TO.N,Net-(Q4-B)*%
X136175000Y-66000000D03*
%TO.P,R6,2*%
%TO.N,/K24*%
X137825000Y-66000000D03*
%TD*%
D16*
%TO.P,C4,1*%
%TO.N,VCC*%
X132700000Y-86575000D03*
%TO.P,C4,2*%
%TO.N,GND*%
X132700000Y-85025000D03*
%TD*%
D14*
%TO.P,R89,1*%
%TO.N,Net-(Q47-B)*%
X204250000Y-66000000D03*
%TO.P,R89,2*%
%TO.N,/K53*%
X205900000Y-66000000D03*
%TD*%
D18*
%TO.P,U9,1,Q5*%
%TO.N,/K45*%
X175445000Y-79912500D03*
%TO.P,U9,2,Q1*%
%TO.N,/K41*%
X174175000Y-79912500D03*
%TO.P,U9,3,Q0*%
%TO.N,Net-(U10-Reset)*%
X172905000Y-79912500D03*
%TO.P,U9,4,Q2*%
%TO.N,/K42*%
X171635000Y-79912500D03*
%TO.P,U9,5,Q6*%
%TO.N,/K46*%
X170365000Y-79912500D03*
%TO.P,U9,6,Q7*%
%TO.N,/K47*%
X169095000Y-79912500D03*
%TO.P,U9,7,Q3*%
%TO.N,/K43*%
X167825000Y-79912500D03*
%TO.P,U9,8,VSS*%
%TO.N,GND*%
X166555000Y-79912500D03*
%TO.P,U9,9,Q8*%
%TO.N,/K48*%
X166555000Y-86087500D03*
%TO.P,U9,10,Q4*%
%TO.N,/K44*%
X167825000Y-86087500D03*
%TO.P,U9,11,Q9*%
%TO.N,Net-(U9-CKEN)*%
X169095000Y-86087500D03*
%TO.P,U9,12,Cout*%
%TO.N,unconnected-(U9-Cout-Pad12)*%
X170365000Y-86087500D03*
%TO.P,U9,13,CKEN*%
%TO.N,Net-(U9-CKEN)*%
X171635000Y-86087500D03*
%TO.P,U9,14,CLK*%
%TO.N,Net-(U9-CLK)*%
X172905000Y-86087500D03*
%TO.P,U9,15,Reset*%
%TO.N,Net-(U8-Q0)*%
X174175000Y-86087500D03*
%TO.P,U9,16,VDD*%
%TO.N,VCC*%
X175445000Y-86087500D03*
%TD*%
D14*
%TO.P,R22,1*%
%TO.N,Net-(Q12-B)*%
X141350000Y-75000000D03*
%TO.P,R22,2*%
%TO.N,/K25*%
X143000000Y-75000000D03*
%TD*%
D11*
%TO.P,Q15,1,B*%
%TO.N,Net-(Q15-B)*%
X194000000Y-73000000D03*
%TO.P,Q15,2,E*%
%TO.N,GND*%
X195900000Y-73000000D03*
%TO.P,Q15,3,C*%
%TO.N,/OUT_K49*%
X194950000Y-71125000D03*
%TD*%
%TO.P,Q25,1,B*%
%TO.N,Net-(Q25-B)*%
X97200000Y-73000000D03*
%TO.P,Q25,2,E*%
%TO.N,GND*%
X99100000Y-73000000D03*
%TO.P,Q25,3,C*%
%TO.N,/OUT_K3*%
X98150000Y-71125000D03*
%TD*%
%TO.P,Q39,1,B*%
%TO.N,Net-(Q39-B)*%
X200000000Y-64000000D03*
%TO.P,Q39,2,E*%
%TO.N,GND*%
X201900000Y-64000000D03*
%TO.P,Q39,3,C*%
%TO.N,/OUT_K52*%
X200950000Y-62125000D03*
%TD*%
%TO.P,Q61,1,B*%
%TO.N,Net-(Q61-B)*%
X174000000Y-73000000D03*
%TO.P,Q61,2,E*%
%TO.N,GND*%
X175900000Y-73000000D03*
%TO.P,Q61,3,C*%
%TO.N,/OUT_K39*%
X174950000Y-71125000D03*
%TD*%
D14*
%TO.P,R119,1*%
%TO.N,Net-(Q61-B)*%
X174075000Y-75000000D03*
%TO.P,R119,2*%
%TO.N,/K39*%
X175725000Y-75000000D03*
%TD*%
D16*
%TO.P,C6,1*%
%TO.N,VCC*%
X146500000Y-86575000D03*
%TO.P,C6,2*%
%TO.N,GND*%
X146500000Y-85025000D03*
%TD*%
%TO.P,C2,1*%
%TO.N,VCC*%
X205800000Y-83575000D03*
%TO.P,C2,2*%
%TO.N,GND*%
X205800000Y-82025000D03*
%TD*%
D11*
%TO.P,Q27,1,B*%
%TO.N,Net-(Q27-B)*%
X129150000Y-72937500D03*
%TO.P,Q27,2,E*%
%TO.N,GND*%
X131050000Y-72937500D03*
%TO.P,Q27,3,C*%
%TO.N,/OUT_K19*%
X130100000Y-71062500D03*
%TD*%
D16*
%TO.P,C10,1*%
%TO.N,VCC*%
X192600000Y-86575000D03*
%TO.P,C10,2*%
%TO.N,GND*%
X192600000Y-85025000D03*
%TD*%
D14*
%TO.P,R37,1*%
%TO.N,Net-(Q19-B)*%
X124175000Y-66000000D03*
%TO.P,R37,2*%
%TO.N,/K18*%
X125825000Y-66000000D03*
%TD*%
D12*
%TO.P,R16,1*%
%TO.N,HT*%
X177912500Y-60000000D03*
%TO.P,R16,2*%
%TO.N,/OUT_K40*%
X176087500Y-60000000D03*
%TD*%
D14*
%TO.P,R58,1*%
%TO.N,Net-(Q32-B)*%
X216250000Y-66000000D03*
%TO.P,R58,2*%
%TO.N,/K59*%
X217900000Y-66000000D03*
%TD*%
D11*
%TO.P,Q50,1,B*%
%TO.N,Net-(Q50-B)*%
X116150000Y-63937500D03*
%TO.P,Q50,2,E*%
%TO.N,GND*%
X118050000Y-63937500D03*
%TO.P,Q50,3,C*%
%TO.N,/OUT_K14*%
X117100000Y-62062500D03*
%TD*%
D14*
%TO.P,R36,1*%
%TO.N,Net-(Q18-B)*%
X108175000Y-66000000D03*
%TO.P,R36,2*%
%TO.N,/K10*%
X109825000Y-66000000D03*
%TD*%
D12*
%TO.P,R126,1*%
%TO.N,HT*%
X155012500Y-69000000D03*
%TO.P,R126,2*%
%TO.N,/OUT_K31*%
X153187500Y-69000000D03*
%TD*%
D24*
%TO.P,J1,1,Pin_1*%
%TO.N,VCC*%
X150450000Y-94075000D03*
D25*
%TO.P,J1,2,Pin_2*%
%TO.N,/INPUT_CLK*%
X152950000Y-94075000D03*
%TO.P,J1,3,Pin_3*%
%TO.N,/RESET_COUNT*%
X155450000Y-94075000D03*
%TO.P,J1,4,Pin_4*%
%TO.N,GND*%
X157950000Y-94075000D03*
%TD*%
D12*
%TO.P,R65,1*%
%TO.N,HT*%
X200000000Y-69000000D03*
%TO.P,R65,2*%
%TO.N,/OUT_K51*%
X198175000Y-69000000D03*
%TD*%
%TO.P,R111,1*%
%TO.N,HT*%
X174100000Y-60000000D03*
%TO.P,R111,2*%
%TO.N,/OUT_K38*%
X172275000Y-60000000D03*
%TD*%
%TO.P,R11,1*%
%TO.N,HT*%
X91187500Y-69000000D03*
%TO.P,R11,2*%
%TO.N,/OUT_K0*%
X89362500Y-69000000D03*
%TD*%
D14*
%TO.P,R70,1*%
%TO.N,Net-(Q36-B)*%
X144075000Y-66000000D03*
%TO.P,R70,2*%
%TO.N,/K28*%
X145725000Y-66000000D03*
%TD*%
%TO.P,R87,1*%
%TO.N,Net-(Q45-B)*%
X170350000Y-75000000D03*
%TO.P,R87,2*%
%TO.N,/K37*%
X172000000Y-75000000D03*
%TD*%
%TO.P,R88,1*%
%TO.N,Net-(Q46-B)*%
X186250000Y-75000000D03*
%TO.P,R88,2*%
%TO.N,/K45*%
X187900000Y-75000000D03*
%TD*%
D16*
%TO.P,C7,1*%
%TO.N,VCC*%
X161500000Y-86475000D03*
%TO.P,C7,2*%
%TO.N,GND*%
X161500000Y-84925000D03*
%TD*%
D23*
%TO.P,D1,1,K*%
%TO.N,GND*%
X159212500Y-72200000D03*
%TO.P,D1,2,A*%
%TO.N,Net-(D1-A)*%
X157637500Y-72200000D03*
%TD*%
D11*
%TO.P,Q13,1,B*%
%TO.N,Net-(Q13-B)*%
X156100000Y-64000000D03*
%TO.P,Q13,2,E*%
%TO.N,GND*%
X158000000Y-64000000D03*
%TO.P,Q13,3,C*%
%TO.N,/OUT_K33*%
X157050000Y-62125000D03*
%TD*%
D14*
%TO.P,R39,1*%
%TO.N,Net-(Q21-B)*%
X160350000Y-66000000D03*
%TO.P,R39,2*%
%TO.N,/K34*%
X162000000Y-66000000D03*
%TD*%
D15*
%TO.P,U3,1*%
%TO.N,Net-(U2-CKEN)*%
X121190000Y-95285000D03*
%TO.P,U3,2*%
%TO.N,/INPUT_CLK*%
X122460000Y-95285000D03*
%TO.P,U3,3*%
%TO.N,Net-(U5-CLK)*%
X123730000Y-95285000D03*
%TO.P,U3,4*%
%TO.N,Net-(U6-CLK)*%
X125000000Y-95285000D03*
%TO.P,U3,5*%
%TO.N,Net-(U5-CKEN)*%
X126270000Y-95285000D03*
%TO.P,U3,6*%
%TO.N,/CLK*%
X127540000Y-95285000D03*
%TO.P,U3,7,VSS*%
%TO.N,GND*%
X128810000Y-95285000D03*
%TO.P,U3,8*%
%TO.N,Net-(U7-CKEN)*%
X128810000Y-90335000D03*
%TO.P,U3,9*%
%TO.N,/CLK*%
X127540000Y-90335000D03*
%TO.P,U3,10*%
%TO.N,Net-(U8-CLK)*%
X126270000Y-90335000D03*
%TO.P,U3,11*%
%TO.N,Net-(U7-CLK)*%
X125000000Y-90335000D03*
%TO.P,U3,12*%
%TO.N,Net-(U6-CKEN)*%
X123730000Y-90335000D03*
%TO.P,U3,13*%
%TO.N,/CLK*%
X122460000Y-90335000D03*
%TO.P,U3,14,VDD*%
%TO.N,VCC*%
X121190000Y-90335000D03*
%TD*%
D11*
%TO.P,Q40,1,B*%
%TO.N,Net-(Q40-B)*%
X212050000Y-72937500D03*
%TO.P,Q40,2,E*%
%TO.N,GND*%
X213950000Y-72937500D03*
%TO.P,Q40,3,C*%
%TO.N,/OUT_K60*%
X213000000Y-71062500D03*
%TD*%
D14*
%TO.P,R118,1*%
%TO.N,Net-(Q60-B)*%
X153350000Y-75000000D03*
%TO.P,R118,2*%
%TO.N,/K31*%
X155000000Y-75000000D03*
%TD*%
D12*
%TO.P,R96,1*%
%TO.N,HT*%
X187912500Y-69000000D03*
%TO.P,R96,2*%
%TO.N,/OUT_K45*%
X186087500Y-69000000D03*
%TD*%
%TO.P,R80,1*%
%TO.N,HT*%
X185825000Y-60000000D03*
%TO.P,R80,2*%
%TO.N,/OUT_K44*%
X184000000Y-60000000D03*
%TD*%
%TO.P,R98,1*%
%TO.N,HT*%
X221912500Y-60000000D03*
%TO.P,R98,2*%
%TO.N,/OUT_K61*%
X220087500Y-60000000D03*
%TD*%
%TO.P,R109,1*%
%TO.N,HT*%
X134012500Y-60000000D03*
%TO.P,R109,2*%
%TO.N,/OUT_K22*%
X132187500Y-60000000D03*
%TD*%
%TO.P,R47,1*%
%TO.N,HT*%
X162000000Y-60000000D03*
%TO.P,R47,2*%
%TO.N,/OUT_K34*%
X160175000Y-60000000D03*
%TD*%
D11*
%TO.P,Q28,1,B*%
%TO.N,Net-(Q28-B)*%
X145200000Y-73000000D03*
%TO.P,Q28,2,E*%
%TO.N,GND*%
X147100000Y-73000000D03*
%TO.P,Q28,3,C*%
%TO.N,/OUT_K27*%
X146150000Y-71125000D03*
%TD*%
D14*
%TO.P,R120,1*%
%TO.N,Net-(Q62-B)*%
X190250000Y-75000000D03*
%TO.P,R120,2*%
%TO.N,/K47*%
X191900000Y-75000000D03*
%TD*%
%TO.P,R26,1*%
%TO.N,Net-(Q16-B)*%
X212250000Y-66000000D03*
%TO.P,R26,2*%
%TO.N,/K57*%
X213900000Y-66000000D03*
%TD*%
D11*
%TO.P,Q44,1,B*%
%TO.N,Net-(Q44-B)*%
X149200000Y-73000000D03*
%TO.P,Q44,2,E*%
%TO.N,GND*%
X151100000Y-73000000D03*
%TO.P,Q44,3,C*%
%TO.N,/OUT_K29*%
X150150000Y-71125000D03*
%TD*%
D14*
%TO.P,R52,1*%
%TO.N,Net-(Q26-B)*%
X113350000Y-75000000D03*
%TO.P,R52,2*%
%TO.N,/K11*%
X115000000Y-75000000D03*
%TD*%
D12*
%TO.P,R108,1*%
%TO.N,HT*%
X118100000Y-60000000D03*
%TO.P,R108,2*%
%TO.N,/OUT_K14*%
X116275000Y-60000000D03*
%TD*%
%TO.P,R66,1*%
%TO.N,HT*%
X217912500Y-60000000D03*
%TO.P,R66,2*%
%TO.N,/OUT_K59*%
X216087500Y-60000000D03*
%TD*%
D14*
%TO.P,R10,1*%
%TO.N,Net-(Q8-B)*%
X204175000Y-74937500D03*
%TO.P,R10,2*%
%TO.N,/K56*%
X205825000Y-74937500D03*
%TD*%
D12*
%TO.P,R59,1*%
%TO.N,HT*%
X99062500Y-69062500D03*
%TO.P,R59,2*%
%TO.N,/OUT_K3*%
X97237500Y-69062500D03*
%TD*%
D14*
%TO.P,R106,1*%
%TO.N,Net-(Q56-B)*%
X213175000Y-74937500D03*
%TO.P,R106,2*%
%TO.N,/K62*%
X214825000Y-74937500D03*
%TD*%
D16*
%TO.P,C9,1*%
%TO.N,VCC*%
X177700000Y-86475000D03*
%TO.P,C9,2*%
%TO.N,GND*%
X177700000Y-84925000D03*
%TD*%
D14*
%TO.P,R69,1*%
%TO.N,Net-(Q35-B)*%
X128350000Y-66000000D03*
%TO.P,R69,2*%
%TO.N,/K20*%
X130000000Y-66000000D03*
%TD*%
%TO.P,R8,1*%
%TO.N,Net-(Q6-B)*%
X176262500Y-66000000D03*
%TO.P,R8,2*%
%TO.N,/K40*%
X177912500Y-66000000D03*
%TD*%
%TO.P,R85,1*%
%TO.N,Net-(Q43-B)*%
X133175000Y-75000000D03*
%TO.P,R85,2*%
%TO.N,/K21*%
X134825000Y-75000000D03*
%TD*%
D26*
%TO.P,TP2,1,1*%
%TO.N,Net-(U11-Cout)*%
X197000000Y-90300000D03*
%TD*%
D12*
%TO.P,R50,1*%
%TO.N,HT*%
X210412500Y-68937500D03*
%TO.P,R50,2*%
%TO.N,/OUT_K58*%
X208587500Y-68937500D03*
%TD*%
D14*
%TO.P,R21,1*%
%TO.N,Net-(Q11-B)*%
X125175000Y-75000000D03*
%TO.P,R21,2*%
%TO.N,/K17*%
X126825000Y-75000000D03*
%TD*%
D11*
%TO.P,Q41,1,B*%
%TO.N,Net-(Q41-B)*%
X101150000Y-72937500D03*
%TO.P,Q41,2,E*%
%TO.N,GND*%
X103050000Y-72937500D03*
%TO.P,Q41,3,C*%
%TO.N,/OUT_K5*%
X102100000Y-71062500D03*
%TD*%
D12*
%TO.P,R112,1*%
%TO.N,HT*%
X189912500Y-60000000D03*
%TO.P,R112,2*%
%TO.N,/OUT_K46*%
X188087500Y-60000000D03*
%TD*%
D14*
%TO.P,R3,1*%
%TO.N,Net-(Q1-B)*%
X89450000Y-75000000D03*
%TO.P,R3,2*%
%TO.N,/K0*%
X91100000Y-75000000D03*
%TD*%
D11*
%TO.P,Q20,1,B*%
%TO.N,Net-(Q20-B)*%
X140150000Y-63937500D03*
%TO.P,Q20,2,E*%
%TO.N,GND*%
X142050000Y-63937500D03*
%TO.P,Q20,3,C*%
%TO.N,/OUT_K26*%
X141100000Y-62062500D03*
%TD*%
D13*
%TO.P,R2,1*%
%TO.N,VCC*%
X146025000Y-95100000D03*
%TO.P,R2,2*%
%TO.N,Net-(D2-A)*%
X144375000Y-95100000D03*
%TD*%
D11*
%TO.P,Q7,1,B*%
%TO.N,Net-(Q7-B)*%
X192000000Y-64000000D03*
%TO.P,Q7,2,E*%
%TO.N,GND*%
X193900000Y-64000000D03*
%TO.P,Q7,3,C*%
%TO.N,/OUT_K48*%
X192950000Y-62125000D03*
%TD*%
D14*
%TO.P,R40,1*%
%TO.N,Net-(Q22-B)*%
X180525000Y-66000000D03*
%TO.P,R40,2*%
%TO.N,/K42*%
X182175000Y-66000000D03*
%TD*%
%TO.P,R115,1*%
%TO.N,Net-(Q57-B)*%
X105175000Y-75000000D03*
%TO.P,R115,2*%
%TO.N,/K7*%
X106825000Y-75000000D03*
%TD*%
D12*
%TO.P,R30,1*%
%TO.N,HT*%
X143012500Y-69000000D03*
%TO.P,R30,2*%
%TO.N,/OUT_K25*%
X141187500Y-69000000D03*
%TD*%
D18*
%TO.P,U2,1,Q5*%
%TO.N,/K5*%
X100445000Y-79912500D03*
%TO.P,U2,2,Q1*%
%TO.N,/K1*%
X99175000Y-79912500D03*
%TO.P,U2,3,Q0*%
%TO.N,/K0*%
X97905000Y-79912500D03*
%TO.P,U2,4,Q2*%
%TO.N,/K2*%
X96635000Y-79912500D03*
%TO.P,U2,5,Q6*%
%TO.N,/K6*%
X95365000Y-79912500D03*
%TO.P,U2,6,Q7*%
%TO.N,/K7*%
X94095000Y-79912500D03*
%TO.P,U2,7,Q3*%
%TO.N,/K3*%
X92825000Y-79912500D03*
%TO.P,U2,8,VSS*%
%TO.N,GND*%
X91555000Y-79912500D03*
%TO.P,U2,9,Q8*%
%TO.N,/K8*%
X91555000Y-86087500D03*
%TO.P,U2,10,Q4*%
%TO.N,/K4*%
X92825000Y-86087500D03*
%TO.P,U2,11,Q9*%
%TO.N,Net-(U2-CKEN)*%
X94095000Y-86087500D03*
%TO.P,U2,12,Cout*%
%TO.N,unconnected-(U2-Cout-Pad12)*%
X95365000Y-86087500D03*
%TO.P,U2,13,CKEN*%
%TO.N,Net-(U2-CKEN)*%
X96635000Y-86087500D03*
%TO.P,U2,14,CLK*%
%TO.N,/INPUT_CLK*%
X97905000Y-86087500D03*
%TO.P,U2,15,Reset*%
%TO.N,Net-(U2-Reset)*%
X99175000Y-86087500D03*
%TO.P,U2,16,VDD*%
%TO.N,VCC*%
X100445000Y-86087500D03*
%TD*%
D11*
%TO.P,Q36,1,B*%
%TO.N,Net-(Q36-B)*%
X144150000Y-63937500D03*
%TO.P,Q36,2,E*%
%TO.N,GND*%
X146050000Y-63937500D03*
%TO.P,Q36,3,C*%
%TO.N,/OUT_K28*%
X145100000Y-62062500D03*
%TD*%
D12*
%TO.P,R79,1*%
%TO.N,HT*%
X170000000Y-60000000D03*
%TO.P,R79,2*%
%TO.N,/OUT_K36*%
X168175000Y-60000000D03*
%TD*%
%TO.P,R81,1*%
%TO.N,HT*%
X201912500Y-60000000D03*
%TO.P,R81,2*%
%TO.N,/OUT_K52*%
X200087500Y-60000000D03*
%TD*%
D11*
%TO.P,Q53,1,B*%
%TO.N,Net-(Q53-B)*%
X172100000Y-64000000D03*
%TO.P,Q53,2,E*%
%TO.N,GND*%
X174000000Y-64000000D03*
%TO.P,Q53,3,C*%
%TO.N,/OUT_K38*%
X173050000Y-62125000D03*
%TD*%
D27*
%TO.P,U12,1*%
%TO.N,/OUT_K0*%
X78500000Y-53000000D03*
%TO.P,U12,2*%
%TO.N,/OUT_K1*%
X81000000Y-53000000D03*
%TO.P,U12,3*%
%TO.N,/OUT_K2*%
X83500000Y-53000000D03*
%TO.P,U12,4*%
%TO.N,/OUT_K3*%
X86000000Y-53000000D03*
%TO.P,U12,5*%
%TO.N,/OUT_K4*%
X88500000Y-53000000D03*
%TO.P,U12,6*%
%TO.N,/OUT_K5*%
X91000000Y-53000000D03*
%TO.P,U12,7*%
%TO.N,/OUT_K6*%
X93500000Y-53000000D03*
%TO.P,U12,8*%
%TO.N,/OUT_K7*%
X96000000Y-53000000D03*
%TO.P,U12,9*%
%TO.N,/OUT_K8*%
X98500000Y-53000000D03*
%TO.P,U12,10*%
%TO.N,/OUT_K9*%
X101000000Y-53000000D03*
%TO.P,U12,11*%
%TO.N,/OUT_K10*%
X103500000Y-53000000D03*
%TO.P,U12,12*%
%TO.N,/OUT_K11*%
X106000000Y-53000000D03*
%TO.P,U12,13*%
%TO.N,/OUT_K12*%
X108500000Y-53000000D03*
%TO.P,U12,14*%
%TO.N,/OUT_K13*%
X111000000Y-53000000D03*
%TO.P,U12,15*%
%TO.N,/OUT_K14*%
X113500000Y-53000000D03*
%TO.P,U12,16*%
%TO.N,/OUT_K15*%
X116000000Y-53000000D03*
%TO.P,U12,17*%
%TO.N,/OUT_K16*%
X118500000Y-53000000D03*
%TO.P,U12,18*%
%TO.N,/OUT_K17*%
X121000000Y-53000000D03*
%TO.P,U12,19*%
%TO.N,/OUT_K18*%
X123500000Y-53000000D03*
%TO.P,U12,20*%
%TO.N,/OUT_K19*%
X126000000Y-53000000D03*
%TO.P,U12,21*%
%TO.N,/OUT_K20*%
X128500000Y-53000000D03*
%TO.P,U12,22*%
%TO.N,/OUT_K21*%
X131000000Y-53000000D03*
%TO.P,U12,23*%
%TO.N,/OUT_K22*%
X133500000Y-53000000D03*
%TO.P,U12,24*%
%TO.N,/OUT_K23*%
X136000000Y-53000000D03*
%TO.P,U12,25*%
%TO.N,/OUT_K24*%
X138500000Y-53000000D03*
%TO.P,U12,26*%
%TO.N,/OUT_K25*%
X141000000Y-53000000D03*
%TO.P,U12,27*%
%TO.N,/OUT_K26*%
X143500000Y-53000000D03*
%TO.P,U12,28*%
%TO.N,/OUT_K27*%
X146000000Y-53000000D03*
%TO.P,U12,29*%
%TO.N,/OUT_K28*%
X148500000Y-53000000D03*
%TO.P,U12,30*%
%TO.N,/OUT_K29*%
X151000000Y-53000000D03*
%TO.P,U12,31*%
%TO.N,/OUT_K30*%
X153500000Y-53000000D03*
%TO.P,U12,32*%
%TO.N,/OUT_K31*%
X156000000Y-53000000D03*
%TO.P,U12,33*%
%TO.N,/OUT_K32*%
X158500000Y-53000000D03*
%TO.P,U12,34*%
%TO.N,/OUT_K33*%
X161000000Y-53000000D03*
%TO.P,U12,35*%
%TO.N,/OUT_K34*%
X163500000Y-53000000D03*
%TO.P,U12,36*%
%TO.N,/OUT_K35*%
X166000000Y-53000000D03*
%TO.P,U12,37*%
%TO.N,/OUT_K36*%
X168500000Y-53000000D03*
%TO.P,U12,38*%
%TO.N,/OUT_K37*%
X171000000Y-53000000D03*
%TO.P,U12,39*%
%TO.N,/OUT_K38*%
X173500000Y-53000000D03*
%TO.P,U12,40*%
%TO.N,/OUT_K39*%
X176000000Y-53000000D03*
%TO.P,U12,41*%
%TO.N,/OUT_K40*%
X178500000Y-53000000D03*
%TO.P,U12,42*%
%TO.N,/OUT_K41*%
X181000000Y-53000000D03*
%TO.P,U12,43*%
%TO.N,/OUT_K42*%
X183500000Y-53000000D03*
%TO.P,U12,44*%
%TO.N,/OUT_K43*%
X186000000Y-53000000D03*
%TO.P,U12,45*%
%TO.N,/OUT_K44*%
X188500000Y-53000000D03*
%TO.P,U12,46*%
%TO.N,/OUT_K45*%
X191000000Y-53000000D03*
%TO.P,U12,47*%
%TO.N,/OUT_K46*%
X193500000Y-53000000D03*
%TO.P,U12,48*%
%TO.N,/OUT_K47*%
X196000000Y-53000000D03*
%TO.P,U12,49*%
%TO.N,/OUT_K48*%
X198500000Y-53000000D03*
%TO.P,U12,50*%
%TO.N,/OUT_K49*%
X201000000Y-53000000D03*
%TO.P,U12,51*%
%TO.N,/OUT_K50*%
X203500000Y-53000000D03*
%TO.P,U12,52*%
%TO.N,/OUT_K51*%
X206000000Y-53000000D03*
%TO.P,U12,53*%
%TO.N,/OUT_K52*%
X208500000Y-53000000D03*
%TO.P,U12,54*%
%TO.N,/OUT_K53*%
X211000000Y-53000000D03*
%TO.P,U12,55*%
%TO.N,/OUT_K54*%
X213500000Y-53000000D03*
%TO.P,U12,56*%
%TO.N,/OUT_K55*%
X216000000Y-53000000D03*
%TO.P,U12,57*%
%TO.N,/OUT_K56*%
X218500000Y-53000000D03*
%TO.P,U12,58*%
%TO.N,/OUT_K57*%
X221000000Y-53000000D03*
%TO.P,U12,59*%
%TO.N,/OUT_K58*%
X223500000Y-53000000D03*
%TO.P,U12,60*%
%TO.N,/OUT_K59*%
X226000000Y-53000000D03*
%TO.P,U12,61*%
%TO.N,/OUT_K60*%
X228500000Y-53000000D03*
%TO.P,U12,62*%
%TO.N,/OUT_K61*%
X231000000Y-53000000D03*
%TO.P,U12,63*%
%TO.N,/OUT_K62*%
X233500000Y-53000000D03*
%TO.P,U12,64*%
%TO.N,/OUT_K63*%
X236000000Y-53000000D03*
%TD*%
D12*
%TO.P,R12,1*%
%TO.N,HT*%
X106012500Y-60000000D03*
%TO.P,R12,2*%
%TO.N,/OUT_K8*%
X104187500Y-60000000D03*
%TD*%
D14*
%TO.P,R104,1*%
%TO.N,Net-(Q54-B)*%
X188350000Y-66000000D03*
%TO.P,R104,2*%
%TO.N,/K46*%
X190000000Y-66000000D03*
%TD*%
%TO.P,R72,1*%
%TO.N,Net-(Q38-B)*%
X184350000Y-66000000D03*
%TO.P,R72,2*%
%TO.N,/K44*%
X186000000Y-66000000D03*
%TD*%
D12*
%TO.P,R123,1*%
%TO.N,HT*%
X107012500Y-69000000D03*
%TO.P,R123,2*%
%TO.N,/OUT_K7*%
X105187500Y-69000000D03*
%TD*%
D26*
%TO.P,TP1,1,1*%
%TO.N,Net-(U11-Q9)*%
X192900000Y-90300000D03*
%TD*%
D11*
%TO.P,Q43,1,B*%
%TO.N,Net-(Q43-B)*%
X133150000Y-72937500D03*
%TO.P,Q43,2,E*%
%TO.N,GND*%
X135050000Y-72937500D03*
%TO.P,Q43,3,C*%
%TO.N,/OUT_K21*%
X134100000Y-71062500D03*
%TD*%
%TO.P,Q2,1,B*%
%TO.N,Net-(Q2-B)*%
X104150000Y-63937500D03*
%TO.P,Q2,2,E*%
%TO.N,GND*%
X106050000Y-63937500D03*
%TO.P,Q2,3,C*%
%TO.N,/OUT_K8*%
X105100000Y-62062500D03*
%TD*%
D12*
%TO.P,R130,1*%
%TO.N,HT*%
X225912500Y-60000000D03*
%TO.P,R130,2*%
%TO.N,/OUT_K63*%
X224087500Y-60000000D03*
%TD*%
D14*
%TO.P,R51,1*%
%TO.N,Net-(Q25-B)*%
X97350000Y-75000000D03*
%TO.P,R51,2*%
%TO.N,/K3*%
X99000000Y-75000000D03*
%TD*%
D11*
%TO.P,Q64,1,B*%
%TO.N,Net-(Q64-B)*%
X224000000Y-64000000D03*
%TO.P,Q64,2,E*%
%TO.N,GND*%
X225900000Y-64000000D03*
%TO.P,Q64,3,C*%
%TO.N,/OUT_K63*%
X224950000Y-62125000D03*
%TD*%
D14*
%TO.P,R53,1*%
%TO.N,Net-(Q27-B)*%
X129350000Y-75000000D03*
%TO.P,R53,2*%
%TO.N,/K19*%
X131000000Y-75000000D03*
%TD*%
D11*
%TO.P,Q11,1,B*%
%TO.N,Net-(Q11-B)*%
X125200000Y-73000000D03*
%TO.P,Q11,2,E*%
%TO.N,GND*%
X127100000Y-73000000D03*
%TO.P,Q11,3,C*%
%TO.N,/OUT_K17*%
X126150000Y-71125000D03*
%TD*%
D28*
%TO.P,C8,1*%
%TO.N,VCC*%
X164400000Y-89825000D03*
%TO.P,C8,2*%
%TO.N,GND*%
X164400000Y-91375000D03*
%TD*%
D14*
%TO.P,R57,1*%
%TO.N,Net-(Q31-B)*%
X197900000Y-75000000D03*
%TO.P,R57,2*%
%TO.N,/K51*%
X199550000Y-75000000D03*
%TD*%
D11*
%TO.P,Q23,1,B*%
%TO.N,Net-(Q23-B)*%
X196100000Y-64000000D03*
%TO.P,Q23,2,E*%
%TO.N,GND*%
X198000000Y-64000000D03*
%TO.P,Q23,3,C*%
%TO.N,/OUT_K50*%
X197050000Y-62125000D03*
%TD*%
%TO.P,Q63,1,B*%
%TO.N,Net-(Q63-B)*%
X208100000Y-64000000D03*
%TO.P,Q63,2,E*%
%TO.N,GND*%
X210000000Y-64000000D03*
%TO.P,Q63,3,C*%
%TO.N,/OUT_K55*%
X209050000Y-62125000D03*
%TD*%
%TO.P,Q52,1,B*%
%TO.N,Net-(Q52-B)*%
X148100000Y-64000000D03*
%TO.P,Q52,2,E*%
%TO.N,GND*%
X150000000Y-64000000D03*
%TO.P,Q52,3,C*%
%TO.N,/OUT_K30*%
X149050000Y-62125000D03*
%TD*%
D29*
%TO.P,H2,1*%
%TO.N,N/C*%
X184050000Y-95000000D03*
X187000000Y-92050000D03*
X187000000Y-97950000D03*
D30*
X189950000Y-95000000D03*
%TD*%
D11*
%TO.P,Q9,1,B*%
%TO.N,Net-(Q9-B)*%
X93325000Y-72937500D03*
%TO.P,Q9,2,E*%
%TO.N,GND*%
X95225000Y-72937500D03*
%TO.P,Q9,3,C*%
%TO.N,/OUT_K1*%
X94275000Y-71062500D03*
%TD*%
%TO.P,Q24,1,B*%
%TO.N,Net-(Q24-B)*%
X208550000Y-72937500D03*
%TO.P,Q24,2,E*%
%TO.N,GND*%
X210450000Y-72937500D03*
%TO.P,Q24,3,C*%
%TO.N,/OUT_K58*%
X209500000Y-71062500D03*
%TD*%
D16*
%TO.P,C5,1*%
%TO.N,VCC*%
X102400000Y-86475000D03*
%TO.P,C5,2*%
%TO.N,GND*%
X102400000Y-84925000D03*
%TD*%
D14*
%TO.P,R7,1*%
%TO.N,Net-(Q5-B)*%
X152175000Y-66000000D03*
%TO.P,R7,2*%
%TO.N,/K32*%
X153825000Y-66000000D03*
%TD*%
%TO.P,R42,1*%
%TO.N,Net-(Q24-B)*%
X207175000Y-74937500D03*
%TO.P,R42,2*%
%TO.N,/K58*%
X208825000Y-74937500D03*
%TD*%
D12*
%TO.P,R110,1*%
%TO.N,HT*%
X150100000Y-60000000D03*
%TO.P,R110,2*%
%TO.N,/OUT_K30*%
X148275000Y-60000000D03*
%TD*%
%TO.P,R14,1*%
%TO.N,HT*%
X137775000Y-60000000D03*
%TO.P,R14,2*%
%TO.N,/OUT_K24*%
X135950000Y-60000000D03*
%TD*%
D11*
%TO.P,Q60,1,B*%
%TO.N,Net-(Q60-B)*%
X153100000Y-73000000D03*
%TO.P,Q60,2,E*%
%TO.N,GND*%
X155000000Y-73000000D03*
%TO.P,Q60,3,C*%
%TO.N,/OUT_K31*%
X154050000Y-71125000D03*
%TD*%
%TO.P,Q4,1,B*%
%TO.N,Net-(Q4-B)*%
X135825000Y-63937500D03*
%TO.P,Q4,2,E*%
%TO.N,GND*%
X137725000Y-63937500D03*
%TO.P,Q4,3,C*%
%TO.N,/OUT_K24*%
X136775000Y-62062500D03*
%TD*%
D29*
%TO.P,H1,1*%
%TO.N,N/C*%
X108050000Y-95000000D03*
X111000000Y-92050000D03*
X111000000Y-97950000D03*
D30*
X113950000Y-95000000D03*
%TD*%
D14*
%TO.P,R83,1*%
%TO.N,Net-(Q41-B)*%
X101175000Y-75000000D03*
%TO.P,R83,2*%
%TO.N,/K5*%
X102825000Y-75000000D03*
%TD*%
D16*
%TO.P,C11,1*%
%TO.N,VCC*%
X135700000Y-95875000D03*
%TO.P,C11,2*%
%TO.N,GND*%
X135700000Y-94325000D03*
%TD*%
D12*
%TO.P,R34,1*%
%TO.N,HT*%
X213912500Y-60000000D03*
%TO.P,R34,2*%
%TO.N,/OUT_K57*%
X212087500Y-60000000D03*
%TD*%
D14*
%TO.P,R20,1*%
%TO.N,Net-(Q10-B)*%
X109175000Y-75000000D03*
%TO.P,R20,2*%
%TO.N,/K9*%
X110825000Y-75000000D03*
%TD*%
D11*
%TO.P,Q16,1,B*%
%TO.N,Net-(Q16-B)*%
X212000000Y-64000000D03*
%TO.P,Q16,2,E*%
%TO.N,GND*%
X213900000Y-64000000D03*
%TO.P,Q16,3,C*%
%TO.N,/OUT_K57*%
X212950000Y-62125000D03*
%TD*%
D18*
%TO.P,U10,1,Q5*%
%TO.N,/K53*%
X190445000Y-79912500D03*
%TO.P,U10,2,Q1*%
%TO.N,/K49*%
X189175000Y-79912500D03*
%TO.P,U10,3,Q0*%
%TO.N,Net-(U10-Q0)*%
X187905000Y-79912500D03*
%TO.P,U10,4,Q2*%
%TO.N,/K50*%
X186635000Y-79912500D03*
%TO.P,U10,5,Q6*%
%TO.N,/K54*%
X185365000Y-79912500D03*
%TO.P,U10,6,Q7*%
%TO.N,/K55*%
X184095000Y-79912500D03*
%TO.P,U10,7,Q3*%
%TO.N,/K51*%
X182825000Y-79912500D03*
%TO.P,U10,8,VSS*%
%TO.N,GND*%
X181555000Y-79912500D03*
%TO.P,U10,9,Q8*%
%TO.N,/K56*%
X181555000Y-86087500D03*
%TO.P,U10,10,Q4*%
%TO.N,/K52*%
X182825000Y-86087500D03*
%TO.P,U10,11,Q9*%
%TO.N,Net-(U10-CKEN)*%
X184095000Y-86087500D03*
%TO.P,U10,12,Cout*%
%TO.N,unconnected-(U10-Cout-Pad12)*%
X185365000Y-86087500D03*
%TO.P,U10,13,CKEN*%
%TO.N,Net-(U10-CKEN)*%
X186635000Y-86087500D03*
%TO.P,U10,14,CLK*%
%TO.N,Net-(U10-CLK)*%
X187905000Y-86087500D03*
%TO.P,U10,15,Reset*%
%TO.N,Net-(U10-Reset)*%
X189175000Y-86087500D03*
%TO.P,U10,16,VDD*%
%TO.N,VCC*%
X190445000Y-86087500D03*
%TD*%
D12*
%TO.P,R93,1*%
%TO.N,HT*%
X135100000Y-69000000D03*
%TO.P,R93,2*%
%TO.N,/OUT_K21*%
X133275000Y-69000000D03*
%TD*%
D11*
%TO.P,Q3,1,B*%
%TO.N,Net-(Q3-B)*%
X120100000Y-64000000D03*
%TO.P,Q3,2,E*%
%TO.N,GND*%
X122000000Y-64000000D03*
%TO.P,Q3,3,C*%
%TO.N,/OUT_K16*%
X121050000Y-62125000D03*
%TD*%
D12*
%TO.P,R64,1*%
%TO.N,HT*%
X183912500Y-69000000D03*
%TO.P,R64,2*%
%TO.N,/OUT_K43*%
X182087500Y-69000000D03*
%TD*%
D11*
%TO.P,Q56,1,B*%
%TO.N,Net-(Q56-B)*%
X215550000Y-72037500D03*
%TO.P,Q56,2,E*%
%TO.N,GND*%
X217450000Y-72037500D03*
%TO.P,Q56,3,C*%
%TO.N,/OUT_K62*%
X216500000Y-70162500D03*
%TD*%
%TO.P,Q14,1,B*%
%TO.N,Net-(Q14-B)*%
X177825000Y-72926519D03*
%TO.P,Q14,2,E*%
%TO.N,GND*%
X179725000Y-72926519D03*
%TO.P,Q14,3,C*%
%TO.N,/OUT_K41*%
X178775000Y-71051519D03*
%TD*%
D12*
%TO.P,R129,1*%
%TO.N,HT*%
X209912500Y-60000000D03*
%TO.P,R129,2*%
%TO.N,/OUT_K55*%
X208087500Y-60000000D03*
%TD*%
%TO.P,R82,1*%
%TO.N,HT*%
X213912500Y-68937500D03*
%TO.P,R82,2*%
%TO.N,/OUT_K60*%
X212087500Y-68937500D03*
%TD*%
D14*
%TO.P,R9,1*%
%TO.N,Net-(Q7-B)*%
X192350000Y-66000000D03*
%TO.P,R9,2*%
%TO.N,/K48*%
X194000000Y-66000000D03*
%TD*%
D31*
%TO.N,GND*%
X109922757Y-63324901D03*
X114200000Y-62800000D03*
X94600000Y-64700000D03*
X135500000Y-78900000D03*
X131300000Y-72200000D03*
X115100000Y-73900000D03*
X181700000Y-78400000D03*
X91400000Y-73600000D03*
X99200000Y-73500000D03*
X201919127Y-65025000D03*
X181970724Y-65025000D03*
X210800000Y-65888239D03*
X106600000Y-78900000D03*
X218300000Y-64900000D03*
X102700000Y-84300000D03*
X162339736Y-64775000D03*
X189800000Y-64900000D03*
X193582134Y-65056554D03*
X118300000Y-64900000D03*
X221413603Y-63913603D03*
X139200000Y-72400000D03*
X118700000Y-85000000D03*
X163700000Y-90900000D03*
X174145404Y-65025000D03*
X123000000Y-72300000D03*
X111300000Y-73700000D03*
X200100000Y-74100000D03*
X134200000Y-65025000D03*
X166800000Y-78800000D03*
X146700000Y-97400000D03*
X129000000Y-94100000D03*
X160600000Y-73500000D03*
X198191068Y-65025000D03*
X121900000Y-78900000D03*
X206404629Y-65090895D03*
X150200000Y-64900000D03*
X106200000Y-62900000D03*
X103300000Y-73800000D03*
X142200000Y-65100000D03*
X127200000Y-72500000D03*
X95400000Y-73600000D03*
X147000000Y-72600000D03*
X155073583Y-73679958D03*
X169800000Y-63500000D03*
X119000000Y-72500000D03*
X214200000Y-72200000D03*
X119200000Y-88500000D03*
X186293505Y-65030477D03*
X172200000Y-73900000D03*
X188100000Y-73800000D03*
X146500000Y-83700000D03*
X177917120Y-65025000D03*
X166312529Y-65033692D03*
X206000000Y-81200000D03*
X203700000Y-72300000D03*
X158300000Y-65000000D03*
X194200000Y-79400000D03*
X207100000Y-72300000D03*
X199500000Y-85000000D03*
X143000000Y-72300000D03*
X98200000Y-64600000D03*
X177500000Y-84300000D03*
X113813547Y-65025000D03*
X175900000Y-73900000D03*
X130200000Y-64900000D03*
X192100000Y-74025000D03*
X210600000Y-72300000D03*
X225842728Y-65025000D03*
X174000000Y-94100000D03*
X150800000Y-78900000D03*
X126000000Y-65025000D03*
X214729335Y-65000000D03*
X192500000Y-83600000D03*
X146300000Y-65100000D03*
X131900000Y-92100000D03*
X133100000Y-84300000D03*
X138448713Y-65166238D03*
X179826014Y-73951519D03*
X107100000Y-73600000D03*
X135200000Y-72100000D03*
X196254356Y-74041989D03*
X217700000Y-71300000D03*
X91600000Y-78800000D03*
X161900000Y-83900000D03*
X136000000Y-93200006D03*
X102300000Y-62900000D03*
X154309111Y-65081045D03*
X184000000Y-73800000D03*
X151300000Y-73900000D03*
X122900000Y-64600000D03*
%TO.N,VCC*%
X100800000Y-85300000D03*
X115600000Y-84900000D03*
X190400000Y-85100000D03*
X159100000Y-85700000D03*
X134500000Y-95875000D03*
X121600000Y-88900000D03*
X144600000Y-85100000D03*
X203500000Y-85000000D03*
X175600000Y-85000000D03*
X130700000Y-85000000D03*
X166200000Y-89200000D03*
D32*
%TO.N,HT*%
X222549999Y-61505029D03*
X192400000Y-67971458D03*
D31*
X107699999Y-70523473D03*
D32*
X110337567Y-60487644D03*
X131500000Y-69500000D03*
X214871225Y-62041166D03*
D31*
X94375000Y-60376262D03*
D32*
X151425216Y-69497907D03*
X225849189Y-59548729D03*
D31*
X98698699Y-61402091D03*
D32*
X139500000Y-69500000D03*
X182856202Y-61665141D03*
X210152579Y-68049504D03*
X203885251Y-68194528D03*
X202500000Y-61500000D03*
X214200000Y-68300000D03*
X134425216Y-60497907D03*
X172325348Y-68495877D03*
X130425216Y-60497907D03*
X154500000Y-60500000D03*
X158412693Y-60496621D03*
X147500000Y-69500000D03*
X190599859Y-61503997D03*
X199700000Y-68000000D03*
X188000000Y-68000000D03*
X119337567Y-69487644D03*
X122500000Y-60500000D03*
X209866866Y-59988781D03*
D31*
X99375123Y-69492576D03*
D32*
X194499999Y-61557066D03*
X186883247Y-61621501D03*
D33*
X206000000Y-61000000D03*
D32*
X111113563Y-69370943D03*
D31*
X103146954Y-69333521D03*
D32*
X196500000Y-68000000D03*
X115500000Y-69500000D03*
X150462500Y-60496624D03*
D31*
X91070172Y-67976344D03*
D32*
X184000000Y-68000000D03*
X135500000Y-69500000D03*
X142225960Y-60446456D03*
D31*
X102699999Y-61523473D03*
D32*
X160300000Y-70600000D03*
X198883247Y-61621501D03*
X126500000Y-60500000D03*
X219000000Y-62000000D03*
D31*
X95050000Y-67994570D03*
D32*
X176000000Y-68500000D03*
X178500000Y-61500000D03*
X207100000Y-68200000D03*
X123425216Y-69497907D03*
X166500000Y-61000000D03*
X114500000Y-60500000D03*
X170324170Y-60854562D03*
X142806534Y-67899487D03*
X174500000Y-57000000D03*
X127425216Y-69497907D03*
X146562509Y-60979707D03*
X162325000Y-60469494D03*
X217885529Y-68583099D03*
X106383247Y-60536496D03*
X155500000Y-69500000D03*
X180000000Y-68000000D03*
X118500000Y-60500000D03*
X138100216Y-60497907D03*
D31*
%TO.N,Net-(JP1-A)*%
X194600000Y-87000000D03*
X188775000Y-88775000D03*
D33*
%TO.N,/K0*%
X114200000Y-84700000D03*
X97800000Y-78200000D03*
X101500000Y-81100000D03*
X91200000Y-75700000D03*
%TO.N,/K8*%
X105400000Y-77700000D03*
X106000000Y-66500000D03*
%TO.N,/K16*%
X119500000Y-77600000D03*
X122100000Y-66600000D03*
%TO.N,/K24*%
X138200000Y-66600000D03*
X137800000Y-77000000D03*
%TO.N,/K32*%
X154400000Y-76600000D03*
X154200000Y-66900000D03*
%TO.N,/K40*%
X178400000Y-76400000D03*
X178400000Y-66600000D03*
%TO.N,/K48*%
X193900000Y-66600000D03*
X193200000Y-75200000D03*
D32*
%TO.N,/OUT_K0*%
X89000000Y-68000000D03*
%TO.N,/OUT_K8*%
X104008395Y-58986902D03*
%TO.N,/OUT_K16*%
X119792522Y-59000000D03*
%TO.N,/OUT_K24*%
X136652683Y-58320476D03*
%TO.N,/OUT_K32*%
X153820153Y-58175000D03*
%TO.N,/OUT_K40*%
X176328196Y-58834042D03*
%TO.N,/OUT_K48*%
X192899696Y-58305768D03*
%TO.N,/OUT_K56*%
X205700000Y-67833630D03*
D33*
%TO.N,/K1*%
X95800000Y-75300000D03*
X98800000Y-77600000D03*
%TO.N,/K9*%
X113400000Y-78200000D03*
X111600000Y-75100000D03*
%TO.N,/K17*%
X127800000Y-75100000D03*
X129100000Y-78800000D03*
%TO.N,/K25*%
X143200000Y-78700000D03*
X143200000Y-75800000D03*
%TO.N,/K33*%
X158200000Y-78600000D03*
X158300000Y-66600000D03*
%TO.N,/K41*%
X180300000Y-75000000D03*
X177200000Y-78500000D03*
%TO.N,/K49*%
X195900000Y-75700000D03*
X195900000Y-77300000D03*
%TO.N,/K57*%
X210500000Y-77200000D03*
X214753984Y-66125000D03*
D32*
%TO.N,/OUT_K1*%
X93000000Y-68000000D03*
%TO.N,/OUT_K9*%
X109000000Y-68000000D03*
%TO.N,/OUT_K17*%
X125000000Y-68000000D03*
%TO.N,/OUT_K25*%
X141367130Y-70043561D03*
%TO.N,/OUT_K33*%
X157453455Y-58097780D03*
%TO.N,/OUT_K41*%
X178171658Y-67901822D03*
%TO.N,/OUT_K49*%
X194597356Y-67835001D03*
%TO.N,/OUT_K57*%
X212171225Y-61584428D03*
D33*
%TO.N,/K2*%
X94000000Y-66500000D03*
X96700000Y-77600000D03*
%TO.N,/K10*%
X110000000Y-66500000D03*
X112000000Y-78500000D03*
%TO.N,/K18*%
X126800000Y-78800000D03*
X126000000Y-66500000D03*
%TO.N,/K26*%
X141400000Y-78200000D03*
X141800000Y-66900000D03*
%TO.N,/K34*%
X158700004Y-77000000D03*
X162014124Y-66414124D03*
%TO.N,/K42*%
X182300000Y-66700000D03*
X182600000Y-76900000D03*
%TO.N,/K50*%
X198500000Y-77100000D03*
X198300000Y-66600000D03*
D32*
%TO.N,/OUT_K2*%
X90778711Y-59167978D03*
%TO.N,/OUT_K10*%
X108150000Y-58484871D03*
%TO.N,/OUT_K18*%
X124000000Y-59000000D03*
%TO.N,/OUT_K26*%
X141416240Y-57992950D03*
%TO.N,/OUT_K34*%
X160366349Y-58930165D03*
%TO.N,/OUT_K42*%
X180175000Y-59000000D03*
%TO.N,/OUT_K50*%
X199000000Y-58000000D03*
%TO.N,/OUT_K58*%
X208800000Y-68200000D03*
D33*
%TO.N,/K59*%
X219100000Y-69300000D03*
X207200000Y-77700000D03*
D32*
%TO.N,/OUT_K3*%
X97000000Y-68000000D03*
%TO.N,/OUT_K11*%
X113000000Y-68000000D03*
%TO.N,/OUT_K19*%
X129367130Y-70043561D03*
%TO.N,/OUT_K27*%
X145367130Y-70043561D03*
%TO.N,/OUT_K35*%
X164000000Y-59500000D03*
%TO.N,/OUT_K43*%
X182276113Y-67936156D03*
%TO.N,/OUT_K51*%
X198346658Y-67975303D03*
%TO.N,/OUT_K59*%
X216300000Y-61584428D03*
D33*
%TO.N,/K4*%
X99600000Y-82300000D03*
X98000000Y-66500000D03*
%TO.N,/K12*%
X113800000Y-82259544D03*
X114000000Y-66500000D03*
%TO.N,/K20*%
X130100000Y-82900000D03*
X130500000Y-66700000D03*
%TO.N,/K28*%
X146000000Y-66700000D03*
X145900000Y-82900000D03*
%TO.N,/K36*%
X170300000Y-77300000D03*
X170000000Y-66900000D03*
%TO.N,/K44*%
X186300000Y-66700000D03*
X182800000Y-77900000D03*
%TO.N,/K52*%
X201300000Y-66600000D03*
X202100000Y-77600000D03*
D32*
%TO.N,/OUT_K4*%
X95625000Y-59167978D03*
%TO.N,/OUT_K12*%
X111655033Y-58949928D03*
%TO.N,/OUT_K20*%
X128033578Y-58106269D03*
%TO.N,/OUT_K28*%
X145045405Y-58045405D03*
%TO.N,/OUT_K36*%
X168000000Y-59000000D03*
%TO.N,/OUT_K44*%
X184163524Y-58995493D03*
%TO.N,/OUT_K52*%
X202680421Y-58132922D03*
%TO.N,/OUT_K60*%
X212376925Y-68209241D03*
D33*
%TO.N,/K5*%
X102800000Y-75800000D03*
X100600000Y-77600000D03*
%TO.N,/K13*%
X118700000Y-75800000D03*
X116300000Y-79100000D03*
%TO.N,/K21*%
X134800000Y-75700000D03*
X134800000Y-77600000D03*
%TO.N,/K29*%
X149000000Y-78200000D03*
X151000000Y-75900000D03*
%TO.N,/K37*%
X171500000Y-75700000D03*
X171700000Y-76800000D03*
%TO.N,/K45*%
X188100000Y-76900000D03*
X187900000Y-75600000D03*
%TO.N,/K53*%
X205500000Y-76425000D03*
X205400000Y-66200000D03*
%TO.N,/K61*%
X211300000Y-76300000D03*
X221500000Y-66800000D03*
D32*
%TO.N,/OUT_K5*%
X101000000Y-68000000D03*
%TO.N,/OUT_K13*%
X117000000Y-68000000D03*
%TO.N,/OUT_K21*%
X133444585Y-70019648D03*
%TO.N,/OUT_K29*%
X149444585Y-70019648D03*
%TO.N,/OUT_K37*%
X170000000Y-68000000D03*
%TO.N,/OUT_K45*%
X186276113Y-67936156D03*
%TO.N,/OUT_K53*%
X206184252Y-58050000D03*
%TO.N,/OUT_K61*%
X220820325Y-61699665D03*
D33*
%TO.N,/K6*%
X101800000Y-77100000D03*
X102000000Y-66500000D03*
%TO.N,/K14*%
X118100000Y-77600000D03*
X118000000Y-66500000D03*
%TO.N,/K22*%
X133900000Y-77700000D03*
X134000000Y-66700000D03*
%TO.N,/K30*%
X148400000Y-77600000D03*
X150300000Y-66600000D03*
%TO.N,/K38*%
X172900000Y-76800000D03*
X173900000Y-66900000D03*
%TO.N,/K54*%
X203968826Y-76425000D03*
X202825000Y-74937500D03*
%TO.N,/K62*%
X214200000Y-75500000D03*
X208300000Y-77200000D03*
D32*
%TO.N,/OUT_K6*%
X99941561Y-59345842D03*
%TO.N,/OUT_K14*%
X115577326Y-58972850D03*
%TO.N,/OUT_K22*%
X132500000Y-58500000D03*
%TO.N,/OUT_K30*%
X148405185Y-59004005D03*
%TO.N,/OUT_K38*%
X172446658Y-58975303D03*
%TO.N,/OUT_K46*%
X188150267Y-59499488D03*
%TO.N,/OUT_K54*%
X201600000Y-67800000D03*
%TO.N,/OUT_K62*%
X215868750Y-69531250D03*
D33*
%TO.N,/K55*%
X209300000Y-66000000D03*
X205700000Y-75900000D03*
%TO.N,/K63*%
X219600000Y-68900000D03*
X207700000Y-77500000D03*
D32*
%TO.N,/OUT_K7*%
X105000000Y-68000000D03*
%TO.N,/OUT_K15*%
X120731901Y-67926376D03*
%TO.N,/OUT_K23*%
X137444585Y-70019648D03*
%TO.N,/OUT_K31*%
X153367130Y-70043561D03*
%TO.N,/OUT_K39*%
X174276113Y-67936156D03*
%TO.N,/OUT_K55*%
X208500000Y-61500000D03*
D31*
%TO.N,Net-(U11-Q9)*%
X197095000Y-86087500D03*
%TO.N,Net-(U11-Cout)*%
X198400000Y-86900000D03*
%TO.N,Net-(U2-Reset)*%
X127400000Y-93100000D03*
X128700000Y-93200000D03*
%TO.N,Net-(U5-CLK)*%
X123000000Y-91700000D03*
X123700000Y-94200000D03*
%TO.N,/CLK*%
X122519683Y-89550000D03*
X172600000Y-97400000D03*
X127350000Y-91500000D03*
X172640000Y-93800000D03*
%TO.N,Net-(U7-CKEN)*%
X138200000Y-84800000D03*
X138200000Y-89000000D03*
%TO.N,Net-(U5-CKEN)*%
X125700000Y-92300000D03*
X126259620Y-94250000D03*
%TO.N,Net-(U6-CLK)*%
X125100000Y-96500000D03*
X128000000Y-84900000D03*
%TO.N,Net-(U9-CKEN)*%
X171500000Y-88600000D03*
X169300000Y-87400000D03*
%TO.N,Net-(U8-CKEN)*%
X155000000Y-88900000D03*
X153400000Y-87200000D03*
%TO.N,Net-(U11-CLK)*%
X176359620Y-92359620D03*
X171500000Y-91600000D03*
%TO.N,Net-(U5-Q0)*%
X125200000Y-84100000D03*
X114700000Y-81500000D03*
%TO.N,Net-(U6-Q0)*%
X130800000Y-81300000D03*
X140900000Y-83900000D03*
%TO.N,Net-(U7-Q0)*%
X141900000Y-81100000D03*
X158100544Y-84450000D03*
%TO.N,Net-(U8-Q0)*%
X158100000Y-81325000D03*
X174100000Y-84400000D03*
D33*
%TO.N,/K46*%
X191235876Y-76364124D03*
D31*
X190300000Y-66500000D03*
%TO.N,Net-(U10-Reset)*%
X172900000Y-78800000D03*
X185000000Y-83400000D03*
%TO.N,Net-(U10-Q0)*%
X187900000Y-81100000D03*
X198900000Y-82900000D03*
D32*
%TO.N,/OUT_K47*%
X190276113Y-67936156D03*
%TD*%
D34*
%TO.N,GND*%
X128810000Y-95285000D02*
X128810000Y-94290000D01*
X118625000Y-84925000D02*
X118700000Y-85000000D01*
X94225000Y-63937500D02*
X94600000Y-64312500D01*
X121555000Y-79245000D02*
X121900000Y-78900000D01*
X150000000Y-64000000D02*
X150000000Y-64700000D01*
X165950000Y-64000000D02*
X165950000Y-64671163D01*
X132700000Y-84700000D02*
X133100000Y-84300000D01*
X190000000Y-64700000D02*
X189800000Y-64900000D01*
X95225000Y-73425000D02*
X95400000Y-73600000D01*
X213950000Y-72937500D02*
X213950000Y-72450000D01*
X205800000Y-82025000D02*
X205800000Y-81400000D01*
X205800000Y-81400000D02*
X206000000Y-81200000D01*
X114050000Y-63937500D02*
X114050000Y-64788547D01*
X150555000Y-79912500D02*
X150555000Y-79145000D01*
X193900000Y-64000000D02*
X193900000Y-64738688D01*
X139000000Y-73000000D02*
X139000000Y-72600000D01*
X114050000Y-62950000D02*
X114200000Y-62800000D01*
X151100000Y-73700000D02*
X151300000Y-73900000D01*
X135050000Y-72250000D02*
X135200000Y-72100000D01*
X217450000Y-71550000D02*
X217700000Y-71300000D01*
X110050000Y-63937500D02*
X110050000Y-63452144D01*
X91555000Y-78845000D02*
X91600000Y-78800000D01*
X123000000Y-73000000D02*
X123000000Y-72300000D01*
X131050000Y-72450000D02*
X131300000Y-72200000D01*
X192600000Y-85025000D02*
X192600000Y-83700000D01*
X210450000Y-72937500D02*
X210450000Y-72450000D01*
X203450000Y-72550000D02*
X203700000Y-72300000D01*
X103050000Y-72937500D02*
X103050000Y-73550000D01*
X91555000Y-79912500D02*
X91555000Y-78845000D01*
X146300000Y-97000000D02*
X146700000Y-97400000D01*
X106555000Y-79912500D02*
X106555000Y-78945000D01*
X201900000Y-64000000D02*
X201900000Y-65005873D01*
X135050000Y-72937500D02*
X135050000Y-72250000D01*
X187950000Y-72937500D02*
X187950000Y-73650000D01*
X155000000Y-73000000D02*
X155000000Y-73606375D01*
X91275000Y-72937500D02*
X91275000Y-73475000D01*
X183950000Y-72937500D02*
X183950000Y-73750000D01*
X214729335Y-64829335D02*
X214729335Y-65000000D01*
X110050000Y-63452144D02*
X109922757Y-63324901D01*
X102400000Y-84600000D02*
X102700000Y-84300000D01*
X206950000Y-72450000D02*
X207100000Y-72300000D01*
X132700000Y-85025000D02*
X132700000Y-84700000D01*
X143050000Y-72350000D02*
X143000000Y-72300000D01*
X198000000Y-64833932D02*
X198191068Y-65025000D01*
X111050000Y-72937500D02*
X111050000Y-73450000D01*
X106050000Y-63050000D02*
X106200000Y-62900000D01*
X199950000Y-73950000D02*
X200100000Y-74100000D01*
X103050000Y-73550000D02*
X103200000Y-73700000D01*
X121555000Y-79912500D02*
X121555000Y-79245000D01*
X182000000Y-64995724D02*
X181970724Y-65025000D01*
X195900000Y-73687633D02*
X196254356Y-74041989D01*
X199635000Y-85135000D02*
X199500000Y-85000000D01*
X217950000Y-63937500D02*
X217950000Y-64550000D01*
X210800000Y-64800000D02*
X210800000Y-65888239D01*
X117600000Y-84925000D02*
X118625000Y-84925000D01*
X126100000Y-64925000D02*
X126000000Y-65025000D01*
X137725000Y-63937500D02*
X137725000Y-64442525D01*
X99100000Y-73000000D02*
X99100000Y-73400000D01*
X118050000Y-63937500D02*
X118050000Y-64650000D01*
X161500000Y-84300000D02*
X161900000Y-83900000D01*
X130000000Y-64700000D02*
X130200000Y-64900000D01*
X147100000Y-73000000D02*
X147100000Y-72700000D01*
X115100000Y-73000000D02*
X115100000Y-73200000D01*
X102050000Y-63937500D02*
X102050000Y-63150000D01*
X142050000Y-64950000D02*
X142200000Y-65100000D01*
X131812500Y-93412500D02*
X131812500Y-92187500D01*
X134100000Y-64000000D02*
X134100000Y-64925000D01*
X173910000Y-95275000D02*
X173910000Y-94190000D01*
X130000000Y-64000000D02*
X130000000Y-64700000D01*
X158000000Y-64700000D02*
X158300000Y-65000000D01*
X143050000Y-72937500D02*
X143050000Y-72350000D01*
X114050000Y-63937500D02*
X114050000Y-62950000D01*
X119100000Y-72600000D02*
X119000000Y-72500000D01*
X165950000Y-64671163D02*
X166312529Y-65033692D01*
X135700000Y-93500006D02*
X136000000Y-93200006D01*
X131812500Y-92187500D02*
X131900000Y-92100000D01*
X119300000Y-88600000D02*
X119200000Y-88500000D01*
X94600000Y-64312500D02*
X94600000Y-64700000D01*
X137725000Y-64442525D02*
X138448713Y-65166238D01*
X174000000Y-64879596D02*
X174145404Y-65025000D01*
X169900000Y-64000000D02*
X169900000Y-63600000D01*
X182000000Y-64000000D02*
X182000000Y-64995724D01*
X107050000Y-73550000D02*
X107100000Y-73600000D01*
X122600000Y-64600000D02*
X122000000Y-64000000D01*
X127100000Y-72600000D02*
X127200000Y-72500000D01*
X150000000Y-64700000D02*
X150200000Y-64900000D01*
X191950000Y-73875000D02*
X192100000Y-74025000D01*
X103200000Y-73700000D02*
X103300000Y-73800000D01*
X134100000Y-64925000D02*
X134200000Y-65025000D01*
X95225000Y-72937500D02*
X95225000Y-73425000D01*
X107050000Y-72937500D02*
X107050000Y-73550000D01*
X192600000Y-83700000D02*
X192500000Y-83600000D01*
X158000000Y-64000000D02*
X158000000Y-64700000D01*
X198000000Y-64000000D02*
X198000000Y-64833932D01*
X154000000Y-64000000D02*
X154000000Y-64771934D01*
X135555000Y-78955000D02*
X135500000Y-78900000D01*
X187950000Y-73650000D02*
X188100000Y-73800000D01*
X177812500Y-64000000D02*
X177812500Y-64920380D01*
X185900000Y-64000000D02*
X185900000Y-64636972D01*
X210000000Y-64000000D02*
X210800000Y-64800000D01*
X177812500Y-64920380D02*
X177917120Y-65025000D01*
X164400000Y-91375000D02*
X163925000Y-90900000D01*
X161950000Y-63937500D02*
X162339736Y-64327236D01*
X159212500Y-72200000D02*
X159300000Y-72200000D01*
X199950000Y-73000000D02*
X199950000Y-73950000D01*
X175900000Y-73000000D02*
X175900000Y-73900000D01*
X225900000Y-64967728D02*
X225842728Y-65025000D01*
X139000000Y-72600000D02*
X139200000Y-72400000D01*
X94600000Y-65000000D02*
X94600000Y-64700000D01*
X128810000Y-94290000D02*
X129000000Y-94100000D01*
X135700000Y-94325000D02*
X135700000Y-93500006D01*
X102050000Y-63150000D02*
X102300000Y-62900000D01*
X205950000Y-64636266D02*
X206404629Y-65090895D01*
X111050000Y-73450000D02*
X111300000Y-73700000D01*
X145987500Y-97000000D02*
X146300000Y-97000000D01*
X217450000Y-72037500D02*
X217450000Y-71550000D01*
X206950000Y-72937500D02*
X206950000Y-72450000D01*
X225900000Y-64000000D02*
X225900000Y-64967728D01*
X210450000Y-72450000D02*
X210600000Y-72300000D01*
X181555000Y-78545000D02*
X181700000Y-78400000D01*
X166555000Y-79045000D02*
X166800000Y-78800000D01*
X114050000Y-64788547D02*
X113813547Y-65025000D01*
X199635000Y-86087500D02*
X199635000Y-85135000D01*
X102400000Y-84925000D02*
X102400000Y-84600000D01*
X99100000Y-73400000D02*
X99200000Y-73500000D01*
X159300000Y-72200000D02*
X160600000Y-73500000D01*
X166555000Y-79912500D02*
X166555000Y-79045000D01*
X119300000Y-89325000D02*
X119300000Y-88600000D01*
X172000000Y-73700000D02*
X172200000Y-73900000D01*
X91275000Y-73475000D02*
X91400000Y-73600000D01*
X142050000Y-63937500D02*
X142050000Y-64950000D01*
X201900000Y-65005873D02*
X201919127Y-65025000D01*
X213900000Y-64000000D02*
X214729335Y-64829335D01*
X173910000Y-94190000D02*
X174000000Y-94100000D01*
X174000000Y-64000000D02*
X174000000Y-64879596D01*
X106555000Y-78945000D02*
X106600000Y-78900000D01*
X126100000Y-64000000D02*
X126100000Y-64925000D01*
X146050000Y-64850000D02*
X146300000Y-65100000D01*
X131050000Y-72937500D02*
X131050000Y-72450000D01*
X151100000Y-73000000D02*
X151100000Y-73700000D01*
X221452206Y-63875000D02*
X221413603Y-63913603D01*
X194555000Y-79755000D02*
X194200000Y-79400000D01*
X118050000Y-64650000D02*
X118300000Y-64900000D01*
X119100000Y-73000000D02*
X119100000Y-72600000D01*
X106050000Y-63937500D02*
X106050000Y-63050000D01*
X185900000Y-64636972D02*
X186293505Y-65030477D01*
X179725000Y-72926519D02*
X179725000Y-73850505D01*
X183950000Y-73750000D02*
X184000000Y-73800000D01*
X177700000Y-84500000D02*
X177500000Y-84300000D01*
X150555000Y-79145000D02*
X150800000Y-78900000D01*
X146500000Y-85025000D02*
X146500000Y-83700000D01*
X177700000Y-84925000D02*
X177700000Y-84500000D01*
X147100000Y-72700000D02*
X147000000Y-72600000D01*
X193900000Y-64738688D02*
X193582134Y-65056554D01*
X115100000Y-73000000D02*
X115100000Y-73900000D01*
X190000000Y-64000000D02*
X190000000Y-64700000D01*
X163925000Y-90900000D02*
X163700000Y-90900000D01*
X172000000Y-73000000D02*
X172000000Y-73700000D01*
X122900000Y-64600000D02*
X122600000Y-64600000D01*
X135555000Y-79912500D02*
X135555000Y-78955000D01*
X179725000Y-73850505D02*
X179826014Y-73951519D01*
X115100000Y-73200000D02*
X114900000Y-73400000D01*
X203450000Y-72937500D02*
X203450000Y-72550000D01*
X217950000Y-64550000D02*
X218300000Y-64900000D01*
X195900000Y-73000000D02*
X195900000Y-73687633D01*
X127100000Y-73000000D02*
X127100000Y-72600000D01*
X155000000Y-73606375D02*
X155073583Y-73679958D01*
X162339736Y-64327236D02*
X162339736Y-64775000D01*
X161500000Y-84925000D02*
X161500000Y-84300000D01*
X191950000Y-72937500D02*
X191950000Y-73875000D01*
X181555000Y-79912500D02*
X181555000Y-78545000D01*
X169900000Y-63600000D02*
X169800000Y-63500000D01*
X154000000Y-64771934D02*
X154309111Y-65081045D01*
X221950000Y-63875000D02*
X221452206Y-63875000D01*
X98050000Y-63937500D02*
X98050000Y-64450000D01*
X194555000Y-79912500D02*
X194555000Y-79755000D01*
X146050000Y-63937500D02*
X146050000Y-64850000D01*
X98050000Y-64450000D02*
X98200000Y-64600000D01*
X213950000Y-72450000D02*
X214200000Y-72200000D01*
X205950000Y-63937500D02*
X205950000Y-64636266D01*
%TO.N,VCC*%
X130932500Y-86575000D02*
X130445000Y-86087500D01*
X121190000Y-90335000D02*
X121190000Y-89310000D01*
X117600000Y-86475000D02*
X115832500Y-86475000D01*
X166290000Y-90325000D02*
X166290000Y-89290000D01*
X150450000Y-94075000D02*
X147050000Y-94075000D01*
X120650000Y-90875000D02*
X121190000Y-90335000D01*
X175832500Y-86475000D02*
X177700000Y-86475000D01*
X192600000Y-86575000D02*
X190932500Y-86575000D01*
X130445000Y-86087500D02*
X130445000Y-85255000D01*
X135700000Y-95875000D02*
X133900000Y-95875000D01*
X146500000Y-86575000D02*
X144932500Y-86575000D01*
X175445000Y-86087500D02*
X175832500Y-86475000D01*
X204925000Y-83575000D02*
X205800000Y-83575000D01*
X190445000Y-85145000D02*
X190400000Y-85100000D01*
X190445000Y-86087500D02*
X190445000Y-85145000D01*
X130445000Y-85255000D02*
X130700000Y-85000000D01*
X165790000Y-89825000D02*
X164400000Y-89825000D01*
X144932500Y-86575000D02*
X144445000Y-86087500D01*
X203445000Y-86087500D02*
X203445000Y-85055000D01*
X166290000Y-90325000D02*
X165790000Y-89825000D01*
X115445000Y-85055000D02*
X115600000Y-84900000D01*
X100445000Y-86087500D02*
X100445000Y-85655000D01*
X144445000Y-85255000D02*
X144600000Y-85100000D01*
X175445000Y-86087500D02*
X175445000Y-85155000D01*
X132700000Y-86575000D02*
X130932500Y-86575000D01*
X159445000Y-86045000D02*
X159100000Y-85700000D01*
X100445000Y-86087500D02*
X100832500Y-86475000D01*
X147050000Y-94075000D02*
X146025000Y-95100000D01*
X161500000Y-86475000D02*
X159832500Y-86475000D01*
X115445000Y-86087500D02*
X115445000Y-85055000D01*
X100832500Y-86475000D02*
X102400000Y-86475000D01*
X119300000Y-90875000D02*
X120650000Y-90875000D01*
X159445000Y-86087500D02*
X159445000Y-86045000D01*
X144445000Y-86087500D02*
X144445000Y-85255000D01*
X133900000Y-95875000D02*
X133712500Y-95687500D01*
X203445000Y-85055000D02*
X203500000Y-85000000D01*
X190932500Y-86575000D02*
X190445000Y-86087500D01*
X121190000Y-89310000D02*
X121600000Y-88900000D01*
X115832500Y-86475000D02*
X115445000Y-86087500D01*
X100445000Y-85655000D02*
X100800000Y-85300000D01*
X159832500Y-86475000D02*
X159445000Y-86087500D01*
X203500000Y-85000000D02*
X204925000Y-83575000D01*
X166290000Y-89290000D02*
X166200000Y-89200000D01*
X175445000Y-85155000D02*
X175600000Y-85000000D01*
%TO.N,Net-(D1-A)*%
X157600000Y-70500000D02*
X157600000Y-72162500D01*
%TO.N,Net-(D2-A)*%
X144412500Y-97000000D02*
X144412500Y-95137500D01*
X144412500Y-95137500D02*
X144375000Y-95100000D01*
%TO.N,/RESET_COUNT*%
X133712500Y-93412500D02*
X133712500Y-92087500D01*
X133712500Y-92087500D02*
X135200000Y-90600000D01*
X155500000Y-92200000D02*
X155450000Y-92250000D01*
X135200000Y-90600000D02*
X154200000Y-90600000D01*
X155450000Y-92250000D02*
X155450000Y-94075000D01*
X155500000Y-91900000D02*
X155500000Y-92200000D01*
X154200000Y-90600000D02*
X155500000Y-91900000D01*
%TO.N,/INPUT_CLK*%
X122210000Y-94010000D02*
X122460000Y-94260000D01*
X136000000Y-97500000D02*
X123700001Y-97500000D01*
X97905000Y-86087500D02*
X97905000Y-86999999D01*
X99505001Y-88600000D02*
X112700000Y-88600000D01*
X118110000Y-94010000D02*
X122210000Y-94010000D01*
X97905000Y-86999999D02*
X99505001Y-88600000D01*
X138800000Y-91000000D02*
X137000000Y-92800000D01*
X152950000Y-94075000D02*
X152950000Y-91750000D01*
X123700001Y-97500000D02*
X122460000Y-96259999D01*
X122460000Y-94260000D02*
X122460000Y-95285000D01*
X152200000Y-91000000D02*
X138800000Y-91000000D01*
X137000000Y-92800000D02*
X137000000Y-96500000D01*
X152950000Y-91750000D02*
X152200000Y-91000000D01*
X122460000Y-96259999D02*
X122460000Y-95285000D01*
X137000000Y-96500000D02*
X136000000Y-97500000D01*
X112700000Y-88600000D02*
X118110000Y-94010000D01*
%TO.N,HT*%
X142012500Y-60232996D02*
X142225960Y-60446456D01*
X127012500Y-69085191D02*
X127425216Y-69497907D01*
X130100000Y-60000000D02*
X130100000Y-60172691D01*
X178500000Y-61041116D02*
X178500000Y-61500000D01*
X111012500Y-69269880D02*
X111113563Y-69370943D01*
X187912500Y-69000000D02*
X187912500Y-68087500D01*
X201912500Y-60412500D02*
X202500000Y-61000000D01*
X218500000Y-61500000D02*
X219000000Y-62000000D01*
X213912500Y-68937500D02*
X213912500Y-68587500D01*
X213912500Y-60578076D02*
X214871225Y-61536801D01*
X206912500Y-68387500D02*
X207100000Y-68200000D01*
X139100000Y-69000000D02*
X139100000Y-69100000D01*
X170000000Y-60000000D02*
X170000000Y-60530392D01*
X119100000Y-69250077D02*
X119337567Y-69487644D01*
X202500000Y-61000000D02*
X202500000Y-61500000D01*
X174475000Y-57025000D02*
X174500000Y-57000000D01*
X197825000Y-60325000D02*
X198500000Y-61000000D01*
X99062500Y-69062500D02*
X99062500Y-69179953D01*
X177912500Y-60000000D02*
X177912500Y-60453616D01*
X146012500Y-60000000D02*
X146012500Y-60012500D01*
X115012500Y-69012500D02*
X115500000Y-69500000D01*
X106012500Y-60165749D02*
X106383247Y-60536496D01*
X182450000Y-61015576D02*
X182450000Y-61258939D01*
X143012500Y-69085191D02*
X143425216Y-69497907D01*
X191912500Y-69000000D02*
X191912500Y-68458958D01*
X150100000Y-60000000D02*
X150100000Y-60134124D01*
X106012500Y-60000000D02*
X106012500Y-60165749D01*
X205912500Y-60912500D02*
X206000000Y-61000000D01*
X137775000Y-60172691D02*
X138100216Y-60497907D01*
X155012500Y-69012500D02*
X155500000Y-69500000D01*
X93998738Y-60000000D02*
X94375000Y-60376262D01*
X134012500Y-60085191D02*
X134425216Y-60497907D01*
X122100000Y-60100000D02*
X122500000Y-60500000D01*
X210412500Y-68309425D02*
X210152579Y-68049504D01*
X154125000Y-60125000D02*
X154500000Y-60500000D01*
X186979442Y-61525306D02*
X186883247Y-61621501D01*
X170000000Y-60530392D02*
X170324170Y-60854562D01*
X221912500Y-60000000D02*
X222400000Y-60487500D01*
X139100000Y-69100000D02*
X139500000Y-69500000D01*
X122100000Y-60000000D02*
X122100000Y-60100000D01*
X183912500Y-68087500D02*
X184000000Y-68000000D01*
X194000000Y-60000000D02*
X194350000Y-60350000D01*
X103012500Y-69199067D02*
X103146954Y-69333521D01*
X222400000Y-60487500D02*
X222400000Y-61355030D01*
X130100000Y-60172691D02*
X130425216Y-60497907D01*
X103012500Y-69000000D02*
X103012500Y-69199067D01*
X115012500Y-69000000D02*
X115012500Y-69012500D01*
X179825000Y-68175000D02*
X180000000Y-68000000D01*
X189912500Y-60366116D02*
X190599859Y-61053475D01*
X183912500Y-69000000D02*
X183912500Y-68087500D01*
X150100000Y-60134124D02*
X150462500Y-60496624D01*
X151100000Y-69000000D02*
X151100000Y-69172691D01*
X214871225Y-61536801D02*
X214871225Y-62041166D01*
X122927309Y-69000000D02*
X123425216Y-69497907D01*
X209912500Y-60000000D02*
X209901281Y-59988781D01*
X217912500Y-60412500D02*
X218500000Y-61000000D01*
X213912500Y-60000000D02*
X213912500Y-60578076D01*
X186979442Y-61520558D02*
X186979442Y-61525306D01*
X155012500Y-69000000D02*
X155012500Y-69012500D01*
X194350000Y-61407067D02*
X194499999Y-61557066D01*
X114000000Y-60000000D02*
X114500000Y-60500000D01*
X196000000Y-68500000D02*
X196500000Y-68000000D01*
X179825000Y-68926519D02*
X179825000Y-68175000D01*
X225912500Y-60000000D02*
X225912500Y-59612040D01*
X158100000Y-60000000D02*
X158100000Y-60183928D01*
X189912500Y-60000000D02*
X189912500Y-60366116D01*
X99062500Y-69179953D02*
X99375123Y-69492576D01*
X174100000Y-60000000D02*
X174475000Y-59625000D01*
X135100000Y-69000000D02*
X135100000Y-69100000D01*
X203412500Y-68667279D02*
X203885251Y-68194528D01*
X118100000Y-60000000D02*
X118100000Y-60100000D01*
X225912500Y-59612040D02*
X225849189Y-59548729D01*
X135100000Y-69100000D02*
X135500000Y-69500000D01*
X199700000Y-68000000D02*
X199700000Y-68700000D01*
X93825000Y-60000000D02*
X93998738Y-60000000D01*
X131012500Y-69012500D02*
X131500000Y-69500000D01*
X91187500Y-69000000D02*
X91187500Y-68093672D01*
X205912500Y-60000000D02*
X205912500Y-60912500D01*
X143012500Y-69000000D02*
X143012500Y-68105453D01*
X209901281Y-59988781D02*
X209866866Y-59988781D01*
X206912500Y-69000000D02*
X206912500Y-68387500D01*
X126100000Y-60100000D02*
X126500000Y-60500000D01*
X154050000Y-60125000D02*
X154125000Y-60125000D01*
X217412500Y-68110070D02*
X217885529Y-68583099D01*
X102500000Y-60487500D02*
X102500000Y-61323474D01*
X142012500Y-60000000D02*
X142012500Y-60232996D01*
X190599859Y-61053475D02*
X190599859Y-61503997D01*
X111012500Y-69000000D02*
X111012500Y-69269880D01*
X175912500Y-69000000D02*
X175912500Y-68587500D01*
X159225000Y-70600000D02*
X160300000Y-70600000D01*
X213912500Y-68587500D02*
X214200000Y-68300000D01*
X165912500Y-60125000D02*
X165912500Y-60412500D01*
X162000000Y-60000000D02*
X162000000Y-60144494D01*
X110012500Y-60000000D02*
X110012500Y-60162577D01*
X194350000Y-60350000D02*
X194350000Y-61407067D01*
X122925000Y-69000000D02*
X122927309Y-69000000D01*
X198500000Y-61000000D02*
X198500000Y-61500000D01*
X110012500Y-60162577D02*
X110337567Y-60487644D01*
X102012500Y-60000000D02*
X102500000Y-60487500D01*
X218500000Y-61000000D02*
X218500000Y-61500000D01*
X150100000Y-60100000D02*
X150500000Y-60500000D01*
X158100000Y-60183928D02*
X158412693Y-60496621D01*
X146012500Y-60000000D02*
X146012500Y-60429698D01*
X162000000Y-60144494D02*
X162325000Y-60469494D01*
X203412500Y-69000000D02*
X203412500Y-68667279D01*
X199700000Y-68700000D02*
X200000000Y-69000000D01*
X182450000Y-61258939D02*
X182856202Y-61665141D01*
X222400000Y-61355030D02*
X222549999Y-61505029D01*
X118100000Y-60100000D02*
X118500000Y-60500000D01*
X107012500Y-69000000D02*
X107500000Y-69487500D01*
X181912500Y-60478076D02*
X182450000Y-61015576D01*
X126100000Y-60000000D02*
X126100000Y-60100000D01*
X217912500Y-60000000D02*
X217912500Y-60412500D01*
X127012500Y-69000000D02*
X127012500Y-69085191D01*
X181912500Y-60000000D02*
X181912500Y-60478076D01*
X113925000Y-60000000D02*
X114000000Y-60000000D01*
X201912500Y-60000000D02*
X201912500Y-60412500D01*
X107500000Y-70323474D02*
X107699999Y-70523473D01*
X217412500Y-68100000D02*
X217412500Y-68110070D01*
X198500000Y-61500000D02*
X198621501Y-61621501D01*
X147012500Y-69000000D02*
X147012500Y-69012500D01*
X137775000Y-60000000D02*
X137775000Y-60172691D01*
X151100000Y-69172691D02*
X151425216Y-69497907D01*
X131012500Y-69000000D02*
X131012500Y-69012500D01*
X191912500Y-68458958D02*
X192400000Y-67971458D01*
X119100000Y-69000000D02*
X119100000Y-69250077D01*
X98500000Y-61203392D02*
X98698699Y-61402091D01*
X197825000Y-60000000D02*
X197825000Y-60325000D01*
X95100000Y-69000000D02*
X95100000Y-68044570D01*
X177912500Y-60453616D02*
X178500000Y-61041116D01*
X102500000Y-61323474D02*
X102699999Y-61523473D01*
X95100000Y-68044570D02*
X95050000Y-67994570D01*
X146012500Y-60012500D02*
X146500000Y-60500000D01*
X146012500Y-60429698D02*
X146562509Y-60979707D01*
X107500000Y-69487500D02*
X107500000Y-70323474D01*
X98012500Y-60000000D02*
X98500000Y-60487500D01*
X172000000Y-68821225D02*
X172325348Y-68495877D01*
X91187500Y-68093672D02*
X91070172Y-67976344D01*
X98500000Y-60487500D02*
X98500000Y-61203392D01*
X196000000Y-69000000D02*
X196000000Y-68500000D01*
X143012500Y-69000000D02*
X143012500Y-69085191D01*
X143012500Y-68105453D02*
X142806534Y-67899487D01*
X185825000Y-60000000D02*
X185825000Y-60366116D01*
X187912500Y-68087500D02*
X188000000Y-68000000D01*
X147012500Y-69012500D02*
X147500000Y-69500000D01*
X134012500Y-60000000D02*
X134012500Y-60085191D01*
X185825000Y-60366116D02*
X186979442Y-61520558D01*
X174475000Y-59625000D02*
X174475000Y-57025000D01*
X150100000Y-60000000D02*
X150100000Y-60100000D01*
X172000000Y-69000000D02*
X172000000Y-68821225D01*
X210412500Y-68937500D02*
X210412500Y-68309425D01*
X165912500Y-60412500D02*
X166500000Y-61000000D01*
X175912500Y-68587500D02*
X176000000Y-68500000D01*
X198621501Y-61621501D02*
X198883247Y-61621501D01*
%TO.N,Net-(JP1-A)*%
X194555000Y-86955000D02*
X194600000Y-87000000D01*
X188850000Y-88700000D02*
X188775000Y-88775000D01*
X188775000Y-88775000D02*
X188150000Y-89400000D01*
X194555000Y-86087500D02*
X194555000Y-86955000D01*
%TO.N,/LAST_COUNT_RESET*%
X176000000Y-98000000D02*
X166000000Y-98000000D01*
X132762500Y-92471814D02*
X132762500Y-93412500D01*
X184600000Y-89400000D02*
X176000000Y-98000000D01*
X158200000Y-90200000D02*
X135034314Y-90200000D01*
X135034314Y-90200000D02*
X132762500Y-92471814D01*
X166000000Y-98000000D02*
X158200000Y-90200000D01*
X186850000Y-89400000D02*
X184600000Y-89400000D01*
%TO.N,Net-(Q1-B)*%
X89375000Y-72937500D02*
X89375000Y-74925000D01*
X89375000Y-74925000D02*
X89450000Y-75000000D01*
D35*
%TO.N,/K0*%
X97905000Y-79912500D02*
X97905000Y-80824999D01*
X97905000Y-78305000D02*
X97800000Y-78200000D01*
X114175000Y-84725000D02*
X114200000Y-84700000D01*
X91200000Y-75700000D02*
X91200000Y-75100000D01*
X91200000Y-75100000D02*
X91100000Y-75000000D01*
X114175000Y-86087500D02*
X114175000Y-84725000D01*
X97905000Y-80824999D02*
X98180001Y-81100000D01*
X97905000Y-79912500D02*
X97905000Y-78305000D01*
X98180001Y-81100000D02*
X101500000Y-81100000D01*
%TO.N,/K8*%
X105825000Y-66000000D02*
X105825000Y-66325000D01*
X91555000Y-86087500D02*
X91555000Y-85175001D01*
X105825000Y-66325000D02*
X106000000Y-66500000D01*
X95155001Y-81575000D02*
X101696752Y-81575000D01*
X91555000Y-85175001D02*
X95155001Y-81575000D01*
X101696752Y-81575000D02*
X105400000Y-77871752D01*
X105400000Y-77871752D02*
X105400000Y-77700000D01*
D34*
%TO.N,Net-(Q2-B)*%
X104150000Y-63937500D02*
X104150000Y-65975000D01*
X104150000Y-65975000D02*
X104175000Y-66000000D01*
D35*
%TO.N,/K16*%
X122000000Y-66000000D02*
X122000000Y-66500000D01*
X114201471Y-81850000D02*
X114451471Y-82100000D01*
X106555000Y-86087500D02*
X106555000Y-85175001D01*
X122000000Y-66500000D02*
X122100000Y-66600000D01*
X115000000Y-82100000D02*
X119500000Y-77600000D01*
X106555000Y-85175001D02*
X109880001Y-81850000D01*
X114451471Y-82100000D02*
X115000000Y-82100000D01*
X109880001Y-81850000D02*
X114201471Y-81850000D01*
D34*
%TO.N,Net-(Q3-B)*%
X120100000Y-65750000D02*
X120350000Y-66000000D01*
X120100000Y-64000000D02*
X120100000Y-65750000D01*
%TO.N,Net-(Q4-B)*%
X135825000Y-65650000D02*
X136175000Y-66000000D01*
X135825000Y-63937500D02*
X135825000Y-65650000D01*
D35*
%TO.N,/K24*%
X136000000Y-77300000D02*
X137600000Y-77300000D01*
X124530001Y-82200000D02*
X127400000Y-82200000D01*
X127400000Y-82200000D02*
X131300000Y-82200000D01*
X121555000Y-85175001D02*
X124530001Y-82200000D01*
X121555000Y-86087500D02*
X121555000Y-85175001D01*
X137800000Y-77100000D02*
X137800000Y-77000000D01*
X137825000Y-66225000D02*
X138200000Y-66600000D01*
X137600000Y-77300000D02*
X137800000Y-77100000D01*
X132900000Y-80400000D02*
X136000000Y-77300000D01*
X137825000Y-66000000D02*
X137825000Y-66225000D01*
X131300000Y-82200000D02*
X132900000Y-80600000D01*
X132900000Y-80600000D02*
X132900000Y-80400000D01*
D34*
%TO.N,Net-(Q5-B)*%
X152100000Y-65925000D02*
X152175000Y-66000000D01*
X152100000Y-64000000D02*
X152100000Y-65925000D01*
D35*
%TO.N,/K32*%
X137300000Y-82200000D02*
X145900000Y-82200000D01*
X151400000Y-76600000D02*
X154400000Y-76600000D01*
X145900000Y-82200000D02*
X147100000Y-81000000D01*
X150000000Y-78100000D02*
X150000000Y-78000000D01*
X147100000Y-81000000D02*
X150000000Y-78100000D01*
X153825000Y-66000000D02*
X153825000Y-66525000D01*
X135555000Y-83945000D02*
X137300000Y-82200000D01*
X150000000Y-78000000D02*
X151400000Y-76600000D01*
X135555000Y-86087500D02*
X135555000Y-83945000D01*
X153825000Y-66525000D02*
X154200000Y-66900000D01*
D34*
%TO.N,Net-(Q6-B)*%
X175912500Y-64000000D02*
X175912500Y-65650000D01*
X175912500Y-65650000D02*
X176262500Y-66000000D01*
D35*
%TO.N,/K40*%
X160300000Y-82300000D02*
X165700000Y-76900000D01*
X177600000Y-77200000D02*
X178400000Y-76400000D01*
X150555000Y-84545000D02*
X152800000Y-82300000D01*
X171300000Y-77200000D02*
X177600000Y-77200000D01*
X177912500Y-66000000D02*
X177912500Y-66112500D01*
X171000000Y-76900000D02*
X171300000Y-77200000D01*
X165700000Y-76900000D02*
X171000000Y-76900000D01*
X150555000Y-86087500D02*
X150555000Y-84545000D01*
X177912500Y-66112500D02*
X178400000Y-66600000D01*
X152800000Y-82300000D02*
X160300000Y-82300000D01*
D34*
%TO.N,Net-(Q7-B)*%
X192000000Y-65650000D02*
X192350000Y-66000000D01*
X192000000Y-64000000D02*
X192000000Y-65650000D01*
D35*
%TO.N,/K48*%
X170230001Y-81500000D02*
X175382842Y-81500000D01*
X193117158Y-75200000D02*
X193200000Y-75200000D01*
X183500000Y-77500000D02*
X183700000Y-77300000D01*
X179382842Y-77500000D02*
X183500000Y-77500000D01*
X193900000Y-66100000D02*
X194000000Y-66000000D01*
X193900000Y-66600000D02*
X193900000Y-66100000D01*
X166555000Y-85175001D02*
X170230001Y-81500000D01*
X175382842Y-81500000D02*
X179382842Y-77500000D01*
X191017158Y-77300000D02*
X193117158Y-75200000D01*
X166555000Y-86087500D02*
X166555000Y-85175001D01*
X183700000Y-77300000D02*
X191017158Y-77300000D01*
%TO.N,/K56*%
X199248528Y-77200000D02*
X205800000Y-77200000D01*
X181555000Y-85175001D02*
X185030001Y-81700000D01*
X205800000Y-77200000D02*
X206275000Y-76725000D01*
X194600000Y-77900000D02*
X198548528Y-77900000D01*
X206275000Y-75387500D02*
X205825000Y-74937500D01*
X181555000Y-86087500D02*
X181555000Y-85175001D01*
X190800000Y-81700000D02*
X194600000Y-77900000D01*
X185030001Y-81700000D02*
X190800000Y-81700000D01*
X198548528Y-77900000D02*
X199248528Y-77200000D01*
X206275000Y-76725000D02*
X206275000Y-75387500D01*
D34*
%TO.N,Net-(Q8-B)*%
X205050000Y-72937500D02*
X205050000Y-74062500D01*
X205050000Y-74062500D02*
X204175000Y-74937500D01*
%TO.N,/OUT_K0*%
X89362500Y-69000000D02*
X89362500Y-68362500D01*
X89362500Y-70100000D02*
X90325000Y-71062500D01*
X89362500Y-68362500D02*
X89000000Y-68000000D01*
X89362500Y-69000000D02*
X89362500Y-70100000D01*
%TO.N,/OUT_K8*%
X104187500Y-61150000D02*
X105100000Y-62062500D01*
X104187500Y-60000000D02*
X104187500Y-59166007D01*
X104187500Y-59166007D02*
X104008395Y-58986902D01*
X104187500Y-60000000D02*
X104187500Y-61150000D01*
%TO.N,/OUT_K16*%
X120275000Y-60000000D02*
X120275000Y-61350000D01*
X120275000Y-59482478D02*
X119792522Y-59000000D01*
X120275000Y-61350000D02*
X121050000Y-62125000D01*
X120275000Y-60000000D02*
X120275000Y-59482478D01*
%TO.N,/OUT_K24*%
X135950000Y-59023159D02*
X136652683Y-58320476D01*
X135950000Y-60000000D02*
X135950000Y-59023159D01*
X135950000Y-61237500D02*
X136775000Y-62062500D01*
X135950000Y-60000000D02*
X135950000Y-61237500D01*
%TO.N,/OUT_K32*%
X153820153Y-58175000D02*
X153371384Y-58175000D01*
X153371384Y-58175000D02*
X152225000Y-59321384D01*
X152225000Y-59321384D02*
X152225000Y-60125000D01*
X152225000Y-61300000D02*
X153050000Y-62125000D01*
X152225000Y-60125000D02*
X152225000Y-61300000D01*
%TO.N,/OUT_K40*%
X176087500Y-59074738D02*
X176328196Y-58834042D01*
X176087500Y-60000000D02*
X176087500Y-61350000D01*
X176087500Y-60000000D02*
X176087500Y-59074738D01*
X176087500Y-61350000D02*
X176862500Y-62125000D01*
%TO.N,/OUT_K48*%
X192175000Y-59030464D02*
X192899696Y-58305768D01*
X192175000Y-61350000D02*
X192950000Y-62125000D01*
X192175000Y-60000000D02*
X192175000Y-59030464D01*
X192175000Y-60000000D02*
X192175000Y-61350000D01*
%TO.N,/OUT_K56*%
X205087500Y-69000000D02*
X205087500Y-68446130D01*
X205087500Y-68446130D02*
X205700000Y-67833630D01*
X206000000Y-71062500D02*
X205087500Y-70150000D01*
X205087500Y-70150000D02*
X205087500Y-69000000D01*
%TO.N,Net-(Q9-B)*%
X93325000Y-72937500D02*
X93325000Y-74875000D01*
X93325000Y-74875000D02*
X93450000Y-75000000D01*
D35*
%TO.N,/K1*%
X99175000Y-79912500D02*
X99175000Y-77975000D01*
X95400000Y-75300000D02*
X95100000Y-75000000D01*
X95800000Y-75300000D02*
X95400000Y-75300000D01*
X99175000Y-77975000D02*
X98800000Y-77600000D01*
%TO.N,/K9*%
X114175000Y-78975000D02*
X113400000Y-78200000D01*
X110925000Y-75100000D02*
X110825000Y-75000000D01*
X111600000Y-75100000D02*
X110925000Y-75100000D01*
X114175000Y-79912500D02*
X114175000Y-78975000D01*
D34*
%TO.N,Net-(Q10-B)*%
X109150000Y-72937500D02*
X109150000Y-74975000D01*
X109150000Y-74975000D02*
X109175000Y-75000000D01*
D35*
%TO.N,/K17*%
X127700000Y-75000000D02*
X127800000Y-75100000D01*
X129175000Y-78875000D02*
X129100000Y-78800000D01*
X129175000Y-79912500D02*
X129175000Y-78875000D01*
X126825000Y-75000000D02*
X127700000Y-75000000D01*
D34*
%TO.N,Net-(Q11-B)*%
X125200000Y-73000000D02*
X125200000Y-74975000D01*
X125200000Y-74975000D02*
X125175000Y-75000000D01*
D35*
%TO.N,/K25*%
X143175000Y-79912500D02*
X143175000Y-78725000D01*
X143000000Y-75600000D02*
X143200000Y-75800000D01*
X143000000Y-75000000D02*
X143000000Y-75600000D01*
X143175000Y-78725000D02*
X143200000Y-78700000D01*
D34*
%TO.N,Net-(Q12-B)*%
X141350000Y-75000000D02*
X141350000Y-73137500D01*
X141350000Y-73137500D02*
X141150000Y-72937500D01*
%TO.N,Net-(Q13-B)*%
X156100000Y-65750000D02*
X156350000Y-66000000D01*
X156100000Y-64000000D02*
X156100000Y-65750000D01*
D35*
%TO.N,/K33*%
X158175000Y-79912500D02*
X158175000Y-78625000D01*
X158175000Y-78625000D02*
X158200000Y-78600000D01*
X158000000Y-66300000D02*
X158300000Y-66600000D01*
X158000000Y-66000000D02*
X158000000Y-66300000D01*
D34*
%TO.N,Net-(Q14-B)*%
X177825000Y-72926519D02*
X177825000Y-74676519D01*
X177825000Y-74676519D02*
X178075000Y-74926519D01*
D35*
%TO.N,/K41*%
X180300000Y-75000000D02*
X179798481Y-75000000D01*
X174175000Y-79000001D02*
X174675001Y-78500000D01*
X174675001Y-78500000D02*
X177200000Y-78500000D01*
X179798481Y-75000000D02*
X179725000Y-74926519D01*
X174175000Y-79912500D02*
X174175000Y-79000001D01*
%TO.N,/K49*%
X189175000Y-79000001D02*
X189350001Y-78825000D01*
X191249657Y-78825000D02*
X192974657Y-77100000D01*
X189350001Y-78825000D02*
X191249657Y-78825000D01*
X192974657Y-77100000D02*
X195700000Y-77100000D01*
X195900000Y-75000000D02*
X195900000Y-75700000D01*
X189175000Y-79912500D02*
X189175000Y-79000001D01*
X195700000Y-77100000D02*
X195900000Y-77300000D01*
D34*
%TO.N,Net-(Q15-B)*%
X194000000Y-74750000D02*
X194250000Y-75000000D01*
X194000000Y-73000000D02*
X194000000Y-74750000D01*
D35*
%TO.N,/K57*%
X214628984Y-66000000D02*
X214753984Y-66125000D01*
X213900000Y-66000000D02*
X214628984Y-66000000D01*
X204900000Y-79000000D02*
X208700000Y-79000000D01*
X202175000Y-79912500D02*
X202175000Y-80824999D01*
X204000000Y-79900000D02*
X204900000Y-79000000D01*
X203800000Y-81000000D02*
X204000000Y-80800000D01*
X202350001Y-81000000D02*
X203800000Y-81000000D01*
X208700000Y-79000000D02*
X210500000Y-77200000D01*
X202175000Y-80824999D02*
X202350001Y-81000000D01*
X204000000Y-80800000D02*
X204000000Y-79900000D01*
D34*
%TO.N,Net-(Q16-B)*%
X212250000Y-64250000D02*
X212000000Y-64000000D01*
X212250000Y-66000000D02*
X212250000Y-64250000D01*
%TO.N,/OUT_K1*%
X93275000Y-68275000D02*
X93000000Y-68000000D01*
X93275000Y-69000000D02*
X93275000Y-70062500D01*
X93275000Y-70062500D02*
X94275000Y-71062500D01*
X93275000Y-69000000D02*
X93275000Y-68275000D01*
%TO.N,/OUT_K9*%
X109187500Y-68187500D02*
X109000000Y-68000000D01*
X109187500Y-69000000D02*
X109187500Y-68187500D01*
X109187500Y-70150000D02*
X110100000Y-71062500D01*
X109187500Y-69000000D02*
X109187500Y-70150000D01*
%TO.N,/OUT_K17*%
X125187500Y-69000000D02*
X125187500Y-68187500D01*
X125187500Y-70162500D02*
X126150000Y-71125000D01*
X125187500Y-68187500D02*
X125000000Y-68000000D01*
X125187500Y-69000000D02*
X125187500Y-70162500D01*
%TO.N,/OUT_K25*%
X141367130Y-70329630D02*
X142100000Y-71062500D01*
X141187500Y-69000000D02*
X141187500Y-69863931D01*
X141367130Y-70043561D02*
X141367130Y-70329630D01*
X141187500Y-69863931D02*
X141367130Y-70043561D01*
%TO.N,/OUT_K33*%
X156275000Y-60000000D02*
X156275000Y-61350000D01*
X156275000Y-60000000D02*
X156275000Y-59196384D01*
X156275000Y-61350000D02*
X157050000Y-62125000D01*
X156275000Y-59196384D02*
X157373604Y-58097780D01*
X157373604Y-58097780D02*
X157453455Y-58097780D01*
%TO.N,/OUT_K41*%
X178775000Y-71051519D02*
X178000000Y-70276519D01*
X178000000Y-68073480D02*
X178171658Y-67901822D01*
X178000000Y-70276519D02*
X178000000Y-68926519D01*
X178000000Y-68926519D02*
X178000000Y-68073480D01*
%TO.N,/OUT_K49*%
X194175000Y-70350000D02*
X194175000Y-69000000D01*
X194175000Y-69000000D02*
X194175000Y-68257357D01*
X194175000Y-68257357D02*
X194597356Y-67835001D01*
X194950000Y-71125000D02*
X194175000Y-70350000D01*
%TO.N,/OUT_K57*%
X212087500Y-60000000D02*
X212087500Y-61500703D01*
X212087500Y-61500703D02*
X212171225Y-61584428D01*
X212950000Y-62125000D02*
X212409428Y-61584428D01*
X212409428Y-61584428D02*
X212171225Y-61584428D01*
%TO.N,Net-(Q17-B)*%
X92175000Y-66000000D02*
X92175000Y-64087500D01*
X92175000Y-64087500D02*
X92325000Y-63937500D01*
D35*
%TO.N,/K2*%
X96635000Y-79912500D02*
X96635000Y-77665000D01*
X93825000Y-66325000D02*
X94000000Y-66500000D01*
X96635000Y-77665000D02*
X96700000Y-77600000D01*
X93825000Y-66000000D02*
X93825000Y-66325000D01*
%TO.N,/K10*%
X109825000Y-66000000D02*
X109825000Y-66325000D01*
X109825000Y-66325000D02*
X110000000Y-66500000D01*
X111635000Y-79912500D02*
X112000000Y-79547500D01*
X112000000Y-79547500D02*
X112000000Y-78500000D01*
D34*
%TO.N,Net-(Q18-B)*%
X108150000Y-63937500D02*
X108150000Y-65975000D01*
X108150000Y-65975000D02*
X108175000Y-66000000D01*
D35*
%TO.N,/K18*%
X126635000Y-79912500D02*
X126635000Y-78965000D01*
X125825000Y-66000000D02*
X125825000Y-66325000D01*
X125825000Y-66325000D02*
X126000000Y-66500000D01*
X126635000Y-78965000D02*
X126800000Y-78800000D01*
D34*
%TO.N,Net-(Q19-B)*%
X124200000Y-65975000D02*
X124175000Y-66000000D01*
X124200000Y-64000000D02*
X124200000Y-65975000D01*
D35*
%TO.N,/K26*%
X141650000Y-66000000D02*
X141650000Y-66750000D01*
X140635000Y-78965000D02*
X141400000Y-78200000D01*
X140635000Y-79912500D02*
X140635000Y-78965000D01*
X141650000Y-66750000D02*
X141800000Y-66900000D01*
D34*
%TO.N,Net-(Q20-B)*%
X140150000Y-65750000D02*
X140150000Y-63937500D01*
X140000000Y-65900000D02*
X140150000Y-65750000D01*
X140000000Y-66000000D02*
X140000000Y-65900000D01*
%TO.N,Net-(Q21-B)*%
X160050000Y-63937500D02*
X160050000Y-65700000D01*
X160050000Y-65700000D02*
X160350000Y-66000000D01*
D35*
%TO.N,/K34*%
X162000000Y-66000000D02*
X162000000Y-66400000D01*
X155700000Y-77000000D02*
X158700004Y-77000000D01*
X155635000Y-77065000D02*
X155700000Y-77000000D01*
X155635000Y-79912500D02*
X155635000Y-77065000D01*
X162000000Y-66400000D02*
X162014124Y-66414124D01*
%TO.N,/K42*%
X171635000Y-79912500D02*
X171635000Y-78565000D01*
X182400000Y-76700000D02*
X182600000Y-76900000D01*
X172200000Y-78000000D02*
X178282842Y-78000000D01*
X182175000Y-66000000D02*
X182175000Y-66575000D01*
X182175000Y-66575000D02*
X182300000Y-66700000D01*
X178282842Y-78000000D02*
X179582842Y-76700000D01*
X171635000Y-78565000D02*
X172200000Y-78000000D01*
X179582842Y-76700000D02*
X182400000Y-76700000D01*
D34*
%TO.N,Net-(Q22-B)*%
X180100000Y-65575000D02*
X180525000Y-66000000D01*
X180100000Y-64000000D02*
X180100000Y-65575000D01*
D35*
%TO.N,/K50*%
X186635000Y-78565000D02*
X187100000Y-78100000D01*
X198000000Y-66000000D02*
X198000000Y-66300000D01*
X198300000Y-76900000D02*
X198500000Y-77100000D01*
X187100000Y-78100000D02*
X191400000Y-78100000D01*
X191400000Y-78100000D02*
X192600000Y-76900000D01*
X198000000Y-66300000D02*
X198300000Y-66600000D01*
X186635000Y-79912500D02*
X186635000Y-78565000D01*
X192600000Y-76900000D02*
X198300000Y-76900000D01*
D34*
%TO.N,Net-(Q23-B)*%
X196100000Y-64000000D02*
X196100000Y-65750000D01*
X196100000Y-65750000D02*
X196350000Y-66000000D01*
D35*
%TO.N,/K58*%
X208900000Y-77200000D02*
X207500000Y-78600000D01*
X200035001Y-78600000D02*
X199635000Y-79000001D01*
X207500000Y-78600000D02*
X200035001Y-78600000D01*
X208825000Y-74937500D02*
X208900000Y-75012500D01*
X199635000Y-79000001D02*
X199635000Y-79912500D01*
X208900000Y-75012500D02*
X208900000Y-77200000D01*
D34*
%TO.N,Net-(Q24-B)*%
X208550000Y-72937500D02*
X207175000Y-74312500D01*
X207175000Y-74312500D02*
X207175000Y-74937500D01*
%TO.N,/OUT_K2*%
X92000000Y-61087499D02*
X92975001Y-62062500D01*
X92000000Y-60000000D02*
X91167978Y-59167978D01*
X92000000Y-60000000D02*
X92000000Y-61087499D01*
X92975001Y-62062500D02*
X93275000Y-62062500D01*
X91167978Y-59167978D02*
X90778711Y-59167978D01*
%TO.N,/OUT_K10*%
X108187500Y-61150000D02*
X108187500Y-60000000D01*
X109100000Y-62062500D02*
X108187500Y-61150000D01*
X108187500Y-60000000D02*
X108187500Y-58522371D01*
X108187500Y-58522371D02*
X108150000Y-58484871D01*
%TO.N,/OUT_K18*%
X124275000Y-60000000D02*
X124275000Y-61250000D01*
X124275000Y-61250000D02*
X125150000Y-62125000D01*
X124275000Y-60000000D02*
X124275000Y-59275000D01*
X124275000Y-59275000D02*
X124000000Y-59000000D01*
%TO.N,/OUT_K26*%
X140187500Y-60000000D02*
X140187500Y-61150000D01*
X140187500Y-61150000D02*
X141100000Y-62062500D01*
X140187500Y-59196384D02*
X141390934Y-57992950D01*
X140187500Y-60000000D02*
X140187500Y-59196384D01*
X141390934Y-57992950D02*
X141416240Y-57992950D01*
%TO.N,/OUT_K34*%
X161000000Y-62062500D02*
X160175000Y-61237500D01*
X160175000Y-61237500D02*
X160175000Y-60000000D01*
X160175000Y-60000000D02*
X160175000Y-59121514D01*
X160175000Y-59121514D02*
X160366349Y-58930165D01*
%TO.N,/OUT_K42*%
X180087500Y-61162500D02*
X181050000Y-62125000D01*
X180087500Y-60000000D02*
X180087500Y-61162500D01*
X180087500Y-60000000D02*
X180087500Y-59087500D01*
X180087500Y-59087500D02*
X180175000Y-59000000D01*
%TO.N,/OUT_K50*%
X196000000Y-59196384D02*
X197196384Y-58000000D01*
X197196384Y-58000000D02*
X199000000Y-58000000D01*
X196000000Y-60000000D02*
X196000000Y-59196384D01*
X196000000Y-61075000D02*
X197050000Y-62125000D01*
X196000000Y-60000000D02*
X196000000Y-61075000D01*
%TO.N,/OUT_K58*%
X208587500Y-68937500D02*
X208587500Y-68412500D01*
X208587500Y-70150000D02*
X208587500Y-68937500D01*
X209500000Y-71062500D02*
X208587500Y-70150000D01*
X208587500Y-68412500D02*
X208800000Y-68200000D01*
D35*
%TO.N,/K3*%
X96100001Y-75725000D02*
X92825000Y-79000001D01*
X98275000Y-75725000D02*
X96100001Y-75725000D01*
X92825000Y-79912500D02*
X92825000Y-79425000D01*
X92825000Y-79425000D02*
X92800000Y-79400000D01*
X92825000Y-79000001D02*
X92825000Y-79912500D01*
X99000000Y-75000000D02*
X98275000Y-75725000D01*
D34*
%TO.N,Net-(Q25-B)*%
X97200000Y-74850000D02*
X97350000Y-75000000D01*
X97200000Y-73000000D02*
X97200000Y-74850000D01*
%TO.N,Net-(Q26-B)*%
X113200000Y-73000000D02*
X113200000Y-74850000D01*
X113200000Y-74850000D02*
X113350000Y-75000000D01*
D35*
%TO.N,/K11*%
X115000000Y-75700000D02*
X115000000Y-75000000D01*
X107825000Y-79000001D02*
X110425001Y-76400000D01*
X110425001Y-76400000D02*
X114300000Y-76400000D01*
X114300000Y-76400000D02*
X115000000Y-75700000D01*
X107825000Y-79912500D02*
X107825000Y-79000001D01*
%TO.N,/K19*%
X122825000Y-79912500D02*
X122825000Y-79000001D01*
X129300000Y-76700000D02*
X131000000Y-75000000D01*
X125125001Y-76700000D02*
X129300000Y-76700000D01*
X122825000Y-79000001D02*
X125125001Y-76700000D01*
D34*
%TO.N,Net-(Q27-B)*%
X129150000Y-74800000D02*
X129350000Y-75000000D01*
X129150000Y-72937500D02*
X129150000Y-74800000D01*
%TO.N,Net-(Q28-B)*%
X145200000Y-73000000D02*
X145200000Y-74850000D01*
X145200000Y-74850000D02*
X145350000Y-75000000D01*
D35*
%TO.N,/K27*%
X146200000Y-76800000D02*
X147000000Y-76000000D01*
X139025001Y-76800000D02*
X146200000Y-76800000D01*
X147000000Y-76000000D02*
X147000000Y-75000000D01*
X136825000Y-79912500D02*
X136825000Y-79000001D01*
X136825000Y-79000001D02*
X139025001Y-76800000D01*
D34*
%TO.N,Net-(Q29-B)*%
X164350000Y-64300000D02*
X164050000Y-64000000D01*
X164350000Y-66000000D02*
X164350000Y-64300000D01*
D35*
%TO.N,/K35*%
X155648556Y-76000000D02*
X155648556Y-71051444D01*
X152149999Y-79498557D02*
X155648556Y-76000000D01*
X152149999Y-79587501D02*
X152149999Y-79498557D01*
X155648556Y-71051444D02*
X159400000Y-67300000D01*
X164700000Y-67300000D02*
X166000000Y-66000000D01*
X151825000Y-79912500D02*
X152149999Y-79587501D01*
X159400000Y-67300000D02*
X164700000Y-67300000D01*
D34*
%TO.N,Net-(Q30-B)*%
X182075000Y-75000000D02*
X182075000Y-72962500D01*
X182075000Y-72962500D02*
X182050000Y-72937500D01*
D35*
%TO.N,/K43*%
X169100000Y-77700000D02*
X171500000Y-77700000D01*
X171800000Y-77400000D02*
X177965686Y-77400000D01*
X171500000Y-77700000D02*
X171800000Y-77400000D01*
X167825000Y-78975000D02*
X169100000Y-77700000D01*
X182725000Y-76000000D02*
X183725000Y-75000000D01*
X179365686Y-76000000D02*
X182725000Y-76000000D01*
X177965686Y-77400000D02*
X179365686Y-76000000D01*
X167825000Y-79912500D02*
X167825000Y-78975000D01*
%TO.N,/K51*%
X184100000Y-77500000D02*
X191100000Y-77500000D01*
X182825000Y-78775000D02*
X184100000Y-77500000D01*
X192500000Y-76100000D02*
X198450000Y-76100000D01*
X182825000Y-79912500D02*
X182825000Y-78775000D01*
X198450000Y-76100000D02*
X199550000Y-75000000D01*
X191100000Y-77500000D02*
X192500000Y-76100000D01*
D34*
%TO.N,Net-(Q31-B)*%
X198050000Y-73000000D02*
X198050000Y-74850000D01*
X198050000Y-74850000D02*
X197900000Y-75000000D01*
D35*
%TO.N,/K59*%
X218450000Y-66000000D02*
X217900000Y-66000000D01*
X198782843Y-78300000D02*
X196525001Y-78300000D01*
X199082842Y-78000000D02*
X199082842Y-78000001D01*
X195825000Y-79000001D02*
X195825000Y-79912500D01*
X207200000Y-77700000D02*
X207200000Y-78000000D01*
X219100000Y-69300000D02*
X219100000Y-66650000D01*
X199082842Y-78000001D02*
X198782843Y-78300000D01*
X207200000Y-78000000D02*
X199082842Y-78000000D01*
X219100000Y-66650000D02*
X218450000Y-66000000D01*
X196525001Y-78300000D02*
X195825000Y-79000001D01*
D34*
%TO.N,Net-(Q32-B)*%
X216250000Y-64137500D02*
X216050000Y-63937500D01*
X216250000Y-66000000D02*
X216250000Y-64137500D01*
%TO.N,/OUT_K3*%
X97237500Y-68237500D02*
X97000000Y-68000000D01*
X97237500Y-70212500D02*
X98150000Y-71125000D01*
X97237500Y-69062500D02*
X97237500Y-68237500D01*
X97237500Y-69062500D02*
X97237500Y-70212500D01*
%TO.N,/OUT_K11*%
X113187500Y-70162500D02*
X114150000Y-71125000D01*
X113187500Y-69000000D02*
X113187500Y-70162500D01*
X113187500Y-69000000D02*
X113187500Y-68187500D01*
X113187500Y-68187500D02*
X113000000Y-68000000D01*
%TO.N,/OUT_K19*%
X130100000Y-70776431D02*
X129367130Y-70043561D01*
X129187500Y-69000000D02*
X129187500Y-69863931D01*
X129187500Y-69863931D02*
X129367130Y-70043561D01*
X130100000Y-71062500D02*
X130100000Y-70776431D01*
%TO.N,/OUT_K27*%
X145367130Y-70043561D02*
X145367130Y-70342130D01*
X145187500Y-69000000D02*
X145187500Y-69863931D01*
X145187500Y-69863931D02*
X145367130Y-70043561D01*
X145367130Y-70342130D02*
X146150000Y-71125000D01*
%TO.N,/OUT_K35*%
X164087500Y-60125000D02*
X164087500Y-59587500D01*
X164087500Y-61212500D02*
X165000000Y-62125000D01*
X164087500Y-59587500D02*
X164000000Y-59500000D01*
X164087500Y-60125000D02*
X164087500Y-61212500D01*
%TO.N,/OUT_K43*%
X182087500Y-68124769D02*
X182276113Y-67936156D01*
X183000000Y-71062500D02*
X182087500Y-70150000D01*
X182087500Y-69000000D02*
X182087500Y-68124769D01*
X182087500Y-70150000D02*
X182087500Y-69000000D01*
%TO.N,/OUT_K51*%
X198175000Y-69000000D02*
X198175000Y-68146961D01*
X198175000Y-68146961D02*
X198346658Y-67975303D01*
X198175000Y-70300000D02*
X198175000Y-69000000D01*
X199000000Y-71125000D02*
X198175000Y-70300000D01*
%TO.N,/OUT_K59*%
X216087500Y-61371928D02*
X216300000Y-61584428D01*
X216521928Y-61584428D02*
X216300000Y-61584428D01*
X217000000Y-62062500D02*
X216521928Y-61584428D01*
X216087500Y-60000000D02*
X216087500Y-61371928D01*
D35*
%TO.N,/K4*%
X97825000Y-66000000D02*
X97825000Y-66325000D01*
X97825000Y-66325000D02*
X98000000Y-66500000D01*
X92825000Y-85175001D02*
X95700001Y-82300000D01*
X92825000Y-86087500D02*
X92825000Y-85175001D01*
X95700001Y-82300000D02*
X99600000Y-82300000D01*
D34*
%TO.N,Net-(Q33-B)*%
X96150000Y-65975000D02*
X96175000Y-66000000D01*
X96150000Y-63937500D02*
X96150000Y-65975000D01*
%TO.N,Net-(Q34-B)*%
X112150000Y-65975000D02*
X112175000Y-66000000D01*
X112150000Y-63937500D02*
X112150000Y-65975000D01*
D35*
%TO.N,/K12*%
X113825000Y-66000000D02*
X113825000Y-66325000D01*
X107825000Y-86087500D02*
X107825000Y-85175001D01*
X107825000Y-85175001D02*
X110740457Y-82259544D01*
X110740457Y-82259544D02*
X113800000Y-82259544D01*
X113825000Y-66325000D02*
X114000000Y-66500000D01*
%TO.N,/K20*%
X122825000Y-85175001D02*
X125100001Y-82900000D01*
X130000000Y-66200000D02*
X130500000Y-66700000D01*
X122825000Y-86087500D02*
X122825000Y-85175001D01*
X130000000Y-66000000D02*
X130000000Y-66200000D01*
X125100001Y-82900000D02*
X130100000Y-82900000D01*
D34*
%TO.N,Net-(Q35-B)*%
X128350000Y-66000000D02*
X128350000Y-64250000D01*
X128350000Y-64250000D02*
X128100000Y-64000000D01*
D35*
%TO.N,/K28*%
X138700000Y-82900000D02*
X145900000Y-82900000D01*
X136825000Y-86087500D02*
X136825000Y-84775000D01*
X136825000Y-84775000D02*
X138700000Y-82900000D01*
X145725000Y-66425000D02*
X146000000Y-66700000D01*
X145725000Y-66000000D02*
X145725000Y-66425000D01*
D34*
%TO.N,Net-(Q36-B)*%
X144075000Y-64012500D02*
X144150000Y-63937500D01*
X144075000Y-66000000D02*
X144075000Y-64012500D01*
D35*
%TO.N,/K36*%
X151825000Y-83675000D02*
X152900000Y-82600000D01*
X165800000Y-77100000D02*
X170100000Y-77100000D01*
X169825000Y-66725000D02*
X170000000Y-66900000D01*
X152900000Y-82600000D02*
X160300000Y-82600000D01*
X151825000Y-86087500D02*
X151825000Y-83675000D01*
X160300000Y-82600000D02*
X164000000Y-78900000D01*
X170100000Y-77100000D02*
X170300000Y-77300000D01*
X169825000Y-66000000D02*
X169825000Y-66725000D01*
X164000000Y-78900000D02*
X165800000Y-77100000D01*
D34*
%TO.N,Net-(Q37-B)*%
X168000000Y-64000000D02*
X168000000Y-65825000D01*
X168000000Y-65825000D02*
X168175000Y-66000000D01*
%TO.N,Net-(Q38-B)*%
X184000000Y-64000000D02*
X184000000Y-65650000D01*
X184000000Y-65650000D02*
X184350000Y-66000000D01*
D35*
%TO.N,/K44*%
X167825000Y-84187843D02*
X169756422Y-82256421D01*
X179400000Y-77800000D02*
X182500000Y-77800000D01*
X170312843Y-81700000D02*
X175300000Y-81700000D01*
X182600000Y-77900000D02*
X182800000Y-77900000D01*
X169756422Y-82256421D02*
X170312843Y-81700000D01*
X175500000Y-81700000D02*
X176100000Y-81100000D01*
X182500000Y-77800000D02*
X182600000Y-77900000D01*
X176100000Y-81100000D02*
X179400000Y-77800000D01*
X186000000Y-66000000D02*
X186000000Y-66400000D01*
X175300000Y-81700000D02*
X175500000Y-81700000D01*
X186000000Y-66400000D02*
X186300000Y-66700000D01*
X167825000Y-86087500D02*
X167825000Y-84187843D01*
%TO.N,/K52*%
X198700000Y-78100000D02*
X194700000Y-78100000D01*
X201900000Y-77400000D02*
X199400000Y-77400000D01*
X201400000Y-66600000D02*
X202000000Y-66000000D01*
X202100000Y-77600000D02*
X201900000Y-77400000D01*
X185382842Y-81900000D02*
X182825000Y-84457842D01*
X190900000Y-81900000D02*
X185382842Y-81900000D01*
X201300000Y-66600000D02*
X201400000Y-66600000D01*
X199400000Y-77400000D02*
X198700000Y-78100000D01*
X194700000Y-78100000D02*
X190900000Y-81900000D01*
X182825000Y-84457842D02*
X182825000Y-86087500D01*
D34*
%TO.N,Net-(Q39-B)*%
X200350000Y-66000000D02*
X200350000Y-64350000D01*
X200350000Y-64350000D02*
X200000000Y-64000000D01*
%TO.N,Net-(Q40-B)*%
X212050000Y-72937500D02*
X210175000Y-74812500D01*
X210175000Y-74812500D02*
X210175000Y-74937500D01*
D35*
%TO.N,/K60*%
X211825000Y-74937500D02*
X211825000Y-76475000D01*
X195825000Y-84575000D02*
X195825000Y-86087500D01*
X209100000Y-79200000D02*
X204982842Y-79200000D01*
X203800000Y-81300000D02*
X199100000Y-81300000D01*
X204982842Y-79200000D02*
X204200000Y-79982842D01*
X211825000Y-76475000D02*
X209100000Y-79200000D01*
X199100000Y-81300000D02*
X195825000Y-84575000D01*
X204200000Y-79982842D02*
X204200000Y-80900000D01*
X204200000Y-80900000D02*
X203800000Y-81300000D01*
D34*
%TO.N,/OUT_K4*%
X96187500Y-59730478D02*
X95625000Y-59167978D01*
X96187500Y-60000000D02*
X96187500Y-59730478D01*
X96187500Y-60000000D02*
X96187500Y-61150000D01*
X96187500Y-61150000D02*
X97100000Y-62062500D01*
%TO.N,/OUT_K12*%
X112100000Y-59394895D02*
X111655033Y-58949928D01*
X112100000Y-61062500D02*
X113100000Y-62062500D01*
X112100000Y-60000000D02*
X112100000Y-59394895D01*
X112100000Y-60000000D02*
X112100000Y-61062500D01*
%TO.N,/OUT_K20*%
X128275000Y-60000000D02*
X128275000Y-61350000D01*
X128275000Y-60000000D02*
X128275000Y-58347691D01*
X128275000Y-58347691D02*
X128033578Y-58106269D01*
X128275000Y-61350000D02*
X129050000Y-62125000D01*
%TO.N,/OUT_K28*%
X144187500Y-61150000D02*
X145100000Y-62062500D01*
X144187500Y-60000000D02*
X144187500Y-61150000D01*
X144187500Y-58903310D02*
X145045405Y-58045405D01*
X144187500Y-60000000D02*
X144187500Y-58903310D01*
%TO.N,/OUT_K36*%
X168175000Y-59175000D02*
X168000000Y-59000000D01*
X168175000Y-61350000D02*
X168950000Y-62125000D01*
X168175000Y-60000000D02*
X168175000Y-59175000D01*
X168175000Y-60000000D02*
X168175000Y-61350000D01*
%TO.N,/OUT_K44*%
X184000000Y-60000000D02*
X184000000Y-59159017D01*
X184000000Y-61175000D02*
X184950000Y-62125000D01*
X184000000Y-59159017D02*
X184163524Y-58995493D01*
X184000000Y-60000000D02*
X184000000Y-61175000D01*
%TO.N,/OUT_K52*%
X200087500Y-61262500D02*
X200950000Y-62125000D01*
X200087500Y-60000000D02*
X200087500Y-59196384D01*
X200087500Y-60000000D02*
X200087500Y-61262500D01*
X201150962Y-58132922D02*
X202680421Y-58132922D01*
X200087500Y-59196384D02*
X201150962Y-58132922D01*
%TO.N,/OUT_K60*%
X212087500Y-70150000D02*
X212087500Y-68937500D01*
X213000000Y-71062500D02*
X212087500Y-70150000D01*
X212087500Y-68498666D02*
X212376925Y-68209241D01*
X212087500Y-68937500D02*
X212087500Y-68498666D01*
D35*
%TO.N,/K5*%
X100445000Y-79912500D02*
X100445000Y-77755000D01*
X102800000Y-75025000D02*
X102825000Y-75000000D01*
X102800000Y-75800000D02*
X102800000Y-75025000D01*
X100445000Y-77755000D02*
X100600000Y-77600000D01*
D34*
%TO.N,Net-(Q41-B)*%
X101150000Y-72937500D02*
X101150000Y-74975000D01*
X101150000Y-74975000D02*
X101175000Y-75000000D01*
D35*
%TO.N,/K13*%
X115445000Y-79912500D02*
X116257500Y-79100000D01*
X118700000Y-75125000D02*
X118825000Y-75000000D01*
X116257500Y-79100000D02*
X116300000Y-79100000D01*
X118700000Y-75800000D02*
X118700000Y-75125000D01*
D34*
%TO.N,Net-(Q42-B)*%
X117200000Y-73000000D02*
X117200000Y-74975000D01*
X117200000Y-74975000D02*
X117175000Y-75000000D01*
D35*
%TO.N,/K21*%
X130445000Y-79912500D02*
X131857500Y-78500000D01*
X131857500Y-78500000D02*
X134000000Y-78500000D01*
X134800000Y-75700000D02*
X134800000Y-75025000D01*
X134800000Y-75025000D02*
X134825000Y-75000000D01*
X134800000Y-77700000D02*
X134800000Y-77600000D01*
X134000000Y-78500000D02*
X134800000Y-77700000D01*
D34*
%TO.N,Net-(Q43-B)*%
X133150000Y-74975000D02*
X133175000Y-75000000D01*
X133150000Y-72937500D02*
X133150000Y-74975000D01*
D35*
%TO.N,/K29*%
X146157500Y-78200000D02*
X149000000Y-78200000D01*
X151000000Y-75000000D02*
X151000000Y-75900000D01*
X144445000Y-79912500D02*
X146157500Y-78200000D01*
D34*
%TO.N,Net-(Q44-B)*%
X149200000Y-73000000D02*
X149200000Y-74850000D01*
X149200000Y-74850000D02*
X149350000Y-75000000D01*
%TO.N,Net-(Q45-B)*%
X170100000Y-73000000D02*
X170100000Y-74750000D01*
X170100000Y-74750000D02*
X170350000Y-75000000D01*
D35*
%TO.N,/K37*%
X162404658Y-79912500D02*
X165617158Y-76700000D01*
X171500000Y-75500000D02*
X172000000Y-75000000D01*
X159445000Y-79912500D02*
X162404658Y-79912500D01*
X171600000Y-76700000D02*
X171700000Y-76800000D01*
X165617158Y-76700000D02*
X171600000Y-76700000D01*
X171500000Y-75700000D02*
X171500000Y-75500000D01*
%TO.N,/K45*%
X183000000Y-77300000D02*
X183600000Y-76700000D01*
X176687500Y-79912500D02*
X179300000Y-77300000D01*
X187900000Y-76700000D02*
X188100000Y-76900000D01*
X183600000Y-76700000D02*
X187900000Y-76700000D01*
X175445000Y-79912500D02*
X176687500Y-79912500D01*
X179300000Y-77300000D02*
X183000000Y-77300000D01*
X187900000Y-75600000D02*
X187900000Y-75000000D01*
D34*
%TO.N,Net-(Q46-B)*%
X186050000Y-74800000D02*
X186250000Y-75000000D01*
X186050000Y-72937500D02*
X186050000Y-74800000D01*
%TO.N,Net-(Q47-B)*%
X204250000Y-64137500D02*
X204050000Y-63937500D01*
X204250000Y-66000000D02*
X204250000Y-64137500D01*
D35*
%TO.N,/K53*%
X198465686Y-77700000D02*
X199165686Y-77000000D01*
X193057500Y-77300000D02*
X194900000Y-77300000D01*
X199165686Y-77000000D02*
X204925000Y-77000000D01*
X204925000Y-77000000D02*
X205500000Y-76425000D01*
X190445000Y-79912500D02*
X193057500Y-77300000D01*
X205700000Y-66200000D02*
X205900000Y-66000000D01*
X194900000Y-77300000D02*
X195300000Y-77700000D01*
X195300000Y-77700000D02*
X198465686Y-77700000D01*
X205400000Y-66200000D02*
X205700000Y-66200000D01*
%TO.N,/K61*%
X221725000Y-66000000D02*
X221725000Y-66575000D01*
X208517158Y-77900000D02*
X207617158Y-78800000D01*
X207617158Y-78800000D02*
X204557500Y-78800000D01*
X210300000Y-76600000D02*
X209000000Y-77900000D01*
X209000000Y-77900000D02*
X208517158Y-77900000D01*
X211300000Y-76300000D02*
X211000000Y-76600000D01*
X204557500Y-78800000D02*
X203445000Y-79912500D01*
X221725000Y-66575000D02*
X221500000Y-66800000D01*
X211000000Y-76600000D02*
X210300000Y-76600000D01*
D34*
%TO.N,Net-(Q48-B)*%
X220075000Y-63900000D02*
X220050000Y-63875000D01*
X220075000Y-66000000D02*
X220075000Y-63900000D01*
%TO.N,/OUT_K5*%
X101187500Y-69000000D02*
X101187500Y-68187500D01*
X101187500Y-70150000D02*
X102100000Y-71062500D01*
X101187500Y-68187500D02*
X101000000Y-68000000D01*
X101187500Y-69000000D02*
X101187500Y-70150000D01*
%TO.N,/OUT_K13*%
X117275000Y-70250000D02*
X118150000Y-71125000D01*
X117275000Y-68275000D02*
X117000000Y-68000000D01*
X117275000Y-69000000D02*
X117275000Y-68275000D01*
X117275000Y-69000000D02*
X117275000Y-70250000D01*
%TO.N,/OUT_K21*%
X133444585Y-70019648D02*
X133444585Y-70407085D01*
X133275000Y-69850063D02*
X133444585Y-70019648D01*
X133444585Y-70407085D02*
X134100000Y-71062500D01*
X133275000Y-69000000D02*
X133275000Y-69850063D01*
%TO.N,/OUT_K29*%
X149275000Y-69850063D02*
X149444585Y-70019648D01*
X149444585Y-70019648D02*
X149444585Y-70419585D01*
X149275000Y-69000000D02*
X149275000Y-69850063D01*
X149444585Y-70419585D02*
X150150000Y-71125000D01*
%TO.N,/OUT_K37*%
X170175000Y-69000000D02*
X170175000Y-68175000D01*
X171050000Y-71125000D02*
X170175000Y-70250000D01*
X170175000Y-68175000D02*
X170000000Y-68000000D01*
X170175000Y-70250000D02*
X170175000Y-69000000D01*
%TO.N,/OUT_K45*%
X187000000Y-71062500D02*
X186087500Y-70150000D01*
X186087500Y-69000000D02*
X186087500Y-68124769D01*
X186087500Y-70150000D02*
X186087500Y-69000000D01*
X186087500Y-68124769D02*
X186276113Y-67936156D01*
%TO.N,/OUT_K53*%
X204087500Y-60000000D02*
X204087500Y-59196384D01*
X204087500Y-60000000D02*
X204087500Y-61150000D01*
X205233884Y-58050000D02*
X206184252Y-58050000D01*
X204087500Y-59196384D02*
X205233884Y-58050000D01*
X204087500Y-61150000D02*
X205000000Y-62062500D01*
%TO.N,/OUT_K61*%
X220891942Y-61608058D02*
X221000000Y-61716116D01*
X221000000Y-61879340D02*
X220820325Y-61699665D01*
X221000000Y-62000000D02*
X220087500Y-61087500D01*
X220087500Y-61087500D02*
X220087500Y-60000000D01*
X221000000Y-62000000D02*
X221000000Y-61879340D01*
X221000000Y-61716116D02*
X221000000Y-62000000D01*
%TO.N,Net-(Q49-B)*%
X100150000Y-63937500D02*
X100150000Y-65800000D01*
X100150000Y-65800000D02*
X100350000Y-66000000D01*
D35*
%TO.N,/K6*%
X96300000Y-77000000D02*
X101700000Y-77000000D01*
X101700000Y-77000000D02*
X101800000Y-77100000D01*
X95365000Y-79912500D02*
X95365000Y-77935000D01*
X102000000Y-66000000D02*
X102000000Y-66500000D01*
X95365000Y-77935000D02*
X96300000Y-77000000D01*
D34*
%TO.N,Net-(Q50-B)*%
X116150000Y-65800000D02*
X116350000Y-66000000D01*
X116150000Y-63937500D02*
X116150000Y-65800000D01*
D35*
%TO.N,/K14*%
X110365000Y-79912500D02*
X110365000Y-78835000D01*
X110365000Y-78835000D02*
X111500000Y-77700000D01*
X118000000Y-66000000D02*
X118000000Y-66500000D01*
X118000000Y-77700000D02*
X118100000Y-77600000D01*
X111500000Y-77700000D02*
X118000000Y-77700000D01*
%TO.N,/K22*%
X125365000Y-79000001D02*
X126665001Y-77700000D01*
X125365000Y-79912500D02*
X125365000Y-79000001D01*
X134000000Y-66000000D02*
X134000000Y-66700000D01*
X126665001Y-77700000D02*
X133900000Y-77700000D01*
D34*
%TO.N,Net-(Q51-B)*%
X132350000Y-66000000D02*
X132350000Y-64150000D01*
X132350000Y-64150000D02*
X132200000Y-64000000D01*
%TO.N,Net-(Q52-B)*%
X148100000Y-64000000D02*
X148100000Y-65750000D01*
X148100000Y-65750000D02*
X148350000Y-66000000D01*
D35*
%TO.N,/K30*%
X150000000Y-66300000D02*
X150300000Y-66600000D01*
X148000000Y-77400000D02*
X148200000Y-77600000D01*
X150000000Y-66000000D02*
X150000000Y-66300000D01*
X139365000Y-79000001D02*
X140965001Y-77400000D01*
X139365000Y-79912500D02*
X139365000Y-79000001D01*
X148200000Y-77600000D02*
X148400000Y-77600000D01*
X140965001Y-77400000D02*
X148000000Y-77400000D01*
%TO.N,/K38*%
X154365000Y-79912500D02*
X154365000Y-77935000D01*
X172500000Y-76400000D02*
X172900000Y-76800000D01*
X174000000Y-66800000D02*
X173900000Y-66900000D01*
X154365000Y-77935000D02*
X155900000Y-76400000D01*
X155900000Y-76400000D02*
X172500000Y-76400000D01*
X174000000Y-66000000D02*
X174000000Y-66800000D01*
D34*
%TO.N,Net-(Q53-B)*%
X172100000Y-65750000D02*
X172350000Y-66000000D01*
X172100000Y-64000000D02*
X172100000Y-65750000D01*
%TO.N,Net-(Q54-B)*%
X188100000Y-65750000D02*
X188350000Y-66000000D01*
X188100000Y-64000000D02*
X188100000Y-65750000D01*
D35*
%TO.N,/K54*%
X185365000Y-78735000D02*
X186200000Y-77900000D01*
X185365000Y-79912500D02*
X185365000Y-78735000D01*
X192500000Y-76700000D02*
X203693826Y-76700000D01*
X186200000Y-77900000D02*
X191300000Y-77900000D01*
X203693826Y-76700000D02*
X203968826Y-76425000D01*
X191300000Y-77900000D02*
X192500000Y-76700000D01*
D34*
%TO.N,Net-(Q55-B)*%
X201175000Y-73312500D02*
X201550000Y-72937500D01*
X201175000Y-74937500D02*
X201175000Y-73312500D01*
%TO.N,Net-(Q56-B)*%
X215550000Y-72962500D02*
X215550000Y-72037500D01*
X213175000Y-74937500D02*
X213575000Y-74937500D01*
X213575000Y-74937500D02*
X215550000Y-72962500D01*
D35*
%TO.N,/K62*%
X208300000Y-77500000D02*
X207400000Y-78400000D01*
X198700000Y-79577500D02*
X198365000Y-79912500D01*
X199300000Y-78400000D02*
X198700000Y-79000000D01*
X214262500Y-75500000D02*
X214825000Y-74937500D01*
X208300000Y-77200000D02*
X208300000Y-77500000D01*
X207400000Y-78400000D02*
X199300000Y-78400000D01*
X214200000Y-75500000D02*
X214262500Y-75500000D01*
X198700000Y-79000000D02*
X198700000Y-79577500D01*
D34*
%TO.N,/OUT_K6*%
X100187500Y-60000000D02*
X100187500Y-61150000D01*
X100187500Y-59591781D02*
X99941561Y-59345842D01*
X100187500Y-61150000D02*
X101100000Y-62062500D01*
X100187500Y-60000000D02*
X100187500Y-59591781D01*
%TO.N,/OUT_K14*%
X116275000Y-60000000D02*
X116275000Y-59670524D01*
X116275000Y-59670524D02*
X115577326Y-58972850D01*
X116275000Y-61237500D02*
X117100000Y-62062500D01*
X116275000Y-60000000D02*
X116275000Y-61237500D01*
%TO.N,/OUT_K22*%
X132187500Y-60000000D02*
X132187500Y-61162500D01*
X132187500Y-60000000D02*
X132187500Y-58812500D01*
X132187500Y-58812500D02*
X132500000Y-58500000D01*
X132187500Y-61162500D02*
X133150000Y-62125000D01*
%TO.N,/OUT_K30*%
X149050000Y-62125000D02*
X148275000Y-61350000D01*
X148275000Y-60000000D02*
X148275000Y-59134190D01*
X148275000Y-61350000D02*
X148275000Y-60000000D01*
X148275000Y-59134190D02*
X148405185Y-59004005D01*
%TO.N,/OUT_K38*%
X172275000Y-61350000D02*
X173050000Y-62125000D01*
X172275000Y-59146961D02*
X172446658Y-58975303D01*
X172275000Y-60000000D02*
X172275000Y-59146961D01*
X172275000Y-60000000D02*
X172275000Y-61350000D01*
%TO.N,/OUT_K46*%
X188087500Y-60000000D02*
X188087500Y-59562255D01*
X188087500Y-60000000D02*
X188087500Y-61162500D01*
X188087500Y-59562255D02*
X188150267Y-59499488D01*
X188087500Y-61162500D02*
X189050000Y-62125000D01*
%TO.N,/OUT_K54*%
X202500000Y-71062500D02*
X201587500Y-70150000D01*
X201587500Y-70150000D02*
X201587500Y-69000000D01*
X201587500Y-69000000D02*
X201587500Y-67812500D01*
X201587500Y-67812500D02*
X201600000Y-67800000D01*
%TO.N,/OUT_K62*%
X215587500Y-69250000D02*
X215587500Y-68100000D01*
X215868750Y-69531250D02*
X215587500Y-69250000D01*
X216500000Y-70162500D02*
X215868750Y-69531250D01*
D35*
%TO.N,/K7*%
X106291938Y-75000000D02*
X106825000Y-75000000D01*
X94095000Y-79912500D02*
X94095000Y-78405000D01*
X104691938Y-76600000D02*
X106291938Y-75000000D01*
X95900000Y-76600000D02*
X104691938Y-76600000D01*
X94095000Y-78405000D02*
X95900000Y-76600000D01*
D34*
%TO.N,Net-(Q57-B)*%
X105150000Y-72937500D02*
X105150000Y-74975000D01*
X105150000Y-74975000D02*
X105175000Y-75000000D01*
%TO.N,Net-(Q58-B)*%
X121100000Y-74750000D02*
X121350000Y-75000000D01*
X121100000Y-73000000D02*
X121100000Y-74750000D01*
D35*
%TO.N,/K15*%
X111095001Y-77000000D02*
X121000000Y-77000000D01*
X109095000Y-79912500D02*
X109095000Y-79000001D01*
X121000000Y-77000000D02*
X123000000Y-75000000D01*
X109095000Y-79000001D02*
X111095001Y-77000000D01*
%TO.N,/K23*%
X124095000Y-78805000D02*
X125800000Y-77100000D01*
X125800000Y-77100000D02*
X136725000Y-77100000D01*
X124095000Y-79912500D02*
X124095000Y-78805000D01*
X136725000Y-77100000D02*
X138825000Y-75000000D01*
D34*
%TO.N,Net-(Q59-B)*%
X137100000Y-73000000D02*
X137100000Y-74925000D01*
X137100000Y-74925000D02*
X137175000Y-75000000D01*
D35*
%TO.N,/K31*%
X138095000Y-79000001D02*
X140095001Y-77000000D01*
X153600000Y-76400000D02*
X155000000Y-75000000D01*
X138095000Y-79912500D02*
X138095000Y-79000001D01*
X140095001Y-77000000D02*
X150717157Y-77000000D01*
X151317157Y-76400000D02*
X153600000Y-76400000D01*
X150717157Y-77000000D02*
X151317157Y-76400000D01*
D34*
%TO.N,Net-(Q60-B)*%
X153100000Y-73000000D02*
X153100000Y-74750000D01*
X153100000Y-74750000D02*
X153350000Y-75000000D01*
D35*
%TO.N,/K39*%
X155817157Y-76200000D02*
X174525000Y-76200000D01*
X153095000Y-79912500D02*
X153095000Y-78922157D01*
X153095000Y-78922157D02*
X155817157Y-76200000D01*
X174525000Y-76200000D02*
X175725000Y-75000000D01*
D34*
%TO.N,Net-(Q61-B)*%
X174000000Y-73000000D02*
X174000000Y-74925000D01*
X174000000Y-74925000D02*
X174075000Y-75000000D01*
%TO.N,Net-(Q62-B)*%
X190050000Y-72937500D02*
X190050000Y-74800000D01*
X190050000Y-74800000D02*
X190250000Y-75000000D01*
D35*
%TO.N,/K47*%
X169700000Y-77900000D02*
X171600000Y-77900000D01*
X171900000Y-77600000D02*
X178100000Y-77600000D01*
X178100000Y-77600000D02*
X179400000Y-76300000D01*
X169095000Y-78505000D02*
X169700000Y-77900000D01*
X179400000Y-76300000D02*
X190600000Y-76300000D01*
X169095000Y-79912500D02*
X169095000Y-78505000D01*
X190600000Y-76300000D02*
X191900000Y-75000000D01*
X171600000Y-77900000D02*
X171900000Y-77600000D01*
%TO.N,/K55*%
X205600000Y-76000000D02*
X205700000Y-75900000D01*
X184600000Y-77700000D02*
X191200000Y-77700000D01*
X203306066Y-76428248D02*
X203734314Y-76000000D01*
X184095000Y-79912500D02*
X184095000Y-78205000D01*
X203734314Y-76000000D02*
X204800000Y-76000000D01*
X191200000Y-77700000D02*
X192471752Y-76428248D01*
X209900000Y-66000000D02*
X209300000Y-66000000D01*
X184095000Y-78205000D02*
X184600000Y-77700000D01*
X204800000Y-76000000D02*
X205600000Y-76000000D01*
X192471752Y-76428248D02*
X203306066Y-76428248D01*
D34*
%TO.N,Net-(Q63-B)*%
X208250000Y-64150000D02*
X208100000Y-64000000D01*
X208250000Y-66000000D02*
X208250000Y-64150000D01*
%TO.N,Net-(Q64-B)*%
X224000000Y-64000000D02*
X224000000Y-65300000D01*
X224000000Y-65300000D02*
X221325000Y-67975000D01*
X221325000Y-67975000D02*
X221325000Y-68000000D01*
D35*
%TO.N,/K63*%
X197095000Y-79605000D02*
X197095000Y-79912500D01*
X219600000Y-68900000D02*
X219600000Y-68075000D01*
X207300000Y-78200000D02*
X207300000Y-78182843D01*
X219600000Y-68075000D02*
X219675000Y-68000000D01*
X199200000Y-78200000D02*
X207300000Y-78200000D01*
X207700000Y-77782843D02*
X207700000Y-77500000D01*
X199200000Y-78200000D02*
X198900000Y-78500000D01*
X198900000Y-78500000D02*
X198200000Y-78500000D01*
X198200000Y-78500000D02*
X197095000Y-79605000D01*
X207300000Y-78182843D02*
X207700000Y-77782843D01*
D34*
%TO.N,/OUT_K7*%
X105187500Y-70150000D02*
X106100000Y-71062500D01*
X105187500Y-69000000D02*
X105187500Y-68187500D01*
X105187500Y-69000000D02*
X105187500Y-70150000D01*
X105187500Y-68187500D02*
X105000000Y-68000000D01*
%TO.N,/OUT_K15*%
X121100000Y-70175000D02*
X122050000Y-71125000D01*
X121100000Y-68294475D02*
X120731901Y-67926376D01*
X121100000Y-69000000D02*
X121100000Y-70175000D01*
X121100000Y-69000000D02*
X121100000Y-68294475D01*
%TO.N,/OUT_K23*%
X137275000Y-69850063D02*
X137444585Y-70019648D01*
X137444585Y-70019648D02*
X137444585Y-70519585D01*
X137275000Y-69000000D02*
X137275000Y-69850063D01*
X137444585Y-70519585D02*
X138050000Y-71125000D01*
%TO.N,/OUT_K31*%
X153367130Y-70442130D02*
X154050000Y-71125000D01*
X153367130Y-70043561D02*
X153367130Y-70442130D01*
X153187500Y-69000000D02*
X153187500Y-69863931D01*
X153187500Y-69863931D02*
X153367130Y-70043561D01*
%TO.N,/OUT_K39*%
X174276113Y-68811387D02*
X174087500Y-69000000D01*
X174087500Y-68124769D02*
X174276113Y-67936156D01*
X174276113Y-67936156D02*
X174276113Y-68811387D01*
X174950000Y-71125000D02*
X174087500Y-70262500D01*
X174087500Y-70262500D02*
X174087500Y-69000000D01*
%TO.N,/OUT_K55*%
X209050000Y-62050000D02*
X208500000Y-61500000D01*
X209050000Y-62125000D02*
X209050000Y-62050000D01*
X208087500Y-60000000D02*
X208087500Y-61087500D01*
X208087500Y-61087500D02*
X208500000Y-61500000D01*
%TO.N,/OUT_K63*%
X224087500Y-60000000D02*
X224087500Y-59196384D01*
X224087500Y-59196384D02*
X227383884Y-55900000D01*
X234600000Y-55900000D02*
X236000000Y-54500000D01*
X236000000Y-54500000D02*
X236000000Y-53600000D01*
X224950000Y-62125000D02*
X224087500Y-61262500D01*
X224087500Y-61262500D02*
X224087500Y-60000000D01*
X227383884Y-55900000D02*
X234600000Y-55900000D01*
%TO.N,Net-(U11-Cout)*%
X198365000Y-86865000D02*
X198400000Y-86900000D01*
X198365000Y-86087500D02*
X198365000Y-86865000D01*
%TO.N,Net-(U2-Reset)*%
X99175000Y-86999999D02*
X100375001Y-88200000D01*
X129325000Y-93200000D02*
X128700000Y-93200000D01*
X112968628Y-88200000D02*
X118368628Y-93600000D01*
X118368628Y-93600000D02*
X121000000Y-93600000D01*
X121000000Y-93600000D02*
X126900000Y-93600000D01*
X131812500Y-95687500D02*
X129325000Y-93200000D01*
X100375001Y-88200000D02*
X112968628Y-88200000D01*
X99175000Y-86087500D02*
X99175000Y-86999999D01*
X126900000Y-93600000D02*
X127400000Y-93100000D01*
%TO.N,Net-(U2-CKEN)*%
X96635000Y-86999999D02*
X98735001Y-89100000D01*
X118685000Y-95285000D02*
X121190000Y-95285000D01*
X98735001Y-89100000D02*
X112500000Y-89100000D01*
X94095000Y-85105000D02*
X94900000Y-84300000D01*
X94095000Y-86087500D02*
X94095000Y-85105000D01*
X96635000Y-85175001D02*
X96635000Y-86087500D01*
X112500000Y-89100000D02*
X118685000Y-95285000D01*
X94900000Y-84300000D02*
X95759999Y-84300000D01*
X96635000Y-86087500D02*
X96635000Y-86999999D01*
X95759999Y-84300000D02*
X96635000Y-85175001D01*
%TO.N,Net-(U6-CKEN)*%
X126175000Y-84875000D02*
X126635000Y-85335000D01*
X124095000Y-85175001D02*
X124395001Y-84875000D01*
X124395001Y-84875000D02*
X126175000Y-84875000D01*
X124095000Y-86087500D02*
X124095000Y-85175001D01*
X123730000Y-90335000D02*
X123730000Y-86452500D01*
X126635000Y-85335000D02*
X126635000Y-86087500D01*
X123730000Y-86452500D02*
X124095000Y-86087500D01*
%TO.N,Net-(U8-CLK)*%
X127430001Y-88200000D02*
X155093576Y-88200000D01*
X126270000Y-90335000D02*
X126270000Y-89360001D01*
X155093576Y-88200000D02*
X156905000Y-86388576D01*
X126270000Y-89360001D02*
X127430001Y-88200000D01*
X156905000Y-86388576D02*
X156905000Y-86087500D01*
%TO.N,Net-(U5-CLK)*%
X112905000Y-86087500D02*
X112905000Y-87005000D01*
X123700000Y-94200000D02*
X123700000Y-95255000D01*
X122700000Y-92000000D02*
X123000000Y-91700000D01*
X123700000Y-95255000D02*
X123730000Y-95285000D01*
X117900000Y-92000000D02*
X122700000Y-92000000D01*
X112905000Y-87005000D02*
X117900000Y-92000000D01*
%TO.N,Net-(U7-CLK)*%
X140593576Y-87700000D02*
X141905000Y-86388576D01*
X125000000Y-89300000D02*
X126600000Y-87700000D01*
X126600000Y-87700000D02*
X140593576Y-87700000D01*
X141905000Y-86388576D02*
X141905000Y-86087500D01*
X125000000Y-90335000D02*
X125000000Y-89300000D01*
%TO.N,/CLK*%
X172640000Y-90325000D02*
X172640000Y-95275000D01*
X129410000Y-91290000D02*
X129410000Y-91350552D01*
X165400000Y-96700000D02*
X158500000Y-89800000D01*
X167560000Y-95275000D02*
X167560000Y-96340000D01*
X122460000Y-89609683D02*
X122519683Y-89550000D01*
X167560000Y-95620552D02*
X169339448Y-97400000D01*
X122460000Y-90335000D02*
X122460000Y-89609683D01*
X158500000Y-89800000D02*
X130900000Y-89800000D01*
X128050000Y-94775000D02*
X128050000Y-92710000D01*
X167560000Y-95275000D02*
X167560000Y-95620552D01*
X127540000Y-95285000D02*
X128050000Y-94775000D01*
X167200000Y-96700000D02*
X165400000Y-96700000D01*
X169339448Y-97400000D02*
X172600000Y-97400000D01*
X167560000Y-96340000D02*
X167200000Y-96700000D01*
X127540000Y-92200000D02*
X127540000Y-90335000D01*
X128560552Y-92200000D02*
X127540000Y-92200000D01*
X128050000Y-92710000D02*
X127540000Y-92200000D01*
X130900000Y-89800000D02*
X129410000Y-91290000D01*
X129410000Y-91350552D02*
X128560552Y-92200000D01*
%TO.N,Net-(U7-CKEN)*%
X138000000Y-88800000D02*
X138200000Y-89000000D01*
X130345000Y-88800000D02*
X134800000Y-88800000D01*
X134800000Y-88800000D02*
X138000000Y-88800000D01*
X138200000Y-85982500D02*
X138095000Y-86087500D01*
X138200000Y-84800000D02*
X138200000Y-85982500D01*
X140259999Y-84800000D02*
X138200000Y-84800000D01*
X140635000Y-85175001D02*
X140259999Y-84800000D01*
X140635000Y-86087500D02*
X140635000Y-85175001D01*
X128810000Y-90335000D02*
X130345000Y-88800000D01*
%TO.N,Net-(U5-CKEN)*%
X118434314Y-93100000D02*
X124900000Y-93100000D01*
X113134314Y-87800000D02*
X118434314Y-93100000D01*
X109095000Y-86087500D02*
X109095000Y-85175001D01*
X126270000Y-94260380D02*
X126259620Y-94250000D01*
X111635000Y-86087500D02*
X111635000Y-86999999D01*
X111635000Y-86999999D02*
X112435001Y-87800000D01*
X109395001Y-84875000D02*
X111475000Y-84875000D01*
X111475000Y-84875000D02*
X111635000Y-85035000D01*
X124900000Y-93100000D02*
X125700000Y-92300000D01*
X112435001Y-87800000D02*
X113134314Y-87800000D01*
X109095000Y-85175001D02*
X109395001Y-84875000D01*
X126270000Y-95285000D02*
X126270000Y-94260380D01*
X111635000Y-85035000D02*
X111635000Y-86087500D01*
%TO.N,Net-(U6-CLK)*%
X127905000Y-84995000D02*
X128000000Y-84900000D01*
X125100000Y-95385000D02*
X125000000Y-95285000D01*
X127905000Y-86087500D02*
X127905000Y-84995000D01*
X125100000Y-96500000D02*
X125100000Y-95385000D01*
%TO.N,Net-(U10-CLK)*%
X180389462Y-91444852D02*
X176355148Y-91444852D01*
X184334314Y-87500000D02*
X180389462Y-91444852D01*
X170400001Y-96550000D02*
X170100000Y-96249999D01*
X170100000Y-96249999D02*
X170100000Y-95275000D01*
X175600000Y-92200000D02*
X175600000Y-95300000D01*
X187905000Y-86087500D02*
X187905000Y-86999999D01*
X175600000Y-95300000D02*
X174350000Y-96550000D01*
X187905000Y-86999999D02*
X187404999Y-87500000D01*
X187404999Y-87500000D02*
X184334314Y-87500000D01*
X174350000Y-96550000D02*
X170400001Y-96550000D01*
X176355148Y-91444852D02*
X175600000Y-92200000D01*
%TO.N,Net-(U9-CKEN)*%
X170770000Y-89230000D02*
X171400000Y-88600000D01*
X169095000Y-85175001D02*
X169395001Y-84875000D01*
X171635000Y-85035000D02*
X171635000Y-86087500D01*
X169300000Y-87400000D02*
X169300000Y-86292500D01*
X169395001Y-84875000D02*
X171475000Y-84875000D01*
X169095000Y-86087500D02*
X169095000Y-85175001D01*
X169300000Y-86292500D02*
X169095000Y-86087500D01*
X171475000Y-84875000D02*
X171635000Y-85035000D01*
X171370000Y-95275000D02*
X170770000Y-94675000D01*
X170770000Y-94675000D02*
X170770000Y-89230000D01*
X171400000Y-88600000D02*
X171500000Y-88600000D01*
%TO.N,Net-(U10-CKEN)*%
X173910000Y-90325000D02*
X180875000Y-90325000D01*
X186635000Y-86087500D02*
X186635000Y-85175001D01*
X184095000Y-87105000D02*
X184095000Y-86087500D01*
X184095000Y-85175001D02*
X184095000Y-86087500D01*
X186259999Y-84800000D02*
X184470001Y-84800000D01*
X186635000Y-85175001D02*
X186259999Y-84800000D01*
X184470001Y-84800000D02*
X184095000Y-85175001D01*
X180875000Y-90325000D02*
X184095000Y-87105000D01*
%TO.N,Net-(U9-CLK)*%
X168830000Y-95275000D02*
X169430000Y-94675000D01*
X172905000Y-86388576D02*
X172905000Y-86087500D01*
X171993576Y-87300000D02*
X172905000Y-86388576D01*
X171500000Y-87300000D02*
X171993576Y-87300000D01*
X169430000Y-94675000D02*
X169430000Y-89370000D01*
X169430000Y-89370000D02*
X171500000Y-87300000D01*
%TO.N,Net-(U8-CKEN)*%
X155000000Y-88900000D02*
X157800000Y-88900000D01*
X166290000Y-95275000D02*
X164575000Y-95275000D01*
X153095000Y-86087500D02*
X153095000Y-85175001D01*
X153095000Y-86087500D02*
X153095000Y-86895000D01*
X155635000Y-85175001D02*
X155635000Y-86087500D01*
X153470001Y-84800000D02*
X155259999Y-84800000D01*
X164575000Y-95275000D02*
X158200000Y-88900000D01*
X155259999Y-84800000D02*
X155635000Y-85175001D01*
X153095000Y-85175001D02*
X153470001Y-84800000D01*
X153095000Y-86895000D02*
X153400000Y-87200000D01*
X158200000Y-88900000D02*
X157800000Y-88900000D01*
%TO.N,Net-(U11-CLK)*%
X200004999Y-87900000D02*
X184500000Y-87900000D01*
X200905000Y-86087500D02*
X200905000Y-86999999D01*
X184500000Y-87900000D02*
X180040380Y-92359620D01*
X200905000Y-86999999D02*
X200004999Y-87900000D01*
X180040380Y-92359620D02*
X176359620Y-92359620D01*
X171500000Y-90455000D02*
X171370000Y-90325000D01*
X171500000Y-91600000D02*
X171500000Y-90455000D01*
%TO.N,Net-(U5-Q0)*%
X125200000Y-84100000D02*
X128099999Y-84100000D01*
X128099999Y-84100000D02*
X129175000Y-85175001D01*
X112905000Y-80824999D02*
X113580001Y-81500000D01*
X113580001Y-81500000D02*
X114700000Y-81500000D01*
X112905000Y-79912500D02*
X112905000Y-80824999D01*
X129175000Y-85175001D02*
X129175000Y-86087500D01*
%TO.N,Net-(U6-Q0)*%
X141899999Y-83900000D02*
X143175000Y-85175001D01*
X128380001Y-81300000D02*
X130800000Y-81300000D01*
X140900000Y-83900000D02*
X141899999Y-83900000D01*
X127905000Y-80824999D02*
X128380001Y-81300000D01*
X127905000Y-79912500D02*
X127905000Y-80824999D01*
X143175000Y-85175001D02*
X143175000Y-86087500D01*
%TO.N,Net-(U7-Q0)*%
X141900000Y-81100000D02*
X141900000Y-79917500D01*
X141900000Y-79917500D02*
X141905000Y-79912500D01*
X158175000Y-86087500D02*
X158175000Y-84524456D01*
X158175000Y-84524456D02*
X158100544Y-84450000D01*
%TO.N,Net-(U8-Q0)*%
X156905000Y-79912500D02*
X156905000Y-80824999D01*
X157405001Y-81325000D02*
X158100000Y-81325000D01*
X174175000Y-86087500D02*
X174175000Y-84475000D01*
X174175000Y-84475000D02*
X174100000Y-84400000D01*
X156905000Y-80824999D02*
X157405001Y-81325000D01*
D35*
%TO.N,/K46*%
X191100000Y-76500000D02*
X191235876Y-76364124D01*
X179500000Y-76500000D02*
X191100000Y-76500000D01*
X178200000Y-77800000D02*
X179500000Y-76500000D01*
D34*
X190000000Y-66200000D02*
X190300000Y-66500000D01*
D35*
X170689999Y-79587501D02*
X170689999Y-79110001D01*
X172000000Y-77800000D02*
X178200000Y-77800000D01*
X170365000Y-79912500D02*
X170689999Y-79587501D01*
D34*
X190000000Y-66000000D02*
X190000000Y-66200000D01*
D35*
X170689999Y-79110001D02*
X172000000Y-77800000D01*
D34*
%TO.N,Net-(U10-Reset)*%
X187399999Y-83400000D02*
X185000000Y-83400000D01*
X172900000Y-79907500D02*
X172905000Y-79912500D01*
X172900000Y-78800000D02*
X172900000Y-79907500D01*
X189175000Y-85175001D02*
X187399999Y-83400000D01*
X189175000Y-86087500D02*
X189175000Y-85175001D01*
%TO.N,Net-(U10-Q0)*%
X202175000Y-85175001D02*
X199899999Y-82900000D01*
X202175000Y-86087500D02*
X202175000Y-85175001D01*
X199899999Y-82900000D02*
X198900000Y-82900000D01*
X187900000Y-79917500D02*
X187905000Y-79912500D01*
X187900000Y-81100000D02*
X187900000Y-79917500D01*
%TO.N,/OUT_K47*%
X191000000Y-71062500D02*
X190087500Y-70150000D01*
X190087500Y-69000000D02*
X190087500Y-68124769D01*
X190087500Y-70150000D02*
X190087500Y-69000000D01*
X190087500Y-68124769D02*
X190276113Y-67936156D01*
%TD*%
M02*
